<svg id="svg" version="1.1" width="400" height="377.8846153846154" xmlns="http://www.w3.org/2000/svg" xmlns:xlink="http://www.w3.org/1999/xlink" style="display: block;"><g id="svgg"><path id="path0" d="" stroke="none" fill="#000000" fill-rule="evenodd"></path><path id="path1" d="M193.711 246.314 C 193.712 248.393,193.775 249.196,193.852 248.097 C 193.929 246.998,193.928 245.297,193.850 244.316 C 193.773 243.336,193.710 244.234,193.711 246.314 " stroke="none" fill="#0055aa" fill-rule="evenodd"></path><path id="path2" d="M183.111 155.955 C 183.113 157.410,183.181 157.959,183.263 157.175 C 183.345 156.391,183.343 155.200,183.260 154.528 C 183.176 153.857,183.109 154.499,183.111 155.955 M294.659 297.732 C 294.660 300.019,294.723 300.906,294.798 299.703 C 294.873 298.499,294.872 296.628,294.796 295.544 C 294.720 294.460,294.659 295.444,294.659 297.732 " stroke="none" fill="#0000ff" fill-rule="evenodd"></path><path id="path3" d="M229.962 0.248 C 228.895 0.363,228.355 0.605,228.355 0.967 C 228.355 1.267,228.017 1.512,227.604 1.512 C 226.609 1.512,225.331 2.637,225.331 3.514 C 225.331 4.280,224.485 5.293,223.846 5.293 C 223.623 5.293,223.440 5.718,223.440 6.238 C 223.440 6.758,223.270 7.183,223.062 7.183 C 222.854 7.183,222.684 7.439,222.684 7.750 C 222.684 8.062,222.429 8.318,222.117 8.318 C 221.721 8.318,221.550 8.717,221.550 9.641 C 221.550 10.369,221.380 10.964,221.172 10.964 C 220.964 10.964,220.794 11.645,220.794 12.476 C 220.794 13.569,220.636 13.989,220.227 13.989 C 219.798 13.989,219.660 14.451,219.660 15.879 C 219.660 16.919,219.490 17.769,219.282 17.769 C 219.045 17.769,218.904 20.101,218.904 24.008 C 218.904 27.914,219.045 30.246,219.282 30.246 C 219.490 30.246,219.660 30.501,219.660 30.813 C 219.660 31.166,219.303 31.380,218.715 31.380 C 218.126 31.380,217.769 31.166,217.769 30.813 C 217.769 30.359,217.202 30.246,214.934 30.246 C 213.296 30.246,212.098 30.086,212.098 29.868 C 212.098 29.654,211.027 29.490,209.641 29.490 C 207.708 29.490,207.183 29.368,207.183 28.922 C 207.183 28.469,206.616 28.355,204.348 28.355 C 202.710 28.355,201.512 28.196,201.512 27.977 C 201.512 27.764,200.441 27.599,199.055 27.599 C 197.122 27.599,196.597 27.478,196.597 27.032 C 196.597 26.579,196.035 26.465,193.802 26.465 C 191.667 26.465,190.956 26.331,190.790 25.898 C 190.629 25.481,189.970 25.331,188.292 25.331 C 187.023 25.331,186.011 25.163,186.011 24.953 C 186.011 24.734,184.814 24.575,183.176 24.575 C 180.907 24.575,180.340 24.461,180.340 24.008 C 180.340 23.554,179.776 23.440,177.527 23.440 C 175.980 23.440,174.609 23.270,174.480 23.062 C 174.352 22.854,173.236 22.684,172.000 22.684 C 170.256 22.684,169.754 22.558,169.754 22.117 C 169.754 21.664,169.187 21.550,166.919 21.550 C 165.280 21.550,164.083 21.390,164.083 21.172 C 164.083 20.959,163.012 20.794,161.626 20.794 C 159.693 20.794,159.168 20.673,159.168 20.227 C 159.168 19.773,158.601 19.660,156.333 19.660 C 154.694 19.660,153.497 19.500,153.497 19.282 C 153.497 19.068,152.426 18.904,151.040 18.904 C 149.107 18.904,148.582 18.782,148.582 18.336 C 148.582 17.883,148.015 17.769,145.747 17.769 C 144.108 17.769,142.911 17.610,142.911 17.391 C 142.911 17.171,141.651 17.013,139.887 17.013 C 137.450 17.013,136.862 16.903,136.862 16.446 C 136.862 16.010,136.376 15.879,134.756 15.879 C 133.348 15.879,132.453 15.683,132.057 15.287 C 130.490 13.720,117.958 14.894,117.958 16.608 C 117.958 16.831,117.438 17.013,116.802 17.013 C 116.127 17.013,115.743 17.171,115.879 17.391 C 116.008 17.599,115.847 17.769,115.523 17.769 C 115.199 17.769,114.934 18.025,114.934 18.336 C 114.934 18.648,114.679 18.904,114.367 18.904 C 114.055 18.904,113.800 19.074,113.800 19.282 C 113.800 19.490,113.497 19.660,113.128 19.660 C 112.274 19.660,111.153 20.950,111.153 21.932 C 111.153 22.346,110.971 22.684,110.748 22.684 C 109.941 22.684,109.263 23.794,109.263 25.115 C 109.263 26.063,109.094 26.465,108.696 26.465 C 108.343 26.465,108.129 26.822,108.129 27.410 C 108.129 27.930,107.958 28.355,107.750 28.355 C 107.537 28.355,107.372 29.427,107.372 30.813 C 107.372 32.199,107.537 33.270,107.750 33.270 C 107.969 33.270,108.129 34.468,108.129 36.106 C 108.129 38.374,108.242 38.941,108.696 38.941 C 109.094 38.941,109.263 39.343,109.263 40.292 C 109.263 41.613,109.941 42.722,110.748 42.722 C 110.971 42.722,111.153 42.904,111.153 43.127 C 111.153 43.651,112.115 44.612,112.638 44.612 C 112.861 44.612,113.043 44.795,113.043 45.018 C 113.043 45.627,114.042 46.503,114.736 46.503 C 115.073 46.503,115.742 46.928,116.224 47.448 C 116.706 47.968,117.463 48.393,117.907 48.393 C 118.373 48.393,118.715 48.633,118.715 48.960 C 118.715 49.406,119.240 49.527,121.172 49.527 C 122.982 49.527,123.629 49.662,123.629 50.037 C 123.629 50.411,124.362 50.568,126.371 50.625 C 127.878 50.668,129.168 50.864,129.238 51.060 C 129.307 51.257,130.607 51.418,132.127 51.418 C 134.235 51.418,134.942 51.552,135.108 51.985 C 135.275 52.420,135.991 52.552,138.173 52.552 C 139.820 52.552,141.021 52.711,141.021 52.930 C 141.021 53.140,142.029 53.308,143.289 53.308 C 145.054 53.308,145.558 53.434,145.558 53.875 C 145.558 54.332,146.146 54.442,148.582 54.442 C 150.347 54.442,151.607 54.600,151.607 54.820 C 151.607 55.039,152.804 55.198,154.442 55.198 C 156.711 55.198,157.278 55.312,157.278 55.766 C 157.278 56.219,157.845 56.333,160.113 56.333 C 161.752 56.333,162.949 56.492,162.949 56.711 C 162.949 56.929,164.133 57.089,165.744 57.089 C 167.880 57.089,168.590 57.223,168.757 57.656 C 168.924 58.091,169.640 58.223,171.822 58.223 C 173.468 58.223,174.669 58.383,174.669 58.601 C 174.669 58.820,175.866 58.979,177.505 58.979 C 179.773 58.979,180.340 59.093,180.340 59.546 C 180.340 59.991,180.861 60.113,182.757 60.113 C 184.557 60.113,185.230 60.258,185.392 60.681 C 185.557 61.110,186.254 61.248,188.268 61.248 C 189.788 61.248,190.926 61.410,190.926 61.626 C 190.926 61.844,192.110 62.004,193.721 62.004 C 195.857 62.004,196.568 62.138,196.734 62.571 C 196.899 63.001,197.596 63.138,199.610 63.138 C 201.130 63.138,202.268 63.300,202.268 63.516 C 202.268 63.737,203.529 63.894,205.293 63.894 C 207.729 63.894,208.318 64.004,208.318 64.461 C 208.318 64.915,208.885 65.028,211.153 65.028 C 212.791 65.028,213.989 65.188,213.989 65.406 C 213.989 65.625,215.186 65.784,216.824 65.784 C 219.093 65.784,219.660 65.898,219.660 66.352 C 219.660 66.798,220.185 66.919,222.117 66.919 C 223.503 66.919,224.575 67.084,224.575 67.297 C 224.575 67.515,225.772 67.675,227.410 67.675 C 229.679 67.675,230.246 67.788,230.246 68.242 C 230.246 68.696,230.813 68.809,233.081 68.809 C 234.720 68.809,235.917 68.969,235.917 69.187 C 235.917 69.408,237.177 69.565,238.941 69.565 C 241.378 69.565,241.966 69.675,241.966 70.132 C 241.966 70.586,242.533 70.699,244.802 70.699 C 247.070 70.699,247.637 70.813,247.637 71.267 C 247.637 71.720,248.204 71.834,250.473 71.834 C 252.111 71.834,253.308 71.993,253.308 72.212 C 253.308 72.430,254.492 72.590,256.103 72.590 C 258.239 72.590,258.950 72.724,259.116 73.157 C 259.283 73.592,259.999 73.724,262.181 73.724 C 263.827 73.724,265.028 73.883,265.028 74.102 C 265.028 74.311,266.023 74.480,267.256 74.480 C 268.888 74.480,269.543 74.632,269.702 75.047 C 269.869 75.482,270.585 75.614,272.767 75.614 C 274.413 75.614,275.614 75.774,275.614 75.992 C 275.614 76.211,276.812 76.371,278.450 76.371 C 280.718 76.371,281.285 76.484,281.285 76.938 C 281.285 77.391,281.853 77.505,284.121 77.505 C 285.759 77.505,286.957 77.664,286.957 77.883 C 286.957 78.101,288.140 78.261,289.752 78.261 C 291.887 78.261,292.598 78.395,292.764 78.828 C 292.931 79.263,293.647 79.395,295.829 79.395 C 297.476 79.395,298.677 79.555,298.677 79.773 C 298.677 79.992,299.874 80.151,301.512 80.151 C 303.781 80.151,304.348 80.265,304.348 80.718 C 304.348 81.164,304.873 81.285,306.805 81.285 C 308.738 81.285,309.263 81.407,309.263 81.853 C 309.263 82.306,309.830 82.420,312.098 82.420 C 313.737 82.420,314.934 82.579,314.934 82.798 C 314.934 83.016,316.131 83.176,317.769 83.176 C 320.038 83.176,320.605 83.289,320.605 83.743 C 320.605 84.197,321.172 84.310,323.440 84.310 C 325.079 84.310,326.276 84.470,326.276 84.688 C 326.276 84.909,327.536 85.066,329.301 85.066 C 331.737 85.066,332.325 85.176,332.325 85.633 C 332.325 86.087,332.892 86.200,335.161 86.200 C 336.799 86.200,337.996 86.360,337.996 86.578 C 337.996 86.797,339.193 86.957,340.832 86.957 C 343.100 86.957,343.667 87.070,343.667 87.524 C 343.667 87.980,344.255 88.091,346.692 88.091 C 348.456 88.091,349.716 88.248,349.716 88.469 C 349.716 88.679,350.725 88.847,351.985 88.847 C 353.749 88.847,354.253 88.973,354.253 89.414 C 354.253 89.876,354.883 89.981,357.656 89.981 C 359.672 89.981,361.059 90.135,361.059 90.359 C 361.059 90.591,362.886 90.737,365.784 90.737 C 368.683 90.737,370.510 90.591,370.510 90.359 C 370.510 90.151,371.191 89.981,372.023 89.981 C 373.115 89.981,373.535 89.824,373.535 89.414 C 373.535 89.061,373.892 88.847,374.480 88.847 C 375.000 88.847,375.425 88.677,375.425 88.469 C 375.425 88.261,375.851 88.091,376.371 88.091 C 376.959 88.091,377.316 87.876,377.316 87.524 C 377.316 87.204,377.654 86.957,378.090 86.957 C 379.130 86.957,382.231 83.857,382.231 82.817 C 382.231 82.366,382.401 82.102,382.609 82.231 C 382.829 82.367,382.987 81.983,382.987 81.308 C 382.987 80.532,383.173 80.151,383.554 80.151 C 384.035 80.151,384.121 79.206,384.121 73.913 C 384.121 68.620,384.035 67.675,383.554 67.675 C 383.201 67.675,382.987 67.318,382.987 66.730 C 382.987 66.210,382.817 65.784,382.609 65.784 C 382.401 65.784,382.231 65.359,382.231 64.839 C 382.231 64.319,382.048 63.894,381.826 63.894 C 381.302 63.894,380.340 62.932,380.340 62.409 C 380.340 62.186,380.085 62.004,379.773 62.004 C 379.420 62.004,379.206 61.647,379.206 61.059 C 379.206 60.302,379.017 60.113,378.261 60.113 C 377.741 60.113,377.316 59.943,377.316 59.735 C 377.316 59.527,376.890 59.357,376.371 59.357 C 375.782 59.357,375.425 59.143,375.425 58.790 C 375.425 58.437,375.068 58.223,374.480 58.223 C 373.892 58.223,373.535 58.009,373.535 57.656 C 373.535 57.202,372.968 57.089,370.699 57.089 C 369.061 57.089,367.864 56.929,367.864 56.711 C 367.864 56.490,366.604 56.333,364.839 56.333 C 362.621 56.333,361.840 56.207,361.909 55.860 C 361.977 55.522,361.171 55.356,359.074 55.277 C 357.462 55.216,356.144 55.004,356.144 54.805 C 356.144 54.605,355.118 54.442,353.863 54.442 C 352.185 54.442,351.526 54.293,351.365 53.875 C 351.199 53.442,350.489 53.308,348.353 53.308 C 346.741 53.308,345.558 53.148,345.558 52.930 C 345.558 52.712,344.360 52.552,342.722 52.552 C 340.454 52.552,339.887 52.439,339.887 51.985 C 339.887 51.531,339.319 51.418,337.051 51.418 C 335.413 51.418,334.216 51.258,334.216 51.040 C 334.216 50.819,332.955 50.662,331.191 50.662 C 328.973 50.662,328.192 50.536,328.261 50.189 C 328.329 49.851,327.522 49.685,325.425 49.606 C 323.814 49.545,322.495 49.333,322.495 49.133 C 322.495 48.934,321.469 48.771,320.215 48.771 C 318.537 48.771,317.877 48.622,317.717 48.204 C 317.551 47.772,316.845 47.637,314.745 47.637 C 312.645 47.637,311.938 47.502,311.773 47.070 C 311.608 46.640,310.911 46.503,308.897 46.503 C 307.376 46.503,306.238 46.341,306.238 46.125 C 306.238 45.906,305.041 45.747,303.403 45.747 C 301.134 45.747,300.567 45.633,300.567 45.180 C 300.567 44.723,299.979 44.612,297.543 44.612 C 295.778 44.612,294.518 44.455,294.518 44.234 C 294.518 44.025,293.523 43.856,292.290 43.856 C 290.658 43.856,290.004 43.705,289.844 43.289 C 289.678 42.855,288.962 42.722,286.779 42.722 C 285.133 42.722,283.932 42.563,283.932 42.344 C 283.932 42.134,282.924 41.966,281.664 41.966 C 279.560 41.966,279.396 41.904,279.407 41.115 C 279.421 40.140,280.219 38.941,280.855 38.941 C 281.105 38.941,281.285 38.309,281.285 37.429 C 281.285 36.597,281.456 35.917,281.664 35.917 C 281.871 35.917,282.042 35.066,282.042 34.026 C 282.042 32.598,282.180 32.136,282.609 32.136 C 283.096 32.136,283.176 30.939,283.176 23.629 C 283.176 16.320,283.096 15.123,282.609 15.123 C 282.199 15.123,282.042 14.703,282.042 13.611 C 282.042 12.779,281.871 12.098,281.664 12.098 C 281.456 12.098,281.285 11.843,281.285 11.531 C 281.285 11.219,281.103 10.964,280.880 10.964 C 280.213 10.964,279.395 9.938,279.395 9.101 C 279.395 8.517,279.154 8.318,278.450 8.318 C 277.862 8.318,277.505 8.103,277.505 7.750 C 277.505 7.439,277.250 7.183,276.938 7.183 C 276.626 7.183,276.371 7.013,276.371 6.805 C 276.371 6.597,275.945 6.427,275.425 6.427 C 274.837 6.427,274.480 6.213,274.480 5.860 C 274.480 5.539,274.141 5.293,273.697 5.293 C 273.266 5.293,272.659 5.038,272.347 4.726 C 271.982 4.361,271.047 4.159,269.727 4.159 C 268.598 4.159,267.675 3.989,267.675 3.781 C 267.675 3.563,266.491 3.403,264.880 3.403 C 262.744 3.403,262.033 3.269,261.867 2.836 C 261.702 2.406,261.005 2.268,258.991 2.268 C 257.471 2.268,256.333 2.107,256.333 1.890 C 256.333 1.672,255.142 1.512,253.516 1.512 C 251.366 1.512,250.622 1.374,250.372 0.927 C 250.038 0.332,234.101 -0.198,229.962 0.248 M111.290 55.766 C 111.170 56.078,110.835 56.333,110.546 56.333 C 110.196 56.333,110.019 56.777,110.019 57.656 C 110.019 58.580,110.190 58.979,110.586 58.979 C 111.019 58.979,111.153 59.455,111.153 60.995 C 111.153 62.758,111.272 63.074,112.098 63.516 C 112.954 63.974,113.043 64.249,113.043 66.415 C 113.043 67.759,113.209 68.809,113.422 68.809 C 113.629 68.809,113.800 69.580,113.800 70.522 C 113.800 71.696,113.978 72.304,114.367 72.453 C 114.764 72.605,114.934 73.225,114.934 74.521 C 114.934 75.538,115.104 76.371,115.312 76.371 C 115.522 76.371,115.690 77.383,115.690 78.651 C 115.690 80.329,115.840 80.989,116.257 81.149 C 116.569 81.268,116.824 81.773,116.824 82.271 C 116.824 82.823,117.045 83.176,117.391 83.176 C 117.744 83.176,117.958 83.533,117.958 84.121 C 117.958 84.709,117.744 85.066,117.391 85.066 C 117.079 85.066,116.824 85.321,116.824 85.633 C 116.824 85.986,116.467 86.200,115.879 86.200 C 115.359 86.200,114.934 86.371,114.934 86.578 C 114.934 86.786,114.602 86.957,114.196 86.957 C 113.791 86.957,113.295 87.249,113.095 87.607 C 112.847 88.051,112.342 88.227,111.499 88.163 C 110.821 88.111,110.149 88.258,110.006 88.489 C 109.863 88.721,108.957 88.910,107.992 88.910 C 106.731 88.910,106.238 89.060,106.238 89.445 C 106.238 89.765,105.856 89.981,105.293 89.981 C 104.773 89.981,104.348 90.133,104.348 90.318 C 104.348 90.504,103.922 90.762,103.403 90.892 C 102.883 91.023,102.457 91.297,102.457 91.501 C 102.457 91.705,101.777 91.871,100.945 91.871 C 99.853 91.871,99.433 92.029,99.433 92.439 C 99.433 92.791,99.076 93.006,98.488 93.006 C 97.968 93.006,97.543 93.176,97.543 93.384 C 97.543 93.592,96.947 93.762,96.219 93.762 C 95.295 93.762,94.896 93.933,94.896 94.329 C 94.896 94.641,94.641 94.896,94.329 94.896 C 94.017 94.896,93.762 95.066,93.762 95.274 C 93.762 95.482,93.336 95.652,92.817 95.652 C 92.229 95.652,91.871 95.866,91.871 96.219 C 91.871 96.572,91.514 96.786,90.926 96.786 C 90.406 96.786,89.981 96.957,89.981 97.164 C 89.981 97.372,89.556 97.543,89.036 97.543 C 88.448 97.543,88.091 97.757,88.091 98.110 C 88.091 98.463,87.734 98.677,87.146 98.677 C 86.626 98.677,86.200 98.847,86.200 99.055 C 86.200 99.263,85.945 99.433,85.633 99.433 C 85.321 99.433,85.066 99.688,85.066 100.000 C 85.066 100.322,84.727 100.567,84.283 100.567 C 83.852 100.567,83.260 100.807,82.966 101.101 C 82.673 101.394,82.105 101.548,81.705 101.444 C 80.976 101.253,79.395 102.464,79.395 103.214 C 79.395 103.422,79.213 103.592,78.990 103.592 C 78.467 103.592,77.505 104.554,77.505 105.077 C 77.505 105.300,77.079 105.482,76.560 105.482 C 76.040 105.482,75.614 105.652,75.614 105.860 C 75.614 106.068,74.934 106.238,74.102 106.238 C 73.095 106.238,72.590 106.406,72.590 106.741 C 72.590 107.018,72.164 107.472,71.645 107.750 C 71.125 108.029,70.699 108.421,70.699 108.623 C 70.699 109.100,69.521 109.991,68.870 110.007 C 68.295 110.021,65.028 113.258,65.028 113.814 C 65.028 114.014,64.603 114.178,64.083 114.178 C 63.563 114.178,63.138 114.348,63.138 114.556 C 63.138 114.764,62.883 114.934,62.571 114.934 C 62.259 114.934,62.004 115.116,62.004 115.339 C 62.004 115.862,61.042 116.824,60.518 116.824 C 60.296 116.824,60.113 117.051,60.113 117.327 C 60.113 117.604,59.688 118.058,59.168 118.336 C 58.648 118.615,58.223 119.069,58.223 119.346 C 58.223 119.622,58.041 119.849,57.818 119.849 C 57.295 119.849,56.333 120.811,56.333 121.334 C 56.333 121.557,56.150 121.739,55.928 121.739 C 55.404 121.739,54.442 122.701,54.442 123.224 C 54.442 123.447,54.187 123.629,53.875 123.629 C 53.563 123.629,53.308 123.812,53.308 124.035 C 53.308 124.702,52.282 125.520,51.445 125.520 C 51.001 125.520,50.662 125.765,50.662 126.087 C 50.662 126.399,50.406 126.654,50.095 126.654 C 49.742 126.654,49.527 127.011,49.527 127.599 C 49.527 128.355,49.338 128.544,48.582 128.544 C 48.062 128.544,47.637 128.715,47.637 128.922 C 47.637 129.130,47.382 129.301,47.070 129.301 C 46.732 129.301,46.503 129.648,46.503 130.161 C 46.503 131.062,44.486 133.585,44.087 133.186 C 43.960 133.059,43.856 133.494,43.856 134.152 C 43.856 134.811,43.674 135.350,43.451 135.350 C 42.854 135.350,41.966 136.343,41.966 137.011 C 41.966 137.666,39.932 139.887,39.332 139.887 C 39.117 139.887,38.941 140.069,38.941 140.292 C 38.941 140.815,37.980 141.777,37.456 141.777 C 37.233 141.777,37.051 142.381,37.051 143.118 C 37.051 144.063,36.772 144.718,36.106 145.336 C 35.586 145.817,35.161 146.575,35.161 147.019 C 35.161 147.484,34.921 147.826,34.594 147.826 C 34.197 147.826,34.026 148.225,34.026 149.149 C 34.026 149.877,33.856 150.473,33.648 150.473 C 33.440 150.473,33.270 150.898,33.270 151.418 C 33.270 152.006,33.056 152.363,32.703 152.363 C 32.391 152.363,32.136 152.618,32.136 152.930 C 32.136 153.242,31.966 153.497,31.758 153.497 C 31.550 153.497,31.380 153.922,31.380 154.442 C 31.380 155.030,31.166 155.388,30.813 155.388 C 30.415 155.388,30.246 155.790,30.246 156.738 C 30.246 158.059,29.568 159.168,28.760 159.168 C 28.531 159.168,28.355 159.920,28.355 160.897 C 28.355 161.929,28.127 162.853,27.788 163.192 C 27.455 163.525,27.221 164.449,27.221 165.433 C 27.221 166.354,27.051 167.108,26.843 167.108 C 26.635 167.108,26.465 167.533,26.465 168.053 C 26.465 168.615,26.249 168.998,25.931 168.998 C 25.521 168.998,25.398 169.629,25.398 171.728 C 25.398 173.359,25.232 174.513,24.986 174.595 C 24.760 174.670,24.575 175.143,24.575 175.646 C 24.575 176.206,24.355 176.560,24.008 176.560 C 23.655 176.560,23.440 176.917,23.440 177.505 C 23.440 178.093,23.655 178.450,24.008 178.450 C 24.319 178.450,24.575 178.705,24.575 179.017 C 24.575 179.329,24.319 179.584,24.008 179.584 C 23.536 179.584,23.440 180.319,23.440 183.932 C 23.440 186.578,23.293 188.280,23.062 188.280 C 22.819 188.280,22.684 191.997,22.684 198.677 C 22.684 205.356,22.819 209.074,23.062 209.074 C 23.270 209.074,23.440 209.481,23.440 209.978 C 23.440 211.082,24.353 211.510,25.104 210.759 C 25.407 210.456,25.837 210.208,26.060 210.208 C 26.283 210.208,26.465 210.026,26.465 209.803 C 26.465 209.279,27.427 208.318,27.950 208.318 C 28.173 208.318,28.355 208.062,28.355 207.750 C 28.355 207.439,28.538 207.183,28.760 207.183 C 29.265 207.183,30.246 206.229,30.246 205.739 C 30.246 205.538,30.501 205.276,30.813 205.156 C 31.125 205.037,31.380 204.656,31.380 204.310 C 31.380 203.964,31.975 203.119,32.703 202.433 C 33.431 201.747,34.026 201.003,34.026 200.782 C 34.026 200.560,34.239 200.421,34.499 200.473 C 34.765 200.526,35.024 200.112,35.091 199.527 C 35.185 198.711,35.408 198.488,36.131 198.488 C 36.930 198.488,37.051 198.314,37.051 197.164 C 37.051 196.437,37.221 195.841,37.429 195.841 C 37.637 195.841,37.807 195.586,37.807 195.274 C 37.807 194.962,38.048 194.707,38.343 194.707 C 38.637 194.707,38.944 194.511,39.023 194.272 C 39.103 194.033,39.755 193.820,40.473 193.800 C 41.523 193.769,41.800 193.596,41.898 192.911 C 41.964 192.443,42.281 192.060,42.601 192.060 C 43.248 192.060,46.503 188.922,46.503 188.298 C 46.503 188.080,46.685 187.902,46.908 187.902 C 47.431 187.902,48.393 186.940,48.393 186.416 C 48.393 186.194,48.815 186.011,49.331 186.011 C 50.016 186.011,50.333 185.757,50.506 185.066 C 50.651 184.491,51.013 184.121,51.431 184.121 C 51.810 184.121,52.454 183.696,52.863 183.176 C 53.271 182.656,53.794 182.231,54.024 182.231 C 54.254 182.231,54.442 182.060,54.442 181.853 C 54.442 181.645,54.868 181.474,55.388 181.474 C 55.976 181.474,56.333 181.260,56.333 180.907 C 56.333 180.595,56.503 180.340,56.711 180.340 C 56.919 180.340,57.089 180.085,57.089 179.773 C 57.089 179.461,57.344 179.206,57.656 179.206 C 57.968 179.206,58.223 179.036,58.223 178.828 C 58.223 178.620,58.819 178.450,59.546 178.450 C 60.470 178.450,60.870 178.279,60.870 177.883 C 60.870 177.571,61.063 177.316,61.299 177.316 C 61.535 177.316,62.122 176.890,62.604 176.371 C 63.086 175.851,63.733 175.425,64.043 175.425 C 64.352 175.425,64.711 175.255,64.839 175.047 C 64.968 174.839,65.658 174.669,66.374 174.669 C 67.278 174.669,67.675 174.496,67.675 174.102 C 67.675 173.790,67.930 173.535,68.242 173.535 C 68.554 173.535,68.809 173.365,68.809 173.157 C 68.809 172.949,69.234 172.779,69.754 172.779 C 70.274 172.779,70.699 172.603,70.699 172.388 C 70.699 171.713,72.959 169.754,73.737 169.754 C 74.146 169.754,74.480 169.584,74.480 169.376 C 74.480 169.168,74.965 168.998,75.557 168.998 C 76.667 168.998,78.261 167.914,78.261 167.158 C 78.261 166.896,78.995 166.730,80.151 166.730 C 81.191 166.730,82.042 166.560,82.042 166.352 C 82.042 166.144,82.297 165.974,82.609 165.974 C 82.921 165.974,83.176 165.791,83.176 165.568 C 83.176 164.685,84.319 164.083,85.996 164.083 C 87.194 164.083,87.804 163.907,87.954 163.516 C 88.074 163.204,88.506 162.949,88.914 162.949 C 89.717 162.949,90.737 162.118,90.737 161.464 C 90.737 161.230,91.535 161.059,92.628 161.059 C 93.667 161.059,94.518 160.888,94.518 160.681 C 94.518 160.473,94.925 160.302,95.423 160.302 C 95.920 160.302,96.425 160.047,96.545 159.735 C 96.682 159.379,97.260 159.168,98.098 159.168 C 98.832 159.168,99.433 159.017,99.433 158.831 C 99.433 158.646,99.858 158.387,100.378 158.257 C 100.898 158.126,101.323 157.853,101.323 157.649 C 101.323 157.445,102.174 157.278,103.214 157.278 C 104.642 157.278,105.104 157.139,105.104 156.711 C 105.104 156.147,105.980 155.984,108.223 156.132 C 108.795 156.170,109.263 156.018,109.263 155.794 C 109.263 155.549,110.165 155.388,111.531 155.388 C 113.296 155.388,113.800 155.261,113.800 154.820 C 113.800 154.473,114.153 154.253,114.713 154.253 C 115.216 154.253,115.713 154.041,115.818 153.781 C 115.970 153.403,116.014 153.403,116.038 153.781 C 116.073 154.337,117.958 154.430,117.958 153.875 C 117.958 153.667,118.729 153.497,119.672 153.497 C 120.846 153.497,121.453 153.319,121.602 152.930 C 121.722 152.618,122.227 152.363,122.725 152.363 C 123.222 152.363,123.629 152.193,123.629 151.985 C 123.629 151.777,124.480 151.607,125.520 151.607 C 126.948 151.607,127.410 151.468,127.410 151.040 C 127.410 150.599,127.912 150.473,129.656 150.473 C 130.892 150.473,132.008 150.302,132.136 150.095 C 132.825 148.979,134.972 149.695,134.972 151.040 C 134.972 151.964,135.143 152.363,135.539 152.363 C 135.892 152.363,136.106 152.720,136.106 153.308 C 136.106 153.828,136.276 154.253,136.484 154.253 C 136.703 154.253,136.862 155.454,136.862 157.101 C 136.862 159.283,136.994 159.999,137.429 160.166 C 137.741 160.285,137.996 160.790,137.996 161.288 C 137.996 161.840,138.217 162.193,138.563 162.193 C 139.017 162.193,139.130 162.760,139.130 165.028 C 139.130 166.667,139.290 167.864,139.509 167.864 C 139.716 167.864,139.887 168.289,139.887 168.809 C 139.887 169.397,140.101 169.754,140.454 169.754 C 140.863 169.754,141.021 170.174,141.021 171.267 C 141.021 172.098,141.191 172.779,141.399 172.779 C 141.609 172.779,141.777 173.787,141.777 175.047 C 141.777 176.812,141.903 177.316,142.344 177.316 C 142.722 177.316,142.911 177.694,142.911 178.450 C 142.911 179.494,143.016 179.584,144.234 179.584 C 145.159 179.584,145.558 179.413,145.558 179.017 C 145.558 178.705,145.813 178.450,146.125 178.450 C 146.437 178.450,146.692 178.268,146.692 178.045 C 146.692 177.521,147.654 176.560,148.177 176.560 C 148.400 176.560,148.582 176.304,148.582 175.992 C 148.582 175.681,148.752 175.425,148.960 175.425 C 149.168 175.425,149.338 174.830,149.338 174.102 C 149.338 172.957,149.461 172.779,150.247 172.779 C 150.896 172.779,151.260 172.483,151.523 171.739 C 151.950 170.534,153.688 168.559,154.025 168.895 C 154.150 169.021,154.253 168.585,154.253 167.927 C 154.253 167.268,154.436 166.730,154.658 166.730 C 155.182 166.730,156.144 165.768,156.144 165.244 C 156.144 165.022,156.399 164.839,156.711 164.839 C 157.032 164.839,157.278 164.500,157.278 164.056 C 157.278 163.219,158.096 162.193,158.763 162.193 C 158.986 162.193,159.168 162.023,159.168 161.815 C 159.168 161.607,159.849 160.756,160.681 159.924 C 161.661 158.944,162.193 158.070,162.193 157.440 C 162.193 156.443,162.957 155.388,163.678 155.388 C 163.901 155.388,164.083 155.206,164.083 154.984 C 164.083 154.762,164.679 154.019,165.406 153.333 C 166.134 152.646,166.730 151.722,166.730 151.279 C 166.730 150.835,166.956 150.473,167.233 150.473 C 167.510 150.473,167.964 150.047,168.242 149.527 C 168.520 149.008,168.974 148.582,169.251 148.582 C 169.536 148.582,169.754 148.172,169.754 147.637 C 169.754 146.881,169.943 146.692,170.699 146.692 C 171.456 146.692,171.645 146.503,171.645 145.747 C 171.645 145.227,171.812 144.802,172.015 144.802 C 172.219 144.802,172.493 144.376,172.624 143.856 C 172.754 143.336,173.012 142.911,173.198 142.911 C 173.383 142.911,173.535 142.674,173.535 142.384 C 173.535 142.095,173.790 141.760,174.102 141.640 C 174.414 141.521,174.669 141.152,174.669 140.822 C 174.669 140.492,175.520 139.406,176.560 138.410 C 177.599 137.413,178.450 136.304,178.450 135.946 C 178.450 135.220,179.312 134.216,179.935 134.216 C 180.158 134.216,180.340 134.033,180.340 133.810 C 180.340 133.287,181.302 132.325,181.826 132.325 C 182.048 132.325,182.231 132.070,182.231 131.758 C 182.231 131.446,182.401 131.191,182.609 131.191 C 182.817 131.191,183.000 130.553,183.017 129.773 C 183.033 128.993,183.132 128.568,183.237 128.828 C 183.686 129.941,185.255 129.357,185.267 128.072 C 185.280 126.775,185.992 125.520,186.715 125.520 C 186.952 125.520,187.146 125.095,187.146 124.575 C 187.146 124.055,187.316 123.629,187.524 123.629 C 187.732 123.629,187.902 123.374,187.902 123.062 C 187.902 122.750,188.084 122.495,188.307 122.495 C 188.830 122.495,189.792 121.533,189.792 121.010 C 189.792 120.787,189.974 120.605,190.197 120.605 C 190.721 120.605,191.682 119.643,191.682 119.120 C 191.682 118.897,191.938 118.715,192.250 118.715 C 192.646 118.715,192.817 118.315,192.817 117.391 C 192.817 116.232,192.934 116.068,193.762 116.068 C 194.521 116.068,194.707 115.880,194.707 115.111 C 194.707 114.585,194.926 114.070,195.194 113.967 C 195.462 113.864,195.707 113.442,195.738 113.030 C 195.800 112.205,196.690 111.153,197.326 111.153 C 197.549 111.153,197.732 110.972,197.732 110.750 C 197.732 110.528,198.327 109.785,199.055 109.098 C 199.783 108.412,200.378 107.488,200.378 107.044 C 200.378 106.601,200.560 106.238,200.783 106.238 C 201.307 106.238,202.268 105.276,202.268 104.753 C 202.268 104.530,202.524 104.348,202.836 104.348 C 203.188 104.348,203.403 103.991,203.403 103.403 C 203.403 102.883,203.573 102.457,203.781 102.457 C 203.989 102.457,204.159 102.202,204.159 101.890 C 204.159 101.578,204.414 101.323,204.726 101.323 C 205.068 101.323,205.293 100.973,205.293 100.442 C 205.293 99.606,205.942 99.082,207.656 98.534 C 208.496 98.265,208.571 96.104,207.750 95.789 C 207.439 95.669,207.183 95.164,207.183 94.667 C 207.183 93.805,207.066 93.762,204.726 93.762 C 203.340 93.762,202.268 93.597,202.268 93.384 C 202.268 93.176,201.843 93.006,201.323 93.006 C 200.735 93.006,200.378 92.791,200.378 92.439 C 200.378 92.042,199.978 91.871,199.043 91.871 C 198.207 91.871,197.627 91.660,197.491 91.307 C 197.372 90.996,197.147 90.820,196.992 90.916 C 196.836 91.012,196.386 90.847,195.991 90.548 C 195.597 90.249,194.891 90.000,194.423 89.993 C 193.925 89.986,193.573 89.746,193.573 89.414 C 193.573 89.018,193.174 88.847,192.250 88.847 C 191.522 88.847,190.926 88.677,190.926 88.469 C 190.926 88.261,190.501 88.091,189.981 88.091 C 189.393 88.091,189.036 87.876,189.036 87.524 C 189.036 87.114,188.616 86.957,187.524 86.957 C 186.692 86.957,186.011 86.786,186.011 86.578 C 186.011 86.371,185.586 86.200,185.066 86.200 C 184.478 86.200,184.121 85.986,184.121 85.633 C 184.121 85.280,183.764 85.066,183.176 85.066 C 182.656 85.066,182.231 84.896,182.231 84.688 C 182.231 84.480,181.550 84.310,180.718 84.310 C 179.626 84.310,179.206 84.152,179.206 83.743 C 179.206 83.390,178.849 83.176,178.261 83.176 C 177.741 83.176,177.316 83.016,177.316 82.821 C 177.316 82.625,176.678 82.413,175.898 82.348 C 175.011 82.275,174.516 82.054,174.575 81.758 C 174.629 81.486,174.288 81.285,173.770 81.285 C 173.276 81.285,172.674 81.048,172.433 80.757 C 172.192 80.467,171.661 80.317,171.253 80.423 C 170.741 80.557,170.510 80.428,170.510 80.006 C 170.510 79.563,170.157 79.395,169.228 79.395 C 168.436 79.395,167.861 79.178,167.727 78.828 C 167.607 78.516,167.174 78.261,166.764 78.261 C 166.354 78.261,165.913 78.091,165.784 77.883 C 165.656 77.675,164.984 77.505,164.290 77.505 C 163.519 77.505,162.945 77.285,162.812 76.938 C 162.693 76.626,162.249 76.371,161.827 76.371 C 161.404 76.371,161.059 76.200,161.059 75.992 C 161.059 75.784,160.378 75.614,159.546 75.614 C 158.454 75.614,158.034 75.457,158.034 75.047 C 158.034 74.694,157.677 74.480,157.089 74.480 C 156.569 74.480,156.144 74.310,156.144 74.102 C 156.144 73.894,155.718 73.724,155.198 73.724 C 154.610 73.724,154.253 73.510,154.253 73.157 C 154.253 72.763,153.857 72.590,152.952 72.590 C 152.237 72.590,151.546 72.420,151.418 72.212 C 151.289 72.004,150.769 71.834,150.261 71.834 C 149.693 71.834,149.338 71.616,149.338 71.267 C 149.338 70.870,148.939 70.699,148.015 70.699 C 147.287 70.699,146.692 70.562,146.692 70.394 C 146.692 70.070,144.067 68.809,143.392 68.809 C 143.172 68.809,142.894 68.554,142.774 68.242 C 142.638 67.886,142.060 67.675,141.222 67.675 C 140.487 67.675,139.887 67.505,139.887 67.297 C 139.887 67.089,139.461 66.919,138.941 66.919 C 138.353 66.919,137.996 66.704,137.996 66.352 C 137.996 65.942,137.576 65.784,136.484 65.784 C 135.652 65.784,134.972 65.614,134.972 65.406 C 134.972 65.198,134.546 65.028,134.026 65.028 C 133.438 65.028,133.081 64.814,133.081 64.461 C 133.081 64.147,132.746 63.894,132.329 63.894 C 131.444 63.894,130.007 62.768,130.296 62.300 C 130.406 62.122,129.857 62.019,129.075 62.072 C 128.219 62.129,127.593 61.984,127.500 61.708 C 127.416 61.455,126.936 61.248,126.434 61.248 C 125.873 61.248,125.520 61.028,125.520 60.681 C 125.520 60.328,125.163 60.113,124.575 60.113 C 124.055 60.113,123.629 59.943,123.629 59.735 C 123.629 59.527,123.374 59.357,123.062 59.357 C 122.750 59.357,122.495 59.102,122.495 58.790 C 122.495 58.437,122.138 58.223,121.550 58.223 C 120.962 58.223,120.605 58.437,120.605 58.790 C 120.605 59.143,120.248 59.357,119.660 59.357 C 118.869 59.357,118.715 59.178,118.715 58.263 C 118.715 57.208,118.652 57.170,116.941 57.197 C 115.892 57.214,115.108 57.043,115.020 56.779 C 114.938 56.534,114.630 56.333,114.335 56.333 C 114.041 56.333,113.800 56.078,113.800 55.766 C 113.800 55.386,113.420 55.198,112.654 55.198 C 111.984 55.198,111.417 55.434,111.290 55.766 M266.919 100.945 C 266.919 101.194,257.980 101.323,240.859 101.323 L 214.799 101.323 213.448 102.597 C 212.706 103.297,212.098 104.233,212.098 104.676 C 212.098 105.119,211.916 105.482,211.693 105.482 C 211.170 105.482,210.208 106.444,210.208 106.967 C 210.208 107.190,209.953 107.372,209.641 107.372 C 209.320 107.372,209.074 107.711,209.074 108.154 C 209.074 108.584,208.478 109.497,207.750 110.183 C 207.023 110.870,206.427 111.624,206.427 111.859 C 206.427 112.095,206.172 112.287,205.860 112.287 C 205.507 112.287,205.293 112.644,205.293 113.233 C 205.293 113.837,205.080 114.178,204.704 114.178 C 204.379 114.178,204.219 114.348,204.348 114.556 C 204.476 114.764,204.316 114.934,203.992 114.934 C 203.668 114.934,203.403 115.171,203.403 115.460 C 203.403 115.750,203.147 116.085,202.836 116.205 C 202.524 116.324,202.268 116.695,202.268 117.028 C 202.268 117.717,201.390 118.715,200.783 118.715 C 200.560 118.715,200.378 118.970,200.378 119.282 C 200.378 119.594,200.208 119.849,200.000 119.849 C 199.792 119.849,199.622 120.274,199.622 120.794 C 199.622 121.314,199.440 121.739,199.217 121.739 C 198.693 121.739,197.732 122.701,197.732 123.224 C 197.732 123.447,197.476 123.629,197.164 123.629 C 196.853 123.629,196.597 123.885,196.597 124.197 C 196.597 124.509,196.427 124.764,196.219 124.764 C 196.011 124.764,195.841 125.189,195.841 125.709 C 195.841 126.229,195.673 126.654,195.467 126.654 C 194.887 126.654,193.589 127.886,193.803 128.234 C 193.909 128.405,193.730 128.544,193.406 128.544 C 193.041 128.544,192.817 128.880,192.817 129.426 C 192.817 129.979,192.465 130.495,191.871 130.813 C 191.352 131.091,190.926 131.545,190.926 131.822 C 190.926 132.099,190.744 132.325,190.521 132.325 C 189.800 132.325,189.036 133.381,189.036 134.378 C 189.036 134.912,188.854 135.350,188.631 135.350 C 188.107 135.350,187.146 136.312,187.146 136.835 C 187.146 137.058,186.890 137.240,186.578 137.240 C 186.257 137.240,186.011 137.579,186.011 138.023 C 186.011 138.860,185.193 139.887,184.526 139.887 C 184.303 139.887,184.121 140.142,184.121 140.454 C 184.121 140.766,183.951 141.021,183.743 141.021 C 183.535 141.021,183.365 141.446,183.365 141.966 C 183.365 142.486,183.182 142.911,182.958 142.911 C 181.816 142.911,180.340 145.133,180.340 146.852 C 180.340 147.804,180.510 148.582,180.718 148.582 C 180.926 148.582,181.096 148.928,181.096 149.350 C 181.096 149.773,181.352 150.216,181.664 150.336 C 182.033 150.478,182.231 151.066,182.231 152.025 C 182.231 153.082,182.391 153.497,182.798 153.497 C 183.251 153.497,183.365 154.064,183.365 156.333 C 183.365 157.971,183.524 159.168,183.743 159.168 C 183.973 159.168,184.121 160.870,184.121 163.516 C 184.121 167.129,184.217 167.864,184.688 167.864 C 185.154 167.864,185.255 168.536,185.255 171.645 C 185.255 173.913,185.406 175.425,185.633 175.425 C 185.863 175.425,186.011 177.127,186.011 179.773 C 186.011 183.386,186.107 184.121,186.578 184.121 C 187.050 184.121,187.146 184.856,187.146 188.469 C 187.146 191.010,187.297 192.817,187.510 192.817 C 187.714 192.817,187.923 194.529,187.983 196.692 C 188.062 199.546,188.215 200.542,188.563 200.473 C 188.919 200.401,189.036 201.449,189.036 204.726 C 189.036 207.372,189.184 209.074,189.414 209.074 C 189.644 209.074,189.792 210.775,189.792 213.422 C 189.792 217.034,189.888 217.769,190.359 217.769 C 190.827 217.769,190.926 218.463,190.926 221.739 C 190.926 224.134,191.076 225.709,191.304 225.709 C 191.534 225.709,191.682 227.351,191.682 229.880 C 191.682 233.238,191.793 234.093,192.250 234.268 C 192.706 234.443,192.817 235.292,192.817 238.604 C 192.817 242.080,192.908 242.722,193.405 242.722 C 193.904 242.722,193.983 243.309,193.922 246.581 C 193.874 249.176,193.991 250.486,194.279 250.582 C 194.563 250.677,194.707 252.118,194.707 254.864 C 194.707 258.194,194.818 259.045,195.274 259.221 C 195.730 259.395,195.841 260.242,195.841 263.534 C 195.841 265.857,196.005 267.731,196.219 267.864 C 196.430 267.994,196.597 269.758,196.597 271.856 C 196.597 274.945,196.698 275.614,197.164 275.614 C 197.636 275.614,197.732 276.350,197.732 279.962 C 197.732 282.609,197.880 284.310,198.110 284.310 C 198.336 284.310,198.488 285.822,198.488 288.091 C 198.488 291.199,198.589 291.871,199.055 291.871 C 199.526 291.871,199.622 292.607,199.622 296.219 C 199.622 298.866,199.770 300.567,200.000 300.567 C 200.230 300.567,200.378 302.268,200.378 304.915 C 200.378 308.528,200.474 309.263,200.945 309.263 C 201.420 309.263,201.512 310.061,201.512 314.178 C 201.512 318.294,201.420 319.093,200.945 319.093 C 200.592 319.093,200.378 319.450,200.378 320.038 C 200.378 320.558,200.208 320.983,200.000 320.983 C 199.792 320.983,199.622 321.408,199.622 321.928 C 199.622 322.448,199.440 322.873,199.217 322.873 C 198.693 322.873,197.732 323.835,197.732 324.359 C 197.732 324.581,197.549 324.764,197.326 324.764 C 196.803 324.764,195.841 325.726,195.841 326.249 C 195.841 326.472,195.600 326.654,195.306 326.654 C 195.011 326.654,194.711 326.832,194.638 327.049 C 194.566 327.266,194.126 327.472,193.662 327.507 C 193.197 327.542,192.817 327.790,192.817 328.058 C 192.817 328.373,192.285 328.544,191.304 328.544 C 190.191 328.544,189.792 328.699,189.792 329.130 C 189.792 329.607,189.358 329.694,187.429 329.602 C 185.786 329.524,185.095 329.346,185.161 329.017 C 185.219 328.726,184.835 328.544,184.161 328.544 C 183.538 328.544,182.974 328.301,182.850 327.977 C 182.730 327.665,182.287 327.410,181.864 327.410 C 181.442 327.410,181.096 327.240,181.096 327.032 C 181.096 326.824,180.700 326.654,180.215 326.654 C 179.662 326.654,179.145 326.302,178.828 325.709 C 178.550 325.189,178.096 324.764,177.819 324.764 C 177.542 324.764,177.316 324.509,177.316 324.197 C 177.316 323.885,177.146 323.629,176.938 323.629 C 176.730 323.629,176.560 323.284,176.560 322.861 C 176.560 322.439,176.304 321.996,175.992 321.876 C 175.681 321.756,175.425 321.251,175.425 320.754 C 175.425 320.256,175.255 319.849,175.047 319.849 C 174.839 319.849,174.669 319.272,174.669 318.566 C 174.669 317.774,174.452 317.200,174.102 317.066 C 173.667 316.899,173.535 316.183,173.535 314.001 C 173.535 312.354,173.375 311.153,173.157 311.153 C 172.937 311.153,172.779 309.902,172.779 308.156 C 172.779 305.995,172.620 305.000,172.212 304.591 C 171.779 304.158,171.645 303.076,171.645 300.027 C 171.645 296.726,171.546 296.030,171.078 296.030 C 170.609 296.030,170.510 295.337,170.510 292.060 C 170.510 289.666,170.360 288.091,170.132 288.091 C 169.905 288.091,169.754 286.578,169.754 284.310 C 169.754 281.201,169.653 280.529,169.187 280.529 C 168.716 280.529,168.620 279.794,168.620 276.181 C 168.620 273.640,168.468 271.834,168.255 271.834 C 168.052 271.834,167.843 270.122,167.783 267.958 C 167.703 265.104,167.550 264.108,167.202 264.178 C 166.848 264.249,166.730 263.277,166.730 260.302 C 166.730 257.908,166.580 256.333,166.352 256.333 C 166.125 256.333,165.974 254.820,165.974 252.552 C 165.974 249.443,165.873 248.771,165.406 248.771 C 164.935 248.771,164.839 248.036,164.839 244.423 C 164.839 241.777,164.691 240.076,164.461 240.076 C 164.234 240.076,164.083 238.563,164.083 236.295 C 164.083 233.186,163.982 232.514,163.516 232.514 C 163.048 232.514,162.949 231.825,162.949 228.576 C 162.949 226.410,162.787 224.581,162.589 224.512 C 162.391 224.442,162.200 222.543,162.165 220.292 C 162.117 217.206,161.973 216.149,161.580 215.998 C 161.185 215.847,161.059 214.888,161.059 212.058 C 161.059 208.985,160.957 208.318,160.491 208.318 C 160.025 208.318,159.924 207.645,159.924 204.537 C 159.924 202.268,159.773 200.756,159.546 200.756 C 159.318 200.756,159.168 199.181,159.168 196.786 C 159.168 193.510,159.069 192.817,158.601 192.817 C 158.130 192.817,158.034 192.081,158.034 188.469 C 158.034 185.940,157.882 184.121,157.671 184.121 C 157.471 184.121,157.258 182.632,157.198 180.813 C 157.111 178.183,156.973 177.501,156.522 177.487 C 155.694 177.460,153.497 179.794,153.497 180.700 C 153.497 181.126,153.315 181.474,153.092 181.474 C 152.569 181.474,151.607 182.436,151.607 182.960 C 151.607 183.183,151.392 183.365,151.129 183.365 C 150.867 183.365,150.333 183.790,149.942 184.310 C 149.552 184.830,148.926 185.255,148.552 185.255 C 148.177 185.255,147.766 185.425,147.637 185.633 C 147.509 185.841,146.137 186.011,144.590 186.011 C 142.967 186.011,141.777 185.851,141.777 185.633 C 141.777 185.425,141.441 185.255,141.031 185.255 C 140.062 185.255,136.862 182.055,136.862 181.086 C 136.862 180.676,136.692 180.340,136.484 180.340 C 136.276 180.340,136.106 179.915,136.106 179.395 C 136.106 178.807,135.892 178.450,135.539 178.450 C 135.110 178.450,134.972 177.988,134.972 176.560 C 134.972 175.520,134.802 174.669,134.594 174.669 C 134.386 174.669,134.216 173.819,134.216 172.779 C 134.216 171.351,134.077 170.888,133.648 170.888 C 133.239 170.888,133.081 170.468,133.081 169.376 C 133.081 168.544,132.911 167.864,132.703 167.864 C 132.495 167.864,132.325 167.013,132.325 165.974 C 132.325 164.545,132.187 164.083,131.758 164.083 C 131.330 164.083,131.191 163.621,131.191 162.193 C 131.191 161.153,131.021 160.302,130.813 160.302 C 130.605 160.302,130.435 159.877,130.435 159.357 C 130.435 158.446,130.347 158.412,127.977 158.412 C 126.591 158.412,125.520 158.577,125.520 158.790 C 125.520 158.998,124.669 159.168,123.629 159.168 C 122.201 159.168,121.739 159.307,121.739 159.735 C 121.739 160.145,121.319 160.302,120.227 160.302 C 119.395 160.302,118.715 160.461,118.715 160.654 C 118.715 160.848,118.332 161.060,117.864 161.127 C 116.853 161.270,116.393 162.949,117.365 162.949 C 117.860 162.949,117.958 163.512,117.958 166.352 C 117.958 168.368,118.112 169.754,118.336 169.754 C 118.561 169.754,118.715 171.141,118.715 173.157 C 118.715 175.929,118.820 176.560,119.282 176.560 C 119.744 176.560,119.849 177.190,119.849 179.962 C 119.849 181.979,120.003 183.365,120.227 183.365 C 120.454 183.365,120.605 184.877,120.605 187.146 C 120.605 190.254,120.706 190.926,121.172 190.926 C 121.634 190.926,121.739 191.556,121.739 194.329 C 121.739 196.345,121.893 197.732,122.117 197.732 C 122.341 197.732,122.495 199.118,122.495 201.134 C 122.495 203.907,122.600 204.537,123.062 204.537 C 123.522 204.537,123.629 205.146,123.629 207.750 C 123.629 209.641,123.785 210.964,124.008 210.964 C 124.232 210.964,124.386 212.350,124.386 214.367 C 124.386 217.139,124.491 217.769,124.953 217.769 C 125.418 217.769,125.520 218.433,125.520 221.474 C 125.520 223.512,125.681 225.341,125.877 225.539 C 126.073 225.736,126.268 227.302,126.308 229.017 C 126.364 231.358,126.511 232.136,126.896 232.136 C 127.291 232.136,127.410 232.923,127.410 235.539 C 127.410 238.311,127.515 238.941,127.977 238.941 C 128.439 238.941,128.544 239.572,128.544 242.344 C 128.544 244.360,128.698 245.747,128.922 245.747 C 129.147 245.747,129.301 247.133,129.301 249.149 C 129.301 251.922,129.406 252.552,129.868 252.552 C 130.334 252.552,130.435 253.224,130.435 256.333 C 130.435 258.601,130.586 260.113,130.813 260.113 C 131.037 260.113,131.191 261.500,131.191 263.516 C 131.191 266.289,131.296 266.919,131.758 266.919 C 132.220 266.919,132.325 267.549,132.325 270.321 C 132.325 272.338,132.479 273.724,132.703 273.724 C 132.927 273.724,133.081 275.110,133.081 277.127 C 133.081 279.899,133.186 280.529,133.648 280.529 C 134.108 280.529,134.216 281.138,134.216 283.743 C 134.216 285.633,134.371 286.957,134.594 286.957 C 134.820 286.957,134.972 288.473,134.972 290.749 C 134.972 293.772,135.087 294.586,135.539 294.759 C 135.984 294.930,136.106 295.699,136.106 298.339 C 136.106 300.329,136.260 301.701,136.484 301.701 C 136.704 301.701,136.862 302.946,136.862 304.680 C 136.862 306.866,137.013 307.783,137.429 308.129 C 137.851 308.478,137.996 309.412,137.996 311.767 C 137.996 314.330,138.104 314.934,138.563 314.934 C 139.025 314.934,139.130 315.564,139.130 318.336 C 139.130 320.353,139.284 321.739,139.509 321.739 C 139.735 321.739,139.887 323.251,139.887 325.520 C 139.887 328.628,139.987 329.301,140.454 329.301 C 140.916 329.301,141.021 329.931,141.021 332.703 C 141.021 334.720,141.175 336.106,141.399 336.106 C 141.623 336.106,141.777 337.492,141.777 339.509 C 141.777 342.281,141.882 342.911,142.344 342.911 C 142.806 342.911,142.911 343.541,142.911 346.314 C 142.911 348.330,143.065 349.716,143.289 349.716 C 143.499 349.716,143.667 350.729,143.667 351.997 C 143.667 353.675,143.817 354.335,144.234 354.495 C 144.584 354.629,144.802 355.204,144.802 355.995 C 144.802 356.701,144.972 357.278,145.180 357.278 C 145.388 357.278,145.558 357.703,145.558 358.223 C 145.558 358.811,145.772 359.168,146.125 359.168 C 146.471 359.168,146.692 359.521,146.692 360.073 C 146.692 360.571,146.958 361.080,147.283 361.205 C 147.608 361.329,147.768 361.603,147.639 361.812 C 147.509 362.021,147.582 362.193,147.799 362.193 C 148.017 362.193,149.459 363.469,151.003 365.028 C 152.710 366.752,154.120 367.864,154.599 367.864 C 155.048 367.864,155.388 368.108,155.388 368.431 C 155.388 368.825,155.784 368.998,156.688 368.998 C 157.404 368.998,158.095 369.168,158.223 369.376 C 158.547 369.900,338.752 369.900,338.752 369.376 C 338.752 369.168,339.608 368.998,340.655 368.998 C 341.997 368.998,342.621 368.831,342.774 368.431 C 342.894 368.119,343.326 367.864,343.735 367.864 C 344.538 367.864,345.558 367.033,345.558 366.379 C 345.558 366.156,345.983 365.974,346.503 365.974 C 347.023 365.974,347.448 365.803,347.448 365.595 C 347.448 365.388,347.703 365.217,348.015 365.217 C 348.327 365.217,348.582 365.003,348.582 364.740 C 348.582 364.477,349.008 363.943,349.527 363.553 C 350.047 363.162,350.473 362.470,350.473 362.015 C 350.473 361.518,350.851 360.984,351.418 360.681 C 351.938 360.402,352.363 359.851,352.363 359.455 C 352.363 359.060,352.618 358.481,352.930 358.169 C 353.266 357.833,353.497 356.909,353.497 355.905 C 353.497 354.871,353.645 354.300,353.875 354.442 C 354.118 354.592,354.253 353.249,354.253 350.684 C 354.253 347.387,354.352 346.692,354.820 346.692 C 355.287 346.692,355.388 346.020,355.388 342.911 C 355.388 340.643,355.539 339.130,355.766 339.130 C 355.993 339.130,356.144 337.614,356.144 335.338 C 356.144 332.315,356.259 331.501,356.711 331.328 C 357.162 331.154,357.278 330.346,357.278 327.370 C 357.278 325.128,357.429 323.629,357.656 323.629 C 357.883 323.629,358.034 322.117,358.034 319.849 C 358.034 316.740,358.135 316.068,358.601 316.068 C 359.067 316.068,359.168 315.398,359.168 312.310 C 359.168 310.212,359.335 308.448,359.546 308.318 C 359.754 308.189,359.924 306.648,359.924 304.893 C 359.924 302.308,360.032 301.701,360.491 301.701 C 360.958 301.701,361.059 301.026,361.059 297.894 C 361.059 295.013,361.197 293.948,361.626 293.519 C 362.045 293.099,362.193 292.072,362.193 289.576 C 362.193 287.578,362.347 286.200,362.571 286.200 C 362.797 286.200,362.949 284.742,362.949 282.582 C 362.949 279.869,363.091 278.821,363.516 278.396 C 363.940 277.972,364.083 276.929,364.083 274.264 C 364.083 272.140,364.236 270.699,364.461 270.699 C 364.688 270.699,364.839 269.187,364.839 266.919 C 364.839 263.810,364.940 263.138,365.406 263.138 C 365.875 263.138,365.974 262.442,365.974 259.146 C 365.974 256.581,366.109 255.237,366.352 255.388 C 366.595 255.538,366.730 254.194,366.730 251.629 C 366.730 248.333,366.828 247.637,367.297 247.637 C 367.763 247.637,367.864 246.965,367.864 243.856 C 367.864 241.588,368.015 240.076,368.242 240.076 C 368.470 240.076,368.620 238.500,368.620 236.106 C 368.620 232.829,368.719 232.136,369.187 232.136 C 369.653 232.136,369.754 231.464,369.754 228.355 C 369.754 226.087,369.905 224.575,370.132 224.575 C 370.359 224.575,370.510 223.062,370.510 220.794 C 370.510 217.685,370.611 217.013,371.078 217.013 C 371.545 217.013,371.645 216.325,371.645 213.084 C 371.645 209.940,371.758 209.111,372.212 208.937 C 372.661 208.765,372.779 207.970,372.779 205.116 C 372.779 202.966,372.931 201.512,373.157 201.512 C 373.383 201.512,373.535 200.054,373.535 197.894 C 373.535 195.181,373.677 194.133,374.102 193.708 C 374.526 193.284,374.669 192.241,374.669 189.576 C 374.669 187.452,374.822 186.011,375.047 186.011 C 375.274 186.011,375.425 184.499,375.425 182.231 C 375.425 179.122,375.526 178.450,375.992 178.450 C 376.459 178.450,376.560 177.778,376.560 174.669 C 376.560 172.401,376.711 170.888,376.938 170.888 C 377.166 170.888,377.316 169.313,377.316 166.919 C 377.316 163.642,377.415 162.949,377.883 162.949 C 378.349 162.949,378.450 162.277,378.450 159.168 C 378.450 156.900,378.601 155.388,378.828 155.388 C 379.055 155.388,379.206 153.871,379.206 151.595 C 379.206 148.573,379.321 147.758,379.773 147.585 C 380.224 147.412,380.340 146.603,380.340 143.627 C 380.340 141.385,380.492 139.887,380.718 139.887 C 380.945 139.887,381.096 138.374,381.096 136.106 C 381.096 132.997,381.197 132.325,381.664 132.325 C 382.130 132.325,382.231 131.655,382.231 128.567 C 382.231 126.469,382.398 124.705,382.609 124.575 C 382.836 124.434,382.987 121.854,382.987 118.103 C 382.987 114.040,382.855 111.946,382.609 112.098 C 382.400 112.227,382.231 111.957,382.231 111.495 C 382.231 111.010,381.594 110.052,380.718 109.219 C 379.887 108.428,379.206 107.434,379.206 107.009 C 379.206 106.460,378.960 106.238,378.351 106.238 C 377.879 106.238,377.176 105.814,376.785 105.293 C 376.395 104.773,375.759 104.348,375.372 104.348 C 374.986 104.348,374.669 104.178,374.669 103.970 C 374.669 103.762,374.239 103.592,373.712 103.592 C 373.186 103.592,372.657 103.336,372.537 103.025 C 372.418 102.713,371.913 102.457,371.415 102.457 C 370.863 102.457,370.510 102.236,370.510 101.890 C 370.510 101.494,370.111 101.323,369.187 101.323 C 368.459 101.323,367.864 101.153,367.864 100.945 C 367.864 100.695,350.788 100.567,317.391 100.567 C 283.995 100.567,266.919 100.695,266.919 100.945 M251.554 140.454 C 251.674 140.766,252.118 141.021,252.540 141.021 C 252.963 141.021,253.308 141.191,253.308 141.399 C 253.308 141.607,253.733 141.777,254.253 141.777 C 254.841 141.777,255.198 141.991,255.198 142.344 C 255.198 142.656,255.374 142.911,255.589 142.911 C 256.201 142.911,258.223 145.137,258.223 145.811 C 258.223 146.144,258.648 146.810,259.168 147.292 C 259.778 147.857,260.113 148.577,260.113 149.320 C 260.113 150.093,260.300 150.473,260.681 150.473 C 261.183 150.473,261.248 160.134,261.248 235.161 C 261.248 310.187,261.183 319.849,260.681 319.849 C 260.275 319.849,260.113 320.262,260.113 321.297 C 260.113 322.455,259.924 322.847,259.168 323.251 C 258.648 323.530,258.223 324.063,258.223 324.436 C 258.223 325.279,256.191 327.410,255.388 327.410 C 255.063 327.410,254.699 327.665,254.579 327.977 C 254.459 328.289,253.954 328.544,253.457 328.544 C 252.905 328.544,252.552 328.765,252.552 329.112 C 252.552 329.539,252.092 329.679,250.684 329.679 C 249.657 329.679,248.711 329.849,248.582 330.057 C 248.454 330.265,247.933 330.435,247.426 330.435 C 246.918 330.435,246.503 330.265,246.503 330.057 C 246.503 329.849,245.652 329.679,244.612 329.679 C 243.184 329.679,242.722 329.540,242.722 329.112 C 242.722 328.759,242.365 328.544,241.777 328.544 C 241.173 328.544,240.832 328.332,240.832 327.955 C 240.832 327.631,240.684 327.457,240.504 327.568 C 240.323 327.680,239.787 327.265,239.313 326.645 C 238.838 326.026,238.135 325.520,237.751 325.520 C 237.256 325.520,237.051 325.242,237.051 324.575 C 237.051 324.055,236.869 323.629,236.646 323.629 C 235.979 323.629,235.161 322.603,235.161 321.766 C 235.161 321.322,234.915 320.983,234.594 320.983 C 234.095 320.983,234.026 317.895,234.026 295.463 C 234.026 278.702,233.897 269.943,233.648 269.943 C 233.398 269.943,233.270 249.779,233.270 210.208 C 233.270 170.636,233.398 150.473,233.648 150.473 C 233.856 150.473,234.026 150.047,234.026 149.527 C 234.026 148.939,234.241 148.582,234.594 148.582 C 234.946 148.582,235.161 148.225,235.161 147.637 C 235.161 147.117,235.331 146.692,235.539 146.692 C 235.747 146.692,235.917 146.437,235.917 146.125 C 235.917 145.813,236.099 145.558,236.322 145.558 C 236.845 145.558,237.807 144.596,237.807 144.072 C 237.807 143.850,237.989 143.667,238.212 143.667 C 238.736 143.667,239.698 142.705,239.698 142.182 C 239.698 141.959,239.953 141.777,240.265 141.777 C 240.577 141.777,240.832 141.607,240.832 141.399 C 240.832 141.191,241.512 141.021,242.344 141.021 C 243.436 141.021,243.856 140.863,243.856 140.454 C 243.856 139.988,244.524 139.887,247.597 139.887 C 250.573 139.887,251.381 140.002,251.554 140.454 M329.301 141.399 C 329.301 141.607,330.151 141.777,331.191 141.777 C 332.619 141.777,333.081 141.916,333.081 142.344 C 333.081 142.656,333.251 142.911,333.459 142.911 C 334.025 142.911,336.862 145.858,336.862 146.445 C 336.862 147.097,338.141 148.582,338.702 148.582 C 338.938 148.582,339.130 149.008,339.130 149.527 C 339.130 150.047,339.301 150.473,339.509 150.473 C 339.716 150.473,339.887 151.153,339.887 151.985 C 339.887 153.077,340.044 153.497,340.454 153.497 C 340.907 153.497,341.021 154.064,341.021 156.333 C 341.021 158.601,340.907 159.168,340.454 159.168 C 339.982 159.168,339.887 159.903,339.887 163.516 C 339.887 166.163,339.739 167.864,339.509 167.864 C 339.282 167.864,339.130 169.363,339.130 171.604 C 339.130 174.580,339.015 175.389,338.563 175.562 C 338.107 175.737,337.996 176.587,337.996 179.910 C 337.996 183.232,337.885 184.083,337.429 184.258 C 336.977 184.431,336.862 185.245,336.862 188.268 C 336.862 190.544,336.711 192.060,336.484 192.060 C 336.254 192.060,336.106 193.762,336.106 196.408 C 336.106 200.021,336.010 200.756,335.539 200.756 C 335.072 200.756,334.972 201.428,334.972 204.537 C 334.972 206.805,334.820 208.318,334.594 208.318 C 334.363 208.318,334.216 210.019,334.216 212.665 C 334.216 216.278,334.120 217.013,333.648 217.013 C 333.177 217.013,333.081 217.748,333.081 221.361 C 333.081 224.008,332.933 225.709,332.703 225.709 C 332.476 225.709,332.325 227.221,332.325 229.490 C 332.325 232.598,332.224 233.270,331.758 233.270 C 331.287 233.270,331.191 234.005,331.191 237.618 C 331.191 240.265,331.043 241.966,330.813 241.966 C 330.586 241.966,330.435 243.465,330.435 245.706 C 330.435 248.682,330.319 249.491,329.868 249.664 C 329.411 249.839,329.301 250.694,329.301 254.052 C 329.301 256.581,329.152 258.223,328.922 258.223 C 328.692 258.223,328.544 259.924,328.544 262.571 C 328.544 266.184,328.449 266.919,327.977 266.919 C 327.509 266.919,327.410 267.612,327.410 270.888 C 327.410 273.863,327.292 274.835,326.938 274.764 C 326.588 274.694,326.434 275.752,326.345 278.828 C 326.279 281.115,326.067 283.148,325.873 283.346 C 325.679 283.543,325.520 285.354,325.520 287.370 C 325.520 290.278,325.403 291.079,324.953 291.252 C 324.496 291.427,324.386 292.282,324.386 295.640 C 324.386 298.169,324.237 299.811,324.008 299.811 C 323.781 299.811,323.629 301.310,323.629 303.551 C 323.629 306.527,323.514 307.336,323.062 307.509 C 322.633 307.674,322.495 308.371,322.495 310.385 C 322.495 311.905,322.333 313.043,322.117 313.043 C 321.904 313.043,321.739 314.115,321.739 315.501 C 321.739 317.433,321.618 317.958,321.172 317.958 C 320.819 317.958,320.605 318.315,320.605 318.904 C 320.605 319.423,320.435 319.849,320.227 319.849 C 320.019 319.849,319.849 320.256,319.849 320.754 C 319.849 321.251,319.594 321.756,319.282 321.876 C 318.970 321.996,318.715 322.439,318.715 322.861 C 318.715 323.284,318.544 323.629,318.336 323.629 C 318.129 323.629,317.958 323.885,317.958 324.197 C 317.958 324.509,317.790 324.764,317.585 324.764 C 317.004 324.764,315.706 325.996,315.921 326.343 C 316.026 326.514,315.672 326.654,315.133 326.654 C 314.595 326.654,314.056 326.908,313.937 327.219 C 313.818 327.530,313.568 327.690,313.382 327.575 C 313.196 327.460,313.043 327.631,313.043 327.955 C 313.043 328.332,312.702 328.544,312.098 328.544 C 311.510 328.544,311.153 328.759,311.153 329.112 C 311.153 329.580,310.460 329.679,307.183 329.679 C 303.907 329.679,303.214 329.580,303.214 329.112 C 303.214 328.765,302.861 328.544,302.309 328.544 C 301.811 328.544,301.306 328.289,301.187 327.977 C 301.067 327.665,300.704 327.410,300.381 327.410 C 300.057 327.410,298.793 326.389,297.572 325.142 C 296.352 323.894,295.165 322.873,294.935 322.873 C 294.706 322.873,294.518 322.448,294.518 321.928 C 294.518 321.408,294.348 320.983,294.140 320.983 C 293.932 320.983,293.762 320.302,293.762 319.471 C 293.762 318.378,293.604 317.958,293.195 317.958 C 292.728 317.958,292.628 317.286,292.628 314.178 C 292.628 311.069,292.728 310.397,293.195 310.397 C 293.663 310.397,293.762 309.704,293.762 306.427 C 293.762 304.033,293.912 302.457,294.140 302.457 C 294.370 302.457,294.518 300.756,294.518 298.110 C 294.518 294.497,294.614 293.762,295.085 293.762 C 295.551 293.762,295.652 293.090,295.652 289.981 C 295.652 287.028,295.766 286.200,296.171 286.200 C 296.571 286.200,296.706 285.354,296.758 282.514 C 296.796 280.487,296.988 278.666,297.185 278.469 C 297.381 278.271,297.543 276.272,297.543 274.026 C 297.543 270.649,297.641 269.943,298.110 269.943 C 298.578 269.943,298.677 269.250,298.677 265.974 C 298.677 263.579,298.827 262.004,299.055 262.004 C 299.285 262.004,299.433 260.302,299.433 257.656 C 299.433 254.043,299.529 253.308,300.000 253.308 C 300.466 253.308,300.567 252.636,300.567 249.527 C 300.567 247.259,300.718 245.747,300.945 245.747 C 301.172 245.747,301.323 244.234,301.323 241.966 C 301.323 238.857,301.424 238.185,301.890 238.185 C 302.362 238.185,302.457 237.450,302.457 233.837 C 302.457 231.191,302.605 229.490,302.836 229.490 C 303.064 229.490,303.214 227.914,303.214 225.520 C 303.214 222.243,303.313 221.550,303.781 221.550 C 304.250 221.550,304.348 220.836,304.348 217.391 C 304.348 214.871,304.497 213.233,304.726 213.233 C 304.954 213.233,305.104 211.657,305.104 209.263 C 305.104 205.986,305.203 205.293,305.671 205.293 C 306.137 205.293,306.238 204.625,306.238 201.553 C 306.238 198.577,306.354 197.768,306.805 197.595 C 307.262 197.420,307.372 196.565,307.372 193.207 C 307.372 190.678,307.521 189.036,307.750 189.036 C 307.977 189.036,308.129 187.537,308.129 185.296 C 308.129 182.320,308.244 181.511,308.696 181.338 C 309.152 181.163,309.263 180.308,309.263 176.949 C 309.263 174.421,309.412 172.779,309.641 172.779 C 309.869 172.779,310.019 171.204,310.019 168.809 C 310.019 165.532,310.118 164.839,310.586 164.839 C 311.052 164.839,311.153 164.167,311.153 161.059 C 311.153 158.790,311.304 157.278,311.531 157.278 C 311.744 157.278,311.909 156.207,311.909 154.820 C 311.909 152.888,312.030 152.363,312.476 152.363 C 312.829 152.363,313.043 152.006,313.043 151.418 C 313.043 150.898,313.214 150.473,313.422 150.473 C 313.629 150.473,313.800 150.047,313.800 149.527 C 313.800 148.939,314.014 148.582,314.367 148.582 C 314.720 148.582,314.934 148.225,314.934 147.637 C 314.934 147.117,315.104 146.692,315.312 146.692 C 315.520 146.692,315.690 146.437,315.690 146.125 C 315.690 145.813,315.872 145.558,316.095 145.558 C 316.618 145.558,317.580 144.596,317.580 144.072 C 317.580 143.850,318.018 143.667,318.553 143.667 C 319.549 143.667,320.605 142.903,320.605 142.182 C 320.605 141.959,321.285 141.777,322.117 141.777 C 322.949 141.777,323.629 141.607,323.629 141.399 C 323.629 141.180,324.827 141.021,326.465 141.021 C 328.103 141.021,329.301 141.180,329.301 141.399 " stroke="none" fill="#146bb7" fill-rule="evenodd"></path><path id="path4" d="" stroke="none" fill="#00ffff" fill-rule="evenodd"></path></g></svg>