<svg id="svg" version="1.1" width="400" height="360" xmlns="http://www.w3.org/2000/svg" xmlns:xlink="http://www.w3.org/1999/xlink" style="display: block;"><g id="svgg"><path id="path0" d="" stroke="none" fill="#000000" fill-rule="evenodd"></path><path id="path1" d="" stroke="none" fill="#808080" fill-rule="evenodd"></path><path id="path2" d="" stroke="none" fill="#bfbfbf" fill-rule="evenodd"></path><path id="path3" d="" stroke="none" fill="#d4d4d4" fill-rule="evenodd"></path><path id="path4" d="M188.659 22.674 C 188.659 23.317,188.427 23.402,186.679 23.402 C 184.938 23.402,184.698 23.490,184.698 24.122 C 184.698 24.755,184.458 24.842,182.718 24.842 C 181.198 24.842,180.738 24.968,180.738 25.383 C 180.738 25.714,180.401 25.923,179.867 25.923 C 178.650 25.923,177.858 26.278,177.858 26.823 C 177.858 27.077,177.615 27.379,177.318 27.493 C 177.021 27.607,176.778 27.948,176.778 28.252 C 176.778 28.638,176.413 28.803,175.556 28.803 C 174.802 28.803,174.255 29.010,174.127 29.343 C 174.013 29.640,173.672 29.883,173.369 29.883 C 173.057 29.883,172.817 30.196,172.817 30.603 C 172.817 31.083,172.577 31.323,172.097 31.323 C 171.617 31.323,171.377 31.563,171.377 32.043 C 171.377 32.523,171.137 32.763,170.657 32.763 C 170.257 32.763,169.937 33.003,169.937 33.303 C 169.937 33.600,169.679 33.843,169.363 33.843 C 169.048 33.843,168.705 34.167,168.601 34.563 C 168.498 34.959,168.189 35.284,167.915 35.284 C 167.641 35.284,167.417 35.608,167.417 36.004 C 167.417 36.484,167.177 36.724,166.697 36.724 C 166.231 36.724,165.977 36.964,165.977 37.402 C 165.977 37.777,165.655 38.164,165.257 38.268 C 164.732 38.405,164.536 38.759,164.536 39.570 C 164.536 40.320,164.360 40.684,163.996 40.684 C 163.699 40.684,163.456 40.989,163.456 41.362 C 163.456 41.737,163.135 42.124,162.736 42.229 C 162.212 42.366,162.016 42.720,162.016 43.531 C 162.016 44.360,161.852 44.644,161.373 44.644 C 160.906 44.644,160.705 44.964,160.641 45.807 C 160.592 46.446,160.314 47.102,160.024 47.265 C 159.661 47.468,159.496 48.173,159.496 49.523 C 159.496 51.245,159.408 51.485,158.776 51.485 C 158.109 51.485,158.056 51.725,158.056 54.725 C 158.056 57.726,158.002 57.966,157.336 57.966 C 156.642 57.966,156.616 58.206,156.616 64.626 C 156.616 71.047,156.642 71.287,157.336 71.287 C 158.006 71.287,158.056 71.527,158.056 74.723 C 158.056 77.796,158.122 78.148,158.686 78.054 C 159.215 77.965,159.333 78.278,159.424 80.018 C 159.503 81.537,159.671 82.088,160.054 82.088 C 160.502 82.088,160.792 83.241,160.619 84.338 C 160.595 84.487,160.900 84.608,161.296 84.608 C 161.900 84.608,162.016 84.848,162.016 86.091 C 162.016 87.395,162.102 87.550,162.736 87.384 C 163.366 87.220,163.456 87.373,163.456 88.603 C 163.456 89.746,163.585 90.009,164.143 90.009 C 164.652 90.009,164.780 90.195,164.641 90.729 C 164.496 91.282,164.630 91.449,165.215 91.449 C 165.652 91.449,165.977 91.679,165.977 91.989 C 165.977 92.289,166.297 92.529,166.697 92.529 C 167.297 92.529,167.417 92.769,167.417 93.969 C 167.417 95.010,167.567 95.410,167.957 95.410 C 168.254 95.410,168.497 95.642,168.497 95.925 C 168.497 96.209,168.821 96.544,169.217 96.670 C 169.613 96.795,169.937 97.130,169.937 97.414 C 169.937 97.776,170.367 97.930,171.377 97.930 C 172.548 97.930,172.817 98.057,172.817 98.608 C 172.817 98.997,173.144 99.371,173.584 99.486 C 174.123 99.627,174.282 99.867,174.119 100.292 C 173.938 100.764,174.046 100.855,174.612 100.707 C 175.152 100.566,175.338 100.693,175.338 101.204 C 175.338 101.762,175.601 101.890,176.744 101.890 C 177.973 101.890,178.127 101.981,177.962 102.610 C 177.796 103.244,177.951 103.330,179.256 103.330 C 180.498 103.330,180.738 103.447,180.738 104.050 C 180.738 104.446,180.860 104.751,181.008 104.728 C 182.129 104.551,183.258 104.843,183.258 105.311 C 183.258 105.725,183.718 105.851,185.239 105.851 C 186.979 105.851,187.219 105.938,187.219 106.571 C 187.219 107.227,187.459 107.291,189.919 107.291 C 192.379 107.291,192.619 107.355,192.619 108.011 C 192.619 108.707,192.859 108.731,200.000 108.731 C 207.141 108.731,207.381 108.707,207.381 108.011 C 207.381 107.344,207.621 107.291,210.621 107.291 C 213.621 107.291,213.861 107.237,213.861 106.571 C 213.861 105.938,214.101 105.851,215.842 105.851 C 217.362 105.851,217.822 105.725,217.822 105.311 C 217.822 104.920,218.222 104.770,219.262 104.770 C 220.462 104.770,220.702 104.650,220.702 104.050 C 220.702 103.467,220.942 103.330,221.962 103.330 C 222.982 103.330,223.222 103.193,223.222 102.610 C 223.222 102.130,223.462 101.890,223.942 101.890 C 224.342 101.890,224.662 101.650,224.662 101.350 C 224.662 100.883,225.792 100.591,226.913 100.767 C 227.061 100.791,227.183 100.486,227.183 100.090 C 227.183 99.610,227.423 99.370,227.903 99.370 C 228.383 99.370,228.623 99.130,228.623 98.650 C 228.623 98.170,228.863 97.930,229.343 97.930 C 229.739 97.930,230.063 97.698,230.063 97.414 C 230.063 97.130,230.387 96.795,230.783 96.670 C 231.179 96.544,231.503 96.209,231.503 95.925 C 231.503 95.642,231.746 95.410,232.043 95.410 C 232.343 95.410,232.583 95.090,232.583 94.689 C 232.583 94.209,232.823 93.969,233.303 93.969 C 233.783 93.969,234.023 93.729,234.023 93.249 C 234.023 92.769,234.263 92.529,234.743 92.529 C 235.144 92.529,235.464 92.289,235.464 91.989 C 235.464 91.692,235.707 91.449,236.004 91.449 C 236.394 91.449,236.544 91.049,236.544 90.009 C 236.544 88.809,236.664 88.569,237.264 88.569 C 237.847 88.569,237.984 88.329,237.984 87.309 C 237.984 86.289,238.121 86.049,238.704 86.049 C 239.304 86.049,239.424 85.809,239.424 84.608 C 239.424 83.568,239.574 83.168,239.964 83.168 C 240.341 83.168,240.504 82.788,240.504 81.908 C 240.504 80.888,240.641 80.648,241.224 80.648 C 241.857 80.648,241.944 80.408,241.944 78.668 C 241.944 76.928,242.031 76.688,242.664 76.688 C 243.369 76.688,243.384 76.448,243.384 65.347 C 243.384 54.245,243.369 54.005,242.664 54.005 C 242.008 54.005,241.944 53.765,241.944 51.305 C 241.944 48.845,241.880 48.605,241.224 48.605 C 240.641 48.605,240.504 48.365,240.504 47.345 C 240.504 46.465,240.341 46.085,239.964 46.085 C 239.574 46.085,239.424 45.685,239.424 44.644 C 239.424 43.444,239.304 43.204,238.704 43.204 C 238.121 43.204,237.984 42.964,237.984 41.944 C 237.984 40.924,237.847 40.684,237.264 40.684 C 236.784 40.684,236.544 40.444,236.544 39.964 C 236.544 39.564,236.304 39.244,236.004 39.244 C 235.626 39.244,235.464 38.864,235.464 37.984 C 235.464 36.964,235.326 36.724,234.743 36.724 C 234.263 36.724,234.023 36.484,234.023 36.004 C 234.023 35.524,233.783 35.284,233.303 35.284 C 232.823 35.284,232.583 35.044,232.583 34.563 C 232.583 34.167,232.358 33.843,232.082 33.843 C 231.806 33.843,231.487 33.600,231.373 33.303 C 231.259 33.006,230.918 32.763,230.614 32.763 C 230.117 32.763,229.902 32.340,230.020 31.593 C 230.044 31.445,229.739 31.323,229.343 31.323 C 228.863 31.323,228.623 31.083,228.623 30.603 C 228.623 30.019,228.383 29.883,227.351 29.883 C 226.553 29.883,226.003 29.682,225.873 29.343 C 225.759 29.046,225.440 28.803,225.164 28.803 C 224.888 28.803,224.662 28.479,224.662 28.083 C 224.662 27.500,224.422 27.363,223.402 27.363 C 222.565 27.363,222.142 27.194,222.142 26.861 C 222.142 26.281,221.375 25.923,220.133 25.923 C 219.599 25.923,219.262 25.714,219.262 25.383 C 219.262 25.005,218.882 24.842,218.002 24.842 C 216.982 24.842,216.742 24.705,216.742 24.122 C 216.742 23.490,216.502 23.402,214.761 23.402 C 213.038 23.402,212.781 23.311,212.781 22.700 C 212.781 22.019,212.429 21.998,200.720 21.972 C 188.843 21.946,188.659 21.956,188.659 22.674 M64.913 26.635 C 64.731 27.332,64.444 27.363,58.104 27.363 C 51.782 27.363,51.485 27.394,51.485 28.065 C 51.485 28.667,51.191 28.782,49.415 28.875 C 47.994 28.949,47.373 29.124,47.435 29.433 C 47.511 29.816,46.041 30.104,44.914 29.926 C 44.766 29.902,44.644 30.207,44.644 30.603 C 44.644 31.186,44.404 31.323,43.384 31.323 C 42.364 31.323,42.124 31.460,42.124 32.043 C 42.124 32.676,41.884 32.763,40.144 32.763 C 38.624 32.763,38.164 32.889,38.164 33.303 C 38.164 33.603,37.844 33.843,37.444 33.843 C 36.964 33.843,36.724 34.083,36.724 34.563 C 36.724 35.208,36.350 35.452,35.554 35.326 C 35.405 35.303,35.284 35.608,35.284 36.004 C 35.284 36.587,35.044 36.724,34.023 36.724 C 33.003 36.724,32.763 36.861,32.763 37.444 C 32.763 37.924,32.523 38.164,32.043 38.164 C 31.643 38.164,31.323 38.404,31.323 38.704 C 31.323 39.004,31.003 39.244,30.603 39.244 C 30.123 39.244,29.883 39.484,29.883 39.964 C 29.883 40.547,29.643 40.684,28.623 40.684 C 27.603 40.684,27.363 40.821,27.363 41.404 C 27.363 41.811,27.123 42.124,26.811 42.124 C 26.508 42.124,26.167 42.367,26.053 42.664 C 25.939 42.961,25.620 43.204,25.344 43.204 C 24.999 43.204,24.842 43.654,24.842 44.644 C 24.842 45.845,24.722 46.085,24.122 46.085 C 23.726 46.085,23.402 46.317,23.402 46.600 C 23.402 46.884,23.078 47.219,22.682 47.345 C 22.286 47.470,21.962 47.805,21.962 48.089 C 21.962 48.555,21.526 48.763,20.792 48.647 C 20.644 48.624,20.522 49.253,20.522 50.045 C 20.522 51.085,20.372 51.485,19.982 51.485 C 19.605 51.485,19.442 51.865,19.442 52.745 C 19.442 53.752,19.302 54.005,18.744 54.005 C 18.197 54.005,18.021 54.298,17.934 55.356 C 17.858 56.266,17.646 56.706,17.282 56.706 C 16.877 56.706,16.715 57.224,16.634 58.776 C 16.554 60.295,16.387 60.846,16.004 60.846 C 15.557 60.846,15.482 62.838,15.482 74.707 C 15.482 86.789,15.551 88.569,16.022 88.569 C 16.436 88.569,16.562 89.029,16.562 90.549 C 16.562 92.289,16.649 92.529,17.282 92.529 C 17.701 92.529,18.002 92.769,18.002 93.103 C 18.002 93.419,18.326 93.762,18.722 93.865 C 19.242 94.001,19.442 94.356,19.442 95.142 C 19.442 95.740,19.695 96.415,20.004 96.641 C 20.313 96.867,20.580 97.565,20.598 98.193 C 20.616 98.820,20.728 99.323,20.846 99.309 C 21.619 99.221,21.962 99.462,21.962 100.090 C 21.962 100.570,22.202 100.810,22.682 100.810 C 23.082 100.810,23.402 101.050,23.402 101.350 C 23.402 101.650,23.722 101.890,24.122 101.890 C 24.602 101.890,24.842 102.130,24.842 102.610 C 24.842 103.010,25.083 103.330,25.383 103.330 C 25.870 103.330,26.082 103.758,25.965 104.500 C 25.942 104.649,26.247 104.770,26.643 104.770 C 27.039 104.770,27.363 105.004,27.363 105.289 C 27.363 105.628,27.830 105.846,28.713 105.919 C 29.767 106.006,30.040 106.169,29.957 106.661 C 29.885 107.090,30.086 107.291,30.587 107.291 C 31.083 107.291,31.323 107.526,31.323 108.011 C 31.323 108.589,31.563 108.731,32.541 108.731 C 33.457 108.731,33.806 108.910,33.948 109.451 C 34.092 110.003,34.439 110.171,35.430 110.171 C 36.340 110.171,36.724 110.331,36.724 110.711 C 36.724 111.011,37.044 111.251,37.444 111.251 C 37.924 111.251,38.164 111.491,38.164 111.971 C 38.164 112.626,38.404 112.691,40.824 112.691 C 43.137 112.691,43.478 112.774,43.434 113.321 C 43.391 113.873,43.800 113.964,46.715 114.055 C 49.350 114.137,50.045 114.268,50.045 114.685 C 50.045 115.099,50.611 115.212,52.703 115.212 C 55.059 115.212,55.383 115.294,55.550 115.932 C 55.720 116.581,56.041 116.652,58.832 116.652 C 61.686 116.652,61.926 116.708,61.926 117.372 C 61.926 117.768,62.048 118.073,62.196 118.049 C 63.403 117.859,64.806 118.163,64.806 118.616 C 64.806 119.017,65.420 119.165,67.417 119.246 C 69.671 119.338,70.013 119.438,69.921 119.982 C 69.828 120.536,70.144 120.612,72.531 120.612 C 75.144 120.612,75.454 120.744,75.290 121.782 C 75.267 121.931,75.896 122.052,76.688 122.052 C 77.898 122.052,78.128 122.170,78.128 122.788 C 78.128 123.289,78.329 123.490,78.758 123.418 C 79.187 123.346,79.354 123.513,79.282 123.942 C 79.192 124.478,79.469 124.572,81.130 124.572 C 82.782 124.572,83.114 124.684,83.273 125.293 C 83.417 125.844,83.764 126.013,84.755 126.013 C 85.809 126.013,86.049 126.146,86.049 126.733 C 86.049 127.213,86.289 127.453,86.769 127.453 C 87.169 127.453,87.489 127.693,87.489 127.993 C 87.489 128.290,87.732 128.533,88.029 128.533 C 88.329 128.533,88.569 128.853,88.569 129.253 C 88.569 129.853,88.809 129.973,90.009 129.973 C 91.209 129.973,91.449 130.093,91.449 130.693 C 91.449 131.180,91.689 131.413,92.190 131.413 C 92.643 131.413,92.835 131.569,92.684 131.813 C 92.311 132.418,93.249 132.842,94.971 132.848 C 96.005 132.851,96.580 133.031,96.719 133.393 C 97.016 134.167,100.810 134.167,100.810 133.393 C 100.810 133.016,101.190 132.853,102.070 132.853 L 103.330 132.853 103.330 134.833 C 103.330 135.923,103.452 136.794,103.600 136.771 C 104.343 136.654,104.770 136.867,104.770 137.354 C 104.770 137.768,105.231 137.894,106.751 137.894 L 108.731 137.894 108.731 139.334 C 108.731 140.126,108.852 140.755,109.001 140.731 C 109.744 140.614,110.171 140.827,110.171 141.314 C 110.171 141.691,110.551 141.854,111.431 141.854 C 112.451 141.854,112.691 141.991,112.691 142.574 C 112.691 143.054,112.931 143.294,113.411 143.294 C 114.013 143.294,114.131 143.534,114.131 144.758 L 114.131 146.222 117.962 146.134 C 121.246 146.059,121.816 145.957,121.956 145.424 C 122.046 145.081,122.429 144.720,122.807 144.621 C 123.260 144.503,123.420 144.245,123.275 143.868 C 123.082 143.364,123.560 143.294,127.234 143.294 C 131.173 143.294,131.413 143.253,131.413 142.574 C 131.413 141.991,131.653 141.854,132.673 141.854 C 133.533 141.854,133.933 141.689,133.933 141.333 C 133.933 140.958,134.464 140.781,135.824 140.703 L 137.714 140.594 137.826 139.244 C 137.902 138.319,138.111 137.894,138.489 137.894 C 138.793 137.894,139.123 137.581,139.223 137.199 C 139.335 136.770,139.606 136.581,139.931 136.705 C 140.265 136.834,140.530 136.627,140.658 136.140 C 140.768 135.719,141.082 135.374,141.356 135.374 C 141.736 135.374,141.854 134.732,141.854 132.673 C 141.854 130.213,141.918 129.973,142.574 129.973 C 143.274 129.973,143.294 129.733,143.294 121.332 L 143.294 112.691 141.314 112.691 C 139.341 112.691,139.334 112.688,139.334 111.577 C 139.334 110.766,139.138 110.412,138.614 110.275 C 138.215 110.171,137.894 109.784,137.894 109.409 C 137.894 108.878,137.629 108.731,136.676 108.731 C 135.760 108.731,135.411 108.552,135.269 108.011 C 135.166 107.615,134.823 107.291,134.507 107.291 C 134.173 107.291,133.933 106.989,133.933 106.571 C 133.933 106.091,133.693 105.851,133.213 105.851 C 132.813 105.851,132.493 105.611,132.493 105.311 C 132.493 104.882,131.973 104.770,129.973 104.770 L 127.453 104.770 127.453 100.810 C 127.453 97.090,127.409 96.850,126.733 96.850 C 126.253 96.850,126.013 96.610,126.013 96.130 C 126.013 95.650,125.773 95.410,125.293 95.410 C 124.886 95.410,124.572 95.170,124.572 94.858 C 124.572 94.555,124.329 94.214,124.032 94.100 C 123.735 93.986,123.492 93.651,123.492 93.357 C 123.492 93.063,123.168 92.737,122.772 92.634 C 122.376 92.530,122.052 92.221,122.052 91.947 C 122.052 91.673,121.728 91.449,121.332 91.449 C 120.852 91.449,120.612 91.209,120.612 90.729 C 120.612 90.249,120.372 90.009,119.892 90.009 C 119.309 90.009,119.172 89.769,119.172 88.749 C 119.172 87.869,119.009 87.489,118.632 87.489 C 118.332 87.489,118.092 87.169,118.092 86.769 C 118.092 86.289,117.852 86.049,117.372 86.049 C 116.892 86.049,116.652 85.809,116.652 85.329 C 116.652 84.848,116.412 84.608,115.932 84.608 C 115.349 84.608,115.212 84.368,115.212 83.348 C 115.212 82.468,115.049 82.088,114.671 82.088 C 114.364 82.088,114.114 81.740,114.090 81.278 C 114.002 79.556,113.932 79.389,113.321 79.438 C 112.821 79.478,112.691 79.200,112.691 78.088 C 112.691 76.928,112.568 76.688,111.971 76.688 C 111.491 76.688,111.251 76.448,111.251 75.968 C 111.251 75.568,111.011 75.248,110.711 75.248 C 110.304 75.248,110.171 74.810,110.171 73.472 C 110.171 72.012,110.043 71.655,109.451 71.467 C 108.915 71.297,108.731 70.922,108.731 70.003 C 108.731 69.007,108.591 68.767,108.011 68.767 C 107.411 68.767,107.291 68.527,107.291 67.327 C 107.291 66.127,107.171 65.887,106.571 65.887 C 105.946 65.887,105.851 65.647,105.851 64.075 C 105.851 62.797,105.692 62.203,105.311 62.056 C 104.977 61.929,104.770 61.381,104.770 60.628 C 104.770 59.646,104.629 59.406,104.050 59.406 C 103.418 59.406,103.330 59.166,103.330 57.426 C 103.330 55.686,103.243 55.446,102.610 55.446 C 101.977 55.446,101.890 55.206,101.890 53.465 C 101.890 51.945,101.765 51.485,101.350 51.485 C 100.959 51.485,100.810 51.083,100.810 50.024 C 100.810 49.220,100.669 48.650,100.496 48.756 C 100.138 48.978,97.930 46.985,97.930 46.442 C 97.930 46.245,97.606 46.085,97.210 46.085 C 96.610 46.085,96.490 45.845,96.490 44.644 C 96.490 43.654,96.333 43.204,95.988 43.204 C 95.712 43.204,95.393 42.961,95.279 42.664 C 95.165 42.367,94.824 42.124,94.521 42.124 C 94.118 42.124,93.969 41.737,93.969 40.684 C 93.969 39.278,93.939 39.244,92.709 39.244 C 91.829 39.244,91.449 39.081,91.449 38.704 C 91.449 38.404,91.129 38.164,90.729 38.164 C 90.129 38.164,90.009 37.924,90.009 36.724 C 90.009 35.327,89.972 35.284,88.791 35.284 C 87.876 35.284,87.526 35.105,87.384 34.563 C 87.281 34.167,86.938 33.843,86.622 33.843 C 86.307 33.843,86.049 33.600,86.049 33.303 C 86.049 32.913,85.649 32.763,84.608 32.763 C 83.408 32.763,83.168 32.643,83.168 32.043 C 83.168 31.643,82.928 31.323,82.628 31.323 C 82.141 31.323,81.928 30.896,82.046 30.153 C 82.069 30.005,81.121 29.883,79.939 29.883 C 78.177 29.883,77.828 29.786,77.998 29.343 C 78.170 28.893,77.757 28.803,75.508 28.803 C 73.114 28.803,72.790 28.722,72.623 28.083 C 72.457 27.448,72.132 27.363,69.881 27.363 C 67.668 27.363,67.327 27.277,67.327 26.719 C 67.327 25.732,65.169 25.657,64.913 26.635 M330.153 26.631 C 330.153 27.279,329.923 27.363,328.139 27.363 C 326.428 27.363,326.097 27.471,325.937 28.083 C 325.772 28.715,325.446 28.803,323.270 28.803 C 321.307 28.803,320.792 28.915,320.792 29.343 C 320.792 29.758,320.332 29.883,318.812 29.883 C 317.072 29.883,316.832 29.970,316.832 30.603 C 316.832 31.083,316.592 31.323,316.112 31.323 C 315.632 31.323,315.392 31.563,315.392 32.043 C 315.392 32.643,315.152 32.763,313.951 32.763 C 312.911 32.763,312.511 32.913,312.511 33.303 C 312.511 33.667,312.147 33.843,311.397 33.843 C 310.586 33.843,310.232 34.039,310.095 34.563 C 309.920 35.234,309.539 35.451,308.777 35.311 C 308.604 35.280,308.564 35.519,308.688 35.842 C 308.841 36.242,308.682 36.491,308.192 36.619 C 307.650 36.761,307.471 37.110,307.471 38.026 C 307.471 39.207,307.427 39.244,306.031 39.244 C 305.239 39.244,304.610 39.365,304.633 39.514 C 304.749 40.249,304.540 40.684,304.072 40.684 C 303.733 40.684,303.515 41.151,303.442 42.034 C 303.355 43.088,303.192 43.361,302.700 43.279 C 302.271 43.207,302.070 43.408,302.070 43.909 C 302.070 44.404,301.835 44.644,301.350 44.644 C 300.770 44.644,300.630 44.884,300.630 45.880 C 300.630 46.814,300.448 47.174,299.884 47.353 C 299.435 47.495,299.216 47.792,299.333 48.097 C 299.460 48.428,299.280 48.605,298.819 48.605 C 298.177 48.605,298.110 48.859,298.110 51.305 C 298.110 53.765,298.046 54.005,297.390 54.005 C 296.734 54.005,296.670 54.245,296.670 56.706 C 296.670 59.166,296.606 59.406,295.950 59.406 C 295.371 59.406,295.230 59.646,295.230 60.628 C 295.230 61.381,295.023 61.929,294.689 62.056 C 294.350 62.186,294.149 62.737,294.149 63.535 C 294.149 64.566,294.013 64.806,293.429 64.806 C 292.846 64.806,292.709 65.047,292.709 66.067 C 292.709 67.087,292.572 67.327,291.989 67.327 C 291.593 67.327,291.288 67.448,291.312 67.597 C 291.502 68.804,291.184 69.785,290.549 69.951 C 289.937 70.111,289.829 70.442,289.829 72.154 C 289.829 73.704,289.705 74.167,289.289 74.167 C 288.912 74.167,288.749 74.547,288.749 75.428 C 288.749 76.448,288.612 76.688,288.029 76.688 C 287.432 76.688,287.309 76.928,287.309 78.088 C 287.309 79.200,287.179 79.478,286.679 79.438 C 286.332 79.410,286.049 79.631,286.049 79.928 C 286.049 80.225,285.765 80.584,285.419 80.726 C 285.018 80.891,284.788 81.374,284.788 82.052 C 284.788 82.804,284.575 83.187,284.068 83.348 C 283.533 83.518,283.348 83.893,283.348 84.813 C 283.348 85.809,283.208 86.049,282.628 86.049 C 282.148 86.049,281.908 86.289,281.908 86.769 C 281.908 87.169,281.668 87.489,281.368 87.489 C 281.071 87.489,280.828 87.732,280.828 88.029 C 280.828 88.329,280.508 88.569,280.108 88.569 C 279.628 88.569,279.388 88.809,279.388 89.289 C 279.388 89.769,279.148 90.009,278.668 90.009 C 278.188 90.009,277.948 90.249,277.948 90.729 C 277.948 91.209,277.708 91.449,277.228 91.449 C 276.828 91.449,276.508 91.689,276.508 91.989 C 276.508 92.286,276.265 92.529,275.968 92.529 C 275.578 92.529,275.428 92.929,275.428 93.969 C 275.428 95.170,275.308 95.410,274.707 95.410 C 274.227 95.410,273.987 95.650,273.987 96.130 C 273.987 96.610,273.747 96.850,273.267 96.850 C 272.684 96.850,272.547 97.090,272.547 98.110 C 272.547 98.990,272.384 99.370,272.007 99.370 C 271.599 99.370,271.467 99.811,271.467 101.181 C 271.467 102.459,271.626 103.054,272.007 103.200 C 273.698 103.849,272.536 104.770,270.027 104.770 C 268.027 104.770,267.507 104.882,267.507 105.311 C 267.507 105.611,267.187 105.851,266.787 105.851 C 266.187 105.851,266.067 106.091,266.067 107.291 L 266.067 108.731 264.626 108.731 C 263.426 108.731,263.186 108.851,263.186 109.451 C 263.186 109.851,262.946 110.171,262.646 110.171 C 262.349 110.171,262.106 110.414,262.106 110.711 C 262.106 111.011,261.786 111.251,261.386 111.251 C 260.906 111.251,260.666 111.491,260.666 111.971 C 260.666 112.554,260.426 112.691,259.406 112.691 C 258.386 112.691,258.146 112.828,258.146 113.411 C 258.146 113.891,257.906 114.131,257.426 114.131 C 256.749 114.131,256.706 114.371,256.706 118.092 C 256.706 121.812,256.749 122.052,257.426 122.052 C 258.109 122.052,258.146 122.292,258.146 126.733 C 258.146 130.653,258.234 131.413,258.686 131.413 C 259.100 131.413,259.226 131.873,259.226 133.393 C 259.226 135.134,259.313 135.374,259.946 135.374 C 260.426 135.374,260.666 135.614,260.666 136.094 C 260.666 136.490,260.788 136.794,260.936 136.771 C 261.829 136.630,262.106 136.929,262.106 138.032 C 262.106 138.953,262.284 139.297,262.837 139.441 C 263.238 139.546,263.522 139.848,263.467 140.113 C 263.400 140.432,263.820 140.632,264.716 140.706 C 265.600 140.779,266.067 140.997,266.067 141.336 C 266.067 141.688,266.470 141.854,267.327 141.854 C 268.347 141.854,268.587 141.991,268.587 142.574 C 268.587 143.253,268.827 143.294,272.766 143.294 C 276.440 143.294,276.918 143.364,276.725 143.868 C 276.580 144.245,276.740 144.503,277.193 144.621 C 277.571 144.720,277.954 145.081,278.044 145.424 C 278.184 145.957,278.754 146.059,282.038 146.134 L 285.869 146.222 285.869 144.038 L 285.869 141.854 287.849 141.854 C 289.369 141.854,289.829 141.729,289.829 141.314 C 289.829 140.827,290.256 140.614,290.999 140.731 C 291.148 140.755,291.269 140.126,291.269 139.334 L 291.269 137.894 292.725 137.894 C 293.912 137.894,294.161 137.777,294.075 137.264 C 294.003 136.835,294.170 136.667,294.599 136.739 C 295.136 136.830,295.230 136.550,295.230 134.849 L 295.230 132.853 296.670 132.853 C 297.710 132.853,298.110 133.003,298.110 133.393 C 298.110 133.808,298.570 133.933,300.090 133.933 C 301.610 133.933,302.070 133.808,302.070 133.393 C 302.070 133.096,302.381 132.853,302.761 132.853 C 303.834 132.853,304.590 132.465,304.590 131.915 C 304.590 131.486,306.029 131.186,307.201 131.371 C 307.349 131.394,307.471 131.089,307.471 130.693 C 307.471 130.110,307.711 129.973,308.731 129.973 C 309.751 129.973,309.991 129.836,309.991 129.253 C 309.991 128.773,310.231 128.533,310.711 128.533 C 311.111 128.533,311.431 128.293,311.431 127.993 C 311.431 127.696,311.674 127.453,311.971 127.453 C 312.271 127.453,312.511 127.133,312.511 126.733 C 312.511 126.253,312.751 126.013,313.231 126.013 C 313.711 126.013,313.951 125.773,313.951 125.293 C 313.951 124.660,314.191 124.572,315.932 124.572 C 317.639 124.572,317.912 124.478,317.912 123.886 C 317.912 123.377,318.098 123.248,318.632 123.388 C 319.184 123.533,319.352 123.399,319.352 122.814 C 319.352 122.131,319.556 122.052,321.332 122.052 C 323.072 122.052,323.312 121.965,323.312 121.332 C 323.312 120.699,323.552 120.612,325.293 120.612 C 327.033 120.612,327.273 120.525,327.273 119.892 C 327.273 119.240,327.513 119.172,329.804 119.172 C 331.722 119.172,332.386 119.041,332.543 118.632 C 332.657 118.335,333.057 118.092,333.432 118.092 C 333.873 118.092,334.113 117.838,334.113 117.372 C 334.113 116.708,334.353 116.652,337.207 116.652 C 339.999 116.652,340.320 116.581,340.490 115.932 C 340.657 115.294,340.981 115.212,343.336 115.212 C 345.459 115.212,345.995 115.103,345.995 114.671 C 345.995 114.202,350.483 113.791,352.236 114.099 C 352.402 114.128,352.623 113.823,352.728 113.422 C 352.897 112.777,353.210 112.691,355.398 112.691 C 357.636 112.691,357.876 112.622,357.876 111.971 C 357.876 111.565,358.116 111.251,358.427 111.251 C 358.730 111.251,359.072 111.008,359.186 110.711 C 359.314 110.378,359.861 110.171,360.615 110.171 C 361.596 110.171,361.836 110.030,361.836 109.451 C 361.836 108.794,362.987 108.458,364.446 108.688 C 364.595 108.712,364.716 108.407,364.716 108.011 C 364.716 107.526,364.956 107.291,365.452 107.291 C 365.953 107.291,366.154 107.090,366.082 106.661 C 366.000 106.169,366.273 106.006,367.327 105.919 C 368.598 105.814,368.677 105.736,368.677 104.592 C 368.677 103.483,368.780 103.366,369.847 103.263 C 370.908 103.161,371.027 103.028,371.127 101.839 C 371.218 100.740,371.350 100.557,371.937 100.711 C 372.468 100.850,372.637 100.710,372.637 100.132 C 372.637 99.610,372.864 99.370,373.357 99.370 C 373.753 99.370,374.058 99.248,374.035 99.100 C 373.918 98.357,374.130 97.930,374.617 97.930 C 374.995 97.930,375.158 97.550,375.158 96.670 C 375.158 95.650,375.295 95.410,375.878 95.410 C 376.474 95.410,376.598 95.170,376.598 94.011 C 376.598 92.916,376.754 92.572,377.318 92.425 C 377.842 92.288,378.038 91.934,378.038 91.123 C 378.038 90.238,378.190 90.009,378.781 90.009 C 379.272 90.009,379.502 89.796,379.459 89.379 C 379.225 87.077,379.514 84.608,380.018 84.608 C 380.486 84.608,380.558 83.207,380.558 74.156 C 380.558 65.197,380.481 63.674,380.018 63.497 C 379.630 63.348,379.478 62.741,379.478 61.348 C 379.478 59.646,379.389 59.406,378.758 59.406 C 378.158 59.406,378.038 59.166,378.038 57.966 C 378.038 56.766,377.918 56.526,377.318 56.526 C 376.685 56.526,376.598 56.286,376.598 54.545 C 376.598 52.805,376.510 52.565,375.878 52.565 C 375.295 52.565,375.158 52.325,375.158 51.305 C 375.158 50.425,374.995 50.045,374.617 50.045 C 374.317 50.045,374.077 49.725,374.077 49.325 C 374.077 48.929,373.956 48.624,373.807 48.647 C 372.936 48.785,372.637 48.490,372.637 47.491 C 372.637 46.680,372.442 46.326,371.917 46.189 C 371.519 46.085,371.197 45.698,371.197 45.323 C 371.197 44.950,370.965 44.644,370.681 44.644 C 370.398 44.644,370.059 44.309,369.929 43.898 C 369.786 43.450,369.490 43.230,369.184 43.347 C 368.854 43.474,368.677 43.295,368.677 42.833 C 368.677 42.364,368.433 42.124,367.957 42.124 C 367.550 42.124,367.237 41.884,367.237 41.573 C 367.237 41.270,367.010 40.934,366.732 40.828 C 366.455 40.721,366.146 40.321,366.046 39.939 C 365.946 39.557,365.606 39.244,365.290 39.244 C 364.975 39.244,364.716 39.001,364.716 38.704 C 364.716 38.404,364.396 38.164,363.996 38.164 C 363.516 38.164,363.276 37.924,363.276 37.444 C 363.276 36.964,363.036 36.724,362.556 36.724 C 362.076 36.724,361.836 36.484,361.836 36.004 C 361.836 35.421,361.596 35.284,360.576 35.284 C 359.556 35.284,359.316 35.146,359.316 34.563 C 359.316 34.083,359.076 33.843,358.596 33.843 C 358.196 33.843,357.876 33.603,357.876 33.303 C 357.876 32.926,357.496 32.763,356.616 32.763 C 355.596 32.763,355.356 32.626,355.356 32.043 C 355.356 31.410,355.116 31.323,353.375 31.323 C 351.621 31.323,351.395 31.239,351.395 30.587 C 351.395 30.183,351.193 29.878,350.945 29.910 C 349.586 30.086,348.515 29.836,348.515 29.343 C 348.515 28.969,348.139 28.803,347.297 28.803 C 346.381 28.803,346.032 28.624,345.890 28.083 C 345.711 27.396,345.399 27.363,339.188 27.363 C 333.160 27.363,332.673 27.314,332.673 26.716 C 332.673 26.234,332.354 26.048,331.413 25.985 C 330.359 25.914,330.153 26.019,330.153 26.631 M69.921 34.653 C 69.830 35.196,70.119 35.284,71.991 35.284 C 73.927 35.284,74.167 35.363,74.167 36.004 C 74.167 36.400,74.392 36.724,74.665 36.724 C 74.939 36.724,75.251 37.058,75.358 37.466 C 75.464 37.874,75.767 38.179,76.030 38.143 C 77.625 37.927,79.208 38.206,79.208 38.704 C 79.208 39.094,79.608 39.244,80.648 39.244 C 81.848 39.244,82.088 39.364,82.088 39.964 C 82.088 40.430,82.328 40.684,82.768 40.684 C 83.195 40.684,83.430 40.919,83.398 41.314 C 83.370 41.667,83.560 41.900,83.829 41.844 C 84.094 41.789,84.396 42.072,84.501 42.474 C 84.608 42.882,84.992 43.204,85.371 43.204 C 85.809 43.204,86.049 43.459,86.049 43.924 C 86.049 44.404,86.289 44.644,86.769 44.644 C 87.249 44.644,87.489 44.884,87.489 45.365 C 87.489 45.765,87.729 46.085,88.029 46.085 C 88.406 46.085,88.569 46.465,88.569 47.345 C 88.569 48.365,88.706 48.605,89.289 48.605 C 89.769 48.605,90.009 48.845,90.009 49.325 C 90.009 49.805,90.249 50.045,90.729 50.045 C 91.312 50.045,91.449 50.285,91.449 51.305 C 91.449 52.185,91.612 52.565,91.989 52.565 C 92.404 52.565,92.529 53.025,92.529 54.545 C 92.529 56.286,92.617 56.526,93.249 56.526 C 93.881 56.526,93.969 56.766,93.969 58.482 C 93.969 60.121,94.086 60.474,94.689 60.666 C 95.295 60.858,95.410 61.211,95.410 62.889 C 95.410 64.514,95.510 64.845,95.950 64.676 C 96.337 64.528,96.490 64.712,96.490 65.328 C 96.490 66.880,96.860 67.327,98.148 67.327 L 99.370 67.327 99.370 69.307 C 99.370 71.047,99.457 71.287,100.090 71.287 C 100.690 71.287,100.810 71.527,100.810 72.727 C 100.810 73.767,100.960 74.167,101.350 74.167 C 101.841 74.167,102.075 75.021,101.917 76.238 C 101.885 76.485,102.190 76.688,102.594 76.688 C 103.195 76.688,103.330 76.919,103.330 77.948 C 103.330 78.968,103.467 79.208,104.050 79.208 C 104.650 79.208,104.770 79.448,104.770 80.648 C 104.770 81.688,104.920 82.088,105.311 82.088 C 105.608 82.088,105.851 82.331,105.851 82.628 C 105.851 82.928,106.171 83.168,106.571 83.168 C 107.171 83.168,107.291 83.408,107.291 84.608 C 107.291 85.809,107.411 86.049,108.011 86.049 C 108.594 86.049,108.731 86.289,108.731 87.309 C 108.731 88.329,108.868 88.569,109.451 88.569 C 109.931 88.569,110.171 88.809,110.171 89.289 C 110.171 89.689,110.411 90.009,110.711 90.009 C 111.075 90.009,111.251 90.373,111.251 91.123 C 111.251 91.934,111.447 92.288,111.971 92.425 C 112.370 92.529,112.691 92.916,112.691 93.291 C 112.691 93.729,112.946 93.969,113.411 93.969 C 113.891 93.969,114.131 94.209,114.131 94.689 C 114.131 95.090,114.371 95.410,114.671 95.410 C 114.968 95.410,115.212 95.642,115.212 95.925 C 115.212 96.209,115.536 96.544,115.932 96.670 C 116.328 96.795,116.652 97.130,116.652 97.414 C 116.652 97.698,116.976 97.930,117.372 97.930 C 117.852 97.930,118.092 98.170,118.092 98.650 C 118.092 99.046,118.325 99.370,118.610 99.370 C 118.949 99.370,119.167 99.837,119.240 100.720 C 119.428 102.988,119.144 104.770,118.594 104.770 C 118.318 104.770,118.092 104.995,118.092 105.269 C 118.092 105.542,117.768 105.851,117.372 105.955 C 116.976 106.058,116.652 106.401,116.652 106.717 C 116.652 107.051,116.350 107.291,115.932 107.291 C 115.452 107.291,115.212 107.531,115.212 108.011 C 115.212 108.411,114.971 108.731,114.671 108.731 C 114.374 108.731,114.131 109.044,114.131 109.426 C 114.131 110.190,113.273 110.435,111.341 110.222 C 110.605 110.140,110.171 109.894,110.171 109.558 C 110.171 109.264,109.856 108.941,109.470 108.840 C 108.967 108.709,108.739 108.287,108.660 107.344 C 108.589 106.486,108.364 106.018,108.011 105.995 C 107.714 105.976,107.106 105.936,106.661 105.905 C 106.205 105.875,105.851 105.614,105.851 105.311 C 105.851 105.014,105.608 104.770,105.311 104.770 C 105.011 104.770,104.770 104.450,104.770 104.050 C 104.770 103.570,104.530 103.330,104.050 103.330 C 103.570 103.330,103.330 103.090,103.330 102.610 C 103.330 102.130,103.090 101.890,102.610 101.890 C 102.210 101.890,101.890 101.650,101.890 101.350 C 101.890 101.053,101.581 100.810,101.204 100.810 C 100.695 100.810,100.566 100.624,100.706 100.090 C 100.872 99.456,100.717 99.370,99.412 99.370 C 98.365 99.370,97.930 99.218,97.930 98.854 C 97.930 98.570,97.606 98.236,97.210 98.110 C 96.814 97.984,96.490 97.649,96.490 97.365 C 96.490 97.082,96.247 96.850,95.950 96.850 C 95.650 96.850,95.410 96.530,95.410 96.130 C 95.410 95.650,95.170 95.410,94.689 95.410 C 94.209 95.410,93.969 95.170,93.969 94.689 C 93.969 94.209,93.729 93.969,93.249 93.969 C 92.757 93.969,92.529 93.729,92.529 93.211 C 92.529 92.699,92.361 92.517,92.012 92.651 C 91.355 92.903,91.239 92.304,91.389 89.451 C 91.483 87.665,91.619 87.216,92.019 87.370 C 92.448 87.535,92.529 86.500,92.529 80.867 C 92.529 75.152,92.450 74.167,91.989 74.167 C 91.495 74.167,91.245 73.093,91.424 71.731 C 91.456 71.481,91.354 71.297,91.196 71.324 C 90.312 71.473,90.009 71.179,90.009 70.173 C 90.009 69.362,89.813 69.008,89.289 68.871 C 88.893 68.768,88.569 68.467,88.569 68.203 C 88.569 67.939,88.354 67.593,88.092 67.435 C 87.829 67.276,87.506 66.853,87.374 66.494 C 87.242 66.135,86.960 65.949,86.747 66.080 C 86.532 66.213,86.272 65.983,86.162 65.563 C 86.050 65.132,85.673 64.806,85.287 64.806 C 84.848 64.806,84.608 64.552,84.608 64.086 C 84.608 63.403,84.368 63.366,79.928 63.366 C 77.354 63.366,75.267 63.488,75.290 63.636 C 75.405 64.363,75.200 64.806,74.749 64.806 C 74.476 64.806,74.166 65.131,74.063 65.528 C 73.937 66.009,73.683 66.176,73.301 66.030 C 72.888 65.871,72.727 66.022,72.727 66.568 C 72.727 67.087,72.499 67.327,72.007 67.327 C 71.376 67.327,71.287 67.567,71.287 69.265 C 71.287 70.846,71.165 71.235,70.623 71.377 C 69.659 71.629,69.632 73.819,70.590 74.069 C 71.194 74.227,71.287 74.581,71.287 76.730 C 71.287 78.968,71.357 79.208,72.007 79.208 C 72.607 79.208,72.727 79.448,72.727 80.648 L 72.727 82.088 70.027 82.088 C 67.567 82.088,67.327 82.024,67.327 81.368 C 67.327 80.685,67.087 80.648,62.646 80.648 C 58.206 80.648,57.966 80.685,57.966 81.368 C 57.966 82.001,57.726 82.088,55.986 82.088 C 54.465 82.088,54.005 82.214,54.005 82.628 C 54.005 82.925,53.695 83.168,53.315 83.168 C 52.242 83.168,51.485 83.556,51.485 84.107 C 51.485 84.383,51.161 84.608,50.765 84.608 C 50.109 84.608,50.045 84.848,50.045 87.309 C 50.045 89.769,49.981 90.009,49.325 90.009 C 48.760 90.009,48.605 90.249,48.605 91.123 C 48.605 91.934,48.801 92.288,49.325 92.425 C 49.931 92.583,50.045 92.916,50.045 94.527 C 50.045 96.125,50.164 96.479,50.765 96.670 C 51.161 96.795,51.485 97.130,51.485 97.414 C 51.485 97.763,51.892 97.930,52.745 97.930 C 53.765 97.930,54.005 98.067,54.005 98.650 C 54.005 99.283,54.245 99.370,55.986 99.370 C 57.735 99.370,57.966 99.455,57.966 100.100 C 57.966 100.815,58.154 100.830,66.607 100.797 C 74.900 100.765,75.248 100.736,75.248 100.067 C 75.248 99.440,75.517 99.370,77.948 99.370 C 80.408 99.370,80.648 99.306,80.648 98.650 C 80.648 97.994,80.888 97.930,83.348 97.930 C 85.809 97.930,86.049 97.994,86.049 98.650 C 86.049 99.130,86.289 99.370,86.769 99.370 C 87.249 99.370,87.489 99.610,87.489 100.090 C 87.489 100.486,87.714 100.810,87.990 100.810 C 88.266 100.810,88.585 101.053,88.699 101.350 C 88.813 101.647,89.154 101.890,89.458 101.890 C 89.769 101.890,90.009 102.204,90.009 102.610 C 90.009 103.090,90.249 103.330,90.729 103.330 C 91.209 103.330,91.449 103.570,91.449 104.050 C 91.449 104.450,91.689 104.770,91.989 104.770 C 92.286 104.770,92.529 105.014,92.529 105.311 C 92.529 105.611,92.849 105.851,93.249 105.851 C 93.729 105.851,93.969 106.091,93.969 106.571 C 93.969 107.036,94.209 107.291,94.647 107.291 C 95.023 107.291,95.410 107.612,95.514 108.011 C 95.649 108.527,96.005 108.731,96.774 108.731 C 97.565 108.731,97.898 108.932,98.046 109.498 C 98.180 110.010,98.433 110.193,98.808 110.049 C 99.196 109.900,99.370 110.046,99.370 110.521 C 99.370 111.055,99.671 111.233,100.720 111.319 C 101.774 111.407,102.047 111.569,101.964 112.061 C 101.892 112.490,102.093 112.691,102.594 112.691 C 103.090 112.691,103.330 112.926,103.330 113.411 C 103.330 113.891,103.570 114.131,104.050 114.131 C 104.450 114.131,104.770 114.371,104.770 114.671 C 104.770 114.968,105.014 115.212,105.311 115.212 C 105.798 115.212,106.010 115.639,105.893 116.382 C 105.870 116.530,106.175 116.652,106.571 116.652 C 107.051 116.652,107.291 116.892,107.291 117.372 C 107.291 117.852,107.051 118.092,106.571 118.092 C 106.164 118.092,105.851 118.332,105.851 118.643 C 105.851 118.946,105.608 119.288,105.311 119.402 C 105.014 119.516,104.770 119.835,104.770 120.111 C 104.770 120.564,104.328 120.770,103.600 120.655 C 103.452 120.631,103.330 121.260,103.330 122.052 C 103.330 123.266,103.214 123.492,102.589 123.492 C 102.155 123.492,101.946 123.652,102.085 123.877 C 102.216 124.088,101.983 124.350,101.566 124.459 C 101.136 124.571,100.810 124.948,100.810 125.335 C 100.810 125.923,100.525 126.013,98.650 126.013 C 96.709 126.013,96.490 125.937,96.490 125.271 C 96.490 124.838,96.330 124.629,96.105 124.767 C 95.894 124.898,95.632 124.665,95.523 124.249 C 95.415 123.833,95.039 123.492,94.689 123.492 C 94.340 123.492,93.969 123.168,93.865 122.772 C 93.728 122.248,93.374 122.052,92.563 122.052 C 91.689 122.052,91.449 121.897,91.449 121.332 C 91.449 120.852,91.209 120.612,90.729 120.612 C 90.333 120.612,90.009 120.386,90.009 120.111 C 90.009 119.560,89.252 119.172,88.179 119.172 C 87.800 119.172,87.489 118.929,87.489 118.632 C 87.489 118.242,87.089 118.092,86.049 118.092 C 84.848 118.092,84.608 117.972,84.608 117.372 C 84.608 116.789,84.368 116.652,83.348 116.652 C 82.328 116.652,82.088 116.515,82.088 115.932 C 82.088 115.292,81.848 115.212,79.939 115.212 C 78.177 115.212,77.828 115.114,77.998 114.671 C 78.141 114.297,77.973 114.131,77.446 114.131 C 76.928 114.131,76.688 113.904,76.688 113.411 C 76.688 112.755,76.448 112.691,73.987 112.691 C 71.527 112.691,71.287 112.627,71.287 111.971 C 71.287 111.315,71.047 111.251,68.587 111.251 C 66.427 111.251,65.887 111.143,65.887 110.711 C 65.887 110.271,65.287 110.171,62.646 110.171 C 59.646 110.171,59.406 110.118,59.406 109.451 C 59.406 108.781,59.166 108.731,55.986 108.731 C 52.805 108.731,52.565 108.680,52.565 108.011 C 52.565 107.431,52.325 107.291,51.332 107.291 C 50.450 107.291,50.064 107.114,49.978 106.670 C 49.860 106.056,49.499 105.988,45.815 105.884 C 45.029 105.861,44.644 105.673,44.644 105.311 C 44.644 104.896,44.184 104.770,42.664 104.770 C 40.924 104.770,40.684 104.683,40.684 104.050 C 40.684 103.454,40.444 103.330,39.284 103.330 C 38.171 103.330,37.894 103.201,37.934 102.700 C 37.961 102.354,37.786 102.109,37.545 102.157 C 37.303 102.204,36.933 101.921,36.722 101.527 C 36.452 101.023,35.968 100.810,35.091 100.810 C 34.083 100.810,33.843 100.672,33.843 100.090 C 33.843 99.690,33.603 99.370,33.303 99.370 C 33.003 99.370,32.763 99.050,32.763 98.650 C 32.763 98.170,32.523 97.930,32.043 97.930 C 31.643 97.930,31.323 97.690,31.323 97.390 C 31.323 97.090,31.003 96.850,30.603 96.850 C 30.123 96.850,29.883 96.610,29.883 96.130 C 29.883 95.730,29.643 95.410,29.343 95.410 C 29.043 95.410,28.803 95.090,28.803 94.689 C 28.803 94.209,28.563 93.969,28.083 93.969 C 27.424 93.969,27.184 93.579,27.335 92.753 C 27.367 92.579,27.062 92.524,26.658 92.630 C 26.023 92.796,25.923 92.653,25.923 91.584 C 25.923 90.816,25.718 90.268,25.383 90.139 C 25.086 90.025,24.842 89.639,24.842 89.280 C 24.842 88.243,24.447 87.489,23.904 87.489 C 23.520 87.489,23.402 86.857,23.402 84.788 C 23.402 82.320,23.340 82.088,22.676 82.088 C 21.965 82.088,21.951 81.906,22.046 73.357 C 22.135 65.272,22.189 64.634,22.772 64.732 C 23.306 64.822,23.402 64.547,23.402 62.929 C 23.402 61.409,23.549 60.927,24.122 60.570 C 24.582 60.283,24.842 59.730,24.842 59.043 C 24.842 58.325,25.023 57.966,25.383 57.966 C 25.760 57.966,25.923 57.586,25.923 56.706 C 25.923 55.686,26.060 55.446,26.643 55.446 C 27.123 55.446,27.363 55.206,27.363 54.725 C 27.363 54.254,27.603 54.005,28.059 54.005 C 28.600 54.005,28.748 53.764,28.724 52.920 C 28.685 51.565,28.883 51.368,30.238 51.406 C 31.266 51.435,31.323 51.363,31.323 50.021 C 31.323 48.845,31.445 48.605,32.043 48.605 C 32.523 48.605,32.763 48.365,32.763 47.885 C 32.763 47.485,33.003 47.165,33.303 47.165 C 33.600 47.165,33.843 46.922,33.843 46.625 C 33.843 46.325,34.163 46.085,34.563 46.085 C 35.044 46.085,35.284 45.845,35.284 45.365 C 35.284 44.884,35.524 44.644,36.004 44.644 C 36.484 44.644,36.724 44.404,36.724 43.924 C 36.724 43.426,36.964 43.204,37.504 43.204 C 37.933 43.204,38.177 43.098,38.047 42.967 C 37.721 42.642,38.528 41.724,38.925 41.969 C 39.100 42.078,39.244 41.833,39.244 41.425 C 39.244 40.801,39.470 40.684,40.684 40.684 C 41.884 40.684,42.124 40.564,42.124 39.964 C 42.124 39.381,42.364 39.244,43.384 39.244 C 44.264 39.244,44.644 39.081,44.644 38.704 C 44.644 38.327,45.025 38.164,45.905 38.164 C 46.925 38.164,47.165 38.027,47.165 37.444 C 47.165 36.844,47.405 36.724,48.605 36.724 C 49.805 36.724,50.045 36.604,50.045 36.004 C 50.045 35.348,50.285 35.284,52.745 35.284 C 55.215 35.284,55.446 35.221,55.446 34.556 C 55.446 33.847,55.629 33.831,62.736 33.926 C 69.450 34.016,70.019 34.073,69.921 34.653 M342.034 34.563 C 342.034 35.220,342.274 35.284,344.734 35.284 C 347.195 35.284,347.435 35.348,347.435 36.004 C 347.435 36.584,347.675 36.724,348.668 36.724 C 349.557 36.724,349.936 36.900,350.023 37.353 C 350.090 37.699,350.385 37.999,350.680 38.018 C 350.974 38.038,351.580 38.079,352.025 38.109 C 352.481 38.140,352.835 38.400,352.835 38.704 C 352.835 39.081,353.215 39.244,354.095 39.244 C 355.116 39.244,355.356 39.381,355.356 39.964 C 355.356 40.444,355.596 40.684,356.076 40.684 C 356.556 40.684,356.796 40.924,356.796 41.404 C 356.796 41.811,357.036 42.124,357.347 42.124 C 357.650 42.124,357.992 42.367,358.106 42.664 C 358.220 42.961,358.539 43.204,358.814 43.204 C 359.090 43.204,359.316 43.528,359.316 43.924 C 359.316 44.503,359.556 44.644,360.534 44.644 C 361.449 44.644,361.799 44.823,361.941 45.365 C 362.044 45.761,362.387 46.085,362.703 46.085 C 363.118 46.085,363.276 46.432,363.276 47.345 C 363.276 48.339,363.419 48.605,363.954 48.605 C 364.330 48.605,364.717 48.926,364.821 49.325 C 364.924 49.721,365.267 50.045,365.583 50.045 C 365.898 50.045,366.157 50.293,366.157 50.596 C 366.157 50.900,366.400 51.241,366.697 51.355 C 367.030 51.483,367.237 52.030,367.237 52.784 C 367.237 53.765,367.378 54.005,367.957 54.005 C 368.540 54.005,368.677 54.245,368.677 55.266 C 368.677 56.286,368.814 56.526,369.397 56.526 C 369.997 56.526,370.117 56.766,370.117 57.966 C 370.117 59.006,370.267 59.406,370.657 59.406 C 371.072 59.406,371.197 59.866,371.197 61.386 C 371.197 62.475,371.319 63.347,371.467 63.324 C 372.327 63.188,372.637 63.481,372.637 64.429 C 372.637 65.046,372.901 65.660,373.267 65.896 C 373.867 66.282,373.867 66.292,373.267 66.105 C 372.740 65.941,372.637 66.143,372.637 67.338 C 372.637 68.527,372.758 68.767,373.357 68.767 C 374.044 68.767,374.077 69.007,374.077 73.987 C 374.077 78.825,374.029 79.208,373.412 79.208 C 372.833 79.208,372.737 79.546,372.670 81.810 C 372.600 84.229,372.210 85.192,371.484 84.743 C 371.326 84.646,371.197 85.773,371.197 87.249 C 371.197 89.302,371.070 89.981,370.657 90.139 C 370.322 90.268,370.117 90.816,370.117 91.584 C 370.117 92.645,370.014 92.795,369.397 92.634 C 368.844 92.489,368.677 92.623,368.677 93.207 C 368.677 93.729,368.450 93.969,367.957 93.969 C 367.477 93.969,367.237 94.209,367.237 94.689 C 367.237 95.090,366.997 95.410,366.697 95.410 C 366.397 95.410,366.157 95.730,366.157 96.130 C 366.157 96.610,365.917 96.850,365.437 96.850 C 365.037 96.850,364.716 97.090,364.716 97.390 C 364.716 97.690,364.396 97.930,363.996 97.930 C 363.531 97.930,363.276 98.170,363.276 98.608 C 363.276 98.983,362.955 99.370,362.556 99.474 C 362.160 99.578,361.836 99.921,361.836 100.236 C 361.836 100.552,361.593 100.810,361.296 100.810 C 360.999 100.810,360.756 101.053,360.756 101.350 C 360.756 101.730,360.372 101.890,359.462 101.890 C 358.471 101.890,358.124 102.059,357.980 102.610 C 357.877 103.006,357.568 103.330,357.294 103.330 C 357.020 103.330,356.796 103.654,356.796 104.050 C 356.796 104.683,356.556 104.770,354.815 104.770 C 353.295 104.770,352.835 104.896,352.835 105.311 C 352.835 105.743,352.295 105.851,350.135 105.851 C 347.675 105.851,347.435 105.915,347.435 106.571 C 347.435 107.228,346.284 107.564,344.824 107.333 C 344.676 107.310,344.554 107.615,344.554 108.011 C 344.554 108.675,344.314 108.731,341.460 108.731 C 338.669 108.731,338.348 108.801,338.178 109.451 C 338.011 110.089,337.687 110.171,335.332 110.171 C 333.209 110.171,332.673 110.280,332.673 110.711 C 332.673 111.139,332.156 111.251,330.177 111.251 C 327.997 111.251,327.652 111.342,327.453 111.971 C 327.251 112.606,326.908 112.691,324.548 112.691 C 322.112 112.691,321.872 112.756,321.872 113.411 C 321.872 113.811,321.632 114.131,321.332 114.131 C 321.035 114.131,320.792 114.374,320.792 114.671 C 320.792 115.086,320.332 115.212,318.812 115.212 C 317.072 115.212,316.832 115.299,316.832 115.932 C 316.832 116.573,316.592 116.652,314.629 116.652 C 312.605 116.652,312.442 116.710,312.616 117.372 C 312.755 117.906,312.627 118.092,312.118 118.092 C 311.740 118.092,311.431 118.335,311.431 118.632 C 311.431 118.963,311.094 119.172,310.560 119.172 C 309.356 119.172,308.513 119.540,308.769 119.954 C 308.887 120.145,308.643 120.389,308.227 120.498 C 307.796 120.611,307.471 120.988,307.471 121.374 C 307.471 121.925,307.201 122.052,306.031 122.052 C 305.239 122.052,304.610 122.174,304.633 122.322 C 304.750 123.065,304.537 123.492,304.050 123.492 C 303.753 123.492,303.510 123.735,303.510 124.032 C 303.510 124.332,303.190 124.572,302.790 124.572 C 302.304 124.572,302.070 124.812,302.070 125.310 C 302.070 125.981,301.882 126.039,300.000 125.941 C 298.253 125.849,297.947 125.733,298.037 125.197 C 298.096 124.847,298.015 124.583,297.857 124.609 C 296.973 124.758,296.670 124.464,296.670 123.459 C 296.670 122.648,296.474 122.294,295.950 122.157 C 295.551 122.052,295.230 121.665,295.230 121.290 C 295.230 120.917,294.986 120.612,294.689 120.612 C 294.392 120.612,294.149 120.380,294.149 120.096 C 294.149 119.813,293.825 119.478,293.429 119.352 C 292.318 118.999,292.353 115.212,293.468 115.212 C 293.994 115.212,294.163 115.046,294.019 114.671 C 293.856 114.247,294.119 114.131,295.241 114.131 C 296.668 114.131,296.670 114.130,296.670 112.691 C 296.670 111.285,296.700 111.251,297.930 111.251 C 298.810 111.251,299.190 111.088,299.190 110.711 C 299.190 110.411,299.510 110.171,299.910 110.171 C 300.390 110.171,300.630 109.931,300.630 109.451 C 300.630 108.971,300.870 108.731,301.350 108.731 C 301.746 108.731,302.051 108.609,302.028 108.461 C 301.912 107.727,302.120 107.291,302.586 107.291 C 302.870 107.291,303.205 106.967,303.330 106.571 C 303.456 106.175,303.791 105.851,304.075 105.851 C 304.358 105.851,304.590 105.608,304.590 105.311 C 304.590 105.011,304.910 104.770,305.311 104.770 C 305.791 104.770,306.031 104.530,306.031 104.050 C 306.031 103.557,306.271 103.330,306.793 103.330 C 307.377 103.330,307.511 103.163,307.366 102.610 C 307.202 101.981,307.355 101.890,308.585 101.890 C 309.952 101.890,309.991 101.855,309.991 100.630 C 309.991 99.610,310.128 99.370,310.711 99.370 C 311.191 99.370,311.431 99.130,311.431 98.650 C 311.431 98.250,311.671 97.930,311.971 97.930 C 312.268 97.930,312.511 97.687,312.511 97.390 C 312.511 97.090,312.831 96.850,313.231 96.850 C 313.631 96.850,313.951 97.090,313.951 97.390 C 313.951 97.804,314.411 97.930,315.932 97.930 C 317.655 97.930,317.912 98.021,317.912 98.632 C 317.912 99.234,318.206 99.349,319.982 99.442 C 321.534 99.523,322.052 99.685,322.052 100.090 C 322.052 100.551,323.218 100.642,330.063 100.710 C 337.825 100.788,338.074 100.769,338.074 100.080 C 338.074 99.459,338.323 99.370,340.054 99.370 C 341.794 99.370,342.034 99.283,342.034 98.650 C 342.034 98.067,342.274 97.930,343.294 97.930 C 344.148 97.930,344.554 97.763,344.554 97.414 C 344.554 97.130,344.878 96.795,345.275 96.670 C 345.810 96.500,345.995 96.125,345.995 95.205 C 345.995 94.209,346.134 93.969,346.715 93.969 C 347.391 93.969,347.435 93.729,347.435 90.009 C 347.435 86.289,347.391 86.049,346.715 86.049 C 346.235 86.049,345.995 85.809,345.995 85.329 C 345.995 84.848,345.755 84.608,345.275 84.608 C 344.878 84.608,344.554 84.383,344.554 84.107 C 344.554 83.831,344.311 83.512,344.014 83.398 C 343.717 83.284,343.474 82.943,343.474 82.640 C 343.474 82.193,342.959 82.088,340.774 82.088 C 338.178 82.088,337.867 81.956,338.031 80.918 C 338.055 80.770,336.535 80.648,334.653 80.648 C 331.473 80.648,331.233 80.699,331.233 81.368 C 331.233 82.019,330.993 82.088,328.731 82.088 C 327.017 82.088,326.138 82.241,325.940 82.573 C 325.419 83.450,323.312 83.632,323.312 82.799 C 323.312 82.328,323.555 82.088,324.032 82.088 C 324.632 82.088,324.752 81.848,324.752 80.648 C 324.752 79.608,324.902 79.208,325.293 79.208 C 325.670 79.208,325.833 78.828,325.833 77.948 C 325.833 76.928,325.970 76.688,326.553 76.688 C 327.236 76.688,327.273 76.448,327.273 72.007 C 327.273 67.567,327.236 67.327,326.553 67.327 C 326.073 67.327,325.833 67.087,325.833 66.607 C 325.833 66.207,325.593 65.887,325.293 65.887 C 324.995 65.887,324.752 65.644,324.752 65.347 C 324.752 64.956,324.352 64.806,323.312 64.806 C 322.112 64.806,321.872 64.686,321.872 64.086 C 321.872 63.410,321.632 63.366,317.912 63.366 C 314.191 63.366,313.951 63.410,313.951 64.086 C 313.951 64.566,313.711 64.806,313.231 64.806 C 312.835 64.806,312.552 65.004,312.601 65.245 C 312.653 65.497,312.156 65.765,311.431 65.875 C 310.276 66.051,310.162 66.179,310.059 67.417 C 309.971 68.489,309.800 68.767,309.228 68.767 C 308.810 68.767,308.608 68.928,308.746 69.151 C 308.877 69.363,308.643 69.624,308.227 69.733 C 307.622 69.891,307.471 70.211,307.471 71.329 C 307.471 72.487,307.347 72.727,306.751 72.727 C 306.053 72.727,306.031 72.967,306.031 80.502 C 306.031 87.973,306.059 88.284,306.751 88.465 C 307.358 88.623,307.471 88.956,307.471 90.591 C 307.471 92.417,307.287 92.728,306.301 92.572 C 306.152 92.548,306.031 92.853,306.031 93.249 C 306.031 93.729,305.791 93.969,305.311 93.969 C 304.830 93.969,304.590 94.209,304.590 94.689 C 304.590 95.090,304.350 95.410,304.050 95.410 C 303.750 95.410,303.510 95.730,303.510 96.130 C 303.510 96.610,303.270 96.850,302.790 96.850 C 302.390 96.850,302.070 97.090,302.070 97.390 C 302.070 97.690,301.750 97.930,301.350 97.930 C 300.870 97.930,300.630 98.170,300.630 98.650 C 300.630 99.143,300.390 99.370,299.868 99.370 C 299.283 99.370,299.150 99.537,299.294 100.090 C 299.434 100.624,299.305 100.810,298.796 100.810 C 298.419 100.810,298.110 101.053,298.110 101.350 C 298.110 101.650,297.790 101.890,297.390 101.890 C 296.910 101.890,296.670 102.130,296.670 102.610 C 296.670 103.090,296.430 103.330,295.950 103.330 C 295.470 103.330,295.230 103.570,295.230 104.050 C 295.230 104.450,294.989 104.770,294.689 104.770 C 294.392 104.770,294.149 105.014,294.149 105.311 C 294.149 105.807,293.284 106.038,292.051 105.871 C 291.788 105.835,291.487 106.135,291.382 106.537 C 291.277 106.938,290.885 107.364,290.510 107.483 C 290.136 107.602,289.829 107.914,289.829 108.177 C 289.829 108.439,289.586 108.747,289.289 108.861 C 288.992 108.975,288.749 109.316,288.749 109.620 C 288.749 109.923,288.501 110.171,288.198 110.171 C 287.894 110.171,287.553 110.414,287.439 110.711 C 287.325 111.008,286.925 111.251,286.550 111.251 C 286.175 111.251,285.869 111.008,285.869 110.711 C 285.869 110.414,285.626 110.171,285.329 110.171 C 285.029 110.171,284.788 109.851,284.788 109.451 C 284.788 108.971,284.548 108.731,284.068 108.731 C 283.482 108.731,283.348 108.491,283.348 107.437 C 283.348 106.446,283.180 106.099,282.628 105.955 C 282.232 105.851,281.908 105.542,281.908 105.269 C 281.908 104.942,281.487 104.770,280.687 104.770 C 278.988 104.770,278.501 101.140,280.131 100.623 C 280.642 100.461,280.828 100.072,280.828 99.166 C 280.828 97.993,280.893 97.930,282.088 97.930 C 283.288 97.930,283.348 97.870,283.348 96.670 C 283.348 95.470,283.408 95.410,284.608 95.410 C 285.839 95.410,285.869 95.375,285.869 93.969 C 285.869 92.799,285.996 92.529,286.547 92.529 C 286.922 92.529,287.309 92.208,287.413 91.808 C 287.539 91.326,287.793 91.159,288.176 91.306 C 288.588 91.465,288.749 91.314,288.749 90.768 C 288.749 90.333,288.980 90.009,289.289 90.009 C 289.666 90.009,289.829 89.629,289.829 88.749 C 289.829 87.729,289.966 87.489,290.549 87.489 C 291.149 87.489,291.269 87.249,291.269 86.049 C 291.269 84.848,291.389 84.608,291.989 84.608 C 292.469 84.608,292.709 84.368,292.709 83.888 C 292.709 83.408,292.949 83.168,293.429 83.168 C 294.008 83.168,294.149 82.928,294.149 81.947 C 294.149 81.193,294.356 80.646,294.689 80.518 C 295.005 80.397,295.230 79.857,295.230 79.219 C 295.230 78.368,295.388 78.128,295.950 78.128 C 296.580 78.128,296.670 77.888,296.670 76.190 C 296.670 74.554,296.782 74.222,297.390 74.063 C 297.941 73.919,298.110 73.572,298.110 72.581 C 298.110 71.671,298.270 71.287,298.650 71.287 C 299.064 71.287,299.190 70.827,299.190 69.307 C 299.190 67.587,299.282 67.327,299.888 67.327 C 300.435 67.327,300.611 67.034,300.698 65.977 C 300.786 64.923,300.948 64.650,301.440 64.732 C 301.954 64.818,302.070 64.569,302.070 63.382 C 302.070 62.378,302.226 61.926,302.572 61.926 C 303.122 61.926,303.510 61.170,303.510 60.097 C 303.510 59.717,303.753 59.406,304.050 59.406 C 304.482 59.406,304.590 58.866,304.590 56.706 C 304.590 54.245,304.654 54.005,305.311 54.005 C 305.891 54.005,306.031 53.765,306.031 52.772 C 306.031 51.883,306.207 51.504,306.660 51.417 C 307.006 51.350,307.306 51.055,307.325 50.760 C 307.345 50.466,307.386 49.860,307.416 49.415 C 307.447 48.959,307.707 48.605,308.011 48.605 C 308.311 48.605,308.551 48.285,308.551 47.885 C 308.551 47.405,308.791 47.165,309.271 47.165 C 309.854 47.165,309.991 46.925,309.991 45.905 C 309.991 44.884,310.128 44.644,310.711 44.644 C 311.191 44.644,311.431 44.404,311.431 43.924 C 311.431 43.524,311.671 43.204,311.971 43.204 C 312.268 43.204,312.511 42.961,312.511 42.664 C 312.511 42.171,313.582 41.921,314.941 42.097 C 315.189 42.129,315.392 41.825,315.392 41.420 C 315.392 40.987,315.627 40.684,315.965 40.684 C 316.281 40.684,316.624 40.360,316.727 39.964 C 316.831 39.568,317.140 39.244,317.414 39.244 C 317.688 39.244,317.912 39.001,317.912 38.704 C 317.912 38.289,318.372 38.164,319.892 38.164 C 321.632 38.164,321.872 38.077,321.872 37.444 C 321.872 37.025,322.112 36.724,322.446 36.724 C 322.762 36.724,323.104 36.400,323.208 36.004 C 323.367 35.396,323.699 35.284,325.335 35.284 C 327.033 35.284,327.273 35.194,327.273 34.563 C 327.273 33.867,327.513 33.843,334.653 33.843 C 341.794 33.843,342.034 33.867,342.034 34.563 M204.590 42.754 C 204.526 43.074,205.125 43.204,206.661 43.204 C 208.581 43.204,208.821 43.284,208.821 43.924 C 208.821 44.507,209.061 44.644,210.081 44.644 C 211.101 44.644,211.341 44.782,211.341 45.365 C 211.341 45.761,211.463 46.065,211.611 46.042 C 212.732 45.865,213.861 46.158,213.861 46.625 C 213.861 46.925,214.181 47.165,214.581 47.165 C 215.062 47.165,215.302 47.405,215.302 47.885 C 215.302 48.365,215.542 48.605,216.022 48.605 C 216.502 48.605,216.742 48.845,216.742 49.325 C 216.742 49.805,216.982 50.045,217.462 50.045 C 217.942 50.045,218.182 50.285,218.182 50.765 C 218.182 51.165,218.422 51.485,218.722 51.485 C 219.099 51.485,219.262 51.865,219.262 52.745 C 219.262 53.765,219.399 54.005,219.982 54.005 C 220.565 54.005,220.702 54.245,220.702 55.266 C 220.702 56.286,220.839 56.526,221.422 56.526 C 222.053 56.526,222.142 56.766,222.142 58.467 C 222.142 59.861,222.295 60.467,222.682 60.616 C 223.117 60.783,223.222 61.597,223.222 64.795 C 223.222 68.086,223.130 68.767,222.682 68.767 C 222.268 68.767,222.142 69.227,222.142 70.747 C 222.142 72.487,222.055 72.727,221.422 72.727 C 220.839 72.727,220.702 72.967,220.702 73.987 C 220.702 75.008,220.565 75.248,219.982 75.248 C 219.382 75.248,219.262 75.488,219.262 76.688 C 219.262 77.674,219.105 78.128,218.764 78.128 C 218.490 78.128,218.181 78.453,218.077 78.849 C 217.951 79.331,217.698 79.498,217.315 79.351 C 216.902 79.193,216.742 79.343,216.742 79.889 C 216.742 80.408,216.514 80.648,216.022 80.648 C 215.542 80.648,215.302 80.888,215.302 81.368 C 215.302 81.764,215.118 82.088,214.893 82.088 C 214.412 82.088,212.781 83.771,212.781 84.267 C 212.781 84.455,212.133 84.608,211.341 84.608 C 210.549 84.608,209.920 84.730,209.944 84.878 C 210.100 85.869,209.789 86.049,207.921 86.049 C 206.181 86.049,205.941 86.136,205.941 86.769 C 205.941 87.460,205.701 87.489,200.000 87.489 C 194.299 87.489,194.059 87.460,194.059 86.769 C 194.059 86.169,193.819 86.049,192.619 86.049 C 191.419 86.049,191.179 85.929,191.179 85.329 C 191.179 84.746,190.939 84.608,189.919 84.608 C 189.065 84.608,188.659 84.442,188.659 84.093 C 188.659 83.809,188.335 83.474,187.939 83.348 C 187.543 83.223,187.219 82.888,187.219 82.604 C 187.219 82.255,186.812 82.088,185.959 82.088 C 184.938 82.088,184.698 81.951,184.698 81.368 C 184.698 80.888,184.458 80.648,183.978 80.648 C 183.395 80.648,183.258 80.408,183.258 79.388 C 183.258 78.368,183.121 78.128,182.538 78.128 C 182.058 78.128,181.818 77.888,181.818 77.408 C 181.818 77.008,181.578 76.688,181.278 76.688 C 180.901 76.688,180.738 76.308,180.738 75.428 C 180.738 74.407,180.601 74.167,180.018 74.167 C 179.418 74.167,179.298 73.927,179.298 72.727 C 179.298 71.527,179.178 71.287,178.578 71.287 C 177.473 71.287,177.454 59.596,178.558 59.307 C 179.122 59.159,179.279 58.750,179.368 57.195 C 179.459 55.590,179.584 55.283,180.108 55.371 C 180.622 55.458,180.738 55.208,180.738 54.021 C 180.738 52.967,180.887 52.565,181.278 52.565 C 181.575 52.565,181.818 52.322,181.818 52.025 C 181.818 51.725,182.138 51.485,182.538 51.485 C 183.018 51.485,183.258 51.245,183.258 50.765 C 183.258 50.285,183.498 50.045,183.978 50.045 C 184.458 50.045,184.698 49.805,184.698 49.325 C 184.698 48.845,184.938 48.605,185.419 48.605 C 185.815 48.605,186.119 48.483,186.096 48.335 C 185.979 47.592,186.192 47.165,186.679 47.165 C 186.976 47.165,187.219 46.922,187.219 46.625 C 187.219 46.235,187.619 46.085,188.659 46.085 C 189.859 46.085,190.099 45.965,190.099 45.365 C 190.099 44.782,190.339 44.644,191.359 44.644 C 192.379 44.644,192.619 44.507,192.619 43.924 C 192.619 43.292,192.859 43.204,194.599 43.204 C 196.138 43.204,196.580 43.081,196.580 42.652 C 196.580 42.183,197.187 42.116,200.630 42.202 C 203.636 42.278,204.657 42.420,204.590 42.754 M79.208 70.567 C 79.208 71.167,79.448 71.287,80.648 71.287 C 81.848 71.287,82.088 71.407,82.088 72.007 C 82.088 72.407,82.328 72.727,82.628 72.727 C 83.005 72.727,83.168 73.107,83.168 73.987 C 83.168 75.008,83.305 75.248,83.888 75.248 C 84.572 75.248,84.608 75.488,84.608 79.928 C 84.608 84.368,84.572 84.608,83.888 84.608 C 83.482 84.608,83.168 84.368,83.168 84.057 C 83.168 83.754,82.925 83.412,82.628 83.299 C 82.241 83.150,82.088 82.543,82.088 81.150 C 82.088 79.485,81.991 79.208,81.407 79.208 C 81.032 79.208,80.632 78.965,80.518 78.668 C 80.404 78.371,80.063 78.128,79.759 78.128 C 79.331 78.128,79.208 77.686,79.208 76.148 C 79.208 74.627,79.082 74.167,78.668 74.167 C 78.248 74.167,78.128 73.687,78.128 72.007 C 78.128 70.327,78.248 69.847,78.668 69.847 C 78.968 69.847,79.208 70.167,79.208 70.567 M319.456 72.007 C 319.560 72.403,319.903 72.727,320.218 72.727 C 320.552 72.727,320.792 73.029,320.792 73.447 C 320.792 73.927,320.552 74.167,320.072 74.167 C 319.494 74.167,319.352 74.407,319.352 75.386 C 319.352 76.301,319.173 76.650,318.632 76.792 C 318.108 76.929,317.912 77.283,317.912 78.094 C 317.912 78.844,317.735 79.208,317.372 79.208 C 316.982 79.208,316.832 79.608,316.832 80.648 C 316.832 81.848,316.712 82.088,316.112 82.088 C 315.716 82.088,315.392 82.320,315.392 82.604 C 315.392 83.243,314.196 83.655,313.231 83.348 C 312.582 83.142,312.511 82.804,312.511 79.904 C 312.511 76.928,312.565 76.688,313.231 76.688 C 313.835 76.688,313.951 76.448,313.951 75.209 C 313.951 74.081,314.072 73.777,314.462 73.926 C 315.033 74.145,315.392 73.463,315.392 72.158 C 315.392 70.943,319.142 70.804,319.456 72.007 M74.167 82.667 C 74.167 82.943,73.843 83.168,73.447 83.168 C 72.770 83.168,72.468 82.467,72.942 81.993 C 73.293 81.643,74.167 82.124,74.167 82.667 M67.327 89.289 C 67.327 89.922,67.567 90.009,69.307 90.009 C 71.047 90.009,71.287 90.096,71.287 90.729 C 71.287 91.209,71.527 91.449,72.007 91.449 C 72.407 91.449,72.727 91.689,72.727 91.989 C 72.727 92.289,73.047 92.529,73.447 92.529 C 73.927 92.529,74.167 92.769,74.167 93.249 C 74.167 93.928,73.927 93.969,70.027 93.969 C 66.245 93.969,65.887 93.912,65.887 93.306 C 65.887 92.266,62.303 92.206,62.033 93.242 C 61.779 94.209,60.486 94.216,60.486 93.249 C 60.486 92.671,60.246 92.529,59.264 92.529 C 58.511 92.529,57.963 92.322,57.836 91.989 C 57.722 91.692,57.380 91.449,57.077 91.449 C 56.674 91.449,56.526 91.062,56.526 90.009 L 56.526 88.569 61.926 88.569 C 67.087 88.569,67.327 88.601,67.327 89.289 M339.514 90.009 C 339.514 91.209,339.394 91.449,338.794 91.449 C 338.326 91.449,338.074 91.689,338.074 92.136 C 338.074 92.645,337.888 92.773,337.354 92.634 C 336.801 92.489,336.634 92.623,336.634 93.207 C 336.634 93.729,336.407 93.969,335.914 93.969 C 335.447 93.969,335.194 93.729,335.194 93.288 C 335.194 92.290,331.584 92.308,331.322 93.307 C 331.045 94.369,323.312 94.313,323.312 93.249 C 323.312 92.769,323.552 92.529,324.032 92.529 C 324.432 92.529,324.752 92.289,324.752 91.989 C 324.752 91.626,325.116 91.449,325.866 91.449 C 326.677 91.449,327.031 91.253,327.168 90.729 C 327.316 90.165,327.660 90.009,328.755 90.009 C 329.913 90.009,330.153 89.885,330.153 89.289 C 330.153 88.606,330.393 88.569,334.833 88.569 L 339.514 88.569 339.514 90.009 M272.547 114.671 C 272.547 114.968,272.304 115.212,272.007 115.212 C 271.710 115.212,271.467 114.968,271.467 114.671 C 271.467 114.374,271.710 114.131,272.007 114.131 C 272.304 114.131,272.547 114.374,272.547 114.671 M124.509 118.692 C 124.334 119.595,123.492 119.719,123.492 118.842 C 123.492 118.400,123.725 118.092,124.059 118.092 C 124.394 118.092,124.578 118.337,124.509 118.692 M169.980 120.882 C 170.151 121.964,169.850 122.052,165.977 122.052 C 162.256 122.052,162.016 122.096,162.016 122.772 C 162.016 123.355,161.776 123.492,160.756 123.492 C 159.876 123.492,159.496 123.655,159.496 124.032 C 159.496 124.507,157.214 124.858,155.775 124.605 C 155.609 124.576,155.388 124.880,155.283 125.282 C 155.177 125.684,154.867 126.013,154.593 126.013 C 154.320 126.013,154.095 126.337,154.095 126.733 C 154.095 127.319,153.855 127.453,152.802 127.453 C 151.826 127.453,151.463 127.624,151.326 128.148 C 151.218 128.561,150.940 128.765,150.640 128.649 C 150.305 128.521,150.135 128.712,150.135 129.214 C 150.135 129.733,149.907 129.973,149.415 129.973 C 148.935 129.973,148.695 130.213,148.695 130.693 C 148.695 131.173,148.455 131.413,147.975 131.413 C 147.579 131.413,147.274 131.535,147.297 131.683 C 147.415 132.426,147.202 132.853,146.715 132.853 C 146.418 132.853,146.175 133.085,146.175 133.369 C 146.175 133.653,145.851 133.988,145.455 134.113 C 145.059 134.239,144.734 134.574,144.734 134.858 C 144.734 135.141,144.410 135.374,144.014 135.374 C 143.534 135.374,143.294 135.614,143.294 136.094 C 143.294 136.574,143.054 136.814,142.574 136.814 C 142.178 136.814,141.873 136.935,141.897 137.084 C 142.074 138.204,141.781 139.334,141.314 139.334 C 140.937 139.334,140.774 139.714,140.774 140.594 C 140.774 141.614,140.637 141.854,140.054 141.854 C 139.454 141.854,139.334 142.094,139.334 143.294 C 139.334 144.494,139.214 144.734,138.614 144.734 C 137.981 144.734,137.894 144.974,137.894 146.715 C 137.894 148.235,137.768 148.695,137.354 148.695 C 136.877 148.695,136.814 153.895,136.814 193.339 C 136.814 232.783,136.877 237.984,137.354 237.984 C 137.768 237.984,137.894 238.444,137.894 239.964 C 137.894 241.704,137.981 241.944,138.614 241.944 C 139.214 241.944,139.334 242.184,139.334 243.384 C 139.334 244.176,139.455 244.805,139.604 244.782 C 140.505 244.640,140.774 244.939,140.774 246.085 C 140.774 246.965,140.937 247.345,141.314 247.345 C 141.805 247.345,142.039 248.198,141.881 249.415 C 141.849 249.662,142.154 249.865,142.558 249.865 C 143.054 249.865,143.294 250.100,143.294 250.585 C 143.294 251.065,143.534 251.305,144.014 251.305 C 144.494 251.305,144.734 251.545,144.734 252.025 C 144.734 252.505,144.974 252.745,145.455 252.745 C 146.037 252.745,146.175 252.985,146.175 254.005 C 146.175 254.885,146.337 255.266,146.715 255.266 C 147.015 255.266,147.255 255.586,147.255 255.986 C 147.255 256.586,147.495 256.706,148.695 256.706 C 149.895 256.706,150.135 256.826,150.135 257.426 C 150.135 257.826,150.375 258.146,150.675 258.146 C 150.972 258.146,151.215 258.389,151.215 258.686 C 151.215 258.986,151.535 259.226,151.935 259.226 C 152.415 259.226,152.655 259.466,152.655 259.946 C 152.655 260.543,152.895 260.666,154.055 260.666 C 155.168 260.666,155.445 260.796,155.406 261.296 C 155.367 261.776,155.678 261.953,156.706 262.038 C 157.589 262.111,158.056 262.329,158.056 262.668 C 158.056 263.056,158.553 263.186,160.036 263.186 C 161.776 263.186,162.016 263.274,162.016 263.906 C 162.016 264.386,162.256 264.626,162.736 264.626 C 163.452 264.626,163.456 264.866,163.456 302.610 L 163.456 340.594 173.357 340.594 L 183.258 340.594 183.258 292.709 L 183.258 244.824 175.878 244.824 C 168.737 244.824,168.497 244.801,168.497 244.104 C 168.497 243.521,168.257 243.384,167.237 243.384 C 166.217 243.384,165.977 243.247,165.977 242.664 C 165.977 242.184,165.737 241.944,165.257 241.944 C 164.856 241.944,164.536 241.704,164.536 241.404 C 164.536 241.027,164.156 240.864,163.276 240.864 C 162.046 240.864,162.016 240.830,162.016 239.424 C 162.016 238.224,161.896 237.984,161.296 237.984 C 160.816 237.984,160.576 237.744,160.576 237.264 C 160.576 236.864,160.336 236.544,160.036 236.544 C 159.672 236.544,159.496 236.180,159.496 235.430 C 159.496 234.619,159.300 234.265,158.776 234.128 C 158.168 233.969,158.056 233.637,158.056 232.001 C 158.056 230.303,157.967 230.063,157.336 230.063 C 156.620 230.063,156.616 229.823,156.616 193.339 C 156.616 156.856,156.620 156.616,157.336 156.616 C 157.967 156.616,158.056 156.376,158.056 154.677 C 158.056 153.066,158.173 152.709,158.750 152.558 C 159.228 152.433,159.480 151.999,159.560 151.166 C 159.630 150.434,159.854 149.991,160.126 150.045 C 160.374 150.095,160.576 149.811,160.576 149.415 C 160.576 148.935,160.816 148.695,161.296 148.695 C 161.776 148.695,162.016 148.455,162.016 147.975 C 162.016 147.495,162.256 147.255,162.736 147.255 C 163.136 147.255,163.456 147.015,163.456 146.715 C 163.456 146.418,163.699 146.175,163.996 146.175 C 164.296 146.175,164.536 145.855,164.536 145.455 C 164.536 145.036,164.776 144.734,165.110 144.734 C 165.426 144.734,165.769 144.410,165.872 144.014 C 166.031 143.407,166.363 143.294,167.999 143.294 C 169.697 143.294,169.937 143.205,169.937 142.574 C 169.937 141.860,170.177 141.854,200.720 141.854 C 231.263 141.854,231.503 141.860,231.503 142.574 C 231.503 143.152,231.743 143.294,232.721 143.294 C 233.637 143.294,233.986 143.473,234.128 144.014 C 234.263 144.531,234.619 144.734,235.388 144.734 C 236.157 144.734,236.513 144.938,236.648 145.455 C 236.752 145.851,237.094 146.175,237.410 146.175 C 237.726 146.175,237.984 146.418,237.984 146.715 C 237.984 147.015,238.304 147.255,238.704 147.255 C 239.184 147.255,239.424 147.495,239.424 147.975 C 239.424 148.375,239.664 148.695,239.964 148.695 C 240.431 148.695,240.724 149.825,240.547 150.945 C 240.523 151.094,240.828 151.215,241.224 151.215 C 241.824 151.215,241.944 151.455,241.944 152.655 C 241.944 153.855,242.064 154.095,242.664 154.095 C 243.380 154.095,243.384 154.335,243.384 194.059 C 243.384 233.783,243.380 234.023,242.664 234.023 C 242.081 234.023,241.944 234.263,241.944 235.284 C 241.944 236.197,241.786 236.544,241.370 236.544 C 241.055 236.544,240.712 236.868,240.608 237.264 C 240.505 237.660,240.196 237.984,239.922 237.984 C 239.648 237.984,239.424 238.308,239.424 238.704 C 239.424 239.123,239.184 239.424,238.850 239.424 C 238.535 239.424,238.192 239.748,238.088 240.144 C 237.979 240.560,237.597 240.864,237.183 240.864 C 236.694 240.864,236.532 241.036,236.674 241.404 C 236.815 241.771,236.654 241.944,236.172 241.944 C 235.704 241.944,235.464 242.188,235.464 242.664 C 235.464 243.264,235.224 243.384,234.023 243.384 C 232.823 243.384,232.583 243.504,232.583 244.104 C 232.583 244.800,232.343 244.824,225.383 244.824 L 218.182 244.824 218.182 292.709 L 218.182 340.594 228.083 340.594 L 237.984 340.594 237.984 302.610 C 237.984 264.866,237.988 264.626,238.704 264.626 C 239.100 264.626,239.405 264.505,239.381 264.356 C 239.227 263.382,239.537 263.186,241.235 263.186 C 242.513 263.186,243.108 263.027,243.254 262.646 C 243.382 262.313,243.929 262.106,244.683 262.106 C 245.665 262.106,245.905 261.965,245.905 261.386 C 245.905 260.906,246.145 260.666,246.625 260.666 C 247.105 260.666,247.345 260.426,247.345 259.946 C 247.345 259.363,247.585 259.226,248.605 259.226 C 249.485 259.226,249.865 259.063,249.865 258.686 C 249.865 258.386,250.185 258.146,250.585 258.146 C 251.065 258.146,251.305 257.906,251.305 257.426 C 251.305 256.946,251.545 256.706,252.025 256.706 C 252.505 256.706,252.745 256.466,252.745 255.986 C 252.745 255.586,252.985 255.266,253.285 255.266 C 253.582 255.266,253.825 255.023,253.825 254.725 C 253.825 254.425,254.145 254.185,254.545 254.185 C 255.011 254.185,255.266 253.945,255.266 253.507 C 255.266 253.132,255.587 252.745,255.986 252.641 C 256.382 252.537,256.706 252.194,256.706 251.879 C 256.706 251.545,257.007 251.305,257.426 251.305 C 258.004 251.305,258.146 251.065,258.146 250.084 C 258.146 249.330,258.353 248.783,258.686 248.655 C 258.983 248.541,259.226 248.199,259.226 247.896 C 259.226 247.585,259.539 247.345,259.946 247.345 C 260.543 247.345,260.666 247.105,260.666 245.945 C 260.666 244.832,260.796 244.555,261.296 244.594 C 261.811 244.635,261.946 244.295,262.036 242.736 C 262.108 241.481,262.324 240.758,262.666 240.627 C 263.050 240.479,263.186 239.778,263.186 237.945 C 263.186 235.704,263.256 235.464,263.906 235.464 C 264.622 235.464,264.626 235.224,264.626 193.297 C 264.626 151.308,264.623 151.132,263.906 151.319 C 263.234 151.495,263.186 151.330,263.186 148.841 C 263.186 146.711,263.078 146.175,262.646 146.175 C 262.256 146.175,262.106 145.775,262.106 144.734 C 262.106 143.942,261.985 143.314,261.836 143.337 C 260.935 143.479,260.666 143.179,260.666 142.034 C 260.666 141.014,260.529 140.774,259.946 140.774 C 259.365 140.774,259.226 140.534,259.226 139.532 C 259.226 138.750,259.005 138.166,258.630 137.956 C 258.260 137.749,258.046 137.196,258.066 136.498 C 258.091 135.616,257.948 135.374,257.402 135.374 C 256.946 135.374,256.706 135.125,256.706 134.653 C 256.706 134.173,256.466 133.933,255.986 133.933 C 255.586 133.933,255.266 133.693,255.266 133.393 C 255.266 133.093,254.945 132.853,254.545 132.853 C 254.065 132.853,253.825 132.613,253.825 132.133 C 253.825 131.733,253.585 131.413,253.285 131.413 C 252.985 131.413,252.745 131.093,252.745 130.693 C 252.745 130.213,252.505 129.973,252.025 129.973 C 251.574 129.973,251.305 129.733,251.305 129.330 C 251.305 128.863,250.986 128.662,250.143 128.597 C 249.503 128.549,248.847 128.271,248.685 127.981 C 248.522 127.690,248.154 127.453,247.867 127.453 C 247.580 127.453,247.345 127.129,247.345 126.733 C 247.345 126.154,247.105 126.013,246.127 126.013 C 245.206 126.013,244.862 125.834,244.717 125.282 C 244.612 124.880,244.391 124.576,244.225 124.605 C 243.116 124.800,241.944 124.506,241.944 124.032 C 241.944 123.618,241.484 123.492,239.964 123.492 C 238.224 123.492,237.984 123.405,237.984 122.772 C 237.984 122.106,237.744 122.052,234.785 122.052 C 231.890 122.052,231.569 121.984,231.399 121.332 C 231.204 120.587,169.862 120.138,169.980 120.882 M279.388 122.772 C 279.388 123.252,279.628 123.492,280.108 123.492 C 280.566 123.492,280.828 123.732,280.828 124.152 C 280.828 124.524,280.570 124.812,280.239 124.812 C 279.914 124.812,279.572 124.515,279.477 124.152 C 279.382 123.789,278.999 123.492,278.626 123.492 C 278.188 123.492,277.948 123.237,277.948 122.772 C 277.948 122.292,278.188 122.052,278.668 122.052 C 279.148 122.052,279.388 122.292,279.388 122.772 M269.478 123.492 C 269.738 123.492,270.043 123.735,270.157 124.032 C 270.307 124.423,270.118 124.572,269.476 124.572 C 268.739 124.572,268.592 124.403,268.615 123.582 C 268.631 123.038,268.725 122.795,268.825 123.042 C 268.925 123.290,269.219 123.492,269.478 123.492 M120.612 124.032 C 120.612 124.332,120.292 124.572,119.892 124.572 C 119.492 124.572,119.172 124.332,119.172 124.032 C 119.172 123.732,119.492 123.492,119.892 123.492 C 120.292 123.492,120.612 123.732,120.612 124.032 M116.652 127.951 C 116.652 128.225,116.328 128.534,115.932 128.637 C 115.397 128.777,115.212 128.648,115.212 128.139 C 115.212 127.693,115.463 127.453,115.932 127.453 C 116.328 127.453,116.652 127.677,116.652 127.951 M273.987 127.951 C 273.987 128.225,273.663 128.534,273.267 128.637 C 272.733 128.777,272.547 128.648,272.547 128.139 C 272.547 127.693,272.799 127.453,273.267 127.453 C 273.663 127.453,273.987 127.677,273.987 127.951 M276.508 131.962 C 276.508 132.221,276.710 132.515,276.958 132.615 C 277.205 132.715,276.962 132.809,276.418 132.825 C 275.597 132.848,275.428 132.701,275.428 131.964 C 275.428 131.322,275.577 131.133,275.968 131.283 C 276.265 131.397,276.508 131.702,276.508 131.962 M287.309 132.172 C 287.309 132.613,287.055 132.853,286.589 132.853 C 285.902 132.853,285.567 131.835,286.084 131.318 C 286.487 130.915,287.309 131.488,287.309 132.172 " stroke="none" fill="#f5f5f5" fill-rule="evenodd"></path></g></svg>