<svg id="svg" version="1.1" width="400" height="360" xmlns="http://www.w3.org/2000/svg" xmlns:xlink="http://www.w3.org/1999/xlink" style="display: block;"><g id="svgg"><path id="path0" d="M348.245 106.449 C 347.997 106.549,347.795 106.799,347.795 107.005 C 347.795 107.259,347.939 107.262,348.245 107.014 C 348.492 106.813,349.019 106.568,349.415 106.471 L 350.135 106.294 349.415 106.281 C 349.019 106.273,348.492 106.349,348.245 106.449 " stroke="none" fill="#000000" fill-rule="evenodd"></path><path id="path1" d="M30.402 49.836 C 30.018 50.116,29.799 50.441,29.916 50.558 C 30.032 50.674,30.422 50.444,30.781 50.047 C 31.546 49.202,31.389 49.114,30.402 49.836 M101.890 56.346 C 101.890 56.445,102.214 56.850,102.610 57.246 C 103.419 58.055,103.562 57.761,102.829 56.796 C 102.372 56.194,101.890 55.963,101.890 56.346 M97.210 65.484 C 97.210 65.880,97.372 66.304,97.570 66.427 C 97.768 66.549,97.930 66.325,97.930 65.929 C 97.930 65.533,97.768 65.109,97.570 64.986 C 97.372 64.864,97.210 65.088,97.210 65.484 M373.518 66.998 C 373.385 67.213,373.456 67.570,373.677 67.790 C 373.971 68.084,374.077 67.980,374.077 67.399 C 374.077 66.529,373.890 66.395,373.518 66.998 M325.833 68.767 C 325.833 69.439,325.929 69.535,326.265 69.199 C 326.601 68.863,326.601 68.671,326.265 68.335 C 325.929 67.999,325.833 68.095,325.833 68.767 M65.527 81.368 C 65.923 81.764,66.353 82.088,66.482 82.088 C 66.612 82.088,66.425 81.764,66.067 81.368 C 65.708 80.972,65.278 80.648,65.111 80.648 C 64.943 80.648,65.131 80.972,65.527 81.368 M70.665 82.808 C 71.169 83.204,71.798 83.527,72.064 83.526 C 72.330 83.525,72.061 83.202,71.467 82.808 C 70.063 81.878,69.483 81.878,70.665 82.808 M312.511 84.605 C 312.511 85.373,312.778 85.491,313.487 85.041 C 313.801 84.841,313.726 84.641,313.217 84.323 C 312.604 83.940,312.511 83.977,312.511 84.605 M63.165 93.418 C 62.578 93.862,62.560 93.948,63.052 93.958 C 63.375 93.964,63.840 93.726,64.086 93.429 C 64.661 92.737,64.075 92.730,63.165 93.418 M83.168 96.850 C 83.168 97.301,83.550 97.301,84.248 96.850 C 84.685 96.567,84.633 96.500,83.978 96.495 C 83.533 96.492,83.168 96.652,83.168 96.850 M271.498 101.011 C 271.481 101.419,271.722 102.067,272.034 102.451 C 272.346 102.836,272.490 102.935,272.355 102.672 C 272.220 102.409,271.979 101.761,271.819 101.232 C 271.586 100.460,271.523 100.416,271.498 101.011 M74.887 113.411 C 75.284 113.807,75.714 114.131,75.843 114.131 C 75.973 114.131,75.786 113.807,75.428 113.411 C 75.069 113.015,74.639 112.691,74.472 112.691 C 74.304 112.691,74.491 113.015,74.887 113.411 M141.364 113.591 C 141.478 113.888,141.817 114.131,142.117 114.131 C 142.561 114.131,142.579 114.031,142.214 113.591 C 141.968 113.294,141.629 113.051,141.461 113.051 C 141.294 113.051,141.250 113.294,141.364 113.591 M266.236 119.926 C 265.932 120.885,266.256 121.194,266.896 120.555 C 267.305 120.145,267.313 119.971,266.935 119.618 C 266.568 119.276,266.422 119.340,266.236 119.926 M276.072 120.276 C 276.400 120.659,276.678 120.972,276.691 120.972 C 277.145 120.972,276.612 119.666,276.144 119.631 C 275.518 119.584,275.513 119.624,276.072 120.276 M117.010 126.554 C 116.546 127.048,116.275 127.453,116.409 127.453 C 116.758 127.453,118.181 125.981,118.003 125.804 C 117.921 125.722,117.475 126.060,117.010 126.554 " stroke="none" fill="#0000ff" fill-rule="evenodd"></path><path id="path2" d="M188.659 22.682 C 188.659 23.315,188.419 23.402,186.679 23.402 C 184.938 23.402,184.698 23.490,184.698 24.122 C 184.698 24.755,184.458 24.842,182.718 24.842 C 181.198 24.842,180.738 24.968,180.738 25.383 C 180.738 25.762,180.354 25.923,179.444 25.923 C 178.453 25.923,178.106 26.091,177.962 26.643 C 177.859 27.039,177.550 27.363,177.276 27.363 C 177.002 27.363,176.778 27.687,176.778 28.083 C 176.778 28.683,176.538 28.803,175.338 28.803 C 174.297 28.803,173.897 28.953,173.897 29.343 C 173.897 29.640,173.654 29.883,173.357 29.883 C 173.057 29.883,172.817 30.203,172.817 30.603 C 172.817 31.083,172.577 31.323,172.097 31.323 C 171.617 31.323,171.377 31.563,171.377 32.043 C 171.377 32.523,171.137 32.763,170.657 32.763 C 170.261 32.763,169.937 32.917,169.937 33.105 C 169.937 33.601,168.306 35.284,167.826 35.284 C 167.601 35.284,167.417 35.608,167.417 36.004 C 167.417 36.484,167.177 36.724,166.697 36.724 C 166.217 36.724,165.977 36.964,165.977 37.444 C 165.977 37.924,165.737 38.164,165.257 38.164 C 164.674 38.164,164.536 38.404,164.536 39.424 C 164.536 40.304,164.374 40.684,163.996 40.684 C 163.696 40.684,163.456 41.004,163.456 41.404 C 163.456 41.884,163.216 42.124,162.736 42.124 C 162.153 42.124,162.016 42.364,162.016 43.384 C 162.016 44.404,161.879 44.644,161.296 44.644 C 160.696 44.644,160.576 44.884,160.576 46.085 C 160.576 47.125,160.426 47.525,160.036 47.525 C 159.621 47.525,159.496 47.985,159.496 49.505 C 159.496 51.245,159.409 51.485,158.776 51.485 C 158.109 51.485,158.056 51.725,158.056 54.725 C 158.056 57.726,158.002 57.966,157.336 57.966 C 156.642 57.966,156.616 58.206,156.616 64.626 C 156.616 71.047,156.642 71.287,157.336 71.287 C 158.005 71.287,158.056 71.527,158.056 74.707 C 158.056 77.888,158.106 78.128,158.776 78.128 C 159.409 78.128,159.496 78.368,159.496 80.108 C 159.496 81.628,159.621 82.088,160.036 82.088 C 160.413 82.088,160.576 82.468,160.576 83.348 C 160.576 84.368,160.713 84.608,161.296 84.608 C 161.883 84.608,162.016 84.848,162.016 85.902 C 162.016 86.893,162.185 87.240,162.736 87.384 C 163.277 87.526,163.456 87.876,163.456 88.791 C 163.456 89.634,163.623 90.009,163.996 90.009 C 164.293 90.009,164.536 90.267,164.536 90.583 C 164.536 90.898,164.860 91.241,165.257 91.345 C 165.653 91.448,165.977 91.757,165.977 92.031 C 165.977 92.305,166.301 92.529,166.697 92.529 C 167.297 92.529,167.417 92.769,167.417 93.969 C 167.417 95.023,167.565 95.410,167.968 95.410 C 168.271 95.410,168.613 95.653,168.727 95.950 C 168.841 96.247,169.160 96.490,169.435 96.490 C 169.711 96.490,169.937 96.814,169.937 97.210 C 169.937 97.810,170.177 97.930,171.377 97.930 C 172.577 97.930,172.817 98.050,172.817 98.650 C 172.817 99.050,173.057 99.370,173.357 99.370 C 173.654 99.370,173.897 99.628,173.897 99.944 C 173.897 100.259,174.221 100.602,174.617 100.706 C 175.014 100.809,175.338 101.118,175.338 101.392 C 175.338 101.718,175.759 101.890,176.556 101.890 C 177.471 101.890,177.821 102.069,177.962 102.610 C 178.106 103.162,178.453 103.330,179.444 103.330 C 180.498 103.330,180.738 103.464,180.738 104.050 C 180.738 104.633,180.978 104.770,181.998 104.770 C 182.878 104.770,183.258 104.933,183.258 105.311 C 183.258 105.725,183.718 105.851,185.239 105.851 C 186.979 105.851,187.219 105.938,187.219 106.571 C 187.219 107.227,187.459 107.291,189.919 107.291 C 192.379 107.291,192.619 107.355,192.619 108.011 C 192.619 108.707,192.859 108.731,200.000 108.731 C 207.141 108.731,207.381 108.707,207.381 108.011 C 207.381 107.344,207.621 107.291,210.621 107.291 C 213.621 107.291,213.861 107.237,213.861 106.571 C 213.861 105.938,214.101 105.851,215.842 105.851 C 217.362 105.851,217.822 105.725,217.822 105.311 C 217.822 104.920,218.222 104.770,219.262 104.770 C 220.462 104.770,220.702 104.650,220.702 104.050 C 220.702 103.467,220.942 103.330,221.962 103.330 C 222.982 103.330,223.222 103.193,223.222 102.610 C 223.222 102.130,223.462 101.890,223.942 101.890 C 224.342 101.890,224.662 101.650,224.662 101.350 C 224.662 100.973,225.043 100.810,225.923 100.810 C 226.943 100.810,227.183 100.673,227.183 100.090 C 227.183 99.610,227.423 99.370,227.903 99.370 C 228.383 99.370,228.623 99.130,228.623 98.650 C 228.623 98.170,228.863 97.930,229.343 97.930 C 229.823 97.930,230.063 97.690,230.063 97.210 C 230.063 96.814,230.289 96.490,230.565 96.490 C 230.840 96.490,231.159 96.247,231.273 95.950 C 231.387 95.653,231.729 95.410,232.032 95.410 C 232.343 95.410,232.583 95.096,232.583 94.689 C 232.583 94.209,232.823 93.969,233.303 93.969 C 233.783 93.969,234.023 93.729,234.023 93.249 C 234.023 92.769,234.263 92.529,234.743 92.529 C 235.144 92.529,235.464 92.289,235.464 91.989 C 235.464 91.692,235.707 91.449,236.004 91.449 C 236.394 91.449,236.544 91.049,236.544 90.009 C 236.544 88.809,236.664 88.569,237.264 88.569 C 237.847 88.569,237.984 88.329,237.984 87.309 C 237.984 86.289,238.121 86.049,238.704 86.049 C 239.304 86.049,239.424 85.809,239.424 84.608 C 239.424 83.568,239.574 83.168,239.964 83.168 C 240.341 83.168,240.504 82.788,240.504 81.908 C 240.504 80.888,240.641 80.648,241.224 80.648 C 241.857 80.648,241.944 80.408,241.944 78.668 C 241.944 76.928,242.031 76.688,242.664 76.688 C 243.369 76.688,243.384 76.448,243.384 65.347 C 243.384 54.245,243.369 54.005,242.664 54.005 C 242.008 54.005,241.944 53.765,241.944 51.305 C 241.944 48.845,241.880 48.605,241.224 48.605 C 240.641 48.605,240.504 48.365,240.504 47.345 C 240.504 46.465,240.341 46.085,239.964 46.085 C 239.584 46.085,239.424 45.701,239.424 44.791 C 239.424 43.800,239.255 43.453,238.704 43.309 C 238.163 43.167,237.984 42.818,237.984 41.902 C 237.984 40.924,237.842 40.684,237.264 40.684 C 236.784 40.684,236.544 40.444,236.544 39.964 C 236.544 39.564,236.304 39.244,236.004 39.244 C 235.626 39.244,235.464 38.864,235.464 37.984 C 235.464 36.964,235.326 36.724,234.743 36.724 C 234.263 36.724,234.023 36.484,234.023 36.004 C 234.023 35.538,233.783 35.284,233.345 35.284 C 232.970 35.284,232.583 34.962,232.479 34.563 C 232.375 34.167,232.032 33.843,231.717 33.843 C 231.401 33.843,231.143 33.600,231.143 33.303 C 231.143 33.006,230.900 32.763,230.603 32.763 C 230.303 32.763,230.063 32.443,230.063 32.043 C 230.063 31.563,229.823 31.323,229.343 31.323 C 228.863 31.323,228.623 31.083,228.623 30.603 C 228.623 30.020,228.383 29.883,227.363 29.883 C 226.483 29.883,226.103 29.720,226.103 29.343 C 226.103 29.043,225.783 28.803,225.383 28.803 C 224.902 28.803,224.662 28.563,224.662 28.083 C 224.662 27.505,224.422 27.363,223.444 27.363 C 222.529 27.363,222.179 27.184,222.038 26.643 C 221.894 26.091,221.547 25.923,220.556 25.923 C 219.646 25.923,219.262 25.762,219.262 25.383 C 219.262 25.005,218.882 24.842,218.002 24.842 C 216.982 24.842,216.742 24.705,216.742 24.122 C 216.742 23.492,216.502 23.402,214.803 23.402 C 213.168 23.402,212.836 23.290,212.677 22.682 C 212.493 21.980,212.186 21.962,200.574 21.962 C 188.899 21.962,188.659 21.977,188.659 22.682 M65.415 26.806 C 64.956 27.265,63.782 27.363,58.741 27.363 C 52.349 27.363,51.485 27.475,51.485 28.301 C 51.485 28.669,50.958 28.803,49.505 28.803 C 47.985 28.803,47.525 28.928,47.525 29.343 C 47.525 29.674,47.188 29.883,46.654 29.883 C 45.411 29.883,44.644 30.241,44.644 30.822 C 44.644 31.155,44.221 31.323,43.384 31.323 C 42.364 31.323,42.124 31.460,42.124 32.043 C 42.124 32.656,41.884 32.763,40.507 32.763 C 39.280 32.763,38.782 32.937,38.440 33.483 C 38.193 33.879,37.706 34.203,37.357 34.203 C 37.009 34.203,36.724 34.446,36.724 34.743 C 36.724 35.044,36.404 35.284,36.004 35.284 C 35.524 35.284,35.284 35.524,35.284 36.004 C 35.284 36.568,35.044 36.724,34.170 36.724 C 33.359 36.724,33.005 36.919,32.868 37.444 C 32.763 37.842,32.377 38.164,32.001 38.164 C 31.628 38.164,31.323 38.407,31.323 38.704 C 31.323 39.001,31.065 39.244,30.749 39.244 C 30.434 39.244,30.091 39.568,29.987 39.964 C 29.884 40.360,29.575 40.684,29.301 40.684 C 29.027 40.684,28.803 41.008,28.803 41.404 C 28.803 41.884,28.563 42.124,28.083 42.124 C 27.687 42.124,27.363 42.277,27.363 42.464 C 27.363 42.651,26.865 43.096,26.257 43.454 C 25.592 43.845,25.072 44.500,24.952 45.095 C 24.842 45.639,24.515 46.085,24.224 46.085 C 23.933 46.085,23.610 46.409,23.507 46.805 C 23.403 47.201,23.105 47.525,22.845 47.525 C 22.584 47.525,22.273 47.834,22.153 48.212 C 22.033 48.589,21.698 48.989,21.408 49.100 C 21.119 49.211,20.882 49.757,20.882 50.314 C 20.882 50.880,20.565 51.597,20.162 51.942 C 19.766 52.281,19.442 52.845,19.442 53.195 C 19.442 53.546,19.118 54.035,18.722 54.282 C 18.298 54.546,18.002 55.121,18.002 55.679 C 18.002 56.200,17.751 56.810,17.444 57.034 C 17.102 57.284,16.803 58.272,16.671 59.594 C 16.549 60.817,16.245 61.870,15.969 62.034 C 15.251 62.458,15.253 86.636,15.971 87.679 C 16.239 88.069,16.571 88.996,16.707 89.739 C 16.859 90.567,17.157 91.089,17.478 91.089 C 17.839 91.089,18.002 91.491,18.002 92.383 C 18.002 93.374,18.170 93.721,18.722 93.865 C 19.229 93.998,19.442 94.356,19.442 95.079 C 19.442 95.736,19.701 96.243,20.162 96.490 C 20.558 96.702,20.882 97.207,20.882 97.614 C 20.882 98.028,21.727 99.191,22.810 100.265 C 23.870 101.316,24.837 102.436,24.959 102.754 C 25.080 103.071,25.428 103.351,25.731 103.375 C 26.035 103.400,26.485 103.441,26.733 103.465 C 26.980 103.490,27.183 103.698,27.183 103.928 C 27.183 104.401,28.904 105.851,29.465 105.851 C 29.668 105.851,29.937 106.175,30.063 106.571 C 30.189 106.967,30.529 107.291,30.819 107.291 C 31.109 107.291,31.437 107.529,31.549 107.821 C 31.661 108.113,32.304 108.455,32.978 108.581 C 33.673 108.712,34.203 109.027,34.203 109.311 C 34.203 109.586,34.514 109.811,34.894 109.811 C 35.967 109.811,36.724 110.199,36.724 110.750 C 36.724 111.025,37.048 111.251,37.444 111.251 C 37.840 111.251,38.488 111.575,38.884 111.971 C 39.417 112.504,40.084 112.691,41.454 112.691 C 42.726 112.691,43.435 112.869,43.721 113.260 C 44.017 113.665,44.991 113.888,47.090 114.032 C 48.918 114.157,50.197 114.420,50.448 114.723 C 50.717 115.047,51.680 115.212,53.308 115.212 C 54.658 115.212,55.865 115.376,55.989 115.577 C 56.114 115.779,56.370 115.848,56.559 115.731 C 56.749 115.614,56.859 115.733,56.805 115.995 C 56.729 116.357,57.495 116.496,59.997 116.575 C 62.919 116.666,63.310 116.757,63.474 117.385 C 63.602 117.874,63.974 118.096,64.683 118.105 C 65.246 118.112,66.112 118.349,66.607 118.632 C 67.102 118.915,68.114 119.152,68.857 119.159 C 69.963 119.170,70.207 119.302,70.207 119.892 C 70.207 120.542,70.447 120.612,72.685 120.612 C 74.861 120.612,75.187 120.700,75.352 121.332 C 75.496 121.884,75.843 122.052,76.834 122.052 C 77.744 122.052,78.128 122.212,78.128 122.592 C 78.128 122.892,78.448 123.132,78.848 123.132 C 79.244 123.132,79.892 123.456,80.288 123.852 C 80.724 124.289,81.488 124.572,82.226 124.572 C 83.142 124.572,83.491 124.751,83.633 125.293 C 83.768 125.809,84.124 126.013,84.893 126.013 C 85.662 126.013,86.018 126.216,86.153 126.733 C 86.256 127.129,86.599 127.453,86.915 127.453 C 87.231 127.453,87.489 127.696,87.489 127.993 C 87.489 128.370,87.869 128.533,88.749 128.533 C 89.769 128.533,90.009 128.670,90.009 129.253 C 90.009 129.733,90.249 129.973,90.729 129.973 C 91.134 129.973,91.449 130.213,91.449 130.522 C 91.449 130.824,91.838 131.219,92.314 131.400 C 92.790 131.581,93.286 131.901,93.416 132.111 C 93.546 132.321,94.332 132.493,95.164 132.493 C 96.309 132.493,96.791 132.676,97.147 133.246 C 97.667 134.079,99.051 133.967,100.118 133.005 C 101.433 131.821,103.330 132.347,103.330 133.895 C 103.330 134.828,103.517 135.368,103.887 135.510 C 104.194 135.628,104.619 136.223,104.831 136.833 C 105.174 137.816,105.367 137.936,106.524 137.883 C 108.676 137.786,108.731 137.818,108.731 139.188 C 108.731 140.179,108.899 140.526,109.451 140.670 C 109.847 140.773,110.171 141.082,110.171 141.356 C 110.171 141.697,110.625 141.854,111.611 141.854 C 112.602 141.854,113.051 142.011,113.051 142.356 C 113.051 142.632,113.294 142.951,113.591 143.064 C 113.926 143.193,114.131 143.741,114.131 144.508 L 114.131 145.744 116.285 145.994 C 119.054 146.315,122.052 145.924,122.052 145.241 C 122.052 144.962,122.276 144.734,122.550 144.734 C 122.824 144.734,123.133 144.410,123.237 144.014 C 123.407 143.362,123.728 143.294,126.643 143.294 C 129.404 143.294,129.954 143.192,130.513 142.574 C 130.871 142.178,131.446 141.854,131.790 141.854 C 132.135 141.854,132.509 141.611,132.623 141.314 C 132.738 141.015,133.278 140.772,133.832 140.769 C 135.384 140.762,136.454 140.379,136.454 139.832 C 136.454 139.558,136.712 139.334,137.027 139.334 C 137.343 139.334,137.686 139.010,137.789 138.614 C 137.893 138.218,138.191 137.894,138.452 137.894 C 138.712 137.894,139.023 137.585,139.143 137.207 C 139.263 136.829,139.583 136.435,139.854 136.331 C 140.125 136.227,140.452 135.659,140.582 135.068 C 140.712 134.477,141.051 133.904,141.336 133.795 C 141.687 133.660,141.854 133.040,141.854 131.871 C 141.854 130.536,142.017 130.045,142.574 129.697 C 143.764 128.954,143.571 123.492,142.356 123.492 C 142.000 123.492,142.063 123.283,142.574 122.772 C 143.693 121.654,143.671 114.131,142.549 114.131 C 142.138 114.131,141.552 113.881,141.246 113.574 C 140.743 113.071,140.622 113.077,140.011 113.630 C 139.360 114.220,139.334 114.192,139.334 112.903 C 139.334 111.365,138.802 110.171,138.117 110.171 C 137.858 110.171,137.352 109.847,136.994 109.451 C 136.589 109.004,135.885 108.731,135.138 108.731 C 134.170 108.731,133.933 108.588,133.933 108.004 C 133.933 106.468,131.556 104.770,129.402 104.770 L 127.453 104.770 127.448 101.620 C 127.442 98.005,127.215 96.850,126.511 96.850 C 126.237 96.850,126.013 96.526,126.013 96.130 C 126.013 95.650,125.773 95.410,125.293 95.410 C 124.812 95.410,124.572 95.170,124.572 94.689 C 124.572 94.293,124.389 93.969,124.164 93.969 C 123.683 93.969,122.052 92.287,122.052 91.791 C 122.052 91.603,121.728 91.449,121.332 91.449 C 120.852 91.449,120.612 91.209,120.612 90.729 C 120.612 90.249,120.372 90.009,119.892 90.009 C 119.314 90.009,119.172 89.769,119.172 88.791 C 119.172 87.876,118.993 87.526,118.452 87.384 C 118.056 87.281,117.732 86.938,117.732 86.622 C 117.732 86.307,117.508 86.049,117.234 86.049 C 116.960 86.049,116.651 85.725,116.547 85.329 C 116.444 84.932,116.101 84.608,115.785 84.608 C 115.370 84.608,115.212 84.261,115.212 83.348 C 115.212 82.518,115.042 82.088,114.715 82.088 C 114.442 82.088,114.017 81.602,113.771 81.008 C 113.525 80.414,113.182 79.928,113.008 79.928 C 112.834 79.928,112.691 79.523,112.691 79.028 C 112.691 78.533,112.367 77.804,111.971 77.408 C 111.575 77.012,111.251 76.429,111.251 76.114 C 111.251 75.798,110.927 75.455,110.531 75.352 C 109.990 75.210,109.811 74.861,109.811 73.945 C 109.811 73.155,109.638 72.727,109.318 72.727 C 109.012 72.727,108.749 72.155,108.622 71.210 C 108.510 70.375,108.165 69.507,107.855 69.280 C 107.544 69.053,107.288 68.480,107.285 68.007 C 107.278 66.892,106.760 66.087,106.251 66.402 C 105.982 66.568,105.851 66.165,105.851 65.176 C 105.851 64.221,105.667 63.633,105.328 63.503 C 105.038 63.392,104.697 62.583,104.563 61.686 C 104.429 60.796,104.113 59.989,103.861 59.892 C 103.608 59.795,103.295 59.152,103.166 58.462 C 103.036 57.772,102.696 57.118,102.410 57.008 C 102.088 56.885,101.890 56.308,101.890 55.492 C 101.890 54.767,101.566 53.570,101.170 52.831 C 100.774 52.092,100.450 51.183,100.450 50.810 C 100.450 50.438,100.223 49.945,99.945 49.714 C 99.668 49.484,99.341 48.897,99.218 48.410 C 99.096 47.923,98.756 47.525,98.463 47.525 C 98.170 47.525,97.930 47.201,97.930 46.805 C 97.930 46.325,97.690 46.085,97.210 46.085 C 96.627 46.085,96.490 45.845,96.490 44.824 C 96.490 43.944,96.327 43.564,95.950 43.564 C 95.650 43.564,95.410 43.244,95.410 42.844 C 95.410 42.380,95.170 42.124,94.734 42.124 C 94.268 42.124,93.991 41.781,93.837 41.014 C 93.677 40.211,93.316 39.791,92.532 39.495 C 91.937 39.270,91.449 38.879,91.449 38.625 C 91.449 38.371,91.125 38.164,90.729 38.164 C 90.249 38.164,90.009 37.924,90.009 37.444 C 90.009 36.964,89.769 36.724,89.289 36.724 C 88.809 36.724,88.569 36.484,88.569 36.004 C 88.569 35.524,88.329 35.284,87.849 35.284 C 87.449 35.284,87.129 35.044,87.129 34.743 C 87.129 34.446,86.891 34.203,86.601 34.203 C 86.311 34.203,85.901 33.879,85.689 33.483 C 85.436 33.012,84.935 32.763,84.236 32.763 C 83.408 32.763,83.168 32.601,83.168 32.043 C 83.168 31.577,82.928 31.323,82.487 31.323 C 82.112 31.323,81.721 31.103,81.617 30.834 C 81.514 30.564,80.646 30.235,79.689 30.102 C 78.731 29.968,77.633 29.622,77.249 29.331 C 76.821 29.008,75.739 28.803,74.459 28.803 C 72.911 28.803,72.367 28.672,72.367 28.301 C 72.367 27.604,71.558 27.363,69.216 27.363 C 67.905 27.363,66.989 27.169,66.588 26.806 C 66.032 26.303,65.918 26.303,65.415 26.806 M330.762 26.806 C 330.392 27.175,329.529 27.363,328.199 27.363 C 326.433 27.363,326.193 27.449,326.193 28.083 C 326.193 28.739,325.953 28.803,323.492 28.803 C 321.332 28.803,320.792 28.911,320.792 29.343 C 320.792 29.671,320.457 29.883,319.937 29.883 C 318.315 29.883,316.832 30.334,316.832 30.828 C 316.832 31.100,316.508 31.323,316.112 31.323 C 315.632 31.323,315.392 31.563,315.392 32.043 C 315.392 32.621,315.152 32.763,314.173 32.763 C 313.258 32.763,312.908 32.942,312.767 33.483 C 312.656 33.906,312.276 34.203,311.846 34.203 C 311.443 34.203,310.998 34.390,310.857 34.619 C 310.684 34.899,310.765 34.939,311.105 34.741 C 311.405 34.568,311.489 34.582,311.311 34.776 C 311.146 34.956,310.903 35.111,310.771 35.121 C 309.947 35.182,308.911 35.764,308.911 36.166 C 308.911 36.426,308.587 36.724,308.191 36.828 C 307.666 36.965,307.471 37.319,307.471 38.130 C 307.471 39.069,307.334 39.244,306.596 39.244 C 305.502 39.244,304.880 39.859,303.876 41.932 C 303.442 42.830,302.858 43.564,302.578 43.564 C 302.289 43.564,302.070 43.919,302.070 44.385 C 302.070 44.836,301.746 45.439,301.350 45.725 C 300.954 46.010,300.630 46.532,300.630 46.884 C 300.630 47.236,300.405 47.525,300.130 47.525 C 299.846 47.525,299.531 48.055,299.400 48.750 C 299.274 49.424,298.932 50.067,298.640 50.179 C 298.268 50.322,298.110 50.937,298.110 52.244 C 298.110 53.571,297.936 54.233,297.506 54.547 C 297.095 54.848,296.852 55.682,296.745 57.166 C 296.618 58.919,296.455 59.378,295.909 59.521 C 295.426 59.647,295.230 60.024,295.230 60.824 C 295.230 61.492,295.010 62.033,294.689 62.156 C 294.356 62.284,294.149 62.831,294.149 63.585 C 294.149 64.389,293.978 64.806,293.648 64.806 C 293.049 64.806,292.709 65.580,292.709 66.940 C 292.709 67.488,292.385 68.228,291.989 68.587 C 291.593 68.945,291.269 69.624,291.269 70.094 C 291.269 70.565,291.026 71.043,290.729 71.157 C 290.377 71.292,290.189 71.852,290.189 72.766 C 290.189 73.927,290.066 74.167,289.469 74.167 C 288.891 74.167,288.749 74.407,288.749 75.386 C 288.749 76.301,288.570 76.650,288.029 76.792 C 287.477 76.936,287.309 77.283,287.309 78.274 C 287.309 79.184,287.149 79.568,286.769 79.568 C 286.472 79.568,286.229 79.805,286.229 80.095 C 286.229 80.385,285.905 80.796,285.509 81.008 C 285.047 81.255,284.788 81.762,284.788 82.419 C 284.788 83.142,284.576 83.500,284.068 83.633 C 283.552 83.768,283.348 84.124,283.348 84.893 C 283.348 85.662,283.145 86.018,282.628 86.153 C 282.232 86.256,281.908 86.599,281.908 86.915 C 281.908 87.231,281.684 87.489,281.410 87.489 C 281.136 87.489,280.827 87.813,280.724 88.209 C 280.620 88.605,280.277 88.929,279.962 88.929 C 279.646 88.929,279.388 89.084,279.388 89.273 C 279.388 89.719,277.658 91.449,277.211 91.449 C 277.022 91.449,276.868 91.773,276.868 92.169 C 276.868 92.649,276.628 92.889,276.148 92.889 C 275.565 92.889,275.428 93.129,275.428 94.149 C 275.428 95.170,275.290 95.410,274.707 95.410 C 274.227 95.410,273.987 95.650,273.987 96.130 C 273.987 96.526,273.762 96.850,273.486 96.850 C 272.905 96.850,272.547 97.617,272.547 98.864 C 272.547 99.346,272.354 100.050,272.117 100.428 C 271.784 100.962,271.784 101.329,272.117 102.060 C 273.084 104.183,272.755 104.770,270.597 104.770 C 268.396 104.770,267.507 105.016,267.507 105.622 C 267.507 105.851,267.183 106.240,266.787 106.487 C 266.380 106.741,266.067 107.327,266.067 107.834 C 266.067 108.619,265.909 108.731,264.806 108.731 C 263.786 108.731,263.546 108.868,263.546 109.451 C 263.546 109.931,263.306 110.171,262.826 110.171 C 262.346 110.171,262.106 110.411,262.106 110.891 C 262.106 111.287,261.941 111.611,261.738 111.611 C 261.536 111.611,261.181 112.027,260.950 112.535 C 260.666 113.157,260.320 113.405,259.890 113.293 C 259.540 113.201,259.065 113.352,258.835 113.629 C 258.605 113.905,258.104 114.131,257.720 114.131 C 257.337 114.131,257.123 114.293,257.246 114.491 C 257.368 114.689,257.297 114.851,257.087 114.851 C 256.280 114.851,256.608 121.734,257.426 121.948 C 257.822 122.051,258.155 122.401,258.167 122.724 C 258.178 123.048,258.170 125.033,258.148 127.137 C 258.115 130.287,258.207 130.999,258.667 131.176 C 259.044 131.321,259.226 131.862,259.226 132.842 C 259.226 133.813,259.464 134.532,259.946 135.014 C 260.342 135.410,260.666 135.885,260.666 136.069 C 260.666 136.254,260.990 136.508,261.386 136.634 C 261.825 136.773,262.106 137.178,262.106 137.672 C 262.106 138.719,264.412 140.774,265.587 140.774 C 266.077 140.774,266.721 141.017,267.018 141.314 C 267.315 141.611,267.871 141.854,268.253 141.854 C 268.634 141.854,268.947 142.080,268.947 142.356 C 268.947 143.113,269.781 143.294,273.273 143.294 C 276.143 143.294,276.482 143.366,276.688 144.014 C 276.813 144.410,277.148 144.734,277.432 144.734 C 277.716 144.734,277.948 144.970,277.948 145.258 C 277.948 145.947,280.033 146.326,282.326 146.055 C 284.565 145.790,285.854 144.686,285.862 143.024 C 285.868 141.904,285.929 141.854,287.283 141.854 C 288.683 141.854,289.829 141.150,289.829 140.288 C 289.829 140.049,290.133 139.593,290.505 139.275 C 290.877 138.956,291.242 138.517,291.316 138.298 C 291.389 138.079,291.920 137.861,292.495 137.814 C 293.143 137.760,293.603 137.486,293.707 137.091 C 293.798 136.740,294.178 136.454,294.551 136.454 C 295.133 136.454,295.230 136.173,295.230 134.473 L 295.230 132.493 296.590 132.493 C 297.338 132.493,298.269 132.714,298.660 132.985 C 300.046 133.944,300.924 134.019,301.597 133.233 C 301.997 132.766,302.665 132.493,303.410 132.493 C 304.219 132.493,304.590 132.323,304.590 131.953 C 304.590 131.656,304.901 131.413,305.281 131.413 C 306.354 131.413,307.111 131.025,307.111 130.475 C 307.111 130.199,307.369 129.973,307.684 129.973 C 308.000 129.973,308.343 129.649,308.447 129.253 C 308.550 128.857,308.874 128.533,309.166 128.533 C 309.458 128.533,310.109 128.209,310.613 127.813 C 311.116 127.417,311.749 127.093,312.020 127.093 C 312.290 127.093,312.511 126.850,312.511 126.553 C 312.511 126.253,312.831 126.013,313.231 126.013 C 313.711 126.013,313.951 125.773,313.951 125.293 C 313.951 124.668,314.191 124.572,315.763 124.572 C 317.020 124.572,317.636 124.411,317.776 124.046 C 317.887 123.757,318.287 123.422,318.665 123.302 C 319.043 123.182,319.352 122.852,319.352 122.568 C 319.352 122.206,319.783 122.052,320.796 122.052 C 321.794 122.052,322.430 121.830,322.856 121.332 C 323.316 120.795,323.918 120.612,325.226 120.612 C 326.677 120.612,327.013 120.488,327.168 119.892 C 327.319 119.316,327.660 119.172,328.866 119.172 C 329.696 119.172,330.690 118.934,331.074 118.643 C 331.459 118.353,332.208 118.110,332.739 118.103 C 333.382 118.096,333.781 117.851,333.933 117.372 C 334.138 116.726,334.478 116.652,337.232 116.652 C 339.999 116.652,340.320 116.581,340.490 115.932 C 340.655 115.299,340.981 115.212,343.168 115.212 C 345.048 115.212,345.708 115.079,345.864 114.671 C 346.015 114.278,346.635 114.131,348.148 114.131 C 350.914 114.131,352.475 113.790,352.475 113.186 C 352.475 112.821,353.043 112.691,354.635 112.691 C 356.316 112.691,356.956 112.531,357.516 111.971 C 357.912 111.575,358.479 111.251,358.776 111.251 C 359.073 111.251,359.316 111.015,359.316 110.727 C 359.316 110.414,359.822 110.109,360.576 109.967 C 361.298 109.832,361.836 109.517,361.836 109.231 C 361.836 108.916,362.234 108.731,362.913 108.731 C 363.600 108.731,364.153 108.470,364.440 108.011 C 364.687 107.615,365.094 107.291,365.343 107.291 C 365.593 107.291,365.797 107.033,365.797 106.717 C 365.797 106.401,366.121 106.058,366.517 105.955 C 366.913 105.851,367.237 105.561,367.237 105.311 C 367.237 105.060,367.561 104.770,367.957 104.666 C 368.353 104.563,368.677 104.253,368.677 103.979 C 368.677 103.704,369.203 103.324,369.847 103.135 C 370.743 102.871,371.043 102.563,371.129 101.817 C 371.196 101.236,371.522 100.755,371.939 100.623 C 372.323 100.501,372.637 100.188,372.637 99.928 C 372.637 99.667,372.961 99.369,373.357 99.266 C 373.844 99.138,374.077 98.775,374.077 98.144 C 374.077 97.588,374.260 97.246,374.527 97.300 C 374.779 97.350,375.027 96.961,375.090 96.417 C 375.157 95.835,375.483 95.355,375.900 95.222 C 376.405 95.062,376.598 94.672,376.598 93.807 C 376.598 92.916,376.780 92.565,377.318 92.425 C 377.857 92.284,378.049 91.912,378.083 90.943 C 378.145 89.165,378.172 89.031,378.546 88.689 C 378.740 88.511,378.754 88.595,378.580 88.895 C 378.390 89.222,378.424 89.315,378.677 89.159 C 379.018 88.948,379.412 86.846,379.576 84.363 C 379.604 83.932,379.739 83.647,379.875 83.731 C 380.771 84.285,380.928 65.485,380.035 64.592 C 379.747 64.304,379.401 63.087,379.265 61.887 C 379.116 60.568,378.824 59.631,378.528 59.517 C 378.248 59.409,378.038 58.806,378.038 58.107 C 378.038 57.126,377.896 56.886,377.318 56.886 C 376.718 56.886,376.598 56.646,376.598 55.446 C 376.598 54.485,376.358 53.765,375.878 53.285 C 375.482 52.889,375.158 52.155,375.158 51.654 C 375.158 51.153,374.914 50.649,374.617 50.535 C 374.320 50.421,374.077 50.006,374.077 49.613 C 374.077 49.200,373.773 48.818,373.357 48.709 C 372.961 48.606,372.637 48.297,372.637 48.023 C 372.637 47.749,372.341 47.229,371.980 46.867 C 371.618 46.506,371.214 45.928,371.082 45.584 C 370.950 45.240,370.679 45.060,370.480 45.183 C 370.280 45.306,370.117 45.075,370.117 44.669 C 370.117 44.263,369.793 43.728,369.397 43.481 C 369.001 43.233,368.677 42.827,368.677 42.578 C 368.677 42.328,368.353 42.124,367.957 42.124 C 367.477 42.124,367.237 41.884,367.237 41.404 C 367.237 41.008,367.005 40.684,366.721 40.684 C 366.437 40.684,366.102 40.360,365.977 39.964 C 365.851 39.568,365.516 39.244,365.232 39.244 C 364.949 39.244,364.716 39.001,364.716 38.704 C 364.716 38.404,364.396 38.164,363.996 38.164 C 363.590 38.164,363.276 37.924,363.276 37.612 C 363.276 37.309,363.005 36.957,362.674 36.830 C 362.342 36.703,361.775 36.303,361.414 35.941 C 361.052 35.579,360.432 35.284,360.036 35.284 C 359.636 35.284,359.316 35.044,359.316 34.743 C 359.316 34.446,359.079 34.203,358.789 34.203 C 358.498 34.203,358.088 33.879,357.876 33.483 C 357.623 33.012,357.122 32.763,356.423 32.763 C 355.836 32.763,355.032 32.439,354.635 32.043 C 354.199 31.607,353.435 31.323,352.697 31.323 C 351.782 31.323,351.432 31.144,351.291 30.603 C 351.147 30.052,350.800 29.883,349.809 29.883 C 348.899 29.883,348.515 29.723,348.515 29.343 C 348.515 28.966,348.135 28.803,347.255 28.803 C 346.475 28.803,345.720 28.529,345.275 28.083 C 344.612 27.420,344.074 27.363,338.552 27.363 C 333.640 27.363,332.438 27.262,331.934 26.806 C 331.379 26.303,331.264 26.303,330.762 26.806 M70.311 34.563 C 70.469 35.165,70.802 35.284,72.334 35.284 C 73.661 35.284,74.167 35.422,74.167 35.785 C 74.167 36.328,74.922 36.724,75.959 36.724 C 76.317 36.724,76.704 36.967,76.818 37.264 C 76.932 37.561,77.450 37.804,77.970 37.804 C 78.489 37.804,79.326 38.128,79.830 38.524 C 80.333 38.920,81.047 39.244,81.417 39.244 C 81.848 39.244,82.088 39.501,82.088 39.964 C 82.088 40.444,82.328 40.684,82.808 40.684 C 83.204 40.684,83.528 40.838,83.528 41.026 C 83.528 41.521,85.159 43.204,85.640 43.204 C 85.865 43.204,86.049 43.463,86.049 43.778 C 86.049 44.094,86.373 44.437,86.769 44.540 C 87.165 44.644,87.489 44.958,87.489 45.238 C 87.489 45.518,87.722 45.837,88.007 45.946 C 88.292 46.055,88.628 46.616,88.755 47.193 C 88.882 47.769,89.187 48.363,89.434 48.513 C 89.681 48.662,89.987 49.068,90.115 49.415 C 90.242 49.761,90.595 50.045,90.898 50.045 C 91.245 50.045,91.449 50.377,91.449 50.942 C 91.449 51.449,91.762 52.035,92.169 52.289 C 92.642 52.584,92.889 53.128,92.889 53.873 C 92.889 54.498,93.108 55.092,93.376 55.195 C 93.667 55.307,93.947 56.209,94.075 57.445 C 94.192 58.580,94.483 59.688,94.722 59.907 C 95.050 60.209,95.084 60.174,94.865 59.766 C 94.705 59.469,94.713 59.352,94.882 59.506 C 95.052 59.661,95.230 60.056,95.278 60.385 C 95.584 62.466,96.990 64.985,97.627 64.591 C 97.794 64.488,97.930 64.996,97.930 65.719 C 97.930 66.731,98.096 67.077,98.650 67.222 C 99.191 67.364,99.370 67.714,99.370 68.629 C 99.370 69.367,99.654 70.131,100.090 70.567 C 100.536 71.013,100.810 71.767,100.810 72.547 C 100.810 73.427,100.973 73.807,101.350 73.807 C 101.686 73.807,101.890 74.147,101.890 74.707 C 101.890 75.203,102.214 75.932,102.610 76.328 C 103.010 76.728,103.330 77.528,103.330 78.128 C 103.330 78.968,103.490 79.208,104.050 79.208 C 104.616 79.208,104.770 79.448,104.770 80.327 C 104.770 81.474,105.994 83.150,106.841 83.162 C 107.116 83.166,107.291 83.670,107.291 84.462 C 107.291 85.453,107.459 85.800,108.011 85.944 C 108.552 86.086,108.731 86.435,108.731 87.351 C 108.731 88.329,108.873 88.569,109.451 88.569 C 109.931 88.569,110.171 88.809,110.171 89.289 C 110.171 89.685,110.401 90.009,110.682 90.009 C 110.964 90.009,111.303 90.506,111.436 91.113 C 111.570 91.721,111.907 92.305,112.185 92.412 C 112.464 92.519,112.691 92.847,112.691 93.142 C 112.691 93.436,113.015 93.762,113.411 93.865 C 113.807 93.969,114.131 94.214,114.131 94.411 C 114.131 94.931,115.675 96.476,116.202 96.483 C 116.449 96.487,116.652 96.748,116.652 97.063 C 116.652 97.379,116.976 97.722,117.372 97.825 C 117.768 97.929,118.092 98.253,118.092 98.546 C 118.092 98.838,118.416 99.162,118.812 99.266 C 119.208 99.369,119.532 99.706,119.532 100.014 C 119.532 100.321,119.812 100.883,120.155 101.261 C 120.745 101.913,120.745 101.967,120.155 102.298 C 119.784 102.505,119.532 103.076,119.532 103.708 C 119.532 104.530,119.369 104.770,118.812 104.770 C 118.332 104.770,118.092 105.011,118.092 105.491 C 118.092 105.971,117.852 106.211,117.372 106.211 C 116.972 106.211,116.652 106.451,116.652 106.751 C 116.652 107.048,116.420 107.291,116.136 107.291 C 115.852 107.291,115.522 107.600,115.402 107.978 C 115.282 108.355,114.947 108.755,114.658 108.866 C 114.368 108.977,114.131 109.316,114.131 109.620 C 114.131 109.923,113.883 110.171,113.580 110.171 C 113.277 110.171,112.935 110.414,112.821 110.711 C 112.572 111.362,111.934 111.438,112.061 110.801 C 112.115 110.532,111.682 110.306,110.981 110.238 C 110.103 110.154,109.811 109.952,109.811 109.428 C 109.811 109.045,109.568 108.731,109.271 108.731 C 108.974 108.731,108.731 108.473,108.731 108.157 C 108.731 107.842,108.407 107.499,108.011 107.395 C 107.615 107.291,107.291 106.983,107.291 106.709 C 107.291 106.435,106.967 106.211,106.571 106.211 C 106.165 106.211,105.851 105.971,105.851 105.662 C 105.851 105.360,105.436 104.955,104.929 104.762 C 104.422 104.569,104.107 104.249,104.230 104.051 C 104.353 103.853,104.293 103.690,104.097 103.690 C 103.902 103.690,103.475 103.424,103.150 103.099 C 102.324 102.273,100.128 100.810,99.714 100.810 C 99.525 100.810,99.370 100.486,99.370 100.090 C 99.370 99.610,99.130 99.370,98.650 99.370 C 98.243 99.370,97.930 99.130,97.930 98.819 C 97.930 98.515,97.650 98.160,97.308 98.028 C 96.593 97.754,95.050 96.174,95.050 95.717 C 95.050 95.548,94.825 95.410,94.551 95.410 C 94.278 95.410,93.969 95.086,93.865 94.689 C 93.758 94.282,93.374 93.969,92.979 93.969 C 91.791 93.969,90.257 91.423,91.123 90.888 C 91.302 90.777,91.449 89.955,91.449 89.062 C 91.449 88.098,91.669 87.218,91.989 86.897 C 92.427 86.460,92.529 85.200,92.529 80.262 C 92.529 75.085,92.448 74.167,91.989 74.167 C 91.609 74.167,91.449 73.784,91.449 72.874 C 91.449 71.883,91.281 71.536,90.729 71.391 C 90.188 71.250,90.009 70.900,90.009 69.985 C 90.009 69.007,89.867 68.767,89.289 68.767 C 88.809 68.767,88.569 68.527,88.569 68.047 C 88.569 67.651,88.365 67.327,88.117 67.327 C 87.868 67.327,87.192 66.760,86.614 66.067 C 86.036 65.374,85.268 64.806,84.906 64.806 C 84.544 64.806,84.248 64.585,84.248 64.315 C 84.248 63.753,82.037 63.366,78.827 63.366 C 76.419 63.366,75.608 63.603,75.608 64.305 C 75.608 64.581,75.284 64.806,74.887 64.806 C 74.487 64.806,74.167 65.047,74.167 65.347 C 74.167 65.647,73.847 65.887,73.447 65.887 C 72.982 65.887,72.727 66.127,72.727 66.565 C 72.727 66.940,72.406 67.327,72.007 67.431 C 71.387 67.593,71.287 67.922,71.287 69.813 C 71.287 71.355,71.156 71.980,70.846 71.917 C 70.172 71.780,70.057 73.412,70.722 73.667 C 71.161 73.836,71.287 74.446,71.287 76.400 C 71.287 78.613,71.374 78.938,72.007 79.104 C 72.545 79.244,72.727 79.595,72.727 80.486 C 72.727 81.363,72.918 81.740,73.447 81.908 C 73.978 82.077,74.160 82.438,74.139 83.283 C 74.123 83.913,74.029 84.226,73.929 83.978 C 73.829 83.731,73.260 83.528,72.664 83.528 C 72.068 83.528,71.169 83.204,70.665 82.808 C 70.035 82.312,69.205 82.088,67.998 82.088 C 66.696 82.088,66.052 81.893,65.487 81.329 C 64.513 80.354,60.337 80.460,59.593 81.478 C 59.250 81.947,58.586 82.088,56.722 82.088 C 54.601 82.088,54.275 82.178,54.110 82.808 C 54.006 83.204,53.664 83.528,53.349 83.528 C 51.893 83.528,50.045 86.093,50.045 88.113 C 50.045 89.486,49.892 90.091,49.505 90.239 C 49.208 90.353,48.965 90.839,48.965 91.319 C 48.965 91.799,49.208 92.285,49.505 92.399 C 49.885 92.545,50.045 93.138,50.045 94.402 C 50.045 95.894,50.166 96.229,50.765 96.385 C 51.161 96.489,51.485 96.780,51.485 97.033 C 51.485 97.546,52.268 97.930,53.315 97.930 C 53.695 97.930,54.329 98.254,54.725 98.650 C 55.215 99.140,55.926 99.370,56.947 99.370 C 57.872 99.370,58.717 99.612,59.146 100.000 C 59.761 100.556,60.691 100.630,67.035 100.630 C 73.468 100.630,74.274 100.564,74.686 100.000 C 75.045 99.510,75.676 99.370,77.534 99.370 C 79.532 99.370,79.995 99.252,80.372 98.650 C 80.672 98.169,81.211 97.930,81.995 97.930 C 82.928 97.930,83.168 97.783,83.168 97.210 C 83.168 96.738,83.408 96.490,83.864 96.490 C 84.247 96.490,84.663 96.814,84.788 97.210 C 84.914 97.606,85.249 97.930,85.533 97.930 C 85.816 97.930,86.049 98.178,86.049 98.481 C 86.049 98.784,86.332 99.138,86.679 99.267 C 87.025 99.395,88.163 100.362,89.207 101.416 C 90.250 102.469,91.259 103.330,91.449 103.330 C 91.638 103.330,92.685 104.221,93.774 105.311 C 94.863 106.400,95.982 107.291,96.260 107.291 C 96.538 107.291,96.850 107.615,96.954 108.011 C 97.066 108.438,97.445 108.731,97.887 108.731 C 98.297 108.731,99.148 109.298,99.779 109.991 C 100.410 110.684,101.143 111.251,101.408 111.251 C 101.673 111.251,101.890 111.509,101.890 111.825 C 101.890 112.140,102.214 112.483,102.610 112.587 C 103.006 112.691,103.330 113.015,103.330 113.307 C 103.330 113.599,103.654 113.924,104.050 114.027 C 104.446 114.131,104.770 114.440,104.770 114.713 C 104.770 114.987,105.095 115.212,105.491 115.212 C 105.971 115.212,106.211 115.452,106.211 115.932 C 106.211 116.332,106.451 116.652,106.751 116.652 C 107.051 116.652,107.291 116.972,107.291 117.372 C 107.291 117.772,107.051 118.092,106.751 118.092 C 106.454 118.092,106.211 118.322,106.211 118.602 C 106.211 118.883,105.563 119.788,104.770 120.612 C 103.978 121.436,103.330 122.422,103.330 122.802 C 103.330 123.252,103.080 123.492,102.610 123.492 C 102.210 123.492,101.890 123.732,101.890 124.032 C 101.890 124.329,101.647 124.572,101.350 124.572 C 101.050 124.572,100.810 124.892,100.810 125.293 C 100.810 125.933,100.570 126.013,98.650 126.013 C 96.950 126.013,96.490 125.895,96.490 125.461 C 96.490 125.158,96.222 124.807,95.895 124.682 C 95.568 124.556,94.744 123.913,94.064 123.253 C 93.355 122.565,92.456 122.052,91.958 122.052 C 91.418 122.052,91.089 121.844,91.089 121.501 C 91.089 120.956,90.593 120.634,89.507 120.475 C 89.201 120.430,88.824 120.254,88.669 120.085 C 88.515 119.915,88.616 119.909,88.895 120.070 C 89.235 120.267,89.316 120.227,89.143 119.948 C 89.002 119.719,88.491 119.532,88.008 119.532 C 87.369 119.532,87.129 119.335,87.129 118.812 C 87.129 118.217,86.889 118.092,85.744 118.092 C 84.817 118.092,84.145 117.854,83.708 117.372 C 83.350 116.976,82.743 116.652,82.359 116.652 C 81.976 116.652,81.250 116.328,80.746 115.932 C 80.243 115.536,79.367 115.212,78.799 115.212 C 78.122 115.212,77.768 115.026,77.768 114.671 C 77.768 114.306,77.402 114.131,76.637 114.131 C 76.008 114.131,75.317 113.871,75.078 113.544 C 74.808 113.176,73.922 112.891,72.698 112.780 C 71.625 112.683,70.454 112.346,70.097 112.033 C 69.697 111.682,68.541 111.405,67.098 111.313 C 65.546 111.214,64.686 110.995,64.560 110.667 C 64.424 110.313,63.668 110.171,61.912 110.171 C 59.771 110.171,59.425 110.078,59.226 109.451 C 59.020 108.802,58.681 108.731,55.781 108.731 C 53.272 108.731,52.565 108.621,52.565 108.229 C 52.565 107.494,51.741 107.291,48.755 107.291 C 46.621 107.291,46.085 107.182,46.085 106.751 C 46.085 106.454,45.827 106.211,45.511 106.211 C 45.196 106.211,44.526 105.887,44.023 105.491 C 43.466 105.053,42.562 104.770,41.716 104.770 C 40.766 104.770,40.324 104.611,40.324 104.269 C 40.324 103.718,39.567 103.330,38.494 103.330 C 38.115 103.330,37.804 103.087,37.804 102.790 C 37.804 102.493,37.627 102.250,37.411 102.250 C 37.194 102.250,36.605 101.926,36.102 101.530 C 35.598 101.134,34.884 100.810,34.515 100.810 C 34.146 100.810,33.843 100.649,33.843 100.453 C 33.843 100.064,32.208 98.430,30.958 97.570 C 30.526 97.273,30.031 96.665,29.857 96.220 C 29.683 95.774,29.294 95.410,28.992 95.410 C 28.690 95.410,28.443 95.161,28.443 94.858 C 28.443 94.555,28.200 94.214,27.903 94.100 C 27.606 93.986,27.363 93.678,27.363 93.415 C 27.363 93.153,27.039 92.835,26.643 92.709 C 26.107 92.539,25.923 92.165,25.923 91.245 C 25.923 90.249,25.783 90.009,25.203 90.009 C 24.620 90.009,24.482 89.769,24.482 88.749 C 24.482 87.916,24.314 87.489,23.984 87.489 C 23.626 87.489,23.444 86.823,23.335 85.112 C 23.223 83.362,23.023 82.646,22.573 82.394 C 21.548 81.821,21.652 64.953,22.682 64.626 C 23.286 64.435,23.402 64.082,23.402 62.442 C 23.402 60.943,23.529 60.486,23.942 60.486 C 24.316 60.486,24.482 60.111,24.482 59.268 C 24.482 58.353,24.661 58.003,25.203 57.861 C 25.719 57.726,25.923 57.370,25.923 56.601 C 25.923 55.832,26.126 55.476,26.643 55.341 C 27.058 55.233,27.363 54.850,27.363 54.438 C 27.363 54.044,27.590 53.635,27.869 53.528 C 28.147 53.421,28.484 52.837,28.618 52.230 C 28.751 51.622,29.090 51.125,29.372 51.125 C 29.653 51.125,29.883 50.910,29.883 50.648 C 29.883 50.385,30.450 49.697,31.143 49.120 C 31.836 48.542,32.403 47.954,32.403 47.813 C 32.403 47.426,34.186 45.725,34.591 45.725 C 34.786 45.725,35.039 45.482,35.153 45.185 C 35.267 44.887,35.575 44.644,35.838 44.644 C 36.100 44.644,36.418 44.320,36.544 43.924 C 36.669 43.528,37.004 43.204,37.288 43.204 C 37.572 43.204,37.804 42.972,37.804 42.689 C 37.804 42.405,38.128 42.070,38.524 41.944 C 38.920 41.818,39.244 41.484,39.244 41.200 C 39.244 40.863,39.631 40.684,40.358 40.684 C 41.169 40.684,41.523 40.488,41.660 39.964 C 41.793 39.455,42.151 39.244,42.883 39.244 C 43.528 39.244,44.088 38.973,44.368 38.524 C 44.643 38.083,45.208 37.804,45.822 37.804 C 46.384 37.804,46.919 37.565,47.035 37.264 C 47.148 36.967,47.548 36.724,47.923 36.724 C 48.298 36.724,48.929 36.400,49.325 36.004 C 49.899 35.429,50.525 35.284,52.419 35.284 C 54.490 35.284,54.817 35.192,54.981 34.563 C 55.162 33.873,55.472 33.843,62.646 33.843 C 69.820 33.843,70.131 33.873,70.311 34.563 M342.139 34.563 C 342.304 35.197,342.630 35.284,344.839 35.284 C 347.048 35.284,347.373 35.370,347.539 36.004 C 347.674 36.521,348.030 36.724,348.803 36.724 C 349.394 36.724,349.963 36.946,350.068 37.218 C 350.172 37.490,350.838 37.822,351.546 37.955 C 352.323 38.100,352.835 38.404,352.835 38.720 C 352.835 39.079,353.233 39.244,354.095 39.244 C 355.116 39.244,355.356 39.381,355.356 39.964 C 355.356 40.430,355.596 40.684,356.037 40.684 C 356.412 40.684,356.812 40.927,356.926 41.224 C 357.040 41.521,357.341 41.769,357.594 41.776 C 357.848 41.782,358.623 42.364,359.316 43.069 C 360.009 43.775,360.941 44.494,361.386 44.669 C 361.832 44.844,362.196 45.234,362.196 45.536 C 362.196 45.838,362.439 46.085,362.736 46.085 C 363.033 46.085,363.276 46.319,363.276 46.606 C 363.276 46.893,363.681 47.565,364.176 48.099 C 364.671 48.633,365.077 49.208,365.077 49.378 C 365.077 49.547,365.320 49.685,365.617 49.685 C 365.917 49.685,366.157 50.005,366.157 50.405 C 366.157 50.801,366.382 51.125,366.657 51.125 C 366.944 51.125,367.258 51.668,367.397 52.404 C 367.529 53.108,367.855 53.767,368.121 53.869 C 368.388 53.972,368.688 54.368,368.788 54.750 C 368.888 55.133,369.228 55.446,369.543 55.446 C 369.959 55.446,370.117 55.793,370.117 56.706 C 370.117 57.547,370.285 57.966,370.622 57.966 C 370.971 57.966,371.204 58.634,371.378 60.137 C 371.517 61.331,371.857 62.535,372.134 62.811 C 372.411 63.088,372.637 63.828,372.637 64.454 C 372.637 65.291,372.829 65.644,373.357 65.782 C 374.361 66.045,374.488 79.369,373.494 80.095 C 373.082 80.397,372.856 81.307,372.725 83.195 C 372.608 84.872,372.360 85.974,372.059 86.150 C 371.795 86.305,371.472 87.237,371.342 88.221 C 371.188 89.380,370.931 90.009,370.611 90.009 C 370.288 90.009,370.117 90.438,370.117 91.245 C 370.117 92.165,369.933 92.539,369.397 92.709 C 369.001 92.835,368.677 93.170,368.677 93.454 C 368.677 93.737,368.445 93.969,368.161 93.969 C 367.877 93.969,367.547 94.278,367.427 94.656 C 367.307 95.034,366.972 95.434,366.683 95.545 C 366.393 95.656,366.157 96.010,366.157 96.331 C 366.157 96.938,364.810 98.257,364.168 98.278 C 363.966 98.284,363.495 98.857,363.121 99.550 C 362.643 100.438,362.194 100.810,361.599 100.810 C 361.090 100.810,360.756 101.024,360.756 101.350 C 360.756 101.647,360.538 101.890,360.272 101.890 C 360.005 101.890,359.494 102.214,359.136 102.610 C 358.778 103.006,358.104 103.330,357.640 103.330 C 357.036 103.330,356.796 103.535,356.796 104.050 C 356.796 104.635,356.542 104.778,355.446 104.812 C 353.459 104.873,353.383 104.894,352.695 105.581 C 352.348 105.927,351.703 106.211,351.261 106.211 C 350.820 106.211,350.280 106.390,350.060 106.609 C 349.841 106.829,348.597 107.094,347.297 107.198 C 345.405 107.350,344.890 107.522,344.719 108.059 C 344.532 108.649,344.112 108.731,341.290 108.731 C 338.314 108.731,338.074 108.785,338.074 109.451 C 338.074 110.107,337.834 110.171,335.374 110.171 C 333.314 110.171,332.673 110.289,332.673 110.669 C 332.673 111.027,332.014 111.209,330.336 111.316 C 328.761 111.416,327.851 111.653,327.546 112.041 C 327.255 112.411,326.335 112.675,324.979 112.778 C 323.506 112.889,322.763 113.119,322.530 113.535 C 322.347 113.863,321.880 114.131,321.494 114.131 C 321.108 114.131,320.792 114.374,320.792 114.671 C 320.792 115.000,320.457 115.212,319.937 115.212 C 318.315 115.212,316.832 115.663,316.832 116.157 C 316.832 116.448,316.452 116.652,315.908 116.652 C 314.740 116.652,313.503 117.298,313.788 117.759 C 313.907 117.952,313.871 118.086,313.708 118.058 C 312.401 117.831,311.431 118.152,311.431 118.812 C 311.431 119.395,311.191 119.532,310.171 119.532 C 309.338 119.532,308.911 119.701,308.911 120.030 C 308.911 120.304,308.587 120.613,308.191 120.716 C 307.795 120.820,307.471 121.163,307.471 121.478 C 307.471 121.892,307.126 122.052,306.235 122.052 C 305.315 122.052,304.941 122.236,304.770 122.772 C 304.645 123.168,304.310 123.492,304.026 123.492 C 303.742 123.492,303.510 123.716,303.510 123.990 C 303.510 124.264,303.186 124.573,302.790 124.677 C 302.394 124.780,302.070 125.123,302.070 125.439 C 302.070 125.894,301.662 126.013,300.090 126.013 C 298.518 126.013,298.110 125.894,298.110 125.439 C 298.110 125.123,297.795 124.783,297.410 124.682 C 297.010 124.577,296.616 124.066,296.488 123.486 C 296.366 122.928,296.033 122.383,295.748 122.274 C 295.463 122.164,295.230 121.838,295.230 121.548 C 295.230 121.258,294.905 120.918,294.509 120.792 C 294.113 120.666,293.789 120.331,293.789 120.048 C 293.789 119.764,293.546 119.532,293.249 119.532 C 292.952 119.532,292.709 119.227,292.709 118.854 C 292.709 118.479,292.388 118.092,291.989 117.987 C 291.593 117.884,291.269 117.560,291.269 117.267 C 291.269 116.975,291.593 116.651,291.989 116.547 C 292.385 116.444,292.709 116.101,292.709 115.785 C 292.709 115.470,292.952 115.212,293.249 115.212 C 293.546 115.212,293.789 115.081,293.789 114.921 C 293.789 114.761,294.434 114.153,295.221 113.570 C 296.008 112.988,296.656 112.228,296.661 111.881 C 296.667 111.460,296.954 111.251,297.526 111.251 C 298.348 111.251,299.562 110.252,299.190 109.881 C 299.091 109.782,299.631 109.379,300.391 108.985 C 301.151 108.591,301.857 108.048,301.960 107.779 C 302.063 107.511,302.373 107.291,302.649 107.291 C 302.925 107.291,303.150 106.967,303.150 106.571 C 303.150 106.091,303.390 105.851,303.870 105.851 C 304.266 105.851,304.590 105.618,304.590 105.335 C 304.590 105.051,304.914 104.716,305.311 104.590 C 305.707 104.465,306.031 104.130,306.031 103.846 C 306.031 103.562,306.263 103.330,306.546 103.330 C 306.830 103.330,307.165 103.006,307.291 102.610 C 307.416 102.214,307.751 101.890,308.035 101.890 C 308.319 101.890,308.551 101.658,308.551 101.374 C 308.551 101.091,308.875 100.756,309.271 100.630 C 309.667 100.504,309.991 100.169,309.991 99.886 C 309.991 99.602,310.249 99.370,310.565 99.370 C 310.880 99.370,311.223 99.046,311.327 98.650 C 311.430 98.254,311.739 97.930,312.013 97.930 C 312.287 97.930,312.511 97.606,312.511 97.210 C 312.511 96.738,312.751 96.490,313.207 96.490 C 313.590 96.490,314.006 96.814,314.131 97.210 C 314.318 97.798,314.676 97.930,316.094 97.930 C 317.525 97.930,317.861 98.056,318.016 98.650 C 318.177 99.265,318.507 99.370,320.280 99.370 C 321.752 99.370,322.558 99.553,323.052 100.000 C 324.107 100.955,337.221 100.955,337.756 100.000 C 338.020 99.530,338.571 99.370,339.926 99.370 C 341.439 99.370,341.773 99.250,341.930 98.650 C 342.071 98.109,342.421 97.930,343.336 97.930 C 344.314 97.930,344.554 97.788,344.554 97.210 C 344.554 96.730,344.794 96.490,345.275 96.490 C 345.857 96.490,345.995 96.250,345.995 95.230 C 345.995 94.367,346.160 93.969,346.518 93.969 C 347.661 93.969,347.647 86.966,346.504 86.527 C 346.224 86.419,345.995 86.010,345.995 85.616 C 345.995 85.204,345.690 84.821,345.275 84.713 C 344.878 84.609,344.554 84.300,344.554 84.026 C 344.554 83.736,344.181 83.528,343.657 83.528 C 343.150 83.528,342.565 83.215,342.311 82.808 C 341.951 82.233,341.471 82.088,339.917 82.088 C 338.568 82.088,337.847 81.916,337.561 81.524 C 336.757 80.425,331.593 80.415,331.593 81.512 C 331.593 81.831,330.821 82.056,329.210 82.207 C 327.808 82.338,326.658 82.641,326.419 82.944 C 325.683 83.875,323.312 83.886,323.312 82.958 C 323.312 82.475,323.590 82.100,324.032 81.984 C 324.584 81.840,324.752 81.493,324.752 80.502 C 324.752 79.592,324.913 79.208,325.293 79.208 C 325.690 79.208,325.833 78.794,325.833 77.644 C 325.833 76.536,326.043 75.889,326.553 75.428 C 327.119 74.915,327.273 74.319,327.273 72.638 C 327.273 70.802,327.171 70.473,326.553 70.311 C 325.945 70.152,325.833 69.820,325.833 68.185 C 325.833 66.651,325.713 66.247,325.259 66.247 C 324.943 66.247,324.600 65.923,324.497 65.527 C 324.357 64.992,324.006 64.806,323.132 64.806 C 322.254 64.806,321.908 64.622,321.765 64.076 C 321.455 62.892,314.311 63.111,314.311 64.305 C 314.311 64.581,313.987 64.806,313.591 64.806 C 313.195 64.806,312.871 64.961,312.871 65.150 C 312.871 65.338,312.296 65.766,311.592 66.100 C 310.690 66.528,310.252 67.011,310.107 67.737 C 309.994 68.303,309.674 68.767,309.397 68.767 C 309.120 68.767,308.745 69.156,308.564 69.632 C 308.383 70.108,308.063 70.603,307.853 70.733 C 307.643 70.863,307.471 71.284,307.471 71.668 C 307.471 72.053,307.147 72.691,306.751 73.087 C 306.083 73.755,306.031 74.287,306.031 80.468 C 306.031 86.889,306.057 87.129,306.751 87.129 C 307.411 87.129,307.471 87.369,307.471 90.009 C 307.471 92.285,307.361 92.889,306.949 92.889 C 306.661 92.889,306.297 93.104,306.139 93.366 C 305.980 93.629,305.567 93.948,305.221 94.075 C 304.874 94.203,304.590 94.555,304.590 94.858 C 304.590 95.161,304.347 95.410,304.050 95.410 C 303.750 95.410,303.510 95.730,303.510 96.130 C 303.510 96.610,303.270 96.850,302.790 96.850 C 302.390 96.850,302.070 97.090,302.070 97.390 C 302.070 97.687,301.812 97.930,301.496 97.930 C 301.181 97.930,300.838 98.254,300.734 98.650 C 300.631 99.046,300.333 99.370,300.072 99.370 C 299.812 99.370,299.496 99.694,299.370 100.090 C 299.244 100.486,298.909 100.810,298.626 100.810 C 298.342 100.810,298.110 101.034,298.110 101.308 C 298.110 101.582,297.786 101.891,297.390 101.995 C 296.994 102.098,296.670 102.422,296.670 102.715 C 296.670 103.007,296.346 103.331,295.950 103.435 C 295.554 103.538,295.230 103.881,295.230 104.197 C 295.230 104.512,294.986 104.770,294.689 104.770 C 294.392 104.770,294.149 104.996,294.149 105.272 C 294.149 105.818,293.394 106.211,292.344 106.211 C 291.978 106.211,291.575 106.535,291.449 106.931 C 291.323 107.327,290.988 107.651,290.705 107.651 C 290.421 107.651,290.186 107.853,290.183 108.101 C 290.174 108.735,288.582 110.171,287.888 110.171 C 287.569 110.171,287.309 110.414,287.309 110.711 C 287.309 111.011,286.989 111.251,286.589 111.251 C 286.189 111.251,285.869 111.011,285.869 110.711 C 285.869 110.414,285.636 110.171,285.353 110.171 C 285.069 110.171,284.734 109.847,284.608 109.451 C 284.483 109.055,284.148 108.731,283.864 108.731 C 283.580 108.731,283.348 108.407,283.348 108.011 C 283.348 107.366,282.974 107.122,282.178 107.248 C 282.030 107.272,281.949 107.163,281.998 107.007 C 282.116 106.636,280.252 104.770,279.764 104.770 C 279.557 104.770,279.388 104.203,279.388 103.510 C 279.388 102.770,279.210 102.250,278.956 102.250 C 278.620 102.250,278.620 102.154,278.956 101.818 C 279.194 101.581,279.388 101.008,279.388 100.547 C 279.388 100.085,279.631 99.614,279.928 99.500 C 280.225 99.386,280.468 99.062,280.468 98.780 C 280.468 98.498,280.727 98.168,281.044 98.046 C 281.780 97.764,283.348 96.203,283.348 95.753 C 283.348 95.564,283.607 95.410,283.922 95.410 C 284.238 95.410,284.581 95.086,284.684 94.689 C 284.788 94.293,285.097 93.969,285.371 93.969 C 285.644 93.969,285.869 93.645,285.869 93.249 C 285.869 92.769,286.109 92.529,286.589 92.529 C 287.069 92.529,287.309 92.289,287.309 91.809 C 287.309 91.409,287.549 91.089,287.849 91.089 C 288.146 91.089,288.389 90.912,288.389 90.696 C 288.389 90.480,288.713 89.891,289.109 89.387 C 289.505 88.884,289.829 88.188,289.829 87.842 C 289.829 87.496,290.153 87.128,290.549 87.024 C 291.073 86.887,291.269 86.533,291.269 85.722 C 291.269 85.010,291.450 84.608,291.771 84.608 C 292.321 84.608,292.709 83.852,292.709 82.779 C 292.709 82.399,292.941 82.088,293.225 82.088 C 293.509 82.088,293.854 81.731,293.993 81.295 C 294.131 80.859,294.466 80.280,294.737 80.009 C 295.008 79.738,295.230 79.204,295.230 78.822 C 295.230 78.440,295.554 77.804,295.950 77.408 C 296.422 76.935,296.670 76.208,296.670 75.290 C 296.670 74.194,296.826 73.851,297.390 73.703 C 297.907 73.568,298.110 73.212,298.110 72.439 C 298.110 71.816,298.337 71.277,298.650 71.157 C 299.031 71.011,299.190 70.416,299.190 69.138 C 299.190 67.567,299.285 67.327,299.910 67.327 C 300.492 67.327,300.630 67.087,300.630 66.079 C 300.630 65.200,300.843 64.718,301.350 64.446 C 301.812 64.199,302.070 63.693,302.070 63.032 C 302.070 62.450,302.305 61.913,302.610 61.796 C 302.944 61.668,303.150 61.121,303.150 60.366 C 303.150 59.688,303.471 58.735,303.870 58.228 C 304.370 57.593,304.590 56.767,304.590 55.535 C 304.590 54.214,304.776 53.589,305.311 53.105 C 305.707 52.747,306.031 52.148,306.031 51.774 C 306.031 51.401,306.355 50.747,306.751 50.322 C 307.147 49.897,307.471 49.337,307.471 49.077 C 307.471 48.817,307.714 48.605,308.011 48.605 C 308.311 48.605,308.551 48.285,308.551 47.885 C 308.551 47.489,308.777 47.165,309.052 47.165 C 309.603 47.165,309.991 46.408,309.991 45.335 C 309.991 44.943,310.239 44.644,310.565 44.644 C 310.880 44.644,311.223 44.320,311.327 43.924 C 311.430 43.528,311.739 43.204,312.013 43.204 C 312.287 43.204,312.511 42.961,312.511 42.664 C 312.511 42.367,312.759 42.124,313.063 42.124 C 313.366 42.124,313.710 41.875,313.826 41.571 C 313.943 41.266,314.586 40.789,315.255 40.509 C 315.924 40.229,316.472 39.830,316.472 39.622 C 316.472 39.414,316.796 39.244,317.192 39.244 C 317.588 39.244,317.912 39.018,317.912 38.742 C 317.912 38.139,318.687 37.804,320.080 37.804 C 320.646 37.804,321.216 37.632,321.346 37.422 C 321.476 37.211,321.971 36.891,322.447 36.710 C 322.923 36.529,323.312 36.134,323.312 35.832 C 323.312 35.412,323.743 35.284,325.146 35.284 C 326.677 35.284,327.011 35.165,327.168 34.563 C 327.349 33.873,327.660 33.843,334.653 33.843 C 341.647 33.843,341.958 33.873,342.139 34.563 M204.631 42.664 C 204.780 43.054,205.391 43.204,206.829 43.204 C 208.581 43.204,208.821 43.291,208.821 43.924 C 208.821 44.507,209.061 44.644,210.081 44.644 C 211.101 44.644,211.341 44.782,211.341 45.365 C 211.341 45.947,211.581 46.085,212.601 46.085 C 213.481 46.085,213.861 46.247,213.861 46.625 C 213.861 46.925,214.181 47.165,214.581 47.165 C 215.062 47.165,215.302 47.405,215.302 47.885 C 215.302 48.365,215.542 48.605,216.022 48.605 C 216.502 48.605,216.742 48.845,216.742 49.325 C 216.742 49.805,216.982 50.045,217.462 50.045 C 217.942 50.045,218.182 50.285,218.182 50.765 C 218.182 51.165,218.422 51.485,218.722 51.485 C 219.099 51.485,219.262 51.865,219.262 52.745 C 219.262 53.765,219.399 54.005,219.982 54.005 C 220.565 54.005,220.702 54.245,220.702 55.266 C 220.702 56.286,220.839 56.526,221.422 56.526 C 222.055 56.526,222.142 56.766,222.142 58.506 C 222.142 60.026,222.268 60.486,222.682 60.486 C 223.131 60.486,223.222 61.186,223.222 64.626 C 223.222 68.067,223.131 68.767,222.682 68.767 C 222.268 68.767,222.142 69.227,222.142 70.747 C 222.142 72.487,222.055 72.727,221.422 72.727 C 220.844 72.727,220.702 72.967,220.702 73.945 C 220.702 74.861,220.523 75.210,219.982 75.352 C 219.430 75.496,219.262 75.843,219.262 76.834 C 219.262 77.744,219.102 78.128,218.722 78.128 C 218.425 78.128,218.182 78.371,218.182 78.668 C 218.182 78.968,217.862 79.208,217.462 79.208 C 216.982 79.208,216.742 79.448,216.742 79.928 C 216.742 80.408,216.502 80.648,216.022 80.648 C 215.542 80.648,215.302 80.888,215.302 81.368 C 215.302 81.848,215.062 82.088,214.581 82.088 C 214.101 82.088,213.861 82.328,213.861 82.808 C 213.861 83.208,213.621 83.528,213.321 83.528 C 213.024 83.528,212.781 83.771,212.781 84.068 C 212.781 84.448,212.397 84.608,211.487 84.608 C 210.496 84.608,210.150 84.777,210.005 85.329 C 209.846 85.936,209.514 86.049,207.879 86.049 C 206.181 86.049,205.941 86.138,205.941 86.769 C 205.941 87.460,205.701 87.489,200.000 87.489 C 194.299 87.489,194.059 87.460,194.059 86.769 C 194.059 86.169,193.819 86.049,192.619 86.049 C 191.419 86.049,191.179 85.929,191.179 85.329 C 191.179 84.746,190.939 84.608,189.919 84.608 C 189.039 84.608,188.659 84.446,188.659 84.068 C 188.659 83.768,188.339 83.528,187.939 83.528 C 187.459 83.528,187.219 83.288,187.219 82.808 C 187.219 82.225,186.979 82.088,185.959 82.088 C 184.938 82.088,184.698 81.951,184.698 81.368 C 184.698 80.888,184.458 80.648,183.978 80.648 C 183.395 80.648,183.258 80.408,183.258 79.388 C 183.258 78.368,183.121 78.128,182.538 78.128 C 182.058 78.128,181.818 77.888,181.818 77.408 C 181.818 77.008,181.578 76.688,181.278 76.688 C 180.901 76.688,180.738 76.308,180.738 75.428 C 180.738 74.407,180.601 74.167,180.018 74.167 C 179.418 74.167,179.298 73.927,179.298 72.727 C 179.298 71.527,179.178 71.287,178.578 71.287 C 177.887 71.287,177.858 71.047,177.858 65.347 C 177.858 59.646,177.887 59.406,178.578 59.406 C 179.209 59.406,179.298 59.166,179.298 57.468 C 179.298 55.832,179.410 55.500,180.018 55.341 C 180.570 55.197,180.738 54.850,180.738 53.859 C 180.738 52.949,180.898 52.565,181.278 52.565 C 181.575 52.565,181.818 52.341,181.818 52.067 C 181.818 51.793,182.142 51.484,182.538 51.381 C 182.934 51.277,183.258 50.934,183.258 50.619 C 183.258 50.285,183.560 50.045,183.978 50.045 C 184.458 50.045,184.698 49.805,184.698 49.325 C 184.698 48.906,184.938 48.605,185.272 48.605 C 185.588 48.605,185.931 48.281,186.034 47.885 C 186.138 47.489,186.447 47.165,186.721 47.165 C 186.995 47.165,187.219 46.922,187.219 46.625 C 187.219 46.245,187.603 46.085,188.513 46.085 C 189.504 46.085,189.850 45.916,189.995 45.365 C 190.136 44.823,190.486 44.644,191.401 44.644 C 192.379 44.644,192.619 44.503,192.619 43.924 C 192.619 43.292,192.859 43.204,194.599 43.204 C 196.120 43.204,196.580 43.079,196.580 42.664 C 196.580 42.217,197.255 42.124,200.502 42.124 C 203.656 42.124,204.464 42.230,204.631 42.664 M79.568 70.567 C 79.568 71.145,79.808 71.287,80.786 71.287 C 81.701 71.287,82.051 71.466,82.193 72.007 C 82.296 72.403,82.639 72.727,82.955 72.727 C 83.370 72.727,83.528 73.074,83.528 73.987 C 83.528 74.808,83.699 75.248,84.016 75.248 C 84.624 75.248,85.004 79.143,84.711 82.373 C 84.522 84.454,83.168 85.942,83.168 84.068 C 83.168 83.771,82.946 83.528,82.675 83.528 C 82.355 83.528,82.116 82.940,81.993 81.854 C 81.880 80.846,81.574 80.050,81.226 79.856 C 80.908 79.678,80.648 79.216,80.648 78.830 C 80.648 78.368,80.402 78.128,79.928 78.128 C 79.275 78.128,78.936 76.842,79.154 75.192 C 79.171 75.063,78.947 74.759,78.656 74.518 C 77.763 73.777,77.925 69.847,78.848 69.847 C 79.328 69.847,79.568 70.087,79.568 70.567 M320.240 71.287 C 320.644 71.287,320.792 71.674,320.792 72.727 C 320.792 73.927,320.672 74.167,320.072 74.167 C 319.493 74.167,319.352 74.407,319.352 75.389 C 319.352 76.122,319.144 76.690,318.832 76.810 C 318.546 76.920,318.204 77.585,318.072 78.289 C 317.934 79.025,317.619 79.568,317.332 79.568 C 317.000 79.568,316.832 79.993,316.832 80.828 C 316.832 81.741,316.674 82.088,316.258 82.088 C 315.942 82.088,315.599 82.412,315.496 82.808 C 315.392 83.204,315.083 83.528,314.809 83.528 C 314.536 83.528,314.311 83.667,314.311 83.836 C 314.311 84.005,313.906 84.580,313.411 85.114 L 312.511 86.086 312.511 81.387 C 312.511 77.168,312.585 76.614,313.231 75.968 C 313.627 75.572,313.951 74.923,313.951 74.527 C 313.951 74.131,314.177 73.807,314.453 73.807 C 315.003 73.807,315.392 73.051,315.392 71.978 C 315.392 71.432,315.649 71.287,316.622 71.287 C 318.261 71.287,318.987 70.975,319.015 70.259 C 319.030 69.851,319.139 69.919,319.363 70.477 C 319.542 70.923,319.937 71.287,320.240 71.287 M64.269 88.569 C 66.940 88.569,67.262 88.642,67.431 89.289 C 67.588 89.887,67.922 90.009,69.411 90.009 C 70.900 90.009,71.235 90.131,71.391 90.729 C 71.549 91.330,71.883 91.449,73.414 91.449 C 74.762 91.449,75.248 91.585,75.248 91.963 C 75.248 92.245,75.531 92.551,75.878 92.641 C 76.261 92.741,76.115 92.822,75.506 92.848 C 74.955 92.870,74.412 93.132,74.298 93.429 C 74.028 94.133,66.273 94.217,65.171 93.528 C 64.613 93.180,64.371 93.180,64.023 93.528 C 63.375 94.177,60.486 94.109,60.486 93.446 C 60.486 93.134,59.985 92.828,59.251 92.690 C 58.572 92.563,57.929 92.231,57.822 91.954 C 57.716 91.676,57.380 91.449,57.077 91.449 C 56.675 91.449,56.526 91.064,56.526 90.031 C 56.526 88.498,57.494 88.086,60.261 88.437 C 60.830 88.510,62.634 88.569,64.269 88.569 M339.514 89.120 C 339.514 89.423,339.757 89.765,340.054 89.879 C 340.735 90.140,340.767 91.449,340.093 91.449 C 339.817 91.449,339.506 91.672,339.401 91.944 C 339.297 92.216,338.631 92.547,337.923 92.680 C 337.146 92.826,336.634 93.130,336.634 93.446 C 336.634 94.106,334.100 94.172,333.456 93.528 C 333.108 93.180,332.866 93.180,332.309 93.528 C 331.207 94.217,323.452 94.133,323.182 93.429 C 323.068 93.132,322.661 92.889,322.277 92.889 C 321.757 92.889,321.627 92.706,321.768 92.169 C 321.926 91.566,322.259 91.449,323.826 91.449 C 325.199 91.449,325.902 91.258,326.470 90.729 C 326.941 90.290,327.740 90.009,328.518 90.009 C 329.553 90.009,329.793 89.873,329.793 89.289 C 329.793 88.604,330.033 88.569,334.653 88.569 C 338.778 88.569,339.514 88.652,339.514 89.120 M272.547 114.616 C 272.547 114.882,272.871 115.393,273.267 115.752 C 273.663 116.110,273.987 116.525,273.987 116.674 C 273.987 116.823,273.663 116.860,273.267 116.756 C 272.871 116.652,272.547 116.361,272.547 116.108 C 272.547 115.855,272.304 115.555,272.007 115.441 C 271.710 115.327,271.467 114.986,271.467 114.683 C 271.467 114.380,271.710 114.131,272.007 114.131 C 272.304 114.131,272.547 114.349,272.547 114.616 M126.204 116.521 C 125.495 117.286,124.821 118.276,124.705 118.722 C 124.589 119.167,124.269 119.532,123.993 119.532 C 123.718 119.532,123.480 119.815,123.464 120.162 C 123.446 120.563,123.368 120.623,123.249 120.327 C 122.943 119.565,123.465 118.092,124.039 118.092 C 124.333 118.092,124.572 117.768,124.572 117.372 C 124.572 116.892,124.812 116.652,125.293 116.652 C 125.763 116.652,126.013 116.412,126.013 115.958 C 126.013 115.576,126.296 115.201,126.643 115.124 C 127.620 114.907,127.581 115.033,126.204 116.521 M276.031 118.789 C 276.479 119.297,276.850 119.914,276.856 120.162 C 276.863 120.410,277.092 120.612,277.366 120.612 C 277.640 120.612,277.949 120.936,278.052 121.332 C 278.156 121.728,278.499 122.052,278.814 122.052 C 279.130 122.052,279.388 122.284,279.388 122.568 C 279.388 122.852,279.695 123.181,280.070 123.300 C 280.748 123.515,281.379 126.013,280.756 126.013 C 280.598 126.013,280.468 125.833,280.468 125.613 C 280.468 125.060,278.947 123.506,278.398 123.499 C 278.150 123.495,277.948 123.164,277.948 122.762 C 277.948 122.340,277.111 121.253,275.968 120.189 C 274.878 119.175,273.987 118.132,273.987 117.870 C 273.987 117.195,275.045 117.671,276.031 118.789 M133.933 119.887 C 133.933 120.629,130.027 124.932,129.353 124.932 C 129.143 124.932,128.876 125.311,128.760 125.773 C 128.567 126.544,127.453 127.004,127.453 126.313 C 127.453 126.148,127.696 126.013,127.993 126.013 C 128.293 126.013,128.533 125.693,128.533 125.293 C 128.533 124.812,128.773 124.572,129.253 124.572 C 129.733 124.572,129.973 124.332,129.973 123.852 C 129.973 123.456,130.199 123.132,130.475 123.132 C 131.025 123.132,131.413 122.376,131.413 121.303 C 131.413 120.923,131.656 120.612,131.953 120.612 C 132.253 120.612,132.493 120.292,132.493 119.892 C 132.493 119.412,132.733 119.172,133.213 119.172 C 133.692 119.172,133.933 119.412,133.933 119.887 M266.992 119.686 C 267.275 119.969,267.507 120.460,267.507 120.778 C 267.507 121.095,267.750 121.448,268.047 121.562 C 268.344 121.676,268.587 122.010,268.587 122.304 C 268.587 122.599,268.911 122.924,269.307 123.028 C 269.705 123.132,270.027 123.519,270.027 123.894 C 270.027 124.332,270.282 124.572,270.747 124.572 C 271.227 124.572,271.467 124.812,271.467 125.293 C 271.467 125.693,271.707 126.013,272.007 126.013 C 272.304 126.013,272.547 126.271,272.547 126.586 C 272.547 126.902,272.871 127.245,273.267 127.348 C 273.663 127.452,273.987 127.761,273.987 128.035 C 273.987 128.309,274.144 128.533,274.336 128.533 C 274.528 128.533,274.592 128.776,274.478 129.073 C 274.346 129.415,274.483 129.613,274.849 129.613 C 275.181 129.613,275.428 129.910,275.428 130.309 C 275.428 130.691,275.752 131.107,276.148 131.233 C 276.544 131.359,276.868 131.682,276.868 131.951 C 276.868 132.220,277.151 132.515,277.498 132.605 C 277.844 132.696,277.520 132.789,276.778 132.812 C 275.566 132.849,275.428 132.761,275.428 131.953 C 275.428 131.458,275.104 130.729,274.707 130.333 C 274.311 129.937,273.987 129.451,273.987 129.253 C 273.987 129.055,273.729 128.893,273.414 128.893 C 273.098 128.893,272.755 128.569,272.652 128.173 C 272.548 127.777,272.275 127.453,272.044 127.453 C 271.814 127.453,271.436 126.952,271.205 126.340 C 270.963 125.699,270.620 125.329,270.397 125.466 C 270.184 125.598,270.054 125.495,270.108 125.238 C 270.163 124.980,269.842 124.714,269.397 124.646 C 268.951 124.578,268.587 124.291,268.587 124.007 C 268.587 123.724,268.263 123.168,267.867 122.772 C 267.471 122.376,267.147 121.809,267.147 121.512 C 267.147 121.215,266.904 120.972,266.607 120.972 C 266.271 120.972,266.067 120.632,266.067 120.072 C 266.067 119.042,266.265 118.959,266.992 119.686 M169.937 121.332 C 169.937 122.009,169.697 122.052,165.977 122.052 C 162.256 122.052,162.016 122.096,162.016 122.772 C 162.016 123.355,161.776 123.492,160.756 123.492 C 159.876 123.492,159.496 123.655,159.496 124.032 C 159.496 124.446,159.039 124.572,157.540 124.572 C 155.900 124.572,155.547 124.689,155.356 125.293 C 155.230 125.689,154.895 126.013,154.611 126.013 C 154.328 126.013,154.095 126.337,154.095 126.733 C 154.095 127.333,153.855 127.453,152.655 127.453 C 151.664 127.453,151.215 127.609,151.215 127.954 C 151.215 128.230,150.972 128.549,150.675 128.663 C 150.378 128.777,150.135 129.118,150.135 129.422 C 150.135 129.733,149.822 129.973,149.415 129.973 C 148.935 129.973,148.695 130.213,148.695 130.693 C 148.695 131.173,148.455 131.413,147.975 131.413 C 147.495 131.413,147.255 131.653,147.255 132.133 C 147.255 132.533,147.015 132.853,146.715 132.853 C 146.418 132.853,146.175 133.096,146.175 133.393 C 146.175 133.693,145.855 133.933,145.455 133.933 C 144.974 133.933,144.734 134.173,144.734 134.653 C 144.734 135.134,144.494 135.374,144.014 135.374 C 143.534 135.374,143.294 135.614,143.294 136.094 C 143.294 136.574,143.054 136.814,142.574 136.814 C 141.991 136.814,141.854 137.054,141.854 138.074 C 141.854 138.954,141.691 139.334,141.314 139.334 C 140.940 139.334,140.774 139.709,140.774 140.552 C 140.774 141.467,140.595 141.817,140.054 141.959 C 139.502 142.103,139.334 142.450,139.334 143.441 C 139.334 144.494,139.200 144.734,138.614 144.734 C 137.981 144.734,137.894 144.974,137.894 146.715 C 137.894 148.235,137.768 148.695,137.354 148.695 C 136.877 148.695,136.814 153.895,136.814 193.339 C 136.814 232.783,136.877 237.984,137.354 237.984 C 137.768 237.984,137.894 238.444,137.894 239.964 C 137.894 241.704,137.981 241.944,138.614 241.944 C 139.200 241.944,139.334 242.184,139.334 243.238 C 139.334 244.229,139.502 244.576,140.054 244.720 C 140.595 244.862,140.774 245.211,140.774 246.127 C 140.774 246.969,140.940 247.345,141.314 247.345 C 141.691 247.345,141.854 247.725,141.854 248.605 C 141.854 249.625,141.991 249.865,142.574 249.865 C 143.054 249.865,143.294 250.105,143.294 250.585 C 143.294 251.065,143.534 251.305,144.014 251.305 C 144.494 251.305,144.734 251.545,144.734 252.025 C 144.734 252.505,144.974 252.745,145.455 252.745 C 146.037 252.745,146.175 252.985,146.175 254.005 C 146.175 254.885,146.337 255.266,146.715 255.266 C 147.015 255.266,147.255 255.586,147.255 255.986 C 147.255 256.586,147.495 256.706,148.695 256.706 C 149.895 256.706,150.135 256.826,150.135 257.426 C 150.135 257.826,150.375 258.146,150.675 258.146 C 150.972 258.146,151.215 258.389,151.215 258.686 C 151.215 258.986,151.535 259.226,151.935 259.226 C 152.415 259.226,152.655 259.466,152.655 259.946 C 152.655 260.526,152.895 260.666,153.891 260.666 C 154.811 260.666,155.185 260.850,155.356 261.386 C 155.526 261.922,155.900 262.106,156.820 262.106 C 157.678 262.106,158.056 262.271,158.056 262.646 C 158.056 263.061,158.516 263.186,160.036 263.186 C 161.776 263.186,162.016 263.274,162.016 263.906 C 162.016 264.386,162.256 264.626,162.736 264.626 C 163.452 264.626,163.456 264.866,163.456 302.610 L 163.456 340.594 173.357 340.594 L 183.258 340.594 183.258 292.709 L 183.258 244.824 175.878 244.824 C 168.737 244.824,168.497 244.801,168.497 244.104 C 168.497 243.521,168.257 243.384,167.237 243.384 C 166.217 243.384,165.977 243.247,165.977 242.664 C 165.977 242.184,165.737 241.944,165.257 241.944 C 164.856 241.944,164.536 241.704,164.536 241.404 C 164.536 241.027,164.156 240.864,163.276 240.864 C 162.046 240.864,162.016 240.830,162.016 239.424 C 162.016 238.224,161.896 237.984,161.296 237.984 C 160.890 237.984,160.576 237.744,160.576 237.432 C 160.576 237.129,160.333 236.788,160.036 236.674 C 159.739 236.560,159.496 236.173,159.496 235.815 C 159.496 234.778,159.101 234.023,158.557 234.023 C 158.189 234.023,158.056 233.496,158.056 232.043 C 158.056 230.303,157.969 230.063,157.336 230.063 C 156.620 230.063,156.616 229.823,156.616 193.339 C 156.616 156.856,156.620 156.616,157.336 156.616 C 157.969 156.616,158.056 156.376,158.056 154.635 C 158.056 153.183,158.189 152.655,158.557 152.655 C 159.108 152.655,159.496 151.899,159.496 150.826 C 159.496 150.446,159.739 150.135,160.036 150.135 C 160.336 150.135,160.576 149.815,160.576 149.415 C 160.576 148.935,160.816 148.695,161.296 148.695 C 161.776 148.695,162.016 148.455,162.016 147.975 C 162.016 147.495,162.256 147.255,162.736 147.255 C 163.132 147.255,163.456 147.029,163.456 146.753 C 163.456 146.477,163.699 146.158,163.996 146.044 C 164.293 145.930,164.536 145.589,164.536 145.286 C 164.536 144.974,164.850 144.734,165.257 144.734 C 165.737 144.734,165.977 144.494,165.977 144.014 C 165.977 143.382,166.217 143.294,167.957 143.294 C 169.697 143.294,169.937 143.207,169.937 142.574 C 169.937 141.860,170.177 141.854,200.720 141.854 C 231.263 141.854,231.503 141.860,231.503 142.574 C 231.503 143.157,231.743 143.294,232.763 143.294 C 233.783 143.294,234.023 143.431,234.023 144.014 C 234.023 144.597,234.263 144.734,235.284 144.734 C 236.137 144.734,236.544 144.901,236.544 145.250 C 236.544 145.534,236.868 145.869,237.264 145.995 C 237.660 146.120,237.984 146.455,237.984 146.739 C 237.984 147.023,238.308 147.255,238.704 147.255 C 239.184 147.255,239.424 147.495,239.424 147.975 C 239.424 148.375,239.664 148.695,239.964 148.695 C 240.328 148.695,240.504 149.059,240.504 149.809 C 240.504 150.620,240.700 150.974,241.224 151.111 C 241.788 151.258,241.944 151.602,241.944 152.697 C 241.944 153.855,242.068 154.095,242.664 154.095 C 243.380 154.095,243.384 154.335,243.384 194.059 C 243.384 233.783,243.380 234.023,242.664 234.023 C 242.081 234.023,241.944 234.263,241.944 235.284 C 241.944 236.137,241.778 236.544,241.428 236.544 C 241.145 236.544,240.810 236.868,240.684 237.264 C 240.558 237.660,240.223 237.984,239.940 237.984 C 239.656 237.984,239.424 238.308,239.424 238.704 C 239.424 239.184,239.184 239.424,238.704 239.424 C 238.224 239.424,237.984 239.664,237.984 240.144 C 237.984 240.624,237.744 240.864,237.264 240.864 C 236.864 240.864,236.544 241.104,236.544 241.404 C 236.544 241.701,236.301 241.944,236.004 241.944 C 235.704 241.944,235.464 242.264,235.464 242.664 C 235.464 243.264,235.224 243.384,234.023 243.384 C 232.823 243.384,232.583 243.504,232.583 244.104 C 232.583 244.800,232.343 244.824,225.383 244.824 L 218.182 244.824 218.182 292.709 L 218.182 340.594 228.083 340.594 L 237.984 340.594 237.984 302.610 C 237.984 264.866,237.988 264.626,238.704 264.626 C 239.184 264.626,239.424 264.386,239.424 263.906 C 239.424 263.274,239.664 263.186,241.404 263.186 C 242.924 263.186,243.384 263.061,243.384 262.646 C 243.384 262.269,243.764 262.106,244.644 262.106 C 245.665 262.106,245.905 261.969,245.905 261.386 C 245.905 260.906,246.145 260.666,246.625 260.666 C 247.105 260.666,247.345 260.426,247.345 259.946 C 247.345 259.363,247.585 259.226,248.605 259.226 C 249.485 259.226,249.865 259.063,249.865 258.686 C 249.865 258.386,250.185 258.146,250.585 258.146 C 251.065 258.146,251.305 257.906,251.305 257.426 C 251.305 256.946,251.545 256.706,252.025 256.706 C 252.505 256.706,252.745 256.466,252.745 255.986 C 252.745 255.586,252.985 255.266,253.285 255.266 C 253.582 255.266,253.825 255.041,253.825 254.767 C 253.825 254.494,254.149 254.185,254.545 254.081 C 254.941 253.978,255.266 253.635,255.266 253.319 C 255.266 252.985,255.567 252.745,255.986 252.745 C 256.451 252.745,256.706 252.505,256.706 252.067 C 256.706 251.692,257.027 251.305,257.426 251.201 C 257.950 251.064,258.146 250.710,258.146 249.899 C 258.146 249.149,258.322 248.785,258.686 248.785 C 258.986 248.785,259.226 248.465,259.226 248.065 C 259.226 247.585,259.466 247.345,259.946 247.345 C 260.524 247.345,260.666 247.105,260.666 246.127 C 260.666 245.211,260.845 244.862,261.386 244.720 C 261.998 244.560,262.106 244.229,262.106 242.518 C 262.106 240.968,262.231 240.504,262.646 240.504 C 263.075 240.504,263.186 239.984,263.186 237.984 C 263.186 235.704,263.255 235.464,263.906 235.464 C 264.622 235.464,264.626 235.224,264.626 193.486 C 264.626 151.811,264.621 151.506,263.906 151.319 C 263.274 151.154,263.186 150.828,263.186 148.653 C 263.186 146.690,263.074 146.175,262.646 146.175 C 262.266 146.175,262.106 145.791,262.106 144.881 C 262.106 143.890,261.938 143.543,261.386 143.399 C 260.845 143.257,260.666 142.908,260.666 141.992 C 260.666 141.014,260.524 140.774,259.946 140.774 C 259.346 140.774,259.226 140.534,259.226 139.334 C 259.226 138.294,259.076 137.894,258.686 137.894 C 258.322 137.894,258.146 137.530,258.146 136.780 C 258.146 135.969,257.950 135.615,257.426 135.478 C 257.027 135.374,256.706 134.987,256.706 134.611 C 256.706 134.173,256.451 133.933,255.986 133.933 C 255.586 133.933,255.266 133.693,255.266 133.393 C 255.266 133.093,254.945 132.853,254.545 132.853 C 254.065 132.853,253.825 132.613,253.825 132.133 C 253.825 131.733,253.585 131.413,253.285 131.413 C 252.985 131.413,252.745 131.093,252.745 130.693 C 252.745 130.228,252.505 129.973,252.067 129.973 C 251.692 129.973,251.305 129.651,251.201 129.253 C 251.064 128.729,250.710 128.533,249.899 128.533 C 249.149 128.533,248.785 128.356,248.785 127.993 C 248.785 127.693,248.465 127.453,248.065 127.453 C 247.585 127.453,247.345 127.213,247.345 126.733 C 247.345 126.152,247.105 126.013,246.109 126.013 C 245.189 126.013,244.815 125.828,244.644 125.293 C 244.474 124.757,244.100 124.572,243.180 124.572 C 242.322 124.572,241.944 124.408,241.944 124.032 C 241.944 123.618,241.484 123.492,239.964 123.492 C 238.224 123.492,237.984 123.405,237.984 122.772 C 237.984 122.105,237.744 122.052,234.710 122.052 C 231.739 122.052,231.418 121.986,231.247 121.332 C 231.061 120.619,230.756 120.612,200.498 120.612 C 170.177 120.612,169.937 120.618,169.937 121.332 M120.612 123.792 C 120.612 124.232,120.193 124.580,119.352 124.838 C 118.643 125.056,118.092 125.082,118.092 124.899 C 118.092 124.719,118.335 124.572,118.632 124.572 C 118.932 124.572,119.172 124.252,119.172 123.852 C 119.172 123.372,119.412 123.132,119.892 123.132 C 120.350 123.132,120.612 123.372,120.612 123.792 M117.402 126.703 C 116.989 127.115,116.652 127.690,116.652 127.980 C 116.652 128.270,116.328 128.681,115.932 128.893 C 115.304 129.229,115.212 129.167,115.212 128.407 C 115.212 127.840,115.462 127.471,115.932 127.348 C 116.328 127.245,116.652 126.914,116.652 126.613 C 116.652 126.312,116.935 126.002,117.282 125.925 C 118.212 125.718,118.235 125.870,117.402 126.703 M282.566 126.670 C 282.927 127.032,283.327 127.599,283.455 127.930 C 283.582 128.262,283.934 128.533,284.237 128.533 C 284.548 128.533,284.788 128.846,284.788 129.253 C 284.788 129.649,285.021 129.973,285.304 129.973 C 285.588 129.973,285.923 130.297,286.049 130.693 C 286.174 131.089,286.509 131.413,286.793 131.413 C 287.077 131.413,287.309 131.737,287.309 132.133 C 287.309 132.613,287.069 132.853,286.589 132.853 C 286.123 132.853,285.869 132.613,285.869 132.173 C 285.869 131.799,285.304 130.867,284.615 130.103 C 283.925 129.338,283.266 128.429,283.150 128.083 C 283.034 127.736,282.727 127.453,282.466 127.453 C 282.205 127.453,281.907 127.129,281.804 126.733 C 281.571 125.842,281.725 125.829,282.566 126.670 M126.310 128.270 C 125.583 128.918,124.877 129.890,124.741 130.430 C 124.605 130.971,124.269 131.413,123.993 131.413 C 123.718 131.413,123.492 131.737,123.492 132.133 C 123.492 132.643,123.256 132.850,122.682 132.842 C 121.959 132.833,121.940 132.792,122.502 132.464 C 122.849 132.263,123.132 131.888,123.132 131.631 C 123.132 131.375,123.456 130.871,123.852 130.513 C 124.248 130.155,124.572 129.562,124.572 129.197 C 124.572 128.773,124.833 128.533,125.293 128.533 C 125.689 128.533,126.013 128.302,126.013 128.019 C 126.013 127.582,126.314 127.397,127.453 127.135 C 127.552 127.112,127.038 127.623,126.310 128.270 " stroke="none" fill="#146bb7" fill-rule="evenodd"></path><path id="path3" d="" stroke="none" fill="#00aaaa" fill-rule="evenodd"></path><path id="path4" d="M281.548 106.031 C 282.220 106.724,282.851 107.291,282.950 107.291 C 283.049 107.291,282.580 106.724,281.908 106.031 C 281.236 105.338,280.606 104.770,280.507 104.770 C 280.408 104.770,280.876 105.338,281.548 106.031 M349.415 106.467 C 348.312 106.733,347.973 107.226,349.033 107.023 C 349.546 106.925,350.054 106.702,350.162 106.528 C 350.269 106.353,350.307 106.229,350.246 106.252 C 350.185 106.275,349.811 106.372,349.415 106.467 " stroke="none" fill="#00ffff" fill-rule="evenodd"></path></g></svg>