<svg id="svg" version="1.1" width="400" height="388.7096774193549" xmlns="http://www.w3.org/2000/svg" xmlns:xlink="http://www.w3.org/1999/xlink" style="display: block;"><g id="svgg"><path id="path0" d="" stroke="none" fill="#000000" fill-rule="evenodd"></path><path id="path1" d="M242.954 85.831 L 243.149 128.086 243.248 86.124 C 243.302 63.045,243.215 44.031,243.053 43.870 C 242.892 43.708,242.847 62.591,242.954 85.831 M243.140 251.312 C 243.140 268.630,243.187 275.771,243.246 267.182 C 243.304 258.592,243.304 244.423,243.246 235.695 C 243.187 226.966,243.140 233.994,243.140 251.312 " stroke="none" fill="#0000ff" fill-rule="evenodd"></path><path id="path2" d="M27.211 14.453 C 26.676 14.677,25.583 15.129,24.781 15.458 C 23.980 15.787,23.324 16.204,23.324 16.386 C 23.324 16.567,23.131 16.715,22.896 16.715 C 22.303 16.715,19.048 20.220,19.048 20.859 C 19.048 21.145,18.873 21.380,18.659 21.380 C 18.445 21.380,18.270 21.905,18.270 22.546 C 18.270 23.188,18.095 23.712,17.881 23.712 C 17.623 23.712,17.493 70.619,17.493 163.654 C 17.493 256.689,17.623 303.596,17.881 303.596 C 18.095 303.596,18.274 303.989,18.279 304.470 C 18.284 304.951,18.630 305.782,19.048 306.317 C 19.466 306.851,19.812 307.418,19.816 307.576 C 19.840 308.366,22.358 310.833,23.785 311.465 C 24.387 311.731,24.879 312.081,24.879 312.243 C 24.879 312.404,25.228 312.536,25.656 312.536 C 26.084 312.536,26.433 312.711,26.433 312.925 C 26.433 313.139,26.783 313.314,27.211 313.314 C 27.638 313.314,27.988 313.489,27.988 313.703 C 27.988 313.916,28.338 314.091,28.766 314.091 C 29.193 314.091,29.543 314.266,29.543 314.480 C 29.543 314.694,29.773 314.869,30.053 314.869 C 30.333 314.869,30.938 315.219,31.397 315.646 C 31.856 316.074,32.502 316.424,32.831 316.424 C 33.161 316.424,33.431 316.599,33.431 316.812 C 33.431 317.026,33.780 317.201,34.208 317.201 C 34.636 317.201,34.985 317.376,34.985 317.590 C 34.985 317.804,35.190 317.979,35.441 317.979 C 35.691 317.979,36.172 318.215,36.510 318.504 C 36.847 318.793,37.911 319.449,38.873 319.962 C 39.835 320.474,40.709 320.982,40.816 321.088 C 40.923 321.195,41.710 321.659,42.566 322.119 C 43.421 322.578,44.782 323.322,45.590 323.771 C 46.398 324.220,47.302 324.587,47.598 324.587 C 47.895 324.587,48.196 324.718,48.267 324.879 C 48.429 325.243,50.500 326.506,51.409 326.794 C 51.783 326.913,52.089 327.165,52.089 327.353 C 52.089 327.542,52.439 327.697,52.867 327.697 C 53.294 327.697,53.644 327.872,53.644 328.086 C 53.644 328.299,53.816 328.474,54.025 328.474 C 54.235 328.474,55.364 329.086,56.534 329.835 C 57.703 330.583,58.829 331.195,59.035 331.195 C 59.242 331.195,59.469 331.327,59.540 331.487 C 59.702 331.852,61.773 333.114,62.682 333.403 C 63.056 333.521,63.362 333.773,63.362 333.962 C 63.362 334.151,63.712 334.305,64.140 334.305 C 64.568 334.305,64.918 334.436,64.919 334.597 C 64.920 334.757,65.881 335.326,67.055 335.860 C 68.230 336.395,69.191 336.963,69.192 337.123 C 69.193 337.284,69.543 337.415,69.971 337.415 C 70.398 337.415,70.748 337.590,70.748 337.804 C 70.748 338.017,71.098 338.192,71.526 338.192 C 71.953 338.192,72.303 338.338,72.303 338.515 C 72.303 338.693,72.784 339.086,73.372 339.389 C 73.960 339.693,74.529 340.051,74.636 340.186 C 74.742 340.321,76.404 341.264,78.328 342.282 C 80.253 343.299,81.885 344.282,81.957 344.466 C 82.028 344.650,82.421 344.801,82.831 344.801 C 83.241 344.801,83.576 344.976,83.576 345.190 C 83.576 345.403,83.926 345.578,84.354 345.578 C 84.781 345.578,85.131 345.726,85.131 345.906 C 85.131 346.086,85.962 346.655,86.978 347.169 C 87.993 347.684,88.882 348.236,88.954 348.397 C 89.025 348.557,89.419 348.688,89.828 348.688 C 90.238 348.688,90.573 348.863,90.573 349.077 C 90.573 349.291,90.836 349.466,91.156 349.466 C 91.477 349.466,91.740 349.640,91.740 349.854 C 91.740 350.068,92.089 350.243,92.517 350.243 C 92.945 350.243,93.294 350.378,93.294 350.543 C 93.294 350.708,93.950 351.188,94.752 351.609 C 95.554 352.029,96.297 352.465,96.404 352.577 C 96.511 352.689,97.473 353.215,98.542 353.747 C 99.611 354.278,100.544 354.845,100.615 355.005 C 100.687 355.165,101.080 355.296,101.490 355.296 C 101.900 355.296,102.235 355.471,102.235 355.685 C 102.235 355.899,102.465 356.074,102.745 356.074 C 103.025 356.074,103.630 356.424,104.089 356.851 C 104.548 357.279,105.193 357.629,105.523 357.629 C 105.853 357.629,106.122 357.804,106.122 358.017 C 106.122 358.231,106.472 358.406,106.900 358.406 C 107.328 358.406,107.677 358.548,107.677 358.722 C 107.677 358.896,108.290 359.279,109.038 359.572 C 109.786 359.866,110.398 360.249,110.398 360.422 C 110.398 360.596,110.748 360.739,111.176 360.739 C 111.603 360.739,111.953 360.914,111.953 361.127 C 111.953 361.341,112.207 361.516,112.516 361.516 C 112.826 361.516,113.505 361.910,114.025 362.391 C 114.545 362.872,115.864 363.703,116.955 364.237 C 118.046 364.772,118.941 365.340,118.944 365.500 C 118.948 365.661,119.300 365.792,119.728 365.792 C 120.155 365.792,120.505 365.934,120.505 366.108 C 120.505 366.282,121.118 366.665,121.866 366.958 C 122.614 367.252,123.226 367.634,123.226 367.808 C 123.226 367.982,123.576 368.124,124.004 368.124 C 124.431 368.124,124.781 368.299,124.781 368.513 C 124.781 368.727,125.131 368.902,125.559 368.902 C 125.986 368.902,126.338 369.033,126.339 369.193 C 126.341 369.354,126.735 369.677,127.214 369.912 C 127.693 370.147,129.428 371.062,131.069 371.945 C 136.309 374.764,138.820 375.259,142.663 374.230 C 147.091 373.043,151.992 368.616,151.992 365.803 C 151.992 365.395,152.167 364.952,152.381 364.820 C 152.595 364.688,152.770 363.541,152.770 362.271 C 152.770 360.990,152.943 359.961,153.158 359.961 C 153.413 359.961,153.547 351.927,153.547 336.638 L 153.547 313.314 206.803 313.314 C 242.047 313.314,260.058 313.182,260.058 312.925 C 260.058 312.711,260.583 312.536,261.224 312.536 C 261.866 312.536,262.391 312.362,262.391 312.148 C 262.391 311.934,262.660 311.759,262.990 311.759 C 264.269 311.759,268.999 307.029,268.999 305.750 C 268.999 305.420,269.174 305.151,269.388 305.151 C 269.602 305.151,269.776 304.636,269.776 304.007 C 269.776 303.379,269.951 302.756,270.165 302.624 C 270.420 302.466,270.554 288.127,270.554 260.873 C 270.554 215.970,270.607 217.156,268.557 216.620 C 268.159 216.515,267.833 216.276,267.833 216.087 C 267.833 215.896,262.906 215.743,256.754 215.743 C 249.627 215.743,245.675 215.882,245.675 216.132 C 245.675 216.346,245.326 216.521,244.898 216.521 C 244.388 216.521,244.121 216.780,244.121 217.275 C 244.121 217.690,243.946 218.138,243.732 218.270 C 243.478 218.427,243.343 229.592,243.343 250.498 C 243.343 285.443,243.403 284.490,241.139 285.351 C 240.566 285.568,222.798 285.714,196.865 285.714 L 153.547 285.714 153.547 187.001 C 153.547 121.611,153.416 88.206,153.158 88.047 C 152.945 87.915,152.770 87.377,152.770 86.851 C 152.770 85.621,151.892 82.799,151.509 82.799 C 151.347 82.799,151.215 82.538,151.215 82.218 C 151.215 81.542,146.827 76.968,146.178 76.968 C 145.937 76.968,145.365 76.618,144.906 76.190 C 144.447 75.763,143.842 75.413,143.561 75.413 C 143.281 75.413,143.052 75.238,143.052 75.024 C 143.052 74.810,142.702 74.636,142.274 74.636 C 141.846 74.636,141.497 74.461,141.497 74.247 C 141.497 74.033,141.147 73.858,140.719 73.858 C 140.292 73.858,139.942 73.683,139.942 73.469 C 139.942 73.256,139.679 73.081,139.359 73.081 C 139.038 73.081,138.776 72.938,138.776 72.764 C 138.776 72.591,138.163 72.208,137.415 71.914 C 136.667 71.621,136.054 71.238,136.054 71.064 C 136.054 70.891,135.760 70.748,135.399 70.748 C 135.039 70.748,134.383 70.423,133.941 70.026 C 133.500 69.629,132.177 68.798,131.001 68.180 C 129.825 67.561,128.805 66.924,128.733 66.764 C 128.662 66.603,128.356 66.472,128.053 66.472 C 127.750 66.472,127.501 66.341,127.499 66.181 C 127.496 65.832,125.613 64.917,124.898 64.917 C 124.620 64.917,124.393 64.742,124.393 64.529 C 124.393 64.315,124.043 64.140,123.615 64.140 C 123.188 64.140,122.838 63.999,122.838 63.828 C 122.838 63.656,121.966 63.087,120.900 62.564 C 119.834 62.041,118.960 61.482,118.956 61.322 C 118.953 61.161,118.601 61.030,118.173 61.030 C 117.745 61.030,117.396 60.888,117.396 60.714 C 117.396 60.540,116.783 60.158,116.035 59.864 C 115.287 59.570,114.674 59.216,114.674 59.076 C 114.674 58.937,113.977 58.489,113.124 58.080 C 112.271 57.671,111.572 57.206,111.569 57.046 C 111.567 56.885,111.215 56.754,110.787 56.754 C 110.360 56.754,110.010 56.579,110.010 56.365 C 110.010 56.152,109.740 55.977,109.410 55.977 C 109.081 55.977,108.436 55.627,107.977 55.199 C 107.518 54.772,106.913 54.422,106.632 54.422 C 106.352 54.422,106.122 54.247,106.122 54.033 C 106.122 53.819,105.773 53.644,105.345 53.644 C 104.917 53.644,104.568 53.502,104.568 53.328 C 104.568 53.154,103.955 52.772,103.207 52.478 C 102.459 52.185,101.846 51.802,101.846 51.628 C 101.846 51.454,101.497 51.312,101.069 51.312 C 100.641 51.312,100.292 51.137,100.292 50.923 C 100.292 50.709,99.942 50.534,99.514 50.534 C 99.086 50.534,98.737 50.360,98.737 50.146 C 98.737 49.932,98.507 49.757,98.227 49.757 C 97.946 49.757,97.355 49.420,96.913 49.008 C 96.061 48.214,90.846 45.193,89.699 44.829 C 89.325 44.710,89.018 44.458,89.018 44.270 C 89.018 44.081,88.748 43.926,88.418 43.926 C 87.844 43.926,85.677 42.063,85.965 41.817 C 87.080 40.865,90.904 40.816,164.989 40.816 C 238.241 40.816,242.177 40.851,242.179 41.497 C 242.181 41.871,242.443 42.678,242.762 43.290 C 243.267 44.258,243.343 49.962,243.343 86.925 C 243.343 115.013,243.475 129.446,243.732 129.446 C 243.946 129.446,244.121 129.796,244.121 130.224 C 244.121 130.742,244.380 131.001,244.898 131.001 C 245.326 131.001,245.675 131.176,245.675 131.390 C 245.675 131.640,249.757 131.778,257.143 131.778 C 264.529 131.778,268.610 131.640,268.610 131.390 C 268.610 131.176,268.829 131.000,269.096 130.998 C 270.538 130.989,270.554 130.393,270.554 77.279 C 270.554 48.886,270.416 25.656,270.248 25.656 C 270.080 25.656,269.899 25.090,269.846 24.399 C 269.793 23.708,269.581 22.973,269.375 22.766 C 269.168 22.560,268.999 22.094,268.999 21.730 C 268.999 20.826,264.815 16.638,262.872 15.599 C 259.747 13.926,265.670 14.004,143.440 14.026 C 64.203 14.040,27.879 14.174,27.211 14.453 M300.486 115.452 C 300.486 115.666,300.206 115.841,299.864 115.841 C 299.523 115.841,298.753 116.365,298.154 117.007 C 297.554 117.648,296.872 118.173,296.637 118.173 C 296.402 118.173,296.210 118.687,296.210 119.316 C 296.210 119.945,296.035 120.568,295.821 120.700 C 295.573 120.853,295.432 126.397,295.432 136.054 C 295.432 145.711,295.292 151.256,295.044 151.409 C 294.830 151.541,294.655 152.251,294.655 152.987 C 294.655 154.252,294.583 154.325,293.317 154.325 C 292.582 154.325,291.872 154.500,291.740 154.713 C 291.582 154.968,280.126 155.102,258.637 155.102 C 224.816 155.102,221.574 155.240,221.574 156.685 C 221.574 156.883,221.137 157.046,220.603 157.046 C 220.068 157.046,219.631 157.221,219.631 157.434 C 219.631 157.648,219.281 157.823,218.853 157.823 C 218.426 157.823,218.076 157.998,218.076 158.212 C 218.076 158.426,217.837 158.601,217.545 158.601 C 216.791 158.601,212.634 162.685,212.634 163.426 C 212.634 163.765,212.459 164.043,212.245 164.043 C 212.031 164.043,211.856 164.403,211.856 164.843 C 211.856 165.283,211.681 165.535,211.467 165.403 C 211.249 165.268,211.079 165.578,211.079 166.110 C 211.079 166.631,210.835 167.259,210.538 167.506 C 209.596 168.288,208.697 175.676,209.359 177.191 C 209.515 177.549,209.716 178.279,209.804 178.813 C 209.892 179.346,210.215 180.060,210.522 180.398 C 210.828 180.737,211.079 181.393,211.079 181.858 C 211.079 182.322,211.254 182.702,211.467 182.702 C 211.681 182.702,211.856 183.013,211.856 183.393 C 211.856 183.774,212.206 184.337,212.634 184.645 C 213.061 184.953,213.411 185.421,213.411 185.683 C 213.411 185.946,214.067 186.649,214.869 187.245 C 215.671 187.842,216.589 188.598,216.910 188.927 C 217.807 189.846,219.536 190.865,220.200 190.865 C 220.528 190.865,220.797 191.040,220.797 191.254 C 220.797 191.467,221.311 191.642,221.940 191.642 C 222.569 191.642,223.191 191.817,223.324 192.031 C 223.481 192.286,235.961 192.420,259.498 192.420 L 295.432 192.420 295.432 209.307 C 295.432 220.145,295.572 226.279,295.821 226.433 C 296.035 226.566,296.210 227.057,296.210 227.526 C 296.210 229.321,300.057 232.496,302.837 232.995 C 304.476 233.289,307.984 232.705,308.184 232.104 C 308.262 231.872,308.557 231.681,308.839 231.681 C 309.551 231.681,312.536 230.054,312.536 229.665 C 312.536 229.491,312.755 229.348,313.022 229.348 C 313.290 229.347,314.121 228.823,314.869 228.183 C 315.617 227.542,316.368 227.018,316.539 227.017 C 316.709 227.017,317.272 226.593,317.789 226.075 C 318.307 225.557,319.087 225.020,319.521 224.882 C 319.956 224.745,320.311 224.469,320.311 224.269 C 320.311 224.070,320.485 223.907,320.697 223.907 C 320.909 223.907,321.477 223.567,321.960 223.152 C 322.443 222.737,323.362 221.950,324.004 221.403 C 324.645 220.857,325.399 220.409,325.679 220.409 C 325.959 220.408,326.080 220.233,325.948 220.019 C 325.815 219.806,325.980 219.631,326.313 219.631 C 326.647 219.631,326.919 219.485,326.919 219.308 C 326.919 219.130,327.400 218.738,327.988 218.436 C 328.576 218.134,329.340 217.579,329.686 217.204 C 330.032 216.828,330.513 216.521,330.755 216.521 C 330.997 216.521,331.195 216.384,331.195 216.216 C 331.195 216.048,331.714 215.605,332.347 215.231 C 332.981 214.856,333.724 214.332,333.999 214.065 C 334.274 213.798,335.112 213.153,335.860 212.631 C 337.540 211.460,338.001 211.097,339.086 210.089 C 339.557 209.652,340.685 208.876,341.594 208.366 C 342.502 207.855,343.246 207.294,343.246 207.120 C 343.246 206.945,343.508 206.803,343.829 206.803 C 344.150 206.803,344.412 206.628,344.412 206.414 C 344.412 206.200,344.674 206.025,344.995 206.025 C 345.316 206.025,345.578 205.888,345.578 205.720 C 345.578 205.553,346.108 205.103,346.755 204.720 C 347.402 204.338,348.364 203.593,348.893 203.064 C 349.422 202.535,349.854 202.213,349.854 202.347 C 349.854 202.634,353.097 200.145,353.288 199.711 C 353.359 199.549,353.665 199.417,353.968 199.417 C 354.271 199.417,354.519 199.272,354.519 199.094 C 354.519 198.916,355.000 198.524,355.588 198.222 C 356.176 197.920,356.940 197.366,357.286 196.990 C 357.631 196.614,358.087 196.307,358.297 196.307 C 358.507 196.307,359.229 195.782,359.900 195.141 C 360.571 194.500,361.217 193.975,361.336 193.975 C 361.750 193.975,367.320 190.079,368.283 189.116 C 368.818 188.581,369.526 188.144,369.856 188.144 C 370.186 188.144,370.457 187.998,370.457 187.821 C 370.457 187.643,370.938 187.250,371.526 186.947 C 372.114 186.644,372.682 186.297,372.789 186.175 C 372.896 186.054,373.858 185.360,374.927 184.634 C 380.534 180.826,382.507 178.036,382.507 173.919 C 382.507 172.518,382.337 171.429,382.119 171.429 C 381.905 171.429,381.730 171.025,381.730 170.533 C 381.730 170.040,381.108 168.958,380.349 168.129 C 379.589 167.300,378.846 166.421,378.697 166.176 C 378.415 165.713,373.774 162.488,373.390 162.488 C 373.269 162.488,372.622 161.963,371.950 161.322 C 371.279 160.680,370.558 160.155,370.348 160.155 C 370.137 160.155,369.682 159.848,369.336 159.473 C 368.990 159.097,368.226 158.543,367.638 158.241 C 367.051 157.939,366.569 157.546,366.569 157.369 C 366.569 157.191,366.322 157.046,366.019 157.046 C 365.716 157.046,365.410 156.898,365.339 156.717 C 365.267 156.536,364.247 155.707,363.071 154.875 C 361.895 154.043,360.594 153.054,360.179 152.677 C 359.765 152.300,359.235 151.992,359.002 151.992 C 358.769 151.992,358.326 151.642,358.017 151.215 C 357.709 150.787,357.266 150.437,357.033 150.437 C 356.800 150.437,356.270 150.124,355.856 149.741 C 355.441 149.358,354.227 148.448,353.158 147.719 C 352.089 146.989,350.982 146.164,350.698 145.885 C 350.413 145.605,350.019 145.476,349.823 145.598 C 349.626 145.719,349.466 145.583,349.466 145.296 C 349.466 145.009,348.984 144.489,348.397 144.141 C 347.809 143.793,346.803 143.055,346.161 142.503 C 345.520 141.950,344.815 141.497,344.595 141.497 C 344.375 141.497,343.943 141.147,343.635 140.719 C 343.326 140.292,342.850 139.942,342.577 139.942 C 342.303 139.942,342.080 139.767,342.080 139.553 C 342.080 139.339,341.861 139.164,341.594 139.163 C 341.327 139.163,340.496 138.638,339.747 137.998 C 338.999 137.358,338.207 136.833,337.987 136.833 C 337.767 136.832,337.334 136.482,337.026 136.054 C 336.718 135.627,336.307 135.277,336.113 135.277 C 335.919 135.277,335.111 134.708,334.317 134.014 C 332.615 132.523,331.113 131.417,329.696 130.612 C 329.132 130.292,328.387 129.723,328.041 129.349 C 327.695 128.975,327.239 128.669,327.029 128.669 C 326.818 128.669,326.097 128.144,325.426 127.502 C 324.754 126.861,323.980 126.336,323.705 126.336 C 323.429 126.336,322.952 125.986,322.643 125.559 C 322.335 125.131,321.939 124.781,321.764 124.781 C 321.588 124.781,321.058 124.417,320.586 123.971 C 320.114 123.525,319.220 122.894,318.598 122.569 C 317.977 122.244,317.113 121.646,316.679 121.241 C 316.244 120.837,315.674 120.505,315.411 120.505 C 315.148 120.505,314.875 120.364,314.804 120.191 C 314.617 119.737,311.112 117.396,310.620 117.396 C 310.391 117.396,310.204 117.221,310.204 117.007 C 310.204 116.793,309.942 116.618,309.621 116.618 C 309.300 116.618,309.038 116.443,309.038 116.229 C 309.038 116.016,308.698 115.841,308.283 115.841 C 307.868 115.841,307.421 115.666,307.289 115.452 C 307.156 115.238,305.572 115.063,303.767 115.063 C 301.839 115.063,300.486 115.223,300.486 115.452 " stroke="none" fill="#146bb7" fill-rule="evenodd"></path><path id="path3" d="" stroke="none" fill="#00aaaa" fill-rule="evenodd"></path><path id="path4" d="" stroke="none" fill="#00ffff" fill-rule="evenodd"></path></g></svg>