<svg id="svg" version="1.1" width="400" height="327.80487804878044" xmlns="http://www.w3.org/2000/svg" xmlns:xlink="http://www.w3.org/1999/xlink" style="display: block;"><g id="svgg"><path id="path0" d="" stroke="none" fill="#000000" fill-rule="evenodd"></path><path id="path1" d="" stroke="none" fill="#0055aa" fill-rule="evenodd"></path><path id="path2" d="" stroke="none" fill="#0000ff" fill-rule="evenodd"></path><path id="path3" d="M11.475 51.148 C 11.475 82.732,11.480 82.951,12.131 82.951 C 12.492 82.951,12.787 83.098,12.787 83.279 C 12.787 83.459,13.082 83.607,13.443 83.607 C 13.803 83.607,14.098 83.754,14.098 83.934 C 14.098 84.115,14.393 84.262,14.754 84.262 C 15.115 84.262,15.410 84.410,15.410 84.590 C 15.410 84.770,15.852 84.918,16.393 84.918 C 16.934 84.918,17.377 85.066,17.377 85.246 C 17.377 85.426,17.672 85.574,18.033 85.574 C 18.393 85.574,18.689 85.721,18.689 85.902 C 18.689 86.082,18.984 86.230,19.344 86.230 C 19.705 86.230,20.000 86.377,20.000 86.557 C 20.000 86.738,20.295 86.885,20.656 86.885 C 21.016 86.885,21.311 87.033,21.311 87.213 C 21.311 87.393,21.680 87.541,22.131 87.541 C 22.582 87.541,22.951 87.689,22.951 87.869 C 22.951 88.049,23.246 88.197,23.607 88.197 C 23.967 88.197,24.262 88.344,24.262 88.525 C 24.262 88.705,24.479 88.852,24.744 88.852 C 25.009 88.852,25.751 89.148,26.393 89.508 C 27.036 89.869,27.852 90.164,28.207 90.164 C 28.562 90.164,28.852 90.311,28.852 90.492 C 28.852 90.672,29.148 90.820,29.508 90.820 C 29.869 90.820,30.164 90.967,30.164 91.148 C 30.164 91.328,30.356 91.475,30.590 91.475 C 31.194 91.475,32.781 92.247,32.784 92.541 C 32.786 92.676,33.230 92.787,33.770 92.787 C 34.311 92.787,34.754 92.934,34.754 93.115 C 34.754 93.295,35.049 93.443,35.410 93.443 C 35.770 93.443,36.066 93.590,36.066 93.770 C 36.066 93.951,36.361 94.098,36.721 94.098 C 37.082 94.098,37.377 94.246,37.377 94.426 C 37.377 94.607,37.672 94.754,38.033 94.754 C 38.393 94.754,38.689 94.902,38.689 95.082 C 38.689 95.262,39.131 95.410,39.672 95.410 C 40.213 95.410,40.656 95.557,40.656 95.738 C 40.656 95.918,40.951 96.066,41.311 96.066 C 41.672 96.066,41.967 96.213,41.967 96.393 C 41.967 96.574,42.159 96.721,42.394 96.721 C 42.997 96.721,44.585 97.492,44.588 97.787 C 44.589 97.922,45.033 98.033,45.574 98.033 C 46.115 98.033,46.557 98.180,46.557 98.361 C 46.557 98.541,46.765 98.689,47.018 98.689 C 47.564 98.689,50.280 100.056,50.437 100.410 C 50.497 100.545,50.977 100.656,51.503 100.656 C 52.029 100.656,52.459 100.803,52.459 100.984 C 52.459 101.164,52.663 101.311,52.913 101.311 C 53.163 101.311,53.790 101.532,54.307 101.801 C 54.823 102.071,55.504 102.292,55.820 102.293 C 56.135 102.294,56.393 102.443,56.393 102.623 C 56.393 102.803,56.836 102.951,57.377 102.951 C 57.918 102.951,58.361 103.098,58.361 103.279 C 58.361 103.459,58.656 103.607,59.016 103.607 C 59.377 103.607,59.672 103.754,59.672 103.934 C 59.672 104.115,59.967 104.262,60.328 104.262 C 60.689 104.262,60.985 104.373,60.986 104.508 C 60.989 104.786,62.563 105.574,63.115 105.574 C 63.667 105.574,65.240 106.362,65.243 106.639 C 65.245 106.775,65.541 106.885,65.902 106.885 C 66.262 106.885,66.557 107.033,66.557 107.213 C 66.557 107.393,66.852 107.541,67.213 107.541 C 67.574 107.541,67.869 107.689,67.869 107.869 C 67.869 108.049,68.311 108.197,68.852 108.197 C 69.393 108.197,69.836 108.344,69.836 108.525 C 69.836 108.705,70.131 108.852,70.492 108.852 C 70.852 108.852,71.148 109.000,71.148 109.180 C 71.148 109.361,71.443 109.508,71.803 109.508 C 72.164 109.508,72.459 109.656,72.459 109.836 C 72.459 110.016,72.754 110.164,73.115 110.164 C 73.475 110.164,73.770 110.311,73.770 110.492 C 73.770 110.672,74.213 110.820,74.754 110.820 C 75.295 110.820,75.738 110.967,75.738 111.148 C 75.738 111.328,76.033 111.475,76.393 111.475 C 76.754 111.475,77.049 111.623,77.049 111.803 C 77.049 111.984,77.344 112.131,77.705 112.131 C 78.066 112.131,78.361 112.279,78.361 112.459 C 78.361 112.639,78.656 112.787,79.016 112.787 C 79.377 112.787,79.672 112.934,79.672 113.115 C 79.672 113.295,80.115 113.443,80.656 113.443 C 81.197 113.443,81.639 113.590,81.639 113.770 C 81.639 113.951,81.934 114.098,82.295 114.098 C 82.656 114.098,82.951 114.246,82.951 114.426 C 82.951 114.607,83.246 114.754,83.607 114.754 C 83.967 114.754,84.262 114.902,84.262 115.082 C 84.262 115.262,84.557 115.410,84.918 115.410 C 85.279 115.410,85.574 115.557,85.574 115.738 C 85.574 115.918,86.016 116.066,86.557 116.066 C 87.098 116.066,87.541 116.213,87.541 116.393 C 87.541 116.574,87.836 116.721,88.197 116.721 C 88.557 116.721,88.852 116.869,88.852 117.049 C 88.852 117.230,89.148 117.377,89.508 117.377 C 89.869 117.377,90.164 117.525,90.164 117.705 C 90.164 117.885,90.459 118.033,90.820 118.033 C 91.180 118.033,91.475 118.180,91.475 118.361 C 91.475 118.541,91.918 118.689,92.459 118.689 C 93.000 118.689,93.443 118.836,93.443 119.016 C 93.443 119.197,93.738 119.344,94.098 119.344 C 94.459 119.344,94.754 119.492,94.754 119.672 C 94.754 119.852,95.049 120.000,95.410 120.000 C 95.770 120.000,96.066 120.148,96.066 120.328 C 96.066 120.508,96.361 120.656,96.721 120.656 C 97.082 120.656,97.377 120.803,97.377 120.984 C 97.377 121.164,97.820 121.311,98.361 121.311 C 98.902 121.311,99.345 121.422,99.347 121.557 C 99.350 121.852,100.938 122.623,101.541 122.623 C 101.775 122.623,101.967 122.770,101.967 122.951 C 101.967 123.131,102.189 123.279,102.459 123.279 C 102.730 123.279,102.951 123.426,102.951 123.607 C 102.951 123.787,103.393 123.934,103.934 123.934 C 104.475 123.934,104.918 124.082,104.918 124.262 C 104.918 124.443,105.213 124.590,105.574 124.590 C 105.934 124.590,106.230 124.738,106.230 124.918 C 106.230 125.098,106.525 125.246,106.885 125.246 C 107.246 125.246,107.541 125.393,107.541 125.574 C 107.541 125.754,107.836 125.902,108.197 125.902 C 108.557 125.902,108.852 126.049,108.852 126.230 C 108.852 126.410,109.295 126.557,109.836 126.557 C 110.377 126.557,110.820 126.705,110.820 126.885 C 110.820 127.066,111.115 127.213,111.475 127.213 C 111.836 127.213,112.131 127.361,112.131 127.541 C 112.131 127.721,112.426 127.869,112.787 127.869 C 113.148 127.869,113.443 128.016,113.443 128.197 C 113.443 128.377,113.738 128.525,114.098 128.525 C 114.459 128.525,114.754 128.672,114.754 128.852 C 114.754 129.033,115.197 129.180,115.738 129.180 C 116.279 129.180,116.721 129.328,116.721 129.508 C 116.721 129.689,117.016 129.836,117.377 129.836 C 117.738 129.836,118.033 129.984,118.033 130.164 C 118.033 130.344,118.328 130.492,118.689 130.492 C 119.049 130.492,119.344 130.639,119.344 130.820 C 119.344 131.000,119.639 131.148,120.000 131.148 C 120.361 131.148,120.656 131.295,120.656 131.475 C 120.656 131.656,121.098 131.803,121.639 131.803 C 122.180 131.803,122.623 131.951,122.623 132.131 C 122.623 132.311,122.918 132.459,123.279 132.459 C 123.639 132.459,123.934 132.607,123.934 132.787 C 123.934 132.967,124.230 133.115,124.590 133.115 C 124.951 133.115,125.246 133.262,125.246 133.443 C 125.246 133.623,125.541 133.770,125.902 133.770 C 126.262 133.770,126.557 133.918,126.557 134.098 C 126.557 134.279,127.000 134.426,127.541 134.426 C 128.082 134.426,128.525 134.574,128.525 134.754 C 128.525 134.934,128.820 135.082,129.180 135.082 C 129.541 135.082,129.836 135.230,129.836 135.410 C 129.836 135.590,130.131 135.738,130.492 135.738 C 130.852 135.738,131.148 135.885,131.148 136.066 C 131.148 136.246,131.443 136.393,131.803 136.393 C 132.164 136.393,132.459 136.541,132.459 136.721 C 132.459 136.902,132.902 137.049,133.443 137.049 C 133.984 137.049,134.426 137.197,134.426 137.377 C 134.426 137.557,134.721 137.705,135.082 137.705 C 135.443 137.705,135.738 137.852,135.738 138.033 C 135.738 138.213,136.033 138.361,136.393 138.361 C 136.754 138.361,137.049 138.508,137.049 138.689 C 137.049 138.869,137.336 139.016,137.686 139.016 C 138.036 139.016,138.413 139.164,138.525 139.344 C 138.636 139.525,139.087 139.672,139.528 139.672 C 139.968 139.672,140.328 139.820,140.328 140.000 C 140.328 140.180,140.623 140.328,140.984 140.328 C 141.344 140.328,141.639 140.475,141.639 140.656 C 141.639 140.836,141.875 140.984,142.163 140.984 C 142.450 140.984,143.077 141.258,143.556 141.593 C 144.035 141.928,144.795 142.288,145.246 142.392 C 146.776 142.748,148.525 143.438,148.525 143.687 C 148.525 143.823,148.820 143.934,149.180 143.934 C 149.541 143.934,149.836 144.082,149.836 144.262 C 149.836 144.443,150.279 144.590,150.820 144.590 C 151.361 144.590,151.803 144.738,151.803 144.918 C 151.803 145.098,152.098 145.246,152.459 145.246 C 152.820 145.246,153.115 145.393,153.115 145.574 C 153.115 145.754,153.410 145.902,153.770 145.902 C 154.131 145.902,154.426 146.049,154.426 146.230 C 154.426 146.410,154.721 146.557,155.082 146.557 C 155.443 146.557,155.738 146.705,155.738 146.885 C 155.738 147.066,156.180 147.213,156.721 147.213 C 157.262 147.213,157.705 147.361,157.705 147.541 C 157.705 147.721,158.000 147.869,158.361 147.869 C 158.721 147.869,159.016 148.016,159.016 148.197 C 159.016 148.377,159.311 148.525,159.672 148.525 C 160.033 148.525,160.328 148.672,160.328 148.852 C 160.328 149.033,160.623 149.180,160.984 149.180 C 161.344 149.180,161.639 149.328,161.639 149.508 C 161.639 149.689,162.082 149.836,162.623 149.836 C 163.164 149.836,163.607 149.984,163.607 150.164 C 163.607 150.344,163.902 150.492,164.262 150.492 C 164.623 150.492,164.918 150.639,164.918 150.820 C 164.918 151.000,165.213 151.148,165.574 151.148 C 165.934 151.148,166.230 151.295,166.230 151.475 C 166.230 151.656,166.525 151.803,166.885 151.803 C 167.246 151.803,167.541 151.951,167.541 152.131 C 167.541 152.311,167.984 152.459,168.525 152.459 C 169.066 152.459,169.508 152.607,169.508 152.787 C 169.508 152.967,169.803 153.115,170.164 153.115 C 170.525 153.115,170.820 153.262,170.820 153.443 C 170.820 153.623,171.115 153.770,171.475 153.770 C 171.836 153.770,172.131 153.918,172.131 154.098 C 172.131 154.279,172.426 154.426,172.787 154.426 C 173.148 154.426,173.443 154.574,173.443 154.754 C 173.443 154.934,173.885 155.082,174.426 155.082 C 174.967 155.082,175.410 155.230,175.410 155.410 C 175.410 155.590,175.705 155.738,176.066 155.738 C 176.426 155.738,176.721 155.885,176.721 156.066 C 176.721 156.246,177.016 156.393,177.377 156.393 C 177.738 156.393,178.033 156.541,178.033 156.721 C 178.033 156.902,178.328 157.049,178.689 157.049 C 179.049 157.049,179.344 157.197,179.344 157.377 C 179.344 157.557,179.787 157.705,180.328 157.705 C 180.869 157.705,181.311 157.852,181.311 158.033 C 181.311 158.213,181.533 158.361,181.803 158.361 C 182.074 158.361,182.295 158.508,182.295 158.689 C 182.295 158.869,182.590 159.016,182.951 159.016 C 183.311 159.016,183.607 159.164,183.607 159.344 C 183.607 159.525,183.893 159.672,184.243 159.672 C 184.593 159.672,184.971 159.820,185.082 160.000 C 185.193 160.180,185.645 160.328,186.085 160.328 C 186.525 160.328,186.885 160.475,186.885 160.656 C 186.885 160.836,187.180 160.984,187.541 160.984 C 187.902 160.984,188.197 161.131,188.197 161.311 C 188.197 161.492,188.492 161.639,188.852 161.639 C 189.213 161.639,189.508 161.787,189.508 161.967 C 189.508 162.148,189.803 162.295,190.164 162.295 C 190.525 162.295,190.820 162.443,190.820 162.623 C 190.820 162.803,191.262 162.951,191.803 162.951 C 192.344 162.951,192.787 163.098,192.787 163.279 C 192.787 163.459,193.082 163.607,193.443 163.607 C 193.803 163.607,194.098 163.754,194.098 163.934 C 194.098 164.115,194.393 164.262,194.754 164.262 C 195.115 164.262,195.410 164.410,195.410 164.590 C 195.410 164.770,195.705 164.918,196.066 164.918 C 196.426 164.918,196.721 165.066,196.721 165.246 C 196.721 165.433,197.705 165.574,199.016 165.574 C 200.328 165.574,201.311 165.433,201.311 165.246 C 201.311 165.066,201.607 164.918,201.967 164.918 C 202.328 164.918,202.623 164.770,202.623 164.590 C 202.623 164.410,202.918 164.262,203.279 164.262 C 203.639 164.262,203.934 164.115,203.934 163.934 C 203.934 163.754,204.230 163.607,204.590 163.607 C 204.951 163.607,205.246 163.459,205.246 163.279 C 205.246 163.098,205.689 162.951,206.230 162.951 C 206.770 162.951,207.213 162.803,207.213 162.623 C 207.213 162.443,207.508 162.295,207.869 162.295 C 208.230 162.295,208.525 162.148,208.525 161.967 C 208.525 161.787,208.820 161.639,209.180 161.639 C 209.541 161.639,209.836 161.492,209.836 161.311 C 209.836 161.131,210.131 160.984,210.492 160.984 C 210.852 160.984,211.148 160.836,211.148 160.656 C 211.148 160.475,211.590 160.328,212.131 160.328 C 212.672 160.328,213.115 160.180,213.115 160.000 C 213.115 159.820,213.410 159.672,213.770 159.672 C 214.131 159.672,214.426 159.525,214.426 159.344 C 214.426 159.164,214.721 159.016,215.082 159.016 C 215.443 159.016,215.739 158.906,215.740 158.770 C 215.744 158.438,217.365 157.705,218.098 157.705 C 218.423 157.705,218.689 157.557,218.689 157.377 C 218.689 157.197,218.984 157.049,219.344 157.049 C 219.705 157.049,220.000 156.902,220.000 156.721 C 220.000 156.541,220.295 156.393,220.656 156.393 C 221.016 156.393,221.311 156.246,221.311 156.066 C 221.311 155.885,221.607 155.738,221.967 155.738 C 222.328 155.738,222.623 155.590,222.623 155.410 C 222.623 155.230,223.066 155.082,223.607 155.082 C 224.148 155.082,224.590 154.934,224.590 154.754 C 224.590 154.574,224.885 154.426,225.246 154.426 C 225.607 154.426,225.902 154.279,225.902 154.098 C 225.902 153.918,226.197 153.770,226.557 153.770 C 226.918 153.770,227.213 153.623,227.213 153.443 C 227.213 153.262,227.508 153.115,227.869 153.115 C 228.230 153.115,228.525 152.967,228.525 152.787 C 228.525 152.607,228.967 152.459,229.508 152.459 C 230.049 152.459,230.492 152.311,230.492 152.131 C 230.492 151.951,230.787 151.803,231.148 151.803 C 231.508 151.803,231.803 151.656,231.803 151.475 C 231.803 151.295,232.098 151.148,232.459 151.148 C 232.820 151.148,233.115 151.000,233.115 150.820 C 233.115 150.639,233.410 150.492,233.770 150.492 C 234.131 150.492,234.426 150.344,234.426 150.164 C 234.426 149.984,234.869 149.836,235.410 149.836 C 235.951 149.836,236.393 149.689,236.393 149.508 C 236.393 149.328,236.689 149.180,237.049 149.180 C 237.410 149.180,237.705 149.033,237.705 148.852 C 237.705 148.672,238.000 148.525,238.361 148.525 C 238.721 148.525,239.016 148.377,239.016 148.197 C 239.016 148.016,239.311 147.869,239.672 147.869 C 240.033 147.869,240.328 147.721,240.328 147.541 C 240.328 147.361,240.770 147.213,241.311 147.213 C 241.852 147.213,242.295 147.066,242.295 146.885 C 242.295 146.705,242.590 146.557,242.951 146.557 C 243.311 146.557,243.607 146.410,243.607 146.230 C 243.607 146.049,243.902 145.902,244.262 145.902 C 244.623 145.902,244.918 145.754,244.918 145.574 C 244.918 145.393,245.213 145.246,245.574 145.246 C 245.934 145.246,246.230 145.098,246.230 144.918 C 246.230 144.738,246.672 144.590,247.213 144.590 C 247.754 144.590,248.197 144.443,248.197 144.262 C 248.197 144.082,248.492 143.934,248.852 143.934 C 249.213 143.934,249.508 143.804,249.508 143.645 C 249.508 143.485,249.840 143.279,250.246 143.186 C 252.031 142.777,256.143 141.014,256.339 140.574 C 256.399 140.439,256.722 140.328,257.057 140.328 C 257.392 140.328,257.757 140.180,257.869 140.000 C 257.980 139.820,258.432 139.672,258.872 139.672 C 259.312 139.672,259.672 139.525,259.672 139.344 C 259.672 139.164,259.967 139.016,260.328 139.016 C 260.689 139.016,260.984 138.869,260.984 138.689 C 260.984 138.508,261.279 138.361,261.639 138.361 C 262.000 138.361,262.295 138.213,262.295 138.033 C 262.295 137.852,262.590 137.705,262.951 137.705 C 263.311 137.705,263.607 137.557,263.607 137.377 C 263.607 137.197,264.049 137.049,264.590 137.049 C 265.131 137.049,265.574 136.902,265.574 136.721 C 265.574 136.541,265.869 136.393,266.230 136.393 C 266.590 136.393,266.885 136.246,266.885 136.066 C 266.885 135.885,267.180 135.738,267.541 135.738 C 267.902 135.738,268.197 135.590,268.197 135.410 C 268.197 135.230,268.492 135.082,268.852 135.082 C 269.213 135.082,269.508 134.934,269.508 134.754 C 269.508 134.574,269.951 134.426,270.492 134.426 C 271.033 134.426,271.475 134.279,271.475 134.098 C 271.475 133.918,271.770 133.770,272.131 133.770 C 272.492 133.770,272.787 133.623,272.787 133.443 C 272.787 133.262,273.082 133.115,273.443 133.115 C 273.803 133.115,274.098 132.967,274.098 132.787 C 274.098 132.607,274.393 132.459,274.754 132.459 C 275.115 132.459,275.410 132.311,275.410 132.131 C 275.410 131.951,275.852 131.803,276.393 131.803 C 276.934 131.803,277.377 131.656,277.377 131.475 C 277.377 131.295,277.672 131.148,278.033 131.148 C 278.393 131.148,278.689 131.000,278.689 130.820 C 278.689 130.639,278.984 130.492,279.344 130.492 C 279.705 130.492,280.000 130.344,280.000 130.164 C 280.000 129.984,280.295 129.836,280.656 129.836 C 281.016 129.836,281.311 129.689,281.311 129.508 C 281.311 129.328,281.754 129.180,282.295 129.180 C 282.836 129.180,283.279 129.033,283.279 128.852 C 283.279 128.672,283.574 128.525,283.934 128.525 C 284.295 128.525,284.590 128.377,284.590 128.197 C 284.590 128.016,284.885 127.869,285.246 127.869 C 285.607 127.869,285.902 127.721,285.902 127.541 C 285.902 127.361,286.197 127.213,286.557 127.213 C 286.918 127.213,287.213 127.066,287.213 126.885 C 287.213 126.705,287.656 126.557,288.197 126.557 C 288.738 126.557,289.180 126.410,289.180 126.230 C 289.180 126.049,289.475 125.902,289.836 125.902 C 290.197 125.902,290.492 125.754,290.492 125.574 C 290.492 125.393,290.787 125.246,291.148 125.246 C 291.508 125.246,291.803 125.098,291.803 124.918 C 291.803 124.738,292.098 124.590,292.459 124.590 C 292.820 124.590,293.115 124.443,293.115 124.262 C 293.115 124.082,293.557 123.934,294.098 123.934 C 294.639 123.934,295.083 123.824,295.085 123.689 C 295.088 123.394,296.675 122.623,297.278 122.623 C 297.513 122.623,297.705 122.475,297.705 122.295 C 297.705 122.115,297.926 121.967,298.197 121.967 C 298.467 121.967,298.689 121.820,298.689 121.639 C 298.689 121.459,299.131 121.311,299.672 121.311 C 300.213 121.311,300.656 121.164,300.656 120.984 C 300.656 120.803,300.951 120.656,301.311 120.656 C 301.672 120.656,301.967 120.508,301.967 120.328 C 301.967 120.148,302.262 120.000,302.623 120.000 C 302.984 120.000,303.279 119.852,303.279 119.672 C 303.279 119.492,303.574 119.344,303.934 119.344 C 304.295 119.344,304.590 119.197,304.590 119.016 C 304.590 118.836,305.033 118.689,305.574 118.689 C 306.115 118.689,306.557 118.541,306.557 118.361 C 306.557 118.180,306.852 118.033,307.213 118.033 C 307.574 118.033,307.869 117.885,307.869 117.705 C 307.869 117.525,308.164 117.377,308.525 117.377 C 308.885 117.377,309.180 117.230,309.180 117.049 C 309.180 116.869,309.475 116.721,309.836 116.721 C 310.197 116.721,310.492 116.574,310.492 116.393 C 310.492 116.213,310.934 116.066,311.475 116.066 C 312.016 116.066,312.459 115.918,312.459 115.738 C 312.459 115.557,312.754 115.410,313.115 115.410 C 313.475 115.410,313.770 115.262,313.770 115.082 C 313.770 114.902,314.066 114.754,314.426 114.754 C 314.787 114.754,315.082 114.607,315.082 114.426 C 315.082 114.246,315.377 114.098,315.738 114.098 C 316.098 114.098,316.393 113.951,316.393 113.770 C 316.393 113.590,316.836 113.443,317.377 113.443 C 317.918 113.443,318.361 113.295,318.361 113.115 C 318.361 112.934,318.656 112.787,319.016 112.787 C 319.377 112.787,319.672 112.639,319.672 112.459 C 319.672 112.279,319.967 112.131,320.328 112.131 C 320.689 112.131,320.984 111.984,320.984 111.803 C 320.984 111.623,321.279 111.475,321.639 111.475 C 322.000 111.475,322.295 111.328,322.295 111.148 C 322.295 110.967,322.738 110.820,323.279 110.820 C 323.820 110.820,324.262 110.672,324.262 110.492 C 324.262 110.311,324.557 110.164,324.918 110.164 C 325.279 110.164,325.574 110.016,325.574 109.836 C 325.574 109.656,325.869 109.508,326.230 109.508 C 326.590 109.508,326.885 109.361,326.885 109.180 C 326.885 109.000,327.180 108.852,327.541 108.852 C 327.902 108.852,328.197 108.705,328.197 108.525 C 328.197 108.344,328.639 108.197,329.180 108.197 C 329.721 108.197,330.164 108.049,330.164 107.869 C 330.164 107.689,330.459 107.541,330.820 107.541 C 331.180 107.541,331.475 107.393,331.475 107.213 C 331.475 107.033,331.770 106.885,332.131 106.885 C 332.492 106.885,332.787 106.738,332.787 106.557 C 332.787 106.377,333.082 106.230,333.443 106.230 C 333.803 106.230,334.098 106.082,334.098 105.902 C 334.098 105.721,334.541 105.574,335.082 105.574 C 335.623 105.574,336.066 105.426,336.066 105.246 C 336.066 105.066,336.361 104.918,336.721 104.918 C 337.082 104.918,337.377 104.770,337.377 104.590 C 337.377 104.410,337.672 104.262,338.033 104.262 C 338.393 104.262,338.689 104.115,338.689 103.934 C 338.689 103.754,338.910 103.607,339.180 103.607 C 339.451 103.607,339.672 103.459,339.672 103.279 C 339.672 103.098,340.115 102.951,340.656 102.951 C 341.197 102.951,341.639 102.803,341.639 102.623 C 341.639 102.443,341.898 102.294,342.213 102.293 C 342.529 102.292,343.209 102.071,343.726 101.801 C 344.243 101.532,344.870 101.311,345.119 101.311 C 345.369 101.311,345.574 101.164,345.574 100.984 C 345.574 100.803,346.016 100.656,346.557 100.656 C 347.098 100.656,347.542 100.545,347.544 100.410 C 347.547 100.115,349.134 99.344,349.737 99.344 C 349.972 99.344,350.164 99.197,350.164 99.016 C 350.164 98.836,350.459 98.689,350.820 98.689 C 351.180 98.689,351.475 98.541,351.475 98.361 C 351.475 98.180,351.836 98.033,352.276 98.033 C 352.716 98.033,353.167 97.885,353.279 97.705 C 353.390 97.525,353.768 97.377,354.118 97.377 C 354.468 97.377,354.754 97.230,354.754 97.049 C 354.754 96.869,355.049 96.721,355.410 96.721 C 355.770 96.721,356.066 96.574,356.066 96.393 C 356.066 96.213,356.361 96.066,356.721 96.066 C 357.082 96.066,357.377 95.918,357.377 95.738 C 357.377 95.557,357.820 95.410,358.361 95.410 C 358.902 95.410,359.344 95.262,359.344 95.082 C 359.344 94.902,359.639 94.754,360.000 94.754 C 360.361 94.754,360.656 94.607,360.656 94.426 C 360.656 94.246,360.951 94.098,361.311 94.098 C 361.672 94.098,361.967 93.951,361.967 93.770 C 361.967 93.590,362.262 93.443,362.623 93.443 C 362.984 93.443,363.279 93.295,363.279 93.115 C 363.279 92.934,363.569 92.787,363.924 92.787 C 364.280 92.787,365.096 92.492,365.738 92.131 C 366.380 91.770,367.122 91.475,367.387 91.475 C 367.652 91.475,367.869 91.328,367.869 91.148 C 367.869 90.967,368.164 90.820,368.525 90.820 C 368.885 90.820,369.180 90.672,369.180 90.492 C 369.180 90.311,369.623 90.164,370.164 90.164 C 370.705 90.164,371.148 90.016,371.148 89.836 C 371.148 89.656,371.430 89.508,371.776 89.508 C 372.122 89.508,372.454 89.398,372.514 89.262 C 372.717 88.804,375.467 87.541,376.260 87.541 C 376.694 87.541,377.049 87.421,377.049 87.274 C 377.049 87.128,377.566 86.805,378.197 86.557 C 378.828 86.310,379.344 85.987,379.344 85.840 C 379.344 85.694,379.639 85.574,380.000 85.574 C 380.361 85.574,380.656 85.426,380.656 85.246 C 380.656 85.066,381.098 84.918,381.639 84.918 C 382.180 84.918,382.623 84.770,382.623 84.590 C 382.623 84.410,382.918 84.262,383.279 84.262 C 383.639 84.262,383.934 84.115,383.934 83.934 C 383.934 83.754,384.230 83.607,384.590 83.607 C 384.951 83.607,385.246 83.459,385.246 83.279 C 385.246 83.098,385.541 82.951,385.902 82.951 C 386.532 82.951,386.557 82.732,386.557 77.377 C 386.557 73.880,386.435 71.803,386.230 71.803 C 386.047 71.803,385.902 70.929,385.902 69.836 C 385.902 68.743,385.756 67.869,385.574 67.869 C 385.393 67.869,385.246 67.279,385.246 66.557 C 385.246 65.836,385.098 65.246,384.918 65.246 C 384.738 65.246,384.590 64.656,384.590 63.934 C 384.590 63.213,384.443 62.623,384.262 62.623 C 384.082 62.623,383.934 62.254,383.934 61.803 C 383.934 61.352,383.787 60.984,383.607 60.984 C 383.426 60.984,383.279 60.541,383.279 60.000 C 383.279 59.459,383.131 59.016,382.951 59.016 C 382.770 59.016,382.623 58.721,382.623 58.361 C 382.623 58.000,382.475 57.705,382.295 57.705 C 382.115 57.705,381.967 57.262,381.967 56.721 C 381.967 56.180,381.820 55.738,381.639 55.738 C 381.459 55.738,381.311 55.443,381.311 55.082 C 381.311 54.721,381.164 54.426,380.984 54.426 C 380.803 54.426,380.656 54.131,380.656 53.770 C 380.656 53.410,380.508 53.115,380.328 53.115 C 380.148 53.115,380.000 52.855,380.000 52.538 C 380.000 51.990,378.496 48.871,378.064 48.525 C 377.952 48.434,377.507 47.660,377.075 46.803 C 376.644 45.947,376.166 45.246,376.014 45.246 C 375.862 45.246,375.738 45.013,375.738 44.728 C 375.738 44.444,375.148 43.644,374.426 42.951 C 373.705 42.258,373.115 41.551,373.115 41.380 C 373.115 40.929,365.035 32.787,364.587 32.787 C 364.380 32.787,363.644 32.197,362.951 31.475 C 362.258 30.754,361.490 30.164,361.246 30.164 C 361.001 30.164,360.588 29.869,360.328 29.508 C 360.068 29.148,359.593 28.852,359.272 28.852 C 358.951 28.852,358.689 28.705,358.689 28.525 C 358.689 28.344,358.393 28.197,358.033 28.197 C 357.672 28.197,357.377 28.072,357.377 27.920 C 357.377 27.768,356.676 27.289,355.820 26.855 C 354.963 26.421,354.213 25.955,354.153 25.820 C 354.093 25.684,353.864 25.574,353.645 25.574 C 353.063 25.574,351.481 24.796,351.478 24.508 C 351.477 24.373,351.180 24.262,350.820 24.262 C 350.459 24.262,350.164 24.115,350.164 23.934 C 350.164 23.754,349.793 23.607,349.340 23.607 C 348.617 23.607,347.369 23.106,346.885 22.623 C 346.795 22.533,346.352 22.408,345.902 22.346 C 345.451 22.283,345.033 22.099,344.973 21.936 C 344.913 21.773,344.442 21.639,343.926 21.639 C 343.411 21.639,342.908 21.507,342.808 21.345 C 342.707 21.183,341.592 20.947,340.328 20.820 C 339.064 20.693,337.948 20.456,337.848 20.294 C 337.748 20.133,336.863 20.000,335.882 20.000 C 334.901 20.000,334.098 19.852,334.098 19.672 C 334.098 19.454,280.109 19.344,172.787 19.344 L 11.475 19.344 11.475 51.148 M11.475 190.984 C 11.475 235.902,11.586 258.689,11.803 258.689 C 11.984 258.689,12.131 259.491,12.131 260.472 C 12.131 261.454,12.279 262.348,12.459 262.459 C 12.639 262.570,12.787 263.243,12.787 263.954 C 12.787 264.664,12.934 265.246,13.115 265.246 C 13.295 265.246,13.443 265.762,13.443 266.393 C 13.443 267.025,13.590 267.541,13.770 267.541 C 13.951 267.541,14.098 267.984,14.098 268.525 C 14.098 269.066,14.246 269.508,14.426 269.508 C 14.607 269.508,14.754 269.951,14.754 270.492 C 14.754 271.033,14.902 271.475,15.082 271.475 C 15.262 271.475,15.410 271.770,15.410 272.131 C 15.410 272.492,15.557 272.787,15.738 272.787 C 15.918 272.787,16.066 273.230,16.066 273.770 C 16.066 274.311,16.213 274.754,16.393 274.754 C 16.574 274.754,16.721 275.049,16.721 275.410 C 16.721 275.770,16.869 276.066,17.049 276.066 C 17.230 276.066,17.377 276.361,17.377 276.721 C 17.377 277.082,17.525 277.377,17.705 277.377 C 17.885 277.377,18.033 277.672,18.033 278.033 C 18.033 278.393,18.180 278.689,18.361 278.689 C 18.541 278.689,18.689 278.984,18.689 279.344 C 18.689 279.705,18.836 280.000,19.016 280.000 C 19.197 280.000,19.344 280.295,19.344 280.656 C 19.344 281.016,19.457 281.311,19.595 281.311 C 19.732 281.311,20.195 282.049,20.624 282.951 C 21.052 283.852,21.538 284.590,21.704 284.590 C 21.870 284.590,21.915 284.738,21.803 284.918 C 21.692 285.098,21.757 285.246,21.948 285.246 C 22.139 285.246,22.295 285.484,22.295 285.775 C 22.295 286.066,22.885 286.822,23.607 287.454 C 24.328 288.086,24.918 288.785,24.918 289.006 C 24.918 289.493,32.965 297.705,33.441 297.705 C 33.626 297.705,34.240 298.148,34.806 298.689 C 35.372 299.230,36.018 299.672,36.241 299.672 C 36.465 299.672,36.996 300.113,37.422 300.653 C 37.848 301.192,38.455 301.635,38.770 301.636 C 39.086 301.638,39.344 301.787,39.344 301.967 C 39.344 302.148,39.639 302.295,40.000 302.295 C 40.361 302.295,40.656 302.419,40.656 302.571 C 40.656 302.723,41.357 303.203,42.213 303.637 C 43.070 304.071,43.820 304.537,43.880 304.672 C 43.940 304.807,44.272 304.918,44.617 304.918 C 44.963 304.918,45.246 305.066,45.246 305.246 C 45.246 305.426,45.504 305.574,45.820 305.575 C 46.135 305.576,46.848 305.854,47.404 306.193 C 47.960 306.532,49.030 306.913,49.781 307.040 C 50.533 307.167,51.148 307.405,51.148 307.570 C 51.148 307.734,51.590 307.869,52.131 307.869 C 52.672 307.869,53.115 308.016,53.115 308.197 C 53.115 308.377,53.557 308.525,54.098 308.525 C 54.639 308.525,55.082 308.672,55.082 308.852 C 55.082 309.033,55.672 309.180,56.393 309.180 C 57.115 309.180,57.705 309.328,57.705 309.508 C 57.705 309.689,58.295 309.836,59.016 309.836 C 59.738 309.836,60.328 309.984,60.328 310.164 C 60.328 310.349,61.257 310.492,62.459 310.492 C 63.661 310.492,64.590 310.635,64.590 310.820 C 64.590 311.038,118.470 311.148,225.574 311.148 L 386.557 311.148 386.557 217.213 L 386.557 123.279 385.429 123.279 C 384.809 123.279,384.210 123.426,384.098 123.607 C 383.987 123.787,383.609 123.934,383.259 123.934 C 382.909 123.934,382.623 124.054,382.623 124.201 C 382.623 124.348,382.107 124.670,381.475 124.918 C 380.844 125.166,380.328 125.488,380.328 125.635 C 380.328 125.782,379.885 125.902,379.344 125.902 C 378.803 125.902,378.361 126.049,378.361 126.230 C 378.361 126.410,378.066 126.557,377.705 126.557 C 377.344 126.557,377.049 126.705,377.049 126.885 C 377.049 127.066,376.754 127.213,376.393 127.213 C 376.033 127.213,375.738 127.361,375.738 127.541 C 375.738 127.721,375.443 127.869,375.082 127.869 C 374.721 127.869,374.426 128.016,374.426 128.197 C 374.426 128.377,373.984 128.525,373.443 128.525 C 372.902 128.525,372.459 128.672,372.459 128.852 C 372.459 129.033,372.164 129.180,371.803 129.180 C 371.443 129.180,371.148 129.328,371.148 129.508 C 371.148 129.689,370.852 129.836,370.492 129.836 C 370.131 129.836,369.836 129.984,369.836 130.164 C 369.836 130.344,369.541 130.492,369.180 130.492 C 368.820 130.492,368.525 130.639,368.525 130.820 C 368.525 131.000,368.082 131.148,367.541 131.148 C 367.000 131.148,366.557 131.295,366.557 131.475 C 366.557 131.656,366.262 131.803,365.902 131.803 C 365.541 131.803,365.246 131.951,365.246 132.131 C 365.246 132.311,364.951 132.459,364.590 132.459 C 364.230 132.459,363.934 132.607,363.934 132.787 C 363.934 132.967,363.639 133.115,363.279 133.115 C 362.918 133.115,362.623 133.262,362.623 133.443 C 362.623 133.623,362.180 133.770,361.639 133.770 C 361.098 133.770,360.656 133.918,360.656 134.098 C 360.656 134.279,360.361 134.426,360.000 134.426 C 359.639 134.426,359.344 134.574,359.344 134.754 C 359.344 134.934,359.049 135.082,358.689 135.082 C 358.328 135.082,358.033 135.230,358.033 135.410 C 358.033 135.590,357.738 135.738,357.377 135.738 C 357.016 135.738,356.721 135.885,356.721 136.066 C 356.721 136.246,356.279 136.393,355.738 136.393 C 355.197 136.393,354.754 136.541,354.754 136.721 C 354.754 136.902,354.459 137.049,354.098 137.049 C 353.738 137.049,353.443 137.197,353.443 137.377 C 353.443 137.557,353.148 137.705,352.787 137.705 C 352.426 137.705,352.131 137.852,352.131 138.033 C 352.131 138.213,351.836 138.361,351.475 138.361 C 351.115 138.361,350.820 138.508,350.820 138.689 C 350.820 138.869,350.377 139.016,349.836 139.016 C 349.295 139.016,348.852 139.164,348.852 139.344 C 348.852 139.525,348.557 139.672,348.197 139.672 C 347.836 139.672,347.541 139.820,347.541 140.000 C 347.541 140.180,347.246 140.328,346.885 140.328 C 346.525 140.328,346.230 140.475,346.230 140.656 C 346.230 140.836,345.934 140.984,345.574 140.984 C 345.213 140.984,344.918 141.131,344.918 141.311 C 344.918 141.492,344.652 141.639,344.328 141.639 C 343.595 141.639,341.973 142.372,341.970 142.705 C 341.968 142.840,341.763 142.951,341.513 142.951 C 341.263 142.951,340.636 143.171,340.119 143.441 C 339.603 143.710,338.857 143.931,338.462 143.932 C 338.067 143.934,337.652 144.082,337.541 144.262 C 337.430 144.443,337.052 144.590,336.702 144.590 C 336.352 144.590,336.066 144.711,336.066 144.860 C 336.066 145.238,333.054 146.557,332.190 146.557 C 331.797 146.557,331.474 146.668,331.473 146.803 C 331.470 147.098,329.882 147.869,329.279 147.869 C 329.044 147.869,328.851 147.980,328.850 148.115 C 328.846 148.443,327.229 149.180,326.511 149.180 C 326.197 149.180,325.849 149.328,325.738 149.508 C 325.626 149.689,325.249 149.836,324.899 149.836 C 324.549 149.836,324.262 149.984,324.262 150.164 C 324.262 150.344,323.967 150.492,323.607 150.492 C 323.246 150.492,322.951 150.639,322.951 150.820 C 322.951 151.000,322.656 151.148,322.295 151.148 C 321.934 151.148,321.639 151.295,321.639 151.475 C 321.639 151.656,321.197 151.803,320.656 151.803 C 320.115 151.803,319.672 151.951,319.672 152.131 C 319.672 152.311,319.377 152.459,319.016 152.459 C 318.656 152.459,318.361 152.607,318.361 152.787 C 318.361 152.967,318.066 153.115,317.705 153.115 C 317.344 153.115,317.049 153.262,317.049 153.443 C 317.049 153.623,316.754 153.770,316.393 153.770 C 316.033 153.770,315.738 153.918,315.738 154.098 C 315.738 154.279,315.295 154.426,314.754 154.426 C 314.213 154.426,313.769 154.537,313.768 154.672 C 313.765 154.967,312.177 155.738,311.574 155.738 C 311.339 155.738,311.148 155.885,311.148 156.066 C 311.148 156.246,310.852 156.393,310.492 156.393 C 310.131 156.393,309.836 156.541,309.836 156.721 C 309.836 156.902,309.393 157.049,308.852 157.049 C 308.311 157.049,307.869 157.197,307.869 157.377 C 307.869 157.557,307.574 157.705,307.213 157.705 C 306.852 157.705,306.556 157.816,306.555 157.951 C 306.552 158.245,304.964 159.016,304.361 159.016 C 304.126 159.016,303.934 159.164,303.934 159.344 C 303.934 159.525,303.653 159.672,303.310 159.672 C 302.641 159.672,299.908 160.985,299.727 161.393 C 299.667 161.529,299.335 161.639,298.989 161.639 C 298.643 161.639,298.361 161.787,298.361 161.967 C 298.361 162.148,297.918 162.295,297.377 162.295 C 296.836 162.295,296.393 162.443,296.393 162.623 C 296.393 162.803,296.098 162.951,295.738 162.951 C 295.377 162.951,295.082 163.098,295.082 163.279 C 295.082 163.459,294.787 163.607,294.426 163.607 C 294.066 163.607,293.770 163.754,293.770 163.934 C 293.770 164.115,293.475 164.262,293.115 164.262 C 292.754 164.262,292.459 164.410,292.459 164.590 C 292.459 164.770,292.016 164.918,291.475 164.918 C 290.934 164.918,290.492 165.066,290.492 165.246 C 290.492 165.426,290.197 165.574,289.836 165.574 C 289.475 165.574,289.180 165.721,289.180 165.902 C 289.180 166.082,288.885 166.230,288.525 166.230 C 288.164 166.230,287.869 166.377,287.869 166.557 C 287.869 166.738,287.574 166.885,287.213 166.885 C 286.852 166.885,286.557 167.033,286.557 167.213 C 286.557 167.393,286.115 167.541,285.574 167.541 C 285.033 167.541,284.590 167.689,284.590 167.869 C 284.590 168.049,284.295 168.197,283.934 168.197 C 283.574 168.197,283.279 168.344,283.279 168.525 C 283.279 168.705,282.984 168.852,282.623 168.852 C 282.262 168.852,281.967 169.000,281.967 169.180 C 281.967 169.361,281.672 169.508,281.311 169.508 C 280.951 169.508,280.656 169.656,280.656 169.836 C 280.656 170.016,280.213 170.164,279.672 170.164 C 279.131 170.164,278.689 170.311,278.689 170.492 C 278.689 170.672,278.393 170.820,278.033 170.820 C 277.672 170.820,277.377 170.967,277.377 171.148 C 277.377 171.328,277.082 171.475,276.721 171.475 C 276.361 171.475,276.066 171.623,276.066 171.803 C 276.066 171.984,275.770 172.131,275.410 172.131 C 275.049 172.131,274.754 172.279,274.754 172.459 C 274.754 172.639,274.311 172.787,273.770 172.787 C 273.230 172.787,272.787 172.934,272.787 173.115 C 272.787 173.295,272.492 173.443,272.131 173.443 C 271.770 173.443,271.475 173.590,271.475 173.770 C 271.475 173.951,271.180 174.098,270.820 174.098 C 270.459 174.098,270.164 174.246,270.164 174.426 C 270.164 174.607,269.869 174.754,269.508 174.754 C 269.148 174.754,268.852 174.902,268.852 175.082 C 268.852 175.262,268.410 175.410,267.869 175.410 C 267.328 175.410,266.885 175.557,266.885 175.738 C 266.885 175.918,266.590 176.066,266.230 176.066 C 265.869 176.066,265.573 176.176,265.571 176.311 C 265.568 176.606,263.980 177.377,263.377 177.377 C 263.143 177.377,262.951 177.525,262.951 177.705 C 262.951 177.885,262.508 178.033,261.967 178.033 C 261.426 178.033,260.984 178.180,260.984 178.361 C 260.984 178.541,260.762 178.689,260.492 178.689 C 260.221 178.689,260.000 178.836,260.000 179.016 C 260.000 179.197,259.705 179.344,259.344 179.344 C 258.984 179.344,258.689 179.492,258.689 179.672 C 258.689 179.852,258.393 180.000,258.033 180.000 C 257.672 180.000,257.377 180.148,257.377 180.328 C 257.377 180.508,256.934 180.656,256.393 180.656 C 255.852 180.656,255.410 180.803,255.410 180.984 C 255.410 181.164,255.115 181.311,254.754 181.311 C 254.393 181.311,254.098 181.459,254.098 181.639 C 254.098 181.820,253.803 181.967,253.443 181.967 C 253.082 181.967,252.787 182.115,252.787 182.295 C 252.787 182.475,252.492 182.623,252.131 182.623 C 251.770 182.623,251.475 182.770,251.475 182.951 C 251.475 183.131,251.033 183.279,250.492 183.279 C 249.951 183.279,249.508 183.426,249.508 183.607 C 249.508 183.787,249.213 183.934,248.852 183.934 C 248.492 183.934,248.197 184.082,248.197 184.262 C 248.197 184.443,247.961 184.590,247.673 184.590 C 247.384 184.590,246.683 184.794,246.115 185.044 C 244.177 185.894,242.787 186.386,242.541 186.307 C 242.406 186.265,242.295 186.377,242.295 186.557 C 242.295 186.738,242.000 186.885,241.639 186.885 C 241.279 186.885,240.984 187.033,240.984 187.213 C 240.984 187.393,240.689 187.541,240.328 187.541 C 239.967 187.541,239.672 187.689,239.672 187.869 C 239.672 188.049,239.397 188.197,239.062 188.197 C 238.726 188.197,237.304 188.787,235.902 189.508 C 234.499 190.230,233.171 190.820,232.951 190.820 C 232.730 190.820,231.402 191.410,230.000 192.131 C 228.598 192.852,227.102 193.443,226.676 193.443 C 226.250 193.443,225.902 193.590,225.902 193.770 C 225.902 193.951,225.619 194.098,225.273 194.098 C 224.928 194.098,224.596 194.209,224.536 194.344 C 224.354 194.753,221.622 196.066,220.953 196.066 C 220.609 196.066,220.328 196.213,220.328 196.393 C 220.328 196.574,220.033 196.721,219.672 196.721 C 219.311 196.721,219.016 196.869,219.016 197.049 C 219.016 197.230,218.721 197.377,218.361 197.377 C 218.000 197.377,217.705 197.525,217.705 197.705 C 217.705 197.885,217.410 198.033,217.049 198.033 C 216.689 198.033,216.393 198.180,216.393 198.361 C 216.393 198.541,215.951 198.689,215.410 198.689 C 214.869 198.689,214.426 198.836,214.426 199.016 C 214.426 199.197,214.131 199.344,213.770 199.344 C 213.410 199.344,213.115 199.492,213.115 199.672 C 213.115 199.852,212.820 200.000,212.459 200.000 C 212.098 200.000,211.803 200.148,211.803 200.328 C 211.803 200.508,211.508 200.656,211.148 200.656 C 210.787 200.656,210.492 200.803,210.492 200.984 C 210.492 201.164,210.049 201.311,209.508 201.311 C 208.967 201.311,208.525 201.459,208.525 201.639 C 208.525 201.820,208.230 201.967,207.869 201.967 C 207.508 201.967,207.213 202.115,207.213 202.295 C 207.213 202.475,206.918 202.623,206.557 202.623 C 206.197 202.623,205.902 202.770,205.902 202.951 C 205.902 203.131,205.607 203.279,205.246 203.279 C 204.885 203.279,204.590 203.426,204.590 203.607 C 204.590 203.787,204.148 203.934,203.607 203.934 C 203.066 203.934,202.623 204.082,202.623 204.262 C 202.623 204.443,202.328 204.590,201.967 204.590 C 201.607 204.590,201.311 204.738,201.311 204.918 C 201.311 205.098,201.016 205.246,200.656 205.246 C 200.295 205.246,200.000 205.393,200.000 205.574 C 200.000 205.754,199.557 205.902,199.016 205.902 C 198.475 205.902,198.033 205.754,198.033 205.574 C 198.033 205.393,197.738 205.246,197.377 205.246 C 197.016 205.246,196.721 205.098,196.721 204.918 C 196.721 204.738,196.426 204.590,196.066 204.590 C 195.705 204.590,195.410 204.443,195.410 204.262 C 195.410 204.082,194.967 203.934,194.426 203.934 C 193.885 203.934,193.443 203.787,193.443 203.607 C 193.443 203.426,193.148 203.279,192.787 203.279 C 192.426 203.279,192.131 203.131,192.131 202.951 C 192.131 202.770,191.836 202.623,191.475 202.623 C 191.115 202.623,190.820 202.475,190.820 202.295 C 190.820 202.115,190.525 201.967,190.164 201.967 C 189.803 201.967,189.508 201.820,189.508 201.639 C 189.508 201.459,189.066 201.311,188.525 201.311 C 187.984 201.311,187.541 201.164,187.541 200.984 C 187.541 200.803,187.246 200.656,186.885 200.656 C 186.525 200.656,186.230 200.508,186.230 200.328 C 186.230 200.148,185.934 200.000,185.574 200.000 C 185.213 200.000,184.918 199.852,184.918 199.672 C 184.918 199.492,184.623 199.344,184.262 199.344 C 183.902 199.344,183.607 199.197,183.607 199.016 C 183.607 198.836,183.164 198.689,182.623 198.689 C 182.082 198.689,181.639 198.541,181.639 198.361 C 181.639 198.180,181.344 198.033,180.984 198.033 C 180.623 198.033,180.327 197.922,180.325 197.787 C 180.322 197.492,178.735 196.721,178.131 196.721 C 177.897 196.721,177.705 196.574,177.705 196.393 C 177.705 196.213,177.336 196.066,176.885 196.066 C 176.434 196.066,176.066 195.918,176.066 195.738 C 176.066 195.557,175.770 195.410,175.410 195.410 C 175.049 195.410,174.754 195.262,174.754 195.082 C 174.754 194.902,174.537 194.754,174.272 194.754 C 174.007 194.754,173.265 194.459,172.623 194.098 C 171.981 193.738,171.253 193.443,171.005 193.443 C 170.466 193.443,167.751 192.072,167.596 191.721 C 167.536 191.586,167.212 191.475,166.877 191.475 C 166.542 191.475,166.177 191.328,166.066 191.148 C 165.954 190.967,165.597 190.820,165.272 190.820 C 164.947 190.820,163.533 190.230,162.131 189.508 C 160.729 188.787,159.410 188.197,159.200 188.197 C 158.633 188.197,157.055 187.414,157.052 187.131 C 157.050 186.996,156.754 186.885,156.393 186.885 C 156.033 186.885,155.738 186.738,155.738 186.557 C 155.738 186.377,155.627 186.265,155.492 186.307 C 155.246 186.386,153.856 185.894,151.918 185.044 C 151.349 184.794,150.649 184.590,150.360 184.590 C 150.072 184.590,149.836 184.443,149.836 184.262 C 149.836 184.082,149.541 183.934,149.180 183.934 C 148.820 183.934,148.525 183.787,148.525 183.607 C 148.525 183.426,148.082 183.279,147.541 183.279 C 147.000 183.279,146.557 183.131,146.557 182.951 C 146.557 182.770,146.262 182.623,145.902 182.623 C 145.541 182.623,145.246 182.475,145.246 182.295 C 145.246 182.115,144.951 181.967,144.590 181.967 C 144.230 181.967,143.934 181.820,143.934 181.639 C 143.934 181.459,143.639 181.311,143.279 181.311 C 142.918 181.311,142.623 181.164,142.623 180.984 C 142.623 180.803,142.180 180.656,141.639 180.656 C 141.098 180.656,140.655 180.545,140.653 180.410 C 140.650 180.115,139.062 179.344,138.459 179.344 C 138.225 179.344,138.033 179.197,138.033 179.016 C 138.033 178.836,137.811 178.689,137.541 178.689 C 137.270 178.689,137.049 178.541,137.049 178.361 C 137.049 178.180,136.607 178.033,136.066 178.033 C 135.525 178.033,135.082 177.885,135.082 177.705 C 135.082 177.525,134.787 177.377,134.426 177.377 C 134.066 177.377,133.770 177.230,133.770 177.049 C 133.770 176.869,133.475 176.721,133.115 176.721 C 132.754 176.721,132.459 176.574,132.459 176.393 C 132.459 176.213,132.164 176.066,131.803 176.066 C 131.443 176.066,131.148 175.918,131.148 175.738 C 131.148 175.557,130.705 175.410,130.164 175.410 C 129.623 175.410,129.180 175.262,129.180 175.082 C 129.180 174.902,128.885 174.754,128.525 174.754 C 128.164 174.754,127.869 174.607,127.869 174.426 C 127.869 174.246,127.574 174.098,127.213 174.098 C 126.852 174.098,126.557 173.951,126.557 173.770 C 126.557 173.590,126.262 173.443,125.902 173.443 C 125.541 173.443,125.246 173.295,125.246 173.115 C 125.246 172.934,124.803 172.787,124.262 172.787 C 123.721 172.787,123.279 172.639,123.279 172.459 C 123.279 172.279,122.984 172.131,122.623 172.131 C 122.262 172.131,121.967 171.984,121.967 171.803 C 121.967 171.623,121.672 171.475,121.311 171.475 C 120.951 171.475,120.656 171.328,120.656 171.148 C 120.656 170.967,120.361 170.820,120.000 170.820 C 119.639 170.820,119.344 170.672,119.344 170.492 C 119.344 170.311,118.902 170.164,118.361 170.164 C 117.820 170.164,117.377 170.016,117.377 169.836 C 117.377 169.656,117.082 169.508,116.721 169.508 C 116.361 169.508,116.066 169.361,116.066 169.180 C 116.066 169.000,115.770 168.852,115.410 168.852 C 115.049 168.852,114.754 168.705,114.754 168.525 C 114.754 168.344,114.459 168.197,114.098 168.197 C 113.738 168.197,113.443 168.049,113.443 167.869 C 113.443 167.689,113.000 167.541,112.459 167.541 C 111.918 167.541,111.475 167.393,111.475 167.213 C 111.475 167.033,111.180 166.885,110.820 166.885 C 110.459 166.885,110.164 166.738,110.164 166.557 C 110.164 166.377,109.869 166.230,109.508 166.230 C 109.148 166.230,108.852 166.082,108.852 165.902 C 108.852 165.721,108.557 165.574,108.197 165.574 C 107.836 165.574,107.541 165.426,107.541 165.246 C 107.541 165.066,107.098 164.918,106.557 164.918 C 106.016 164.918,105.574 164.770,105.574 164.590 C 105.574 164.410,105.279 164.262,104.918 164.262 C 104.557 164.262,104.262 164.115,104.262 163.934 C 104.262 163.754,103.967 163.607,103.607 163.607 C 103.246 163.607,102.951 163.459,102.951 163.279 C 102.951 163.098,102.656 162.951,102.295 162.951 C 101.934 162.951,101.639 162.803,101.639 162.623 C 101.639 162.443,101.197 162.295,100.656 162.295 C 100.115 162.295,99.672 162.175,99.672 162.028 C 99.672 161.882,99.156 161.559,98.525 161.311 C 97.893 161.064,97.377 160.741,97.377 160.595 C 97.377 160.448,97.091 160.328,96.741 160.328 C 96.391 160.328,96.013 160.180,95.902 160.000 C 95.790 159.820,95.339 159.672,94.899 159.672 C 94.459 159.672,94.098 159.525,94.098 159.344 C 94.098 159.164,93.803 159.016,93.443 159.016 C 93.082 159.016,92.787 158.869,92.787 158.689 C 92.787 158.508,92.492 158.361,92.131 158.361 C 91.770 158.361,91.475 158.213,91.475 158.033 C 91.475 157.852,91.180 157.705,90.820 157.705 C 90.459 157.705,90.164 157.557,90.164 157.377 C 90.164 157.197,89.721 157.049,89.180 157.049 C 88.639 157.049,88.197 156.902,88.197 156.721 C 88.197 156.541,87.902 156.393,87.541 156.393 C 87.180 156.393,86.885 156.246,86.885 156.066 C 86.885 155.885,86.590 155.738,86.230 155.738 C 85.869 155.738,85.574 155.590,85.574 155.410 C 85.574 155.230,85.279 155.082,84.918 155.082 C 84.557 155.082,84.262 154.934,84.262 154.754 C 84.262 154.574,83.820 154.426,83.279 154.426 C 82.738 154.426,82.295 154.279,82.295 154.098 C 82.295 153.918,82.000 153.770,81.639 153.770 C 81.279 153.770,80.984 153.623,80.984 153.443 C 80.984 153.262,80.689 153.115,80.328 153.115 C 79.967 153.115,79.672 152.967,79.672 152.787 C 79.672 152.607,79.377 152.459,79.016 152.459 C 78.656 152.459,78.361 152.311,78.361 152.131 C 78.361 151.951,77.918 151.803,77.377 151.803 C 76.836 151.803,76.393 151.656,76.393 151.475 C 76.393 151.295,76.098 151.148,75.738 151.148 C 75.377 151.148,75.082 151.000,75.082 150.820 C 75.082 150.639,74.787 150.492,74.426 150.492 C 74.066 150.492,73.770 150.344,73.770 150.164 C 73.770 149.984,73.475 149.836,73.115 149.836 C 72.754 149.836,72.459 149.689,72.459 149.508 C 72.459 149.328,72.120 149.180,71.705 149.180 C 70.841 149.180,69.187 148.481,69.183 148.115 C 69.181 147.980,68.988 147.869,68.754 147.869 C 68.151 147.869,66.563 147.098,66.560 146.803 C 66.559 146.668,66.236 146.557,65.843 146.557 C 64.979 146.557,61.967 145.238,61.967 144.860 C 61.967 144.711,61.681 144.590,61.331 144.590 C 60.981 144.590,60.595 144.429,60.473 144.231 C 60.351 144.034,59.904 143.939,59.480 144.020 C 59.055 144.101,58.786 144.041,58.882 143.887 C 58.977 143.733,58.751 143.607,58.380 143.607 C 58.009 143.607,57.705 143.459,57.705 143.279 C 57.705 143.098,57.513 142.951,57.278 142.951 C 56.675 142.951,55.088 142.180,55.085 141.885 C 55.083 141.750,54.639 141.639,54.098 141.639 C 53.557 141.639,53.115 141.492,53.115 141.311 C 53.115 141.131,52.820 140.984,52.459 140.984 C 52.098 140.984,51.803 140.836,51.803 140.656 C 51.803 140.475,51.508 140.328,51.148 140.328 C 50.787 140.328,50.492 140.180,50.492 140.000 C 50.492 139.820,50.197 139.672,49.836 139.672 C 49.475 139.672,49.180 139.525,49.180 139.344 C 49.180 139.164,48.738 139.016,48.197 139.016 C 47.656 139.016,47.213 138.869,47.213 138.689 C 47.213 138.508,46.918 138.361,46.557 138.361 C 46.197 138.361,45.902 138.213,45.902 138.033 C 45.902 137.852,45.607 137.705,45.246 137.705 C 44.885 137.705,44.590 137.557,44.590 137.377 C 44.590 137.197,44.295 137.049,43.934 137.049 C 43.574 137.049,43.279 136.902,43.279 136.721 C 43.279 136.541,42.836 136.393,42.295 136.393 C 41.754 136.393,41.311 136.246,41.311 136.066 C 41.311 135.885,41.016 135.738,40.656 135.738 C 40.295 135.738,40.000 135.590,40.000 135.410 C 40.000 135.230,39.705 135.082,39.344 135.082 C 38.984 135.082,38.689 134.934,38.689 134.754 C 38.689 134.574,38.393 134.426,38.033 134.426 C 37.672 134.426,37.377 134.279,37.377 134.098 C 37.377 133.918,36.934 133.770,36.393 133.770 C 35.852 133.770,35.410 133.623,35.410 133.443 C 35.410 133.262,35.115 133.115,34.754 133.115 C 34.393 133.115,34.098 132.967,34.098 132.787 C 34.098 132.607,33.803 132.459,33.443 132.459 C 33.082 132.459,32.787 132.311,32.787 132.131 C 32.787 131.951,32.492 131.803,32.131 131.803 C 31.770 131.803,31.475 131.656,31.475 131.475 C 31.475 131.295,31.033 131.148,30.492 131.148 C 29.951 131.148,29.508 131.000,29.508 130.820 C 29.508 130.639,29.213 130.492,28.852 130.492 C 28.492 130.492,28.197 130.344,28.197 130.164 C 28.197 129.984,27.902 129.836,27.541 129.836 C 27.180 129.836,26.885 129.689,26.885 129.508 C 26.885 129.328,26.590 129.180,26.230 129.180 C 25.869 129.180,25.574 129.033,25.574 128.852 C 25.574 128.672,25.131 128.525,24.590 128.525 C 24.049 128.525,23.607 128.377,23.607 128.197 C 23.607 128.016,23.311 127.869,22.951 127.869 C 22.590 127.869,22.295 127.721,22.295 127.541 C 22.295 127.361,22.000 127.213,21.639 127.213 C 21.279 127.213,20.984 127.066,20.984 126.885 C 20.984 126.705,20.689 126.557,20.328 126.557 C 19.967 126.557,19.672 126.410,19.672 126.230 C 19.672 126.049,19.303 125.902,18.852 125.902 C 18.402 125.902,18.033 125.754,18.033 125.574 C 18.033 125.393,17.841 125.246,17.606 125.246 C 17.003 125.246,15.415 124.475,15.412 124.180 C 15.411 124.045,15.115 123.934,14.754 123.934 C 14.393 123.934,14.098 123.787,14.098 123.607 C 14.098 123.426,13.508 123.279,12.787 123.279 L 11.475 123.279 11.475 190.984 " stroke="none" fill="#146bb7" fill-rule="evenodd"></path><path id="path4" d="" stroke="none" fill="#00ffff" fill-rule="evenodd"></path></g></svg>