<svg id="svg" version="1.1" width="400" height="484.95575221238937" xmlns="http://www.w3.org/2000/svg" xmlns:xlink="http://www.w3.org/1999/xlink" style="display: block;"><g id="svgg"><path id="path0" d="M255.784 17.300 C 255.680 17.575,255.640 38.770,255.697 64.400 L 255.800 111.000 256.000 63.900 C 256.110 37.995,256.149 16.800,256.087 16.800 C 256.026 16.800,255.889 17.025,255.784 17.300 M352.800 211.280 C 352.690 258.074,352.735 296.225,352.901 296.059 C 353.066 295.894,353.156 257.608,353.101 210.979 L 353.000 126.200 352.800 211.280 M330.101 290.400 C 330.190 290.730,330.699 291.033,331.231 291.074 C 331.995 291.132,332.031 291.101,331.400 290.928 C 330.960 290.807,330.451 290.503,330.270 290.254 C 330.051 289.954,329.994 290.004,330.101 290.400 M286.305 307.083 C 286.802 307.179,287.522 307.175,287.905 307.075 C 288.287 306.975,287.880 306.896,287.000 306.901 C 286.120 306.905,285.807 306.987,286.305 307.083 M321.105 307.083 C 321.602 307.179,322.322 307.175,322.705 307.075 C 323.087 306.975,322.680 306.896,321.800 306.901 C 320.920 306.905,320.607 306.987,321.105 307.083 M273.300 310.676 C 273.685 310.776,274.315 310.776,274.700 310.676 C 275.085 310.575,274.770 310.493,274.000 310.493 C 273.230 310.493,272.915 310.575,273.300 310.676 M236.126 312.700 C 235.989 313.085,235.787 313.563,235.677 313.762 C 235.566 313.961,235.684 313.995,235.938 313.838 C 236.192 313.681,236.400 313.308,236.400 313.010 C 236.400 312.711,236.625 312.376,236.900 312.265 C 237.292 312.107,237.289 312.056,236.887 312.032 C 236.606 312.014,236.263 312.315,236.126 312.700 M356.551 322.452 C 356.600 322.711,357.046 323.073,357.541 323.256 C 358.112 323.468,358.351 323.445,358.197 323.195 C 358.063 322.978,357.708 322.800,357.410 322.800 C 357.111 322.800,356.775 322.616,356.663 322.390 C 356.552 322.165,356.501 322.192,356.551 322.452 M292.190 342.094 C 292.086 342.372,291.955 350.250,291.900 359.600 L 291.800 376.600 274.636 376.704 C 262.776 376.776,257.306 376.946,256.936 377.253 C 256.199 377.865,256.147 400.387,256.880 401.120 C 257.238 401.478,261.636 401.600,274.200 401.600 C 286.764 401.600,291.162 401.722,291.520 402.080 C 291.878 402.438,292.000 406.836,292.000 419.400 C 292.000 431.964,292.122 436.362,292.480 436.720 C 292.831 437.071,296.036 437.200,304.400 437.200 C 312.764 437.200,315.969 437.071,316.320 436.720 C 316.678 436.362,316.800 431.964,316.800 419.400 C 316.800 406.836,316.922 402.438,317.280 402.080 C 317.638 401.722,322.088 401.600,334.837 401.600 C 350.040 401.600,351.941 401.531,352.157 400.967 C 352.647 399.691,352.428 377.788,351.920 377.280 C 351.562 376.922,347.102 376.800,334.320 376.800 C 324.904 376.800,317.160 376.755,317.111 376.700 C 317.062 376.645,316.927 368.770,316.811 359.200 L 316.600 341.800 304.490 341.694 C 295.015 341.611,292.338 341.698,292.190 342.094 M246.075 450.248 C 246.447 450.358,246.842 450.753,246.952 451.125 C 247.099 451.614,247.132 451.581,247.072 451.005 C 247.025 450.538,246.662 450.175,246.195 450.128 C 245.619 450.068,245.586 450.101,246.075 450.248 " stroke="none" fill="#ffffff" fill-rule="evenodd"></path><path id="path1" d="" stroke="none" fill="#0000ff" fill-rule="evenodd"></path><path id="path2" d="M258.098 63.300 L 258.200 109.800 304.700 109.902 L 351.200 110.003 351.200 108.802 C 351.200 107.795,351.042 107.600,350.227 107.600 C 349.614 107.600,349.162 107.312,349.006 106.820 C 348.870 106.392,348.428 105.936,348.023 105.807 C 347.618 105.679,347.194 105.219,347.081 104.787 C 346.967 104.354,346.588 104.000,346.237 104.000 C 345.887 104.000,345.600 103.726,345.600 103.390 C 345.600 103.055,345.175 102.618,344.655 102.421 C 344.135 102.223,343.612 101.688,343.492 101.231 C 343.373 100.774,342.988 100.400,342.637 100.400 C 342.287 100.400,342.000 100.126,342.000 99.790 C 342.000 99.455,341.550 99.009,341.000 98.800 C 340.450 98.591,340.000 98.157,340.000 97.837 C 340.000 97.516,339.659 97.146,339.243 97.014 C 338.827 96.882,338.394 96.419,338.281 95.987 C 338.167 95.554,337.800 95.200,337.464 95.200 C 337.129 95.200,336.740 94.840,336.600 94.400 C 336.460 93.960,336.084 93.600,335.763 93.600 C 335.443 93.600,335.009 93.150,334.800 92.600 C 334.591 92.050,334.145 91.600,333.810 91.600 C 333.474 91.600,333.200 91.326,333.200 90.990 C 333.200 90.655,332.750 90.209,332.200 90.000 C 331.650 89.791,331.200 89.328,331.200 88.972 C 331.200 88.616,330.840 88.231,330.400 88.116 C 329.960 88.001,329.600 87.653,329.600 87.343 C 329.600 87.034,329.150 86.609,328.600 86.400 C 328.050 86.191,327.600 85.757,327.600 85.437 C 327.600 85.116,327.259 84.746,326.843 84.614 C 326.427 84.482,325.994 84.019,325.881 83.587 C 325.767 83.154,325.400 82.800,325.064 82.800 C 324.729 82.800,324.340 82.440,324.200 82.000 C 324.060 81.560,323.684 81.200,323.363 81.200 C 323.043 81.200,322.609 80.750,322.400 80.200 C 322.191 79.650,321.745 79.200,321.410 79.200 C 321.074 79.200,320.800 78.926,320.800 78.590 C 320.800 78.255,320.350 77.809,319.800 77.600 C 319.250 77.391,318.800 76.957,318.800 76.637 C 318.800 76.316,318.459 75.946,318.043 75.814 C 317.627 75.682,317.194 75.219,317.081 74.787 C 316.967 74.354,316.600 74.000,316.264 74.000 C 315.929 74.000,315.543 73.649,315.406 73.220 C 315.270 72.792,314.828 72.336,314.423 72.207 C 314.018 72.079,313.594 71.619,313.481 71.187 C 313.367 70.754,313.000 70.400,312.664 70.400 C 312.329 70.400,311.940 70.040,311.800 69.600 C 311.660 69.160,311.284 68.800,310.963 68.800 C 310.643 68.800,310.209 68.350,310.000 67.800 C 309.791 67.250,309.345 66.800,309.010 66.800 C 308.674 66.800,308.400 66.526,308.400 66.190 C 308.400 65.855,307.950 65.409,307.400 65.200 C 306.850 64.991,306.400 64.557,306.400 64.237 C 306.400 63.916,306.059 63.546,305.643 63.414 C 305.227 63.282,304.794 62.819,304.681 62.387 C 304.567 61.954,304.200 61.600,303.864 61.600 C 303.529 61.600,303.140 61.240,303.000 60.800 C 302.860 60.360,302.484 60.000,302.163 60.000 C 301.843 60.000,301.409 59.550,301.200 59.000 C 300.991 58.450,300.557 58.000,300.237 58.000 C 299.916 58.000,299.540 57.640,299.400 57.200 C 299.260 56.760,298.884 56.400,298.563 56.400 C 298.243 56.400,297.809 55.950,297.600 55.400 C 297.391 54.850,296.945 54.400,296.610 54.400 C 296.274 54.400,296.000 54.126,296.000 53.790 C 296.000 53.455,295.550 53.009,295.000 52.800 C 294.450 52.591,294.000 52.157,294.000 51.837 C 294.000 51.516,293.659 51.146,293.243 51.014 C 292.827 50.882,292.394 50.419,292.281 49.987 C 292.167 49.554,291.800 49.200,291.464 49.200 C 291.129 49.200,290.740 48.840,290.600 48.400 C 290.460 47.960,290.084 47.600,289.763 47.600 C 289.443 47.600,289.009 47.150,288.800 46.600 C 288.591 46.050,288.157 45.600,287.837 45.600 C 287.516 45.600,287.140 45.240,287.000 44.800 C 286.860 44.360,286.484 44.000,286.163 44.000 C 285.843 44.000,285.409 43.550,285.200 43.000 C 284.991 42.450,284.545 42.000,284.210 42.000 C 283.874 42.000,283.600 41.726,283.600 41.390 C 283.600 41.055,283.150 40.609,282.600 40.400 C 282.050 40.191,281.600 39.757,281.600 39.437 C 281.600 39.116,281.259 38.746,280.843 38.614 C 280.427 38.482,279.994 38.019,279.881 37.587 C 279.767 37.154,279.400 36.800,279.064 36.800 C 278.729 36.800,278.340 36.440,278.200 36.000 C 278.060 35.560,277.684 35.200,277.363 35.200 C 277.043 35.200,276.609 34.750,276.400 34.200 C 276.191 33.650,275.757 33.200,275.437 33.200 C 275.116 33.200,274.746 32.859,274.614 32.443 C 274.482 32.027,274.019 31.594,273.587 31.481 C 273.154 31.367,272.800 31.000,272.800 30.664 C 272.800 30.329,272.440 29.940,272.000 29.800 C 271.560 29.660,271.200 29.284,271.200 28.963 C 271.200 28.643,270.750 28.209,270.200 28.000 C 269.650 27.791,269.200 27.357,269.200 27.037 C 269.200 26.716,268.859 26.346,268.443 26.214 C 268.027 26.082,267.594 25.619,267.481 25.187 C 267.367 24.754,267.000 24.400,266.664 24.400 C 266.329 24.400,265.940 24.040,265.800 23.600 C 265.660 23.160,265.284 22.800,264.963 22.800 C 264.643 22.800,264.209 22.350,264.000 21.800 C 263.791 21.250,263.345 20.800,263.010 20.800 C 262.674 20.800,262.400 20.526,262.400 20.190 C 262.400 19.855,261.950 19.409,261.400 19.200 C 260.698 18.933,260.400 18.519,260.400 17.810 C 260.400 16.954,260.217 16.800,259.198 16.800 L 257.997 16.800 258.098 63.300 M17.680 17.680 C 16.720 18.640,17.014 470.272,17.975 470.787 C 19.545 471.627,233.228 471.136,233.756 470.291 C 234.129 469.695,233.908 469.311,232.374 467.891 C 231.370 466.961,230.431 465.885,230.287 465.500 C 230.143 465.115,229.749 464.800,229.413 464.800 C 229.076 464.800,228.800 464.526,228.800 464.190 C 228.800 463.855,228.375 463.418,227.855 463.221 C 227.335 463.023,226.812 462.488,226.692 462.031 C 226.573 461.574,226.188 461.200,225.837 461.200 C 225.487 461.200,225.200 461.035,225.200 460.833 C 225.200 460.631,224.508 459.745,223.662 458.864 C 222.815 457.983,221.899 456.722,221.625 456.060 C 221.351 455.399,220.873 454.760,220.563 454.641 C 220.254 454.522,220.000 454.240,220.000 454.013 C 220.000 453.786,219.269 452.848,218.375 451.927 C 217.482 451.006,216.647 449.734,216.520 449.099 C 216.393 448.465,215.864 447.667,215.345 447.327 C 214.825 446.987,214.400 446.549,214.400 446.354 C 214.400 446.159,214.040 445.640,213.600 445.200 C 213.160 444.760,212.800 443.881,212.800 443.247 C 212.800 442.461,212.564 442.032,212.060 441.900 C 211.557 441.768,211.237 441.190,211.062 440.100 C 210.879 438.956,210.575 438.434,210.003 438.285 C 209.418 438.132,209.200 437.740,209.200 436.841 C 209.200 436.040,208.919 435.431,208.400 435.107 C 207.924 434.810,207.600 434.174,207.600 433.536 C 207.600 432.090,207.221 431.200,206.604 431.200 C 205.972 431.200,205.609 429.455,205.886 427.748 C 206.067 426.634,205.971 426.451,205.147 426.334 C 204.266 426.209,204.200 426.026,204.204 423.700 C 204.208 421.338,204.156 421.200,203.263 421.200 C 202.343 421.200,202.321 421.121,202.459 418.307 C 202.587 415.673,202.528 415.400,201.800 415.261 C 200.503 415.012,200.357 414.402,200.626 410.333 C 200.880 406.493,200.875 406.465,199.941 406.333 L 199.000 406.200 199.000 390.000 C 199.000 374.069,199.013 373.800,199.800 373.792 C 200.548 373.785,200.593 373.553,200.488 370.192 C 200.349 365.760,200.541 364.892,201.700 364.728 C 202.553 364.607,202.592 364.451,202.462 361.672 C 202.338 358.999,202.397 358.726,203.144 358.531 C 203.827 358.352,203.982 357.943,204.081 356.058 C 204.187 354.041,204.299 353.786,205.130 353.668 C 205.975 353.549,206.036 353.395,205.797 351.985 C 205.492 350.174,205.831 348.800,206.584 348.800 C 207.202 348.800,207.600 347.931,207.600 346.581 C 207.600 346.038,207.944 345.444,208.400 345.200 C 208.970 344.895,209.200 344.362,209.200 343.348 C 209.200 342.279,209.392 341.875,209.971 341.723 C 210.496 341.586,210.825 341.034,211.000 340.000 C 211.175 338.966,211.504 338.414,212.029 338.277 C 212.537 338.144,212.800 337.726,212.800 337.053 C 212.800 336.491,213.138 335.709,213.550 335.316 C 213.963 334.922,214.425 334.195,214.577 333.700 C 214.729 333.205,215.104 332.800,215.409 332.800 C 215.729 332.800,216.078 332.193,216.232 331.368 C 216.380 330.581,216.762 329.836,217.081 329.714 C 217.400 329.591,217.823 329.065,218.021 328.545 C 218.218 328.025,218.610 327.593,218.890 327.585 C 219.400 327.571,221.600 324.432,221.600 323.720 C 221.600 323.211,225.864 318.800,226.356 318.800 C 226.570 318.800,226.860 318.440,227.000 318.000 C 227.140 317.560,227.516 317.200,227.837 317.200 C 228.157 317.200,228.591 316.750,228.800 316.200 C 229.009 315.650,229.455 315.200,229.790 315.200 C 230.126 315.200,230.400 314.926,230.400 314.590 C 230.400 314.255,230.850 313.809,231.400 313.600 C 231.950 313.391,232.400 313.044,232.400 312.829 C 232.400 312.125,236.406 308.414,237.448 308.152 C 238.007 308.012,238.555 307.663,238.664 307.376 C 238.774 307.090,239.390 306.673,240.032 306.449 C 240.674 306.225,241.200 305.762,241.200 305.421 C 241.200 305.057,241.547 304.800,242.037 304.800 C 242.530 304.800,242.959 304.480,243.078 304.023 C 243.194 303.580,243.762 303.140,244.399 303.000 C 245.014 302.865,245.834 302.405,246.221 301.977 C 246.607 301.550,247.235 301.200,247.615 301.200 C 247.996 301.200,248.394 300.864,248.502 300.454 C 248.626 299.980,249.210 299.612,250.104 299.444 C 251.034 299.270,251.582 298.912,251.718 298.390 C 251.868 297.819,252.267 297.600,253.159 297.600 C 253.960 297.600,254.569 297.319,254.893 296.800 C 255.200 296.309,255.826 296.000,256.515 296.000 C 257.199 296.000,258.000 295.609,258.565 295.000 C 259.170 294.348,259.923 294.000,260.732 294.000 C 261.588 294.000,262.113 293.736,262.428 293.148 C 262.830 292.397,263.130 292.322,264.987 292.514 C 266.940 292.715,267.087 292.670,267.045 291.884 C 266.988 290.820,269.136 290.261,271.178 290.809 C 271.935 291.012,272.640 291.093,272.744 290.989 C 272.848 290.885,272.723 290.800,272.467 290.800 C 271.665 290.800,271.958 289.267,272.812 288.996 C 273.258 288.855,274.788 288.864,276.212 289.016 L 278.800 289.293 278.800 288.208 L 278.800 287.122 283.100 287.261 C 287.303 287.397,287.403 287.380,287.528 286.500 C 287.600 285.990,287.947 285.587,288.328 285.570 C 289.280 285.528,318.011 285.524,319.100 285.566 C 319.783 285.592,320.000 285.840,320.000 286.595 L 320.000 287.590 324.300 287.495 C 328.468 287.403,328.604 287.427,328.726 288.286 C 328.843 289.109,329.040 289.165,331.526 289.086 C 334.157 289.001,334.200 289.017,334.190 290.030 C 334.179 291.060,334.181 291.061,337.090 290.882 C 339.961 290.706,340.000 290.717,340.000 291.685 C 340.000 292.627,340.085 292.659,342.161 292.487 C 344.035 292.331,344.381 292.417,344.762 293.130 C 345.062 293.689,345.682 293.992,346.701 294.076 C 348.011 294.184,348.216 294.342,348.329 295.324 C 348.439 296.282,348.616 296.429,349.529 296.324 L 350.600 296.200 350.703 212.000 C 350.799 133.192,350.762 127.768,350.126 127.300 C 349.591 126.906,337.994 126.800,295.324 126.800 L 241.200 126.800 241.200 72.480 C 241.200 30.764,241.089 18.049,240.720 17.680 C 240.021 16.981,18.379 16.981,17.680 17.680 M289.057 307.122 C 289.680 307.211,289.859 307.453,289.714 308.009 C 289.430 309.093,288.328 309.325,284.951 309.008 L 282.000 308.732 282.000 309.806 L 282.000 310.881 279.029 310.734 C 276.499 310.610,276.128 310.672,276.529 311.155 C 277.360 312.157,276.447 312.724,273.927 312.772 C 272.820 312.793,272.391 312.999,272.200 313.600 C 272.001 314.225,271.595 314.400,270.336 314.400 C 269.081 314.400,268.680 314.571,268.523 315.171 C 268.384 315.705,267.826 316.027,266.712 316.215 C 265.612 316.401,265.040 316.726,264.905 317.243 C 264.774 317.742,264.347 318.002,263.653 318.006 C 262.401 318.013,261.833 318.352,261.483 319.300 C 261.341 319.685,260.881 320.000,260.462 320.000 C 260.042 320.000,259.480 320.263,259.213 320.585 C 258.946 320.906,258.342 321.291,257.871 321.441 C 257.400 321.591,256.291 322.474,255.407 323.403 C 254.523 324.333,253.419 325.212,252.953 325.357 C 252.487 325.502,251.784 325.976,251.391 326.410 C 250.998 326.845,250.524 327.200,250.338 327.200 C 250.151 327.200,249.300 327.920,248.446 328.800 C 247.592 329.680,246.688 330.400,246.437 330.400 C 246.186 330.400,245.809 330.850,245.600 331.400 C 245.391 331.950,244.945 332.400,244.610 332.400 C 244.274 332.400,244.000 332.637,244.000 332.927 C 244.000 333.217,243.353 334.162,242.563 335.027 C 241.772 335.892,240.870 337.185,240.557 337.900 C 240.245 338.615,239.717 339.200,239.385 339.200 C 239.052 339.200,238.609 339.650,238.400 340.200 C 238.191 340.750,237.838 341.200,237.615 341.200 C 237.393 341.200,236.927 341.785,236.580 342.500 C 234.915 345.931,234.610 346.406,233.930 346.622 C 233.405 346.789,233.200 347.250,233.200 348.264 C 233.200 349.340,233.009 349.725,232.397 349.885 C 231.835 350.032,231.521 350.550,231.352 351.613 C 231.188 352.636,230.863 353.195,230.354 353.328 C 229.773 353.480,229.600 353.894,229.600 355.136 C 229.600 356.395,229.425 356.801,228.800 357.000 C 228.223 357.183,227.998 357.608,227.995 358.527 C 227.985 360.787,227.576 361.689,226.644 361.510 C 225.855 361.359,225.800 361.519,225.800 363.974 C 225.800 366.432,225.739 366.609,224.852 366.734 C 223.929 366.865,223.911 366.942,224.171 369.587 C 224.511 373.039,224.196 374.400,223.057 374.400 L 222.200 374.400 222.200 389.200 L 222.200 404.000 223.057 404.000 C 224.205 404.000,224.496 405.311,224.162 408.992 C 223.901 411.871,223.915 411.933,224.848 412.065 C 225.710 412.187,225.811 412.421,225.921 414.543 C 226.019 416.428,226.188 416.924,226.784 417.080 C 227.580 417.288,227.986 418.313,227.995 420.137 C 227.998 420.936,228.239 421.337,228.800 421.484 C 229.431 421.649,229.600 422.030,229.600 423.284 C 229.600 424.506,229.775 424.921,230.354 425.072 C 230.873 425.208,231.189 425.772,231.366 426.875 C 231.547 428.008,231.855 428.542,232.411 428.687 C 233.005 428.842,233.200 429.236,233.200 430.284 C 233.200 431.331,233.395 431.726,233.987 431.881 C 234.419 431.994,234.894 432.472,235.042 432.943 C 235.189 433.414,235.645 434.229,236.055 434.754 C 236.465 435.279,236.800 436.031,236.800 436.427 C 236.800 436.822,237.141 437.254,237.557 437.386 C 237.973 437.518,238.406 437.981,238.519 438.413 C 238.633 438.846,239.009 439.200,239.355 439.200 C 239.701 439.200,240.093 439.633,240.226 440.162 C 240.359 440.691,240.902 441.533,241.434 442.032 C 241.965 442.531,242.400 443.135,242.400 443.374 C 242.400 443.612,242.760 444.032,243.200 444.307 C 243.640 444.582,244.000 445.075,244.000 445.403 C 244.000 445.732,244.287 446.000,244.637 446.000 C 244.988 446.000,245.373 446.374,245.492 446.831 C 245.612 447.288,246.135 447.823,246.655 448.021 C 247.175 448.218,247.600 448.655,247.600 448.990 C 247.600 449.326,247.838 449.600,248.128 449.600 C 248.418 449.600,249.026 450.005,249.479 450.500 C 249.932 450.995,251.221 451.940,252.344 452.600 C 253.551 453.310,254.388 454.086,254.392 454.500 C 254.397 454.941,254.709 455.200,255.237 455.200 C 255.738 455.200,256.159 455.521,256.284 456.000 C 256.399 456.440,256.797 456.800,257.169 456.800 C 257.541 456.800,258.455 457.250,259.200 457.800 C 259.945 458.350,260.769 458.800,261.031 458.800 C 261.293 458.800,261.601 459.160,261.716 459.600 C 261.874 460.204,262.262 460.400,263.298 460.400 C 264.375 460.400,264.770 460.616,265.127 461.400 C 265.483 462.182,265.880 462.400,266.945 462.400 C 267.970 462.400,268.358 462.598,268.516 463.200 C 268.681 463.831,269.062 464.000,270.316 464.000 C 271.539 464.000,271.952 464.175,272.104 464.756 C 272.252 465.320,272.821 465.583,274.351 465.793 C 276.111 466.035,276.400 466.199,276.400 466.956 C 276.400 467.791,276.537 467.829,278.988 467.673 C 281.487 467.514,281.592 467.546,282.074 468.602 C 282.554 469.657,282.655 469.687,284.873 469.455 C 288.009 469.128,289.525 469.472,289.678 470.546 L 289.800 471.400 304.400 471.400 L 319.000 471.400 319.122 470.546 C 319.278 469.450,320.711 469.151,324.283 469.469 C 325.777 469.603,326.871 469.573,326.714 469.403 C 325.723 468.334,327.311 467.500,329.975 467.691 C 332.594 467.878,332.662 467.859,332.495 466.985 C 332.340 466.174,332.524 466.058,334.368 465.804 C 335.773 465.611,336.540 465.285,336.821 464.762 C 337.104 464.232,337.661 464.000,338.652 464.000 C 339.738 464.000,340.124 463.811,340.284 463.200 C 340.433 462.630,340.830 462.400,341.666 462.400 C 342.403 462.400,343.183 462.028,343.765 461.400 C 344.317 460.804,345.133 460.400,345.783 460.400 C 346.538 460.400,346.939 460.153,347.084 459.600 C 347.199 459.160,347.507 458.800,347.769 458.800 C 348.031 458.800,348.855 458.350,349.600 457.800 C 350.345 457.250,351.280 456.800,351.678 456.800 C 352.075 456.800,352.400 456.526,352.400 456.190 C 352.400 455.855,352.850 455.409,353.400 455.200 C 353.950 454.991,354.400 454.557,354.400 454.237 C 354.400 453.916,354.805 453.527,355.300 453.372 C 356.217 453.085,357.950 451.833,359.414 450.398 C 359.862 449.959,360.447 449.600,360.714 449.600 C 360.981 449.600,361.200 449.326,361.200 448.990 C 361.200 448.655,361.625 448.218,362.145 448.021 C 362.665 447.823,363.188 447.288,363.308 446.831 C 363.427 446.374,363.812 446.000,364.163 446.000 C 364.513 446.000,364.800 445.804,364.800 445.564 C 364.800 445.324,365.587 444.199,366.550 443.064 C 367.512 441.929,368.424 440.595,368.577 440.100 C 368.729 439.605,369.116 439.200,369.437 439.200 C 369.757 439.200,370.191 438.750,370.400 438.200 C 370.609 437.650,371.035 437.200,371.347 437.200 C 371.658 437.200,372.034 436.719,372.181 436.132 C 372.329 435.544,372.798 434.620,373.225 434.078 C 373.651 433.536,374.000 432.867,374.000 432.593 C 374.000 432.318,374.360 431.999,374.800 431.884 C 375.353 431.739,375.600 431.338,375.600 430.583 C 375.600 429.933,376.004 429.117,376.600 428.565 C 377.228 427.983,377.600 427.203,377.600 426.466 C 377.600 425.630,377.830 425.233,378.400 425.084 C 379.011 424.924,379.200 424.538,379.200 423.452 C 379.200 422.438,379.430 421.905,380.000 421.600 C 380.496 421.335,380.802 420.759,380.805 420.086 C 380.814 418.311,381.227 417.286,382.016 417.080 C 382.612 416.924,382.781 416.428,382.879 414.543 C 382.989 412.419,383.089 412.187,383.954 412.065 C 384.882 411.934,384.901 411.856,384.655 409.209 C 384.326 405.669,384.645 404.080,385.715 403.922 C 386.530 403.801,386.540 403.626,386.570 389.100 L 386.600 374.400 385.750 374.400 C 384.658 374.400,384.342 372.942,384.671 369.417 C 384.903 366.938,384.871 366.800,384.065 366.800 C 383.029 366.800,382.619 365.484,382.894 363.042 C 383.074 361.450,383.026 361.344,382.201 361.502 C 381.285 361.677,380.800 360.526,380.800 358.177 C 380.800 357.605,380.496 357.157,380.000 357.000 C 379.375 356.801,379.200 356.395,379.200 355.136 C 379.200 353.862,379.033 353.481,378.400 353.316 C 377.797 353.158,377.600 352.770,377.600 351.743 C 377.600 350.657,377.397 350.303,376.600 350.000 C 375.788 349.691,375.600 349.348,375.600 348.172 C 375.600 347.062,375.414 346.676,374.800 346.516 C 374.360 346.401,374.000 346.093,374.000 345.831 C 374.000 345.569,373.550 344.745,373.000 344.000 C 372.450 343.255,372.000 342.320,372.000 341.922 C 372.000 341.525,371.726 341.200,371.390 341.200 C 371.055 341.200,370.609 340.750,370.400 340.200 C 370.191 339.650,369.757 339.200,369.437 339.200 C 369.116 339.200,368.726 338.795,368.570 338.300 C 368.414 337.805,367.502 336.481,366.543 335.357 C 365.584 334.233,364.800 333.108,364.800 332.857 C 364.800 332.606,364.513 332.400,364.163 332.400 C 363.812 332.400,363.427 332.026,363.308 331.569 C 363.188 331.112,362.665 330.577,362.145 330.379 C 361.625 330.182,361.200 329.745,361.200 329.410 C 361.200 329.074,360.932 328.800,360.603 328.800 C 360.275 328.800,359.782 328.440,359.507 328.000 C 359.232 327.560,358.809 327.200,358.566 327.200 C 358.323 327.200,357.802 326.845,357.409 326.410 C 357.016 325.976,356.326 325.504,355.877 325.361 C 354.875 325.043,352.400 322.692,352.400 322.060 C 352.400 321.807,352.064 321.600,351.654 321.600 C 351.244 321.600,350.479 321.265,349.954 320.855 C 349.429 320.445,348.614 319.989,348.143 319.842 C 347.672 319.694,347.194 319.219,347.081 318.787 C 346.926 318.195,346.531 318.000,345.484 318.000 C 344.456 318.000,344.042 317.803,343.895 317.243 C 343.760 316.726,343.188 316.401,342.088 316.215 C 340.974 316.027,340.416 315.705,340.277 315.171 C 340.120 314.573,339.719 314.400,338.484 314.400 C 337.230 314.400,336.849 314.231,336.684 313.600 C 336.521 312.977,336.136 312.799,334.937 312.794 C 333.035 312.786,332.226 312.308,332.480 311.341 C 332.656 310.668,332.397 310.600,329.637 310.600 C 326.692 310.600,326.603 310.572,326.701 309.666 C 326.802 308.740,326.775 308.734,323.850 309.008 C 322.226 309.160,320.516 309.164,320.049 309.015 C 319.041 308.696,318.911 307.314,319.872 307.129 C 320.241 307.058,313.266 307.000,304.372 307.000 C 295.477 307.000,288.586 307.055,289.057 307.122 M318.347 340.136 C 318.654 340.506,318.824 345.976,318.896 357.836 L 319.000 375.000 336.400 375.200 L 353.800 375.400 353.905 388.953 C 353.981 398.621,353.881 402.662,353.556 403.053 C 353.185 403.500,349.977 403.600,335.951 403.600 L 318.800 403.600 318.800 420.751 C 318.800 434.777,318.700 437.985,318.253 438.356 C 317.862 438.681,313.821 438.781,304.153 438.705 L 290.600 438.600 290.389 421.200 C 290.273 411.630,290.138 403.755,290.089 403.700 C 290.040 403.645,282.282 403.600,272.849 403.600 C 258.823 403.600,255.615 403.500,255.244 403.053 C 254.919 402.662,254.819 398.621,254.895 388.953 L 255.000 375.400 272.164 375.296 C 284.024 375.224,289.494 375.054,289.864 374.747 C 290.297 374.388,290.400 371.005,290.400 357.218 C 290.400 347.821,290.520 340.013,290.667 339.867 C 291.229 339.305,317.872 339.564,318.347 340.136 " stroke="none" fill="#146bb7" fill-rule="evenodd"></path><path id="path3" d="M15.467 15.466 C 15.320 15.613,15.200 118.663,15.200 244.467 L 15.200 473.200 125.575 473.200 L 235.951 473.200 236.214 471.445 C 236.431 469.999,236.390 468.983,236.015 466.500 C 236.007 466.445,235.660 466.400,235.243 466.400 C 234.770 466.400,234.393 466.026,234.236 465.400 C 234.021 464.543,233.757 464.400,232.392 464.400 C 231.067 464.400,230.800 464.266,230.800 463.600 C 230.800 463.067,230.533 462.800,230.000 462.800 C 229.476 462.800,229.200 462.533,229.200 462.028 C 229.200 461.532,228.878 461.210,228.300 461.128 C 227.552 461.022,227.379 460.713,227.277 459.300 C 227.178 457.926,227.005 457.600,226.377 457.600 C 225.876 457.600,225.600 457.326,225.600 456.827 C 225.600 456.402,225.249 455.943,224.820 455.806 C 224.392 455.670,223.930 455.208,223.794 454.780 C 223.657 454.351,223.198 454.000,222.773 454.000 C 222.276 454.000,222.000 453.724,222.000 453.227 C 222.000 452.802,221.640 452.340,221.200 452.200 C 220.699 452.041,220.400 451.595,220.400 451.006 C 220.400 449.541,219.983 448.800,219.157 448.800 C 218.655 448.800,218.400 448.518,218.400 447.963 C 218.400 447.462,218.079 447.041,217.600 446.916 C 217.040 446.769,216.800 446.370,216.800 445.586 C 216.800 443.944,216.412 443.200,215.557 443.200 C 215.067 443.200,214.800 442.918,214.800 442.400 C 214.800 441.867,214.533 441.600,214.000 441.600 C 213.330 441.600,213.200 441.333,213.200 439.963 C 213.200 438.662,213.036 438.282,212.400 438.116 C 211.840 437.969,211.600 437.570,211.600 436.786 C 211.600 435.144,211.212 434.400,210.357 434.400 C 209.743 434.400,209.600 434.104,209.600 432.827 C 209.600 431.605,209.421 431.197,208.800 431.000 C 208.217 430.815,208.000 430.395,208.000 429.453 C 208.000 427.396,206.328 426.302,205.869 428.059 C 205.551 429.274,206.004 431.200,206.607 431.200 C 207.221 431.200,207.600 432.092,207.600 433.536 C 207.600 434.174,207.924 434.810,208.400 435.107 C 208.919 435.431,209.200 436.040,209.200 436.841 C 209.200 437.740,209.418 438.132,210.003 438.285 C 210.575 438.434,210.879 438.956,211.062 440.100 C 211.237 441.190,211.557 441.768,212.060 441.900 C 212.564 442.032,212.800 442.461,212.800 443.247 C 212.800 443.881,213.160 444.760,213.600 445.200 C 214.040 445.640,214.400 446.159,214.400 446.354 C 214.400 446.549,214.825 446.987,215.345 447.327 C 215.864 447.667,216.393 448.465,216.520 449.099 C 216.647 449.734,217.482 451.006,218.375 451.927 C 219.269 452.848,220.000 453.786,220.000 454.013 C 220.000 454.240,220.254 454.522,220.563 454.641 C 220.873 454.760,221.351 455.399,221.625 456.060 C 221.899 456.722,222.815 457.983,223.662 458.864 C 224.508 459.745,225.200 460.631,225.200 460.833 C 225.200 461.035,225.487 461.200,225.837 461.200 C 226.188 461.200,226.573 461.574,226.692 462.031 C 226.812 462.488,227.335 463.023,227.855 463.221 C 228.375 463.418,228.800 463.855,228.800 464.190 C 228.800 464.526,229.076 464.800,229.413 464.800 C 229.749 464.800,230.143 465.115,230.287 465.500 C 230.431 465.885,231.370 466.961,232.374 467.891 C 233.908 469.311,234.129 469.695,233.756 470.291 C 233.228 471.136,19.545 471.627,17.975 470.787 C 17.014 470.272,16.720 18.640,17.680 17.680 C 18.379 16.981,240.021 16.981,240.720 17.680 C 241.089 18.049,241.200 30.764,241.200 72.480 L 241.200 126.800 295.324 126.800 C 337.993 126.800,349.591 126.906,350.127 127.300 C 350.763 127.768,350.800 133.165,350.703 212.117 L 350.600 296.434 351.600 296.317 L 352.600 296.200 352.800 211.000 C 352.913 162.780,352.849 125.583,352.651 125.300 C 352.375 124.904,340.939 124.800,297.752 124.800 L 243.203 124.800 243.101 70.100 L 243.000 15.400 129.367 15.299 C 66.869 15.244,15.614 15.319,15.467 15.466 M256.185 17.300 C 256.080 17.575,256.040 39.040,256.097 65.000 L 256.200 112.200 303.600 112.200 L 351.000 112.200 351.126 111.102 L 351.253 110.003 304.726 109.902 L 258.200 109.800 258.098 63.300 C 257.997 16.892,257.995 16.800,257.186 16.800 C 256.740 16.800,256.289 17.025,256.185 17.300 M260.400 17.810 C 260.400 18.519,260.698 18.933,261.400 19.200 C 261.950 19.409,262.400 19.855,262.400 20.190 C 262.400 20.526,262.674 20.800,263.010 20.800 C 263.345 20.800,263.791 21.250,264.000 21.800 C 264.209 22.350,264.643 22.800,264.963 22.800 C 265.284 22.800,265.660 23.160,265.800 23.600 C 265.940 24.040,266.329 24.400,266.664 24.400 C 267.000 24.400,267.367 24.754,267.481 25.187 C 267.594 25.619,268.027 26.082,268.443 26.214 C 268.859 26.346,269.200 26.716,269.200 27.037 C 269.200 27.357,269.650 27.791,270.200 28.000 C 270.750 28.209,271.200 28.643,271.200 28.963 C 271.200 29.284,271.541 29.654,271.957 29.786 C 272.373 29.918,272.806 30.381,272.919 30.813 C 273.033 31.246,273.400 31.600,273.736 31.600 C 274.071 31.600,274.460 31.960,274.600 32.400 C 274.740 32.840,275.116 33.200,275.437 33.200 C 275.757 33.200,276.191 33.650,276.400 34.200 C 276.609 34.750,277.043 35.200,277.363 35.200 C 277.684 35.200,278.054 35.541,278.186 35.957 C 278.318 36.373,278.781 36.806,279.213 36.919 C 279.646 37.033,280.000 37.400,280.000 37.736 C 280.000 38.071,280.360 38.460,280.800 38.600 C 281.240 38.740,281.600 39.116,281.600 39.437 C 281.600 39.757,282.050 40.191,282.600 40.400 C 283.150 40.609,283.600 41.055,283.600 41.390 C 283.600 41.726,283.874 42.000,284.210 42.000 C 284.545 42.000,284.991 42.450,285.200 43.000 C 285.409 43.550,285.843 44.000,286.163 44.000 C 286.484 44.000,286.860 44.360,287.000 44.800 C 287.140 45.240,287.516 45.600,287.837 45.600 C 288.157 45.600,288.591 46.050,288.800 46.600 C 289.009 47.150,289.443 47.600,289.763 47.600 C 290.084 47.600,290.454 47.941,290.586 48.357 C 290.718 48.773,291.181 49.206,291.613 49.319 C 292.046 49.433,292.400 49.800,292.400 50.136 C 292.400 50.471,292.760 50.860,293.200 51.000 C 293.640 51.140,294.000 51.516,294.000 51.837 C 294.000 52.157,294.450 52.591,295.000 52.800 C 295.550 53.009,296.000 53.455,296.000 53.790 C 296.000 54.126,296.274 54.400,296.610 54.400 C 296.945 54.400,297.391 54.850,297.600 55.400 C 297.809 55.950,298.243 56.400,298.563 56.400 C 298.884 56.400,299.260 56.760,299.400 57.200 C 299.540 57.640,299.916 58.000,300.237 58.000 C 300.557 58.000,300.991 58.450,301.200 59.000 C 301.409 59.550,301.843 60.000,302.163 60.000 C 302.484 60.000,302.854 60.341,302.986 60.757 C 303.118 61.173,303.581 61.606,304.013 61.719 C 304.446 61.833,304.800 62.200,304.800 62.536 C 304.800 62.871,305.160 63.260,305.600 63.400 C 306.040 63.540,306.400 63.916,306.400 64.237 C 306.400 64.557,306.850 64.991,307.400 65.200 C 307.950 65.409,308.400 65.855,308.400 66.190 C 308.400 66.526,308.674 66.800,309.010 66.800 C 309.345 66.800,309.791 67.250,310.000 67.800 C 310.209 68.350,310.643 68.800,310.963 68.800 C 311.284 68.800,311.654 69.141,311.786 69.557 C 311.918 69.973,312.381 70.406,312.813 70.519 C 313.246 70.633,313.600 71.000,313.600 71.336 C 313.600 71.671,313.951 72.057,314.380 72.194 C 314.808 72.330,315.264 72.772,315.393 73.177 C 315.521 73.582,315.981 74.006,316.413 74.119 C 316.846 74.233,317.200 74.600,317.200 74.936 C 317.200 75.271,317.560 75.660,318.000 75.800 C 318.440 75.940,318.800 76.316,318.800 76.637 C 318.800 76.957,319.250 77.391,319.800 77.600 C 320.350 77.809,320.800 78.255,320.800 78.590 C 320.800 78.926,321.074 79.200,321.410 79.200 C 321.745 79.200,322.191 79.650,322.400 80.200 C 322.609 80.750,323.043 81.200,323.363 81.200 C 323.684 81.200,324.054 81.541,324.186 81.957 C 324.318 82.373,324.781 82.806,325.213 82.919 C 325.646 83.033,326.000 83.400,326.000 83.736 C 326.000 84.071,326.360 84.460,326.800 84.600 C 327.240 84.740,327.600 85.116,327.600 85.437 C 327.600 85.757,328.050 86.191,328.600 86.400 C 329.150 86.609,329.600 87.034,329.600 87.343 C 329.600 87.653,329.960 88.001,330.400 88.116 C 330.840 88.231,331.200 88.616,331.200 88.972 C 331.200 89.328,331.650 89.791,332.200 90.000 C 332.750 90.209,333.200 90.655,333.200 90.990 C 333.200 91.326,333.474 91.600,333.810 91.600 C 334.145 91.600,334.591 92.050,334.800 92.600 C 335.009 93.150,335.443 93.600,335.763 93.600 C 336.084 93.600,336.454 93.941,336.586 94.357 C 336.718 94.773,337.181 95.206,337.613 95.319 C 338.046 95.433,338.400 95.800,338.400 96.136 C 338.400 96.471,338.760 96.860,339.200 97.000 C 339.640 97.140,340.000 97.516,340.000 97.837 C 340.000 98.157,340.450 98.591,341.000 98.800 C 341.550 99.009,342.000 99.455,342.000 99.790 C 342.000 100.126,342.274 100.400,342.610 100.400 C 342.945 100.400,343.382 100.825,343.579 101.345 C 343.777 101.865,344.312 102.388,344.769 102.508 C 345.226 102.627,345.600 102.991,345.600 103.316 C 345.600 103.641,345.960 104.001,346.400 104.116 C 346.840 104.231,347.200 104.600,347.200 104.936 C 347.200 105.271,347.551 105.657,347.980 105.794 C 348.408 105.930,348.870 106.392,349.006 106.820 C 349.162 107.312,349.614 107.600,350.227 107.600 C 351.492 107.600,351.634 105.792,350.400 105.400 C 349.960 105.260,349.600 104.892,349.600 104.581 C 349.600 104.270,349.150 103.902,348.600 103.764 C 347.974 103.607,347.600 103.230,347.600 102.757 C 347.600 102.340,347.326 102.000,346.990 102.000 C 346.655 102.000,346.209 101.550,346.000 101.000 C 345.767 100.388,345.306 100.000,344.810 100.000 C 344.267 100.000,344.000 99.737,344.000 99.200 C 344.000 98.667,343.733 98.400,343.200 98.400 C 342.690 98.400,342.400 98.133,342.400 97.664 C 342.400 97.260,341.950 96.723,341.400 96.473 C 340.850 96.222,340.400 95.743,340.400 95.409 C 340.400 95.067,340.049 94.800,339.600 94.800 C 339.067 94.800,338.800 94.533,338.800 94.000 C 338.800 93.550,338.533 93.200,338.190 93.200 C 337.855 93.200,337.409 92.750,337.200 92.200 C 336.967 91.588,336.506 91.200,336.010 91.200 C 335.467 91.200,335.200 90.937,335.200 90.400 C 335.200 89.876,334.933 89.600,334.428 89.600 C 333.932 89.600,333.610 89.278,333.528 88.700 C 333.446 88.122,333.078 87.754,332.500 87.672 C 331.922 87.590,331.600 87.268,331.600 86.772 C 331.600 86.267,331.324 86.000,330.800 86.000 C 330.255 86.000,330.000 85.733,330.000 85.163 C 330.000 84.666,329.680 84.241,329.213 84.119 C 328.781 84.006,328.318 83.573,328.186 83.157 C 328.054 82.741,327.598 82.400,327.173 82.400 C 326.676 82.400,326.400 82.124,326.400 81.627 C 326.400 81.202,326.049 80.743,325.620 80.606 C 325.192 80.470,324.730 80.008,324.594 79.580 C 324.457 79.151,323.998 78.800,323.573 78.800 C 323.067 78.800,322.800 78.524,322.800 78.000 C 322.800 77.467,322.533 77.200,322.000 77.200 C 321.490 77.200,321.200 76.933,321.200 76.464 C 321.200 76.060,320.750 75.523,320.200 75.273 C 319.650 75.022,319.200 74.543,319.200 74.209 C 319.200 73.867,318.849 73.600,318.400 73.600 C 317.855 73.600,317.600 73.333,317.600 72.763 C 317.600 72.262,317.279 71.841,316.800 71.716 C 316.360 71.601,316.000 71.261,316.000 70.961 C 316.000 70.661,315.550 70.302,315.000 70.164 C 314.391 70.011,314.000 69.628,314.000 69.184 C 314.000 68.782,313.649 68.343,313.220 68.206 C 312.792 68.070,312.330 67.608,312.194 67.180 C 312.057 66.751,311.598 66.400,311.173 66.400 C 310.667 66.400,310.400 66.124,310.400 65.600 C 310.400 65.067,310.133 64.800,309.600 64.800 C 309.076 64.800,308.800 64.533,308.800 64.027 C 308.800 63.602,308.449 63.143,308.020 63.006 C 307.592 62.870,307.130 62.408,306.994 61.980 C 306.857 61.551,306.398 61.200,305.973 61.200 C 305.548 61.200,305.200 60.940,305.200 60.623 C 305.200 60.305,304.873 59.810,304.474 59.523 C 304.074 59.235,303.630 58.685,303.486 58.300 C 303.343 57.915,302.859 57.600,302.413 57.600 C 301.867 57.600,301.600 57.337,301.600 56.800 C 301.600 56.351,301.333 56.000,300.991 56.000 C 300.657 56.000,300.178 55.550,299.927 55.000 C 299.677 54.450,299.140 54.000,298.736 54.000 C 298.267 54.000,298.000 53.710,298.000 53.200 C 298.000 52.667,297.733 52.400,297.200 52.400 C 296.655 52.400,296.400 52.133,296.400 51.563 C 296.400 51.066,296.080 50.641,295.613 50.519 C 295.181 50.406,294.718 49.973,294.586 49.557 C 294.454 49.141,293.998 48.800,293.573 48.800 C 293.148 48.800,292.800 48.551,292.800 48.246 C 292.800 47.941,292.351 47.398,291.803 47.038 C 291.254 46.679,290.849 46.168,290.903 45.902 C 290.956 45.636,290.595 45.357,290.100 45.282 C 289.525 45.194,289.200 44.866,289.200 44.372 C 289.200 43.876,288.924 43.600,288.428 43.600 C 287.932 43.600,287.610 43.278,287.528 42.700 C 287.446 42.122,287.078 41.754,286.500 41.672 C 285.922 41.590,285.600 41.268,285.600 40.772 C 285.600 40.267,285.324 40.000,284.800 40.000 C 284.263 40.000,284.000 39.733,284.000 39.190 C 284.000 38.707,283.619 38.235,283.055 38.021 C 282.535 37.823,282.000 37.377,281.867 37.031 C 281.734 36.684,281.349 36.400,281.013 36.400 C 280.676 36.400,280.400 36.140,280.400 35.823 C 280.400 35.505,280.073 35.010,279.674 34.723 C 279.274 34.435,278.830 33.885,278.686 33.500 C 278.543 33.115,278.059 32.800,277.613 32.800 C 277.067 32.800,276.800 32.537,276.800 32.000 C 276.800 31.476,276.533 31.200,276.028 31.200 C 275.532 31.200,275.210 30.878,275.128 30.300 C 275.046 29.722,274.678 29.354,274.100 29.272 C 273.522 29.190,273.200 28.868,273.200 28.372 C 273.200 27.867,272.924 27.600,272.400 27.600 C 271.863 27.600,271.600 27.333,271.600 26.790 C 271.600 26.294,271.212 25.833,270.600 25.600 C 270.050 25.391,269.600 24.945,269.600 24.610 C 269.600 24.274,269.283 24.000,268.895 24.000 C 268.507 24.000,268.012 23.595,267.795 23.100 C 267.578 22.605,267.220 22.256,267.000 22.324 C 266.780 22.392,266.503 22.032,266.384 21.524 C 266.253 20.964,265.819 20.550,265.284 20.472 C 264.721 20.391,264.400 20.063,264.400 19.572 C 264.400 19.067,264.124 18.800,263.600 18.800 C 263.082 18.800,262.800 18.533,262.800 18.043 C 262.800 17.295,262.070 16.800,260.967 16.800 C 260.627 16.800,260.400 17.205,260.400 17.810 M288.542 285.457 C 288.028 285.569,287.610 286.036,287.498 286.622 C 287.228 288.032,293.669 288.165,294.418 286.766 C 294.664 286.307,294.753 285.820,294.617 285.684 C 294.308 285.375,289.702 285.202,288.542 285.457 M313.100 285.476 C 312.227 285.704,312.180 287.030,313.033 287.357 C 315.014 288.118,320.000 287.611,320.000 286.650 C 320.000 285.378,316.049 284.705,313.100 285.476 M278.800 288.200 C 278.800 289.220,278.845 289.236,281.300 289.119 C 283.494 289.015,283.800 288.902,283.800 288.200 C 283.800 287.498,283.494 287.385,281.300 287.281 C 278.845 287.164,278.800 287.180,278.800 288.200 M323.200 288.182 C 323.200 289.177,323.265 289.200,326.028 289.200 C 328.732 289.200,328.850 289.161,328.728 288.300 C 328.516 286.807,323.200 286.693,323.200 288.182 M272.500 289.065 C 272.225 289.176,272.000 289.634,272.000 290.083 C 272.000 290.761,271.813 290.863,270.900 290.680 C 269.064 290.313,267.000 290.914,267.000 291.816 C 267.000 293.206,271.073 293.186,271.602 291.794 C 271.911 290.981,272.183 290.804,272.817 291.005 C 274.251 291.460,276.800 290.822,276.800 290.008 C 276.800 288.942,274.211 288.374,272.500 289.065 M330.486 289.128 C 329.786 289.586,330.310 290.786,331.243 290.860 C 334.011 291.079,334.200 291.024,334.200 290.000 C 334.200 288.935,331.683 288.344,330.486 289.128 M335.672 291.700 C 335.882 293.179,340.000 293.294,340.000 291.821 C 340.000 290.849,339.894 290.800,337.772 290.800 C 335.691 290.800,335.553 290.859,335.672 291.700 M262.412 293.178 C 262.113 293.736,261.573 294.000,260.732 294.000 C 259.923 294.000,259.170 294.348,258.565 295.000 C 258.000 295.609,257.199 296.000,256.515 296.000 C 255.826 296.000,255.200 296.309,254.893 296.800 C 254.569 297.319,253.960 297.600,253.159 297.600 C 252.267 297.600,251.868 297.819,251.718 298.390 C 251.582 298.912,251.034 299.270,250.104 299.444 C 249.210 299.612,248.626 299.980,248.502 300.454 C 248.394 300.864,247.996 301.200,247.615 301.200 C 247.235 301.200,246.607 301.550,246.221 301.977 C 245.834 302.405,245.014 302.865,244.399 303.000 C 243.762 303.140,243.194 303.580,243.078 304.023 C 242.959 304.480,242.530 304.800,242.037 304.800 C 241.547 304.800,241.200 305.057,241.200 305.421 C 241.200 305.762,240.674 306.225,240.032 306.449 C 239.390 306.673,238.774 307.090,238.664 307.376 C 238.555 307.663,238.007 308.012,237.448 308.152 C 236.406 308.414,232.400 312.125,232.400 312.829 C 232.400 313.044,231.950 313.391,231.400 313.600 C 230.850 313.809,230.400 314.255,230.400 314.590 C 230.400 314.926,230.126 315.200,229.790 315.200 C 229.455 315.200,229.009 315.650,228.800 316.200 C 228.591 316.750,228.157 317.200,227.837 317.200 C 227.516 317.200,227.140 317.560,227.000 318.000 C 226.860 318.440,226.570 318.800,226.356 318.800 C 225.864 318.800,221.600 323.211,221.600 323.720 C 221.600 324.432,219.400 327.571,218.890 327.585 C 218.610 327.593,218.218 328.025,218.021 328.545 C 217.823 329.065,217.400 329.591,217.081 329.714 C 216.762 329.836,216.380 330.581,216.232 331.368 C 216.078 332.193,215.729 332.800,215.409 332.800 C 215.104 332.800,214.729 333.205,214.577 333.700 C 214.425 334.195,213.963 334.922,213.550 335.316 C 213.138 335.709,212.800 336.491,212.800 337.053 C 212.800 337.726,212.537 338.144,212.029 338.277 C 211.504 338.414,211.175 338.966,211.000 340.000 C 210.825 341.034,210.496 341.586,209.971 341.723 C 209.392 341.875,209.200 342.279,209.200 343.348 C 209.200 344.362,208.970 344.895,208.400 345.200 C 207.944 345.444,207.600 346.038,207.600 346.581 C 207.600 347.944,207.201 348.800,206.565 348.800 C 205.878 348.800,205.431 350.473,205.764 351.800 C 206.296 353.918,208.000 352.826,208.000 350.367 C 208.000 349.467,208.183 349.200,208.800 349.200 C 209.467 349.200,209.600 348.933,209.600 347.600 C 209.600 346.720,209.767 346.000,209.971 346.000 C 210.720 346.000,211.600 344.713,211.600 343.618 C 211.600 342.830,211.839 342.431,212.400 342.284 C 213.036 342.118,213.200 341.738,213.200 340.437 C 213.200 339.086,213.335 338.800,213.972 338.800 C 214.468 338.800,214.790 338.478,214.872 337.900 C 214.954 337.322,215.322 336.954,215.900 336.872 C 216.654 336.765,216.800 336.496,216.800 335.219 C 216.800 334.030,216.976 333.647,217.600 333.484 C 218.068 333.362,218.400 332.938,218.400 332.465 C 218.400 331.930,218.705 331.612,219.300 331.528 C 220.048 331.422,220.221 331.113,220.323 329.700 C 220.422 328.326,220.595 328.000,221.223 328.000 C 221.733 328.000,222.000 327.725,222.000 327.200 C 222.000 326.760,222.207 326.400,222.460 326.400 C 223.002 326.400,225.600 323.808,225.600 323.266 C 225.600 323.061,225.960 322.799,226.400 322.684 C 227.036 322.518,227.200 322.138,227.200 320.837 C 227.200 319.442,227.324 319.200,228.037 319.200 C 228.525 319.200,228.958 318.881,229.074 318.437 C 229.184 318.017,229.617 317.584,230.037 317.474 C 230.481 317.358,230.800 316.925,230.800 316.437 C 230.800 315.854,231.054 315.600,231.637 315.600 C 232.138 315.600,232.559 315.279,232.684 314.800 C 232.842 314.197,233.230 314.000,234.257 314.000 C 235.322 314.000,235.698 313.793,235.979 313.055 C 236.177 312.535,236.712 312.012,237.169 311.892 C 237.626 311.773,238.000 311.388,238.000 311.037 C 238.000 310.667,238.335 310.400,238.800 310.400 C 239.318 310.400,239.600 310.133,239.600 309.643 C 239.600 309.170,239.974 308.793,240.600 308.636 C 241.246 308.474,241.600 308.104,241.600 307.592 C 241.600 307.067,241.869 306.800,242.400 306.800 C 242.925 306.800,243.200 306.533,243.200 306.023 C 243.200 305.395,243.526 305.222,244.900 305.123 C 246.313 305.021,246.622 304.848,246.728 304.100 C 246.807 303.544,247.133 303.200,247.581 303.200 C 247.980 303.200,248.401 302.840,248.516 302.400 C 248.682 301.764,249.062 301.600,250.363 301.600 C 251.733 301.600,252.000 301.470,252.000 300.800 C 252.000 300.239,252.268 299.998,252.900 299.995 C 254.592 299.984,255.600 299.521,255.600 298.753 C 255.600 298.127,255.904 298.000,257.400 298.000 C 258.933 298.000,259.200 297.881,259.200 297.200 C 259.200 296.471,260.464 296.100,262.093 296.350 C 262.254 296.375,262.496 295.956,262.631 295.419 C 262.835 294.608,263.158 294.422,264.538 294.321 C 265.893 294.222,266.200 294.052,266.200 293.400 C 266.200 292.190,263.039 292.005,262.412 293.178 M340.800 293.400 C 340.800 294.319,340.947 294.400,342.600 294.400 C 344.099 294.400,344.400 294.526,344.400 295.157 C 344.400 296.050,345.148 296.400,347.059 296.400 C 349.245 296.400,348.915 294.259,346.701 294.076 C 345.715 293.994,345.060 293.687,344.787 293.176 C 344.092 291.876,340.800 292.061,340.800 293.400 M293.214 305.974 C 292.986 306.399,292.800 306.849,292.800 306.974 C 292.800 307.098,298.020 307.200,304.400 307.200 C 316.317 307.200,316.953 307.113,315.520 305.680 C 314.588 304.748,293.723 305.023,293.214 305.974 M284.229 307.868 C 283.790 309.014,287.649 309.839,289.029 308.894 C 290.616 307.808,289.970 307.200,287.230 307.200 C 285.035 307.200,284.434 307.334,284.229 307.868 M319.200 307.957 C 319.200 308.884,319.954 309.202,322.133 309.194 C 324.142 309.186,324.915 308.766,324.571 307.868 C 324.165 306.811,319.200 306.893,319.200 307.957 M277.467 309.067 C 276.418 310.116,277.260 310.800,279.600 310.800 C 281.893 310.800,282.000 310.756,282.000 309.800 C 282.000 308.809,278.319 308.214,277.467 309.067 M326.641 309.436 C 326.216 310.545,326.775 310.800,329.624 310.800 C 332.081 310.800,332.400 310.887,332.400 311.557 C 332.400 312.452,333.148 312.800,335.070 312.800 C 336.138 312.800,336.525 312.992,336.684 313.600 C 336.849 314.231,337.230 314.400,338.484 314.400 C 339.719 314.400,340.120 314.573,340.277 315.171 C 340.416 315.705,340.974 316.027,342.088 316.215 C 343.188 316.401,343.760 316.726,343.895 317.243 C 344.042 317.803,344.456 318.000,345.484 318.000 C 346.531 318.000,346.926 318.195,347.081 318.787 C 347.194 319.219,347.672 319.694,348.143 319.842 C 348.614 319.989,349.429 320.445,349.954 320.855 C 350.479 321.265,351.244 321.600,351.654 321.600 C 352.064 321.600,352.400 321.807,352.400 322.060 C 352.400 322.692,354.875 325.043,355.877 325.361 C 356.326 325.504,357.016 325.976,357.409 326.410 C 357.802 326.845,358.323 327.200,358.566 327.200 C 358.809 327.200,359.232 327.560,359.507 328.000 C 359.782 328.440,360.275 328.800,360.603 328.800 C 360.932 328.800,361.200 329.087,361.200 329.437 C 361.200 329.788,361.574 330.173,362.031 330.292 C 362.488 330.412,363.023 330.935,363.221 331.455 C 363.418 331.975,363.855 332.400,364.190 332.400 C 364.526 332.400,364.800 332.606,364.800 332.857 C 364.800 333.108,365.584 334.233,366.543 335.357 C 367.502 336.481,368.414 337.805,368.570 338.300 C 368.726 338.795,369.116 339.200,369.437 339.200 C 369.757 339.200,370.191 339.650,370.400 340.200 C 370.609 340.750,371.055 341.200,371.390 341.200 C 371.726 341.200,372.000 341.525,372.000 341.922 C 372.000 342.320,372.450 343.255,373.000 344.000 C 373.550 344.745,374.000 345.569,374.000 345.831 C 374.000 346.093,374.360 346.401,374.800 346.516 C 375.414 346.676,375.600 347.062,375.600 348.172 C 375.600 349.348,375.788 349.691,376.600 350.000 C 377.397 350.303,377.600 350.657,377.600 351.743 C 377.600 352.770,377.797 353.158,378.400 353.316 C 379.033 353.481,379.200 353.862,379.200 355.136 C 379.200 356.395,379.375 356.801,380.000 357.000 C 380.496 357.157,380.800 357.605,380.800 358.177 C 380.800 362.133,382.899 363.147,383.121 359.298 C 383.232 357.362,383.161 357.166,382.221 356.808 C 381.360 356.481,381.200 356.168,381.200 354.810 C 381.200 353.467,381.067 353.200,380.400 353.200 C 379.730 353.200,379.600 352.933,379.600 351.563 C 379.600 350.262,379.436 349.882,378.800 349.716 C 378.357 349.600,378.000 349.170,378.000 348.753 C 378.000 347.129,377.420 346.000,376.586 346.000 C 376.205 346.000,376.000 345.591,376.000 344.833 C 376.000 343.295,375.633 342.400,375.004 342.400 C 374.723 342.400,374.399 342.040,374.284 341.600 C 374.159 341.121,373.738 340.800,373.237 340.800 C 372.654 340.800,372.400 340.546,372.400 339.963 C 372.400 339.462,372.079 339.041,371.600 338.916 C 370.998 338.758,370.800 338.370,370.800 337.345 C 370.800 336.280,370.582 335.883,369.800 335.527 C 369.250 335.277,368.800 334.740,368.800 334.336 C 368.800 333.867,368.510 333.600,368.000 333.600 C 367.467 333.600,367.200 333.333,367.200 332.800 C 367.200 332.276,366.933 332.000,366.427 332.000 C 366.002 332.000,365.543 331.649,365.406 331.220 C 365.270 330.792,364.808 330.330,364.380 330.194 C 363.951 330.057,363.600 329.598,363.600 329.173 C 363.600 328.655,363.324 328.400,362.763 328.400 C 362.266 328.400,361.841 328.080,361.719 327.613 C 361.606 327.181,361.173 326.718,360.757 326.586 C 360.341 326.454,360.000 325.998,360.000 325.573 C 360.000 325.067,359.724 324.800,359.200 324.800 C 358.750 324.800,358.400 324.533,358.400 324.190 C 358.400 323.855,357.950 323.409,357.400 323.200 C 356.788 322.967,356.400 322.506,356.400 322.010 C 356.400 321.334,356.140 321.200,354.827 321.200 C 353.605 321.200,353.197 321.021,353.000 320.400 C 352.860 319.960,352.441 319.600,352.068 319.600 C 351.695 319.600,351.212 319.195,350.995 318.700 C 350.708 318.046,350.202 317.767,349.141 317.678 C 348.093 317.591,347.625 317.337,347.478 316.778 C 347.319 316.170,346.924 316.000,345.665 316.000 C 344.301 316.000,344.036 315.863,343.928 315.100 C 343.826 314.380,343.505 314.175,342.320 314.077 C 341.272 313.990,340.767 313.727,340.593 313.177 C 340.405 312.584,339.980 312.400,338.800 312.400 C 337.605 312.400,337.196 312.218,337.000 311.600 C 336.860 311.160,336.623 310.787,336.473 310.772 C 336.323 310.756,335.300 310.688,334.200 310.620 C 333.100 310.553,332.065 310.475,331.900 310.449 C 331.735 310.422,331.600 310.040,331.600 309.600 C 331.600 308.528,327.048 308.378,326.641 309.436 M273.700 310.709 C 272.330 310.819,272.000 310.997,272.000 311.623 C 272.000 312.266,271.717 312.400,270.363 312.400 C 269.062 312.400,268.682 312.564,268.516 313.200 C 268.369 313.760,267.970 314.000,267.186 314.000 C 265.544 314.000,264.800 314.388,264.800 315.243 C 264.800 315.874,264.499 316.000,263.000 316.000 C 261.467 316.000,261.200 316.119,261.200 316.800 C 261.200 317.417,260.933 317.600,260.033 317.600 C 258.345 317.600,257.600 317.981,257.600 318.843 C 257.600 319.269,257.321 319.600,256.963 319.600 C 256.612 319.600,256.231 319.960,256.116 320.400 C 255.951 321.031,255.570 321.200,254.316 321.200 C 253.070 321.200,252.680 321.371,252.519 321.987 C 252.406 322.419,251.982 322.879,251.577 323.007 C 251.172 323.136,250.730 323.592,250.594 324.020 C 250.457 324.449,250.071 324.800,249.736 324.800 C 249.400 324.800,249.033 325.154,248.919 325.587 C 248.806 326.019,248.382 326.479,247.977 326.607 C 247.572 326.736,247.136 327.172,247.007 327.577 C 246.879 327.982,246.419 328.406,245.987 328.519 C 245.554 328.633,245.200 328.991,245.200 329.316 C 245.200 329.641,244.840 330.001,244.400 330.116 C 243.921 330.241,243.600 330.662,243.600 331.163 C 243.600 331.746,243.346 332.000,242.763 332.000 C 242.275 332.000,241.842 332.319,241.726 332.763 C 241.616 333.183,241.183 333.616,240.763 333.726 C 240.329 333.839,240.000 334.275,240.000 334.735 C 240.000 335.270,239.695 335.588,239.100 335.672 C 238.605 335.742,238.178 336.025,238.150 336.300 C 238.123 336.575,238.078 337.238,238.050 337.773 C 238.019 338.367,237.688 338.845,237.200 339.000 C 236.760 339.140,236.400 339.602,236.400 340.027 C 236.400 340.468,236.126 340.800,235.763 340.800 C 235.412 340.800,235.035 341.145,234.925 341.566 C 234.815 341.987,234.291 342.441,233.762 342.574 C 232.948 342.778,232.800 343.059,232.800 344.408 C 232.800 345.733,232.666 346.000,232.000 346.000 C 231.319 346.000,231.200 346.267,231.200 347.800 C 231.200 349.299,231.074 349.600,230.443 349.600 C 229.588 349.600,229.200 350.344,229.200 351.986 C 229.200 352.770,228.960 353.169,228.400 353.316 C 227.786 353.476,227.600 353.862,227.600 354.972 C 227.600 356.156,227.414 356.491,226.579 356.808 C 225.170 357.344,225.228 361.318,226.648 361.521 C 227.581 361.654,227.985 360.756,227.995 358.527 C 227.998 357.608,228.223 357.183,228.800 357.000 C 229.425 356.801,229.600 356.395,229.600 355.136 C 229.600 353.894,229.773 353.480,230.354 353.328 C 230.863 353.195,231.188 352.636,231.352 351.613 C 231.521 350.550,231.835 350.032,232.397 349.885 C 233.009 349.725,233.200 349.340,233.200 348.264 C 233.200 347.250,233.405 346.789,233.930 346.622 C 234.610 346.406,234.915 345.931,236.580 342.500 C 236.927 341.785,237.393 341.200,237.615 341.200 C 237.838 341.200,238.191 340.750,238.400 340.200 C 238.609 339.650,239.052 339.200,239.385 339.200 C 239.717 339.200,240.245 338.615,240.557 337.900 C 240.870 337.185,241.772 335.892,242.563 335.027 C 243.353 334.162,244.000 333.217,244.000 332.927 C 244.000 332.637,244.274 332.400,244.610 332.400 C 244.945 332.400,245.391 331.950,245.600 331.400 C 245.809 330.850,246.186 330.400,246.437 330.400 C 246.688 330.400,247.592 329.680,248.446 328.800 C 249.300 327.920,250.151 327.200,250.338 327.200 C 250.524 327.200,250.998 326.845,251.391 326.410 C 251.784 325.976,252.487 325.502,252.953 325.357 C 253.419 325.212,254.523 324.333,255.407 323.403 C 256.291 322.474,257.400 321.591,257.871 321.441 C 258.342 321.291,258.946 320.906,259.213 320.585 C 259.480 320.263,260.042 320.000,260.462 320.000 C 260.881 320.000,261.341 319.685,261.483 319.300 C 261.833 318.352,262.401 318.013,263.653 318.006 C 264.347 318.002,264.774 317.742,264.905 317.243 C 265.040 316.726,265.612 316.401,266.712 316.215 C 267.826 316.027,268.384 315.705,268.523 315.171 C 268.680 314.571,269.081 314.400,270.336 314.400 C 271.595 314.400,272.001 314.225,272.200 313.600 C 272.391 312.999,272.820 312.793,273.927 312.772 C 275.882 312.735,276.591 312.371,276.641 311.381 C 276.685 310.512,276.547 310.480,273.700 310.709 M290.667 339.867 C 290.520 340.013,290.400 347.821,290.400 357.218 C 290.400 371.005,290.297 374.388,289.864 374.747 C 289.494 375.054,284.024 375.224,272.164 375.296 L 255.000 375.400 254.895 388.953 C 254.819 398.621,254.919 402.662,255.244 403.053 C 255.615 403.500,258.823 403.600,272.849 403.600 C 282.282 403.600,290.040 403.645,290.089 403.700 C 290.138 403.755,290.273 411.630,290.389 421.200 L 290.600 438.600 304.153 438.705 C 313.821 438.781,317.862 438.681,318.253 438.356 C 318.700 437.985,318.800 434.777,318.800 420.751 L 318.800 403.600 335.951 403.600 C 349.977 403.600,353.185 403.500,353.556 403.053 C 353.881 402.662,353.981 398.621,353.905 388.953 L 353.800 375.400 336.400 375.200 L 319.000 375.000 318.896 357.836 C 318.824 345.976,318.654 340.506,318.347 340.136 C 317.872 339.564,291.229 339.305,290.667 339.867 M316.811 359.200 C 316.927 368.770,317.062 376.645,317.111 376.700 C 317.160 376.755,324.904 376.800,334.320 376.800 C 347.102 376.800,351.562 376.922,351.920 377.280 C 352.428 377.788,352.647 399.691,352.157 400.967 C 351.941 401.531,350.040 401.600,334.837 401.600 C 322.088 401.600,317.638 401.722,317.280 402.080 C 316.922 402.438,316.800 406.836,316.800 419.400 C 316.800 431.964,316.678 436.362,316.320 436.720 C 315.969 437.071,312.764 437.200,304.400 437.200 C 296.036 437.200,292.831 437.071,292.480 436.720 C 292.122 436.362,292.000 431.964,292.000 419.400 C 292.000 406.836,291.878 402.438,291.520 402.080 C 291.162 401.722,286.764 401.600,274.200 401.600 C 261.636 401.600,257.238 401.478,256.880 401.120 C 256.147 400.387,256.199 377.865,256.936 377.253 C 257.306 376.946,262.776 376.776,274.636 376.704 L 291.800 376.600 291.900 359.600 C 291.955 350.250,292.086 342.372,292.190 342.094 C 292.338 341.698,295.015 341.611,304.490 341.694 L 316.600 341.800 316.811 359.200 M204.267 353.867 C 204.120 354.013,204.000 355.072,204.000 356.220 C 204.000 357.970,203.871 358.340,203.200 358.516 C 202.350 358.738,201.936 363.600,202.767 363.600 C 204.084 363.600,204.400 363.055,204.400 360.784 C 204.400 358.805,204.521 358.416,205.200 358.200 C 206.347 357.836,206.408 353.600,205.267 353.600 C 204.863 353.600,204.413 353.720,204.267 353.867 M224.000 364.428 C 224.000 366.717,224.051 366.848,224.900 366.728 C 226.385 366.517,226.499 362.000,225.020 362.000 C 224.039 362.000,224.000 362.092,224.000 364.428 M382.800 363.767 C 382.800 366.050,383.108 366.800,384.043 366.800 C 384.702 366.800,384.800 366.488,384.800 364.400 C 384.800 362.107,384.756 362.000,383.800 362.000 C 382.884 362.000,382.800 362.149,382.800 363.767 M201.800 364.693 C 200.679 364.973,200.413 365.531,200.406 367.624 C 200.399 369.708,201.099 370.975,201.959 370.432 C 202.415 370.145,203.147 364.244,202.702 364.446 C 202.646 364.472,202.240 364.583,201.800 364.693 M222.853 369.160 C 221.774 369.841,221.887 374.400,222.982 374.400 C 223.603 374.400,223.986 374.104,224.148 373.500 C 224.804 371.051,224.020 368.424,222.853 369.160 M384.626 370.200 C 384.185 372.551,384.722 374.400,385.845 374.400 C 387.163 374.400,387.321 369.907,386.026 369.214 C 384.936 368.631,384.918 368.643,384.626 370.200 M199.039 373.894 C 198.211 374.722,198.820 382.853,199.700 382.728 C 201.005 382.542,201.345 373.811,200.051 373.714 C 199.626 373.682,199.170 373.763,199.039 373.894 M220.680 379.853 C 220.338 380.196,220.303 397.281,220.643 398.167 C 220.776 398.515,221.230 398.800,221.650 398.800 C 222.715 398.800,222.646 379.896,221.580 379.691 C 221.240 379.626,220.835 379.699,220.680 379.853 M386.580 380.109 C 385.818 382.094,386.634 398.605,387.500 398.728 L 388.400 398.856 388.400 389.471 C 388.400 381.282,388.319 380.055,387.767 379.843 C 386.895 379.508,386.802 379.529,386.580 380.109 M198.972 397.728 C 198.290 399.505,199.013 406.202,199.900 406.328 C 201.082 406.496,201.341 397.893,200.167 397.443 C 199.291 397.107,199.203 397.128,198.972 397.728 M385.731 403.924 C 384.268 404.132,383.932 409.600,385.383 409.600 C 386.406 409.600,386.840 408.474,386.720 406.135 C 386.610 403.997,386.527 403.810,385.731 403.924 M222.178 406.486 C 222.580 410.040,223.705 410.981,224.226 408.200 C 224.682 405.771,224.136 404.000,222.930 404.000 C 221.900 404.000,221.897 404.007,222.178 406.486 M200.643 410.233 C 199.841 412.323,200.482 414.939,201.883 415.293 C 202.732 415.508,202.763 415.416,202.677 412.940 C 202.578 410.061,201.341 408.415,200.643 410.233 M224.000 413.958 C 224.000 415.562,224.163 416.059,224.800 416.400 C 225.390 416.716,225.600 417.238,225.600 418.388 C 225.600 420.400,226.216 422.000,226.990 422.000 C 227.423 422.000,227.600 422.416,227.600 423.437 C 227.600 424.538,227.787 424.924,228.400 425.084 C 229.028 425.248,229.200 425.630,229.200 426.857 C 229.200 428.156,229.369 428.484,230.200 428.800 C 231.038 429.119,231.200 429.441,231.200 430.790 C 231.200 432.133,231.333 432.400,232.000 432.400 C 232.617 432.400,232.800 432.667,232.800 433.567 C 232.800 435.255,233.181 436.000,234.043 436.000 C 234.459 436.000,234.779 436.135,234.753 436.300 C 234.622 437.129,234.860 437.600,235.410 437.600 C 235.745 437.600,236.191 438.050,236.400 438.600 C 236.609 439.150,237.055 439.600,237.390 439.600 C 237.754 439.600,238.002 439.963,238.005 440.500 C 238.015 442.145,238.482 443.200,239.200 443.200 C 239.589 443.200,240.001 443.560,240.116 444.000 C 240.231 444.440,240.612 444.800,240.963 444.800 C 241.331 444.800,241.600 445.134,241.600 445.592 C 241.600 446.096,241.951 446.473,242.562 446.626 C 243.091 446.759,243.615 447.213,243.725 447.634 C 243.835 448.055,244.212 448.400,244.563 448.400 C 244.926 448.400,245.200 448.732,245.200 449.172 C 245.200 449.668,245.522 449.990,246.100 450.072 C 246.678 450.154,247.046 450.522,247.128 451.100 C 247.210 451.678,247.532 452.000,248.028 452.000 C 248.468 452.000,248.800 452.274,248.800 452.637 C 248.800 452.988,249.145 453.365,249.566 453.475 C 249.987 453.585,250.441 454.108,250.573 454.635 C 250.706 455.163,250.946 455.575,251.107 455.550 C 252.619 455.318,253.930 455.688,254.116 456.400 C 254.241 456.879,254.662 457.200,255.163 457.200 C 255.746 457.200,256.000 457.454,256.000 458.037 C 256.000 458.534,256.320 458.959,256.787 459.081 C 257.219 459.194,257.682 459.627,257.814 460.043 C 257.996 460.617,258.435 460.800,259.627 460.800 C 260.901 460.800,261.200 460.943,261.200 461.553 C 261.200 462.313,262.206 462.784,263.853 462.795 C 264.367 462.798,264.790 463.118,264.916 463.600 C 265.081 464.231,265.462 464.400,266.716 464.400 C 267.970 464.400,268.351 464.569,268.516 465.200 C 268.673 465.800,269.062 466.000,270.068 466.000 C 271.076 466.000,271.509 466.224,271.805 466.900 C 272.436 468.338,276.400 468.474,276.400 467.058 C 276.400 466.179,276.184 466.045,274.351 465.793 C 272.821 465.583,272.252 465.320,272.104 464.756 C 271.952 464.175,271.539 464.000,270.316 464.000 C 269.062 464.000,268.681 463.831,268.516 463.200 C 268.358 462.598,267.970 462.400,266.945 462.400 C 265.880 462.400,265.483 462.182,265.127 461.400 C 264.770 460.616,264.375 460.400,263.298 460.400 C 262.262 460.400,261.874 460.204,261.716 459.600 C 261.601 459.160,261.293 458.800,261.031 458.800 C 260.769 458.800,259.945 458.350,259.200 457.800 C 258.455 457.250,257.541 456.800,257.169 456.800 C 256.797 456.800,256.399 456.440,256.284 456.000 C 256.159 455.521,255.738 455.200,255.237 455.200 C 254.709 455.200,254.397 454.941,254.392 454.500 C 254.388 454.086,253.551 453.310,252.344 452.600 C 251.221 451.940,249.932 450.995,249.479 450.500 C 249.026 450.005,248.418 449.600,248.128 449.600 C 247.838 449.600,247.600 449.326,247.600 448.990 C 247.600 448.655,247.175 448.218,246.655 448.021 C 246.135 447.823,245.612 447.288,245.492 446.831 C 245.373 446.374,244.988 446.000,244.637 446.000 C 244.287 446.000,244.000 445.732,244.000 445.403 C 244.000 445.075,243.640 444.582,243.200 444.307 C 242.760 444.032,242.400 443.612,242.400 443.374 C 242.400 443.135,241.965 442.531,241.434 442.032 C 240.902 441.533,240.359 440.691,240.226 440.162 C 240.093 439.633,239.701 439.200,239.355 439.200 C 239.009 439.200,238.633 438.846,238.519 438.413 C 238.406 437.981,237.973 437.518,237.557 437.386 C 237.141 437.254,236.800 436.822,236.800 436.427 C 236.800 436.031,236.465 435.279,236.055 434.754 C 235.645 434.229,235.189 433.414,235.042 432.943 C 234.894 432.472,234.419 431.994,233.987 431.881 C 233.395 431.726,233.200 431.331,233.200 430.284 C 233.200 429.236,233.005 428.842,232.411 428.687 C 231.855 428.542,231.547 428.008,231.366 426.875 C 231.189 425.772,230.873 425.208,230.354 425.072 C 229.775 424.921,229.600 424.506,229.600 423.284 C 229.600 422.030,229.431 421.649,228.800 421.484 C 228.239 421.337,227.998 420.936,227.995 420.137 C 227.986 418.313,227.580 417.288,226.784 417.080 C 226.188 416.924,226.019 416.428,225.921 414.543 C 225.748 411.193,224.000 410.661,224.000 413.958 M383.067 412.267 C 382.920 412.413,382.800 413.510,382.800 414.704 C 382.800 416.503,382.669 416.909,382.037 417.074 C 381.229 417.286,380.814 418.299,380.805 420.086 C 380.802 420.759,380.496 421.335,380.000 421.600 C 379.430 421.905,379.200 422.438,379.200 423.452 C 379.200 424.538,379.011 424.924,378.400 425.084 C 377.830 425.233,377.600 425.630,377.600 426.466 C 377.600 427.203,377.228 427.983,376.600 428.565 C 376.004 429.117,375.600 429.933,375.600 430.583 C 375.600 431.338,375.353 431.739,374.800 431.884 C 374.360 431.999,374.000 432.318,374.000 432.593 C 374.000 432.867,373.651 433.536,373.225 434.078 C 372.798 434.620,372.329 435.544,372.181 436.132 C 372.034 436.719,371.658 437.200,371.347 437.200 C 371.035 437.200,370.609 437.650,370.400 438.200 C 370.191 438.750,369.757 439.200,369.437 439.200 C 369.116 439.200,368.729 439.605,368.577 440.100 C 368.424 440.595,367.512 441.929,366.550 443.064 C 365.587 444.199,364.800 445.324,364.800 445.564 C 364.800 445.804,364.513 446.000,364.163 446.000 C 363.812 446.000,363.427 446.374,363.308 446.831 C 363.188 447.288,362.665 447.823,362.145 448.021 C 361.625 448.218,361.200 448.655,361.200 448.990 C 361.200 449.326,360.981 449.600,360.714 449.600 C 360.447 449.600,359.862 449.959,359.414 450.398 C 357.950 451.833,356.217 453.085,355.300 453.372 C 354.805 453.527,354.400 453.916,354.400 454.237 C 354.400 454.557,353.950 454.991,353.400 455.200 C 352.850 455.409,352.400 455.855,352.400 456.190 C 352.400 456.526,352.075 456.800,351.678 456.800 C 351.280 456.800,350.345 457.250,349.600 457.800 C 348.855 458.350,348.031 458.800,347.769 458.800 C 347.507 458.800,347.199 459.160,347.084 459.600 C 346.939 460.153,346.538 460.400,345.783 460.400 C 345.133 460.400,344.317 460.804,343.765 461.400 C 343.183 462.028,342.403 462.400,341.666 462.400 C 340.830 462.400,340.433 462.630,340.284 463.200 C 340.124 463.811,339.738 464.000,338.652 464.000 C 337.661 464.000,337.104 464.232,336.821 464.762 C 336.541 465.284,335.775 465.611,334.384 465.802 C 332.605 466.047,332.370 466.187,332.478 466.941 C 332.664 468.251,336.417 468.218,336.995 466.900 C 337.300 466.203,337.719 466.000,338.848 466.000 C 339.970 466.000,340.355 465.815,340.516 465.200 C 340.682 464.564,341.062 464.400,342.363 464.400 C 343.733 464.400,344.000 464.270,344.000 463.600 C 344.000 463.039,344.268 462.798,344.900 462.795 C 346.592 462.784,347.600 462.321,347.600 461.553 C 347.600 460.938,347.900 460.800,349.237 460.800 C 350.538 460.800,350.918 460.636,351.084 460.000 C 351.199 459.560,351.546 459.200,351.855 459.200 C 352.164 459.200,352.622 458.750,352.873 458.200 C 353.123 457.650,353.660 457.200,354.064 457.200 C 354.526 457.200,354.800 456.911,354.800 456.423 C 354.800 455.795,355.126 455.622,356.500 455.523 C 357.913 455.421,358.222 455.248,358.328 454.500 C 358.410 453.922,358.732 453.600,359.228 453.600 C 359.717 453.600,360.000 453.324,360.000 452.847 C 360.000 452.421,360.361 451.999,360.830 451.876 C 361.286 451.757,361.757 451.286,361.876 450.830 C 361.999 450.361,362.421 450.000,362.847 450.000 C 363.333 450.000,363.600 449.717,363.600 449.200 C 363.600 448.667,363.867 448.400,364.400 448.400 C 364.917 448.400,365.200 448.133,365.200 447.647 C 365.200 447.221,365.561 446.799,366.030 446.676 C 366.486 446.557,366.957 446.086,367.076 445.630 C 367.199 445.161,367.621 444.800,368.047 444.800 C 368.524 444.800,368.800 444.517,368.800 444.028 C 368.800 443.532,369.122 443.210,369.700 443.128 C 370.617 442.998,370.663 442.897,370.750 440.800 C 370.788 439.883,370.989 439.600,371.600 439.600 C 372.187 439.600,372.400 439.333,372.400 438.600 C 372.400 437.852,372.611 437.600,373.237 437.600 C 373.725 437.600,374.158 437.281,374.274 436.837 C 374.384 436.417,374.817 435.984,375.237 435.874 C 375.831 435.719,376.000 435.312,376.000 434.037 C 376.000 432.866,376.167 432.400,376.586 432.400 C 377.431 432.400,378.000 431.274,378.000 429.600 C 378.000 429.067,378.267 428.800,378.800 428.800 C 379.470 428.800,379.600 428.533,379.600 427.163 C 379.600 425.862,379.764 425.482,380.400 425.316 C 381.015 425.155,381.200 424.770,381.200 423.648 C 381.200 422.519,381.403 422.100,382.100 421.795 C 382.862 421.460,383.019 421.041,383.121 419.057 C 383.221 417.129,383.381 416.678,384.021 416.510 C 385.151 416.215,385.193 412.000,384.067 412.000 C 383.663 412.000,383.213 412.120,383.067 412.267 M202.400 418.972 C 202.400 421.094,202.449 421.200,203.421 421.200 C 204.894 421.200,204.779 417.082,203.300 416.872 C 202.459 416.753,202.400 416.891,202.400 418.972 M204.079 424.100 C 204.184 425.929,204.316 426.216,205.100 426.328 C 206.250 426.491,206.500 422.677,205.367 422.243 C 204.131 421.768,203.959 422.016,204.079 424.100 M277.272 468.500 C 277.387 469.308,277.655 469.412,279.900 469.519 C 282.544 469.645,282.639 469.593,281.986 468.374 C 281.315 467.119,277.092 467.232,277.272 468.500 M326.828 468.347 C 326.259 469.410,326.629 469.600,329.267 469.600 C 331.489 469.600,331.600 469.552,331.600 468.600 C 331.600 467.267,327.522 467.051,326.828 468.347 M284.900 469.482 C 283.912 469.673,283.733 470.373,284.480 471.120 C 285.495 472.135,289.914 471.731,289.706 470.642 C 289.467 469.391,287.650 468.953,284.900 469.482 M320.142 469.457 C 319.623 469.571,319.210 470.037,319.095 470.639 C 318.851 471.913,323.749 471.985,324.544 470.719 C 325.203 469.670,322.592 468.921,320.142 469.457 M298.677 471.456 C 297.255 472.879,298.315 473.200,304.428 473.200 C 310.450 473.200,310.456 473.199,310.328 472.300 C 310.199 471.393,299.514 470.619,298.677 471.456 " stroke="none" fill="#b1cceb" fill-rule="evenodd"></path><path id="path4" d="" stroke="none" fill="#00ffff" fill-rule="evenodd"></path></g></svg>