<svg id="svg" version="1.1" width="400" height="400" xmlns="http://www.w3.org/2000/svg" xmlns:xlink="http://www.w3.org/1999/xlink" style="display: block;"><g id="svgg"><path id="path0" d="M186.179 25.423 C 177.338 27.566,175.911 30.441,172.018 53.964 C 170.370 63.922,168.898 72.211,168.748 72.383 C 168.598 72.556,166.120 73.384,163.242 74.224 C 154.007 76.919,142.755 81.717,134.570 86.451 L 132.227 87.806 117.773 77.448 C 100.000 64.710,98.846 64.148,92.682 65.222 C 88.048 66.029,86.539 67.145,76.673 77.068 C 65.479 88.328,64.057 90.863,65.211 97.491 C 65.891 101.396,66.335 102.129,77.374 117.585 L 87.884 132.300 86.106 135.388 C 80.957 144.329,73.047 164.163,73.047 168.132 C 73.047 168.466,67.245 169.585,54.330 171.744 C 33.092 175.295,32.783 175.388,29.103 179.363 C 25.256 183.519,25.195 183.841,25.195 200.195 C 25.195 216.550,25.256 216.872,29.103 221.027 C 32.782 225.002,33.096 225.096,54.298 228.641 L 72.983 231.765 73.232 233.093 C 74.187 238.183,79.073 251.523,82.446 258.248 L 84.329 262.003 72.983 276.021 C 59.536 292.634,59.180 293.227,59.180 299.023 C 59.180 304.919,59.808 306.011,69.432 316.841 C 79.991 328.725,81.178 329.588,87.500 329.967 C 92.314 330.257,93.385 329.744,110.826 318.797 L 126.536 308.937 128.795 310.469 C 137.702 316.507,150.940 322.559,163.075 326.141 C 166.077 327.027,168.643 327.880,168.777 328.036 C 168.911 328.192,170.370 336.468,172.018 346.427 C 175.766 369.071,176.285 370.348,183.111 373.722 L 186.092 375.195 200.370 375.195 L 214.648 375.195 216.965 374.110 C 224.473 370.594,224.897 369.584,228.889 345.703 L 231.860 327.930 234.192 327.214 C 248.237 322.901,256.655 319.434,265.337 314.386 C 266.893 313.482,268.177 312.973,268.462 313.148 C 268.728 313.311,275.449 318.094,283.398 323.777 C 299.289 335.138,300.325 335.767,303.951 336.275 C 311.162 337.283,313.264 336.108,324.686 324.686 C 335.993 313.380,336.133 313.154,336.133 306.250 C 336.133 300.480,336.602 301.347,323.716 283.317 C 311.698 266.501,312.727 268.053,313.207 267.463 C 316.409 263.534,323.806 246.422,326.581 236.523 C 327.304 233.945,327.911 231.799,327.930 231.754 C 327.949 231.708,336.042 230.325,345.916 228.680 C 366.660 225.223,367.188 225.071,370.739 221.520 C 375.177 217.082,375.195 216.993,375.195 200.195 C 375.195 183.841,375.135 183.519,371.288 179.363 C 367.625 175.407,367.249 175.292,346.555 171.820 C 336.526 170.137,328.227 168.758,328.114 168.755 C 328.000 168.752,327.582 167.476,327.183 165.918 C 325.446 159.126,322.391 150.808,318.880 143.315 L 317.120 139.560 328.874 124.976 C 342.277 108.344,342.320 108.272,342.358 102.344 C 342.396 96.673,341.727 95.529,331.935 84.520 C 320.972 72.194,320.225 71.680,313.281 71.680 C 308.033 71.680,308.355 71.526,291.992 81.841 C 284.902 86.311,278.273 90.478,277.261 91.102 L 275.420 92.236 273.159 90.712 C 263.288 84.056,249.405 77.634,237.465 74.199 L 231.786 72.565 229.117 56.107 C 225.070 31.149,224.530 29.823,216.965 26.280 L 214.648 25.195 201.172 25.125 C 193.760 25.087,187.013 25.221,186.179 25.423 M207.601 135.173 C 261.546 141.353,285.318 206.278,247.891 245.210 C 208.634 286.046,140.449 261.694,135.561 205.091 C 132.110 165.118,167.676 130.599,207.601 135.173 " stroke="none" fill="#146bb7" fill-rule="evenodd"></path></g></svg>